<svg width="25" height="24" viewBox="0 0 25 24" fill="none" xmlns="http://www.w3.org/2000/svg">
  <path fill-rule="evenodd" clip-rule="evenodd" d="M22.1379 11.9946C22.1379 17.2941 17.7326 21.5902 12.2984 21.5902C6.86426 21.5902 2.45898 17.2941 2.45898 11.9946C2.45898 6.69505 6.86426 2.39893 12.2984 2.39893C17.7326 2.39893 22.1379 6.69505 22.1379 11.9946ZM16.5744 17.8608C15.3681 18.6986 13.8923 19.1913 12.2984 19.1913C8.2228 19.1913 4.91885 15.9692 4.91885 11.9946C4.91885 10.4402 5.42412 9.00101 6.28321 7.82454L16.5744 17.8608ZM18.3138 16.1644L8.02263 6.12828C9.22895 5.29054 10.7047 4.79784 12.2984 4.79784C16.3741 4.79784 19.678 8.01993 19.678 11.9946C19.678 13.5488 19.1728 14.988 18.3138 16.1644Z" fill="#EF4444"/>
</svg>
