<svg width="56" height="56" viewBox="0 0 56 56" fill="none" xmlns="http://www.w3.org/2000/svg">
  <path d="M8.4001 2.79999C6.8537 2.79999 5.6001 4.05359 5.6001 5.59999C5.6001 7.14638 6.8537 8.39999 8.4001 8.39999H11.8139L12.6695 11.8223C12.6785 11.8618 12.6883 11.9011 12.6989 11.94L16.4992 27.141L14 29.6402C10.4722 33.168 12.9707 39.2 17.9598 39.2H42C43.5464 39.2 44.8 37.9464 44.8 36.4C44.8 34.8536 43.5464 33.6 42 33.6L17.9598 33.6L20.7598 30.8H39.2001C40.2607 30.8 41.2302 30.2008 41.7045 29.2522L50.1045 12.4522C50.5385 11.5842 50.4921 10.5534 49.9819 9.72794C49.4717 8.90245 48.5705 8.39999 47.6001 8.39999H17.5863L16.7165 4.92089C16.4049 3.67442 15.2849 2.79999 14.0001 2.79999H8.4001Z" fill="#FF6600"/>
  <path d="M44.8001 46.2C44.8001 48.5196 42.9197 50.4 40.6001 50.4C38.2805 50.4 36.4001 48.5196 36.4001 46.2C36.4001 43.8804 38.2805 42 40.6001 42C42.9197 42 44.8001 43.8804 44.8001 46.2Z" fill="#FF6600"/>
  <path d="M18.2001 50.4C20.5197 50.4 22.4001 48.5196 22.4001 46.2C22.4001 43.8804 20.5197 42 18.2001 42C15.8805 42 14.0001 43.8804 14.0001 46.2C14.0001 48.5196 15.8805 50.4 18.2001 50.4Z" fill="#FF6600"/>
</svg>
