<svg width="16" height="16" viewBox="0 0 16 16" fill="none" xmlns="http://www.w3.org/2000/svg">
  <path fill-rule="evenodd" clip-rule="evenodd" d="M6.91501 2C6.35448 2 5.90009 2.4544 5.90009 3.01492V3.21336C5.90009 3.37265 5.93678 3.52338 6.00219 3.65754C5.19141 3.80537 4.47932 4.04882 3.99359 4.3879C3.49533 4.73632 3.05908 5.6595 2.72104 6.59902H1.35853C1.25027 6.59902 1.14847 6.65075 1.08072 6.73938C1.01261 6.82763 0.985365 6.9444 1.00759 7.05662L1.2094 8.09428C1.24382 8.27115 1.39079 8.39744 1.56034 8.39744H1.96397C1.57432 8.87443 1.38541 9.47504 1.3829 10.076C1.38039 10.8185 1.64601 11.4895 2.13173 11.9642C2.13419 11.9665 2.13665 11.9684 2.13908 11.9703C2.14195 11.9726 2.14478 11.9749 2.1475 11.9775V13.4294C2.1475 13.744 2.38839 14 2.6852 14H3.94197C4.23878 14 4.47967 13.744 4.47967 13.4294V12.8459H11.5202V13.4294C11.5202 13.744 11.7611 14 12.0579 14H13.3147C13.6108 14 13.8524 13.744 13.8524 13.4294V12.0061C14.3679 11.5051 14.6141 10.8159 14.6174 10.1278C14.6195 9.50623 14.422 8.88356 14.0094 8.39668H14.4399C14.6102 8.39668 14.7572 8.27039 14.7909 8.09314L14.993 7.05585C15.0138 6.9444 14.9877 6.82839 14.9196 6.73938C14.8511 6.65075 14.7489 6.59902 14.6417 6.59902H13.2792C12.943 5.65797 12.5049 4.73594 12.007 4.3879C11.5212 4.04874 10.8089 3.80525 9.99786 3.65743C10.0632 3.5233 10.0999 3.37261 10.0999 3.21336V3.01492C10.0999 2.4544 9.64552 2 9.08499 2H6.91501ZM11.4152 5.34074C10.043 4.38181 5.95689 4.38181 4.58398 5.34074C4.31728 5.52712 3.97423 6.27723 3.66058 7.19583H12.3393C12.025 6.27685 11.6819 5.52636 11.4152 5.34074ZM4.03374 9.09695C3.4498 9.09695 2.97591 9.59905 2.97591 10.2191C2.97591 10.8391 3.4498 11.3415 4.03374 11.3415C4.61839 11.3415 5.09156 10.8391 5.09156 10.2191C5.09156 9.59905 4.61839 9.09695 4.03374 9.09695ZM10.9223 10.2191C10.9223 10.8391 11.3962 11.3415 11.9802 11.3415C12.5641 11.3415 13.038 10.8391 13.038 10.2191C13.038 9.59905 12.5648 9.09695 11.9802 9.09695C11.3962 9.09695 10.9223 9.59905 10.9223 10.2191Z" fill="#1F2937"/>
</svg>
