<svg width="19" height="14" viewBox="0 0 19 14" fill="none" xmlns="http://www.w3.org/2000/svg">
  <path d="M17.0233 6.29135L0.85498 7.65726L2.14216 11.0823L2.14219 11.0823C2.38266 11.7634 2.89443 12.3924 3.6852 12.902C6.20854 14.5283 10.6162 14.3244 13.5299 12.4465C14.7147 11.683 15.47 10.7602 15.7796 9.82457H15.7796L17.0233 6.29135Z" fill="url(#paint0_linear_157_8862)"/>
  <path d="M2.14216 11.0823C2.18273 11.1972 2.2317 11.3104 2.28774 11.4221C3.5257 11.8173 5.26596 12.1113 7.5076 11.8778C12.5037 11.3575 13.1669 10.2983 13.1669 10.2983L1.92686 7.56668L0.85498 7.65726L2.14216 11.0823Z" fill="url(#paint1_linear_157_8862)"/>
  <path d="M14.3686 9.27321C17.8311 7.04161 18.2072 3.66587 15.2085 1.73324C12.2098 -0.199357 6.97197 0.0429782 3.50939 2.27458C0.0468204 4.50618 -0.329246 7.88195 2.66944 9.81455C5.66813 11.7472 10.906 11.5048 14.3686 9.27321Z" fill="url(#paint2_linear_157_8862)"/>
  <path d="M9.58134 0.388165L0.676968 6.12693C0.616816 6.71516 0.706921 7.29598 0.950765 7.84336L12.2445 0.564648C11.3953 0.407473 10.4941 0.349431 9.58134 0.388165Z" fill="#CC8241"/>
  <path d="M15.1982 1.67894C14.901 1.48738 14.5814 1.31757 14.244 1.16864L1.88745 9.13229C2.11853 9.34974 2.38203 9.5557 2.67928 9.74729C2.88054 9.87699 3.09226 9.99657 3.31251 10.1067L15.756 2.08708C15.585 1.94509 15.3995 1.80864 15.1982 1.67894Z" fill="#CC8241"/>
  <path d="M7.7236 11.0497L17.2192 4.92991C17.2161 4.37123 17.0745 3.82451 16.7922 3.31226L5.21362 10.7746C6.00844 10.9565 6.85679 11.0478 7.7236 11.0497Z" fill="#CC8241"/>
  <path d="M6.72241 0.827019L16.5205 7.14177C16.8915 6.56833 17.1159 5.97527 17.191 5.38821L9.44326 0.394897C8.53236 0.443286 7.61215 0.587863 6.72241 0.827019Z" fill="#CC8241"/>
  <path d="M4.5721 1.6268C4.20662 1.80552 3.854 2.00292 3.51826 2.21931C3.27846 2.37386 3.05405 2.53406 2.84399 2.69876L13.6161 9.64123C13.8716 9.50584 14.1202 9.36123 14.36 9.20668C14.6957 8.99033 15.002 8.76306 15.2794 8.52748L4.5721 1.6268Z" fill="#CC8241"/>
  <path d="M0.74292 5.71609L8.93461 10.9955C9.8132 10.9152 10.6937 10.7458 11.5405 10.4893L1.52838 4.03662C1.13048 4.58239 0.867584 5.14983 0.74292 5.71609Z" fill="#CC8241"/>
  <path d="M2.72412 4.54381L7.60666 1.39706L9.07513 2.34348L4.1926 5.49023L2.72412 4.54381Z" fill="url(#paint3_linear_157_8862)"/>
  <path d="M7.15262 5.47571L1.72607 8.97302C1.99323 9.24973 2.31076 9.50945 2.67972 9.74728C2.81124 9.832 2.9473 9.91234 3.08708 9.98875L8.62113 6.42213L7.15262 5.47571Z" fill="url(#paint4_linear_157_8862)"/>
  <path d="M15.1986 1.67885C14.8296 1.44107 14.4266 1.23641 13.9973 1.06424L9.05273 4.25097L10.5212 5.19739L15.5733 1.94139C15.4548 1.85129 15.3301 1.76358 15.1986 1.67885Z" fill="url(#paint5_linear_157_8862)"/>
  <path d="M8.59814 8.32963L13.4807 5.18289L14.9492 6.12931L10.0666 9.27605L8.59814 8.32963Z" fill="url(#paint6_linear_157_8862)"/>
  <path d="M7.3259 11.0425L8.16652 10.5007L6.69801 9.55432L4.91699 10.7021C5.67588 10.9011 6.48967 11.0139 7.3259 11.0425Z" fill="url(#paint7_linear_157_8862)"/>
  <path d="M16.8513 4.90353L17.2082 4.67351C17.1639 4.13461 16.9888 3.61011 16.6801 3.121L15.3828 3.95711L16.8513 4.90353Z" fill="url(#paint8_linear_157_8862)"/>
  <path d="M10.9754 1.11888L11.9201 0.510039C11.2453 0.406512 10.5419 0.363539 9.8291 0.3801L10.9754 1.11888Z" fill="url(#paint9_linear_157_8862)"/>
  <path d="M0.832512 5.77393L0.71625 5.84841C0.605332 6.45686 0.654446 7.06162 0.865981 7.63447L2.29266 6.71497L0.832512 5.77393Z" fill="url(#paint10_linear_157_8862)"/>
  <path d="M17.2139 5.1395L14.117 3.14365L12.4214 4.23649L16.6368 6.95327C16.9867 6.35718 17.1801 5.74324 17.2139 5.1395Z" fill="url(#paint11_linear_157_8862)"/>
  <path d="M7.01514 0.752291L10.7485 3.15841L12.4442 2.06557L9.82943 0.380371C8.89269 0.402152 7.94003 0.526753 7.01514 0.752291Z" fill="url(#paint12_linear_157_8862)"/>
  <path d="M13.6625 7.22214L11.9668 8.31498L13.8376 9.52069C14.0156 9.42081 14.1899 9.3163 14.3598 9.20681C14.7671 8.9443 15.1311 8.66575 15.4524 8.37573L13.6625 7.22214Z" fill="url(#paint13_linear_157_8862)"/>
  <path d="M6.09277 4.52927L7.77711 3.44373L11.9895 6.14394L10.2938 7.23678L6.09277 4.52927Z" fill="url(#paint14_linear_157_8862)"/>
  <path d="M3.03125 2.55594L4.42006 3.45103L6.11575 2.35819L4.8078 1.51526C4.3578 1.72231 3.92562 1.95692 3.51827 2.21942C3.34839 2.32892 3.18622 2.44127 3.03125 2.55594Z" fill="url(#paint15_linear_157_8862)"/>
  <path d="M11.815 10.4027L7.33436 7.51495L5.63867 8.6078L9.28596 10.9584C10.1426 10.857 10.9966 10.6712 11.815 10.4027Z" fill="url(#paint16_linear_157_8862)"/>
  <path d="M0.797852 5.49895L3.94609 7.54226L5.66137 6.43678L1.66273 3.85971C1.24374 4.3901 0.954648 4.94368 0.797852 5.49895Z" fill="url(#paint17_linear_157_8862)"/>
  <path d="M17.5958 3.65369C17.5926 3.04147 17.2045 2.49107 16.5186 2.12562C16.2187 1.57133 15.5658 1.15051 14.7057 0.957274C14.1387 0.515145 13.2847 0.265119 12.3348 0.262999C11.556 -0.0236425 10.5846 -0.078467 9.63776 0.11077C8.72353 0.00763546 7.72973 0.153429 6.8787 0.515459C5.91848 0.605957 4.9996 0.938044 4.32766 1.43747C3.41542 1.71273 2.66146 2.19866 2.23439 2.78658C1.45947 3.21964 0.944186 3.81184 0.803737 4.43069C0.24194 4.97917 0.0157448 5.61964 0.175776 6.20889C-0.117849 6.81911 -0.0327708 7.44518 0.411991 7.94707C0.41526 8.55929 0.80328 9.10965 1.48925 9.47514C1.7891 10.0294 2.44205 10.4502 3.30208 10.6435C3.86915 11.0856 4.72313 11.3356 5.67305 11.3378C6.4518 11.6244 7.42327 11.6792 8.37006 11.49C9.2843 11.5931 10.2781 11.4474 11.1291 11.0853C12.0893 10.9948 13.0082 10.6627 13.6802 10.1633C14.5924 9.88807 15.3464 9.4021 15.7734 8.81418C16.5484 8.38112 17.0637 7.78892 17.2041 7.17007C17.7658 6.62159 17.992 5.98112 17.832 5.39186C18.1256 4.78169 18.0406 4.15558 17.5958 3.65369ZM16.1255 6.79701C15.5524 7.21783 15.1263 7.70749 14.883 8.22488C14.1598 8.52856 13.5363 8.93038 13.0651 9.39653C12.2624 9.55335 11.5026 9.82798 10.8496 10.1973C10.046 10.1919 9.22426 10.3124 8.45349 10.5488C7.72769 10.3817 6.9244 10.3364 6.11121 10.4166C5.53422 10.1041 4.82807 9.89737 4.0521 9.81362C3.68047 9.38644 3.1405 9.03846 2.47774 8.79895C2.3478 8.29886 2.02696 7.84374 1.54219 7.4719C1.66668 6.94783 1.59633 6.43012 1.33706 5.96232C1.70377 5.46556 1.8908 4.93596 1.8824 4.41805C2.45545 3.99723 2.88154 3.50758 3.12486 2.99018C3.84816 2.6865 4.47162 2.28468 4.94279 1.81853C5.74554 1.66171 6.50534 1.38712 7.15826 1.01779C7.9619 1.0232 8.78368 0.902646 9.55444 0.666315C10.2802 0.833418 11.0835 0.878745 11.8967 0.79853C12.4737 1.11096 13.1798 1.31773 13.9558 1.40148C14.3274 1.82866 14.8674 2.17664 15.5302 2.41615C15.6601 2.91624 15.9809 3.37136 16.4657 3.7432C16.3413 4.26727 16.4116 4.78499 16.6708 5.25274V5.25278C16.3041 5.74946 16.1171 6.2791 16.1255 6.79701Z" fill="url(#paint18_linear_157_8862)"/>
  <defs>
    <linearGradient id="paint0_linear_157_8862" x1="4.01655" y1="10.1457" x2="13.186" y2="10.1457" gradientUnits="userSpaceOnUse">
      <stop stop-color="#CC8241"/>
      <stop offset="0.3808" stop-color="#D18D4A"/>
      <stop offset="1" stop-color="#DEA861"/>
    </linearGradient>
    <linearGradient id="paint1_linear_157_8862" x1="6.40657" y1="10.3579" x2="5.05929" y2="12.8269" gradientUnits="userSpaceOnUse">
      <stop stop-color="#8B451C"/>
      <stop offset="1" stop-color="#8B451C" stop-opacity="0"/>
    </linearGradient>
    <linearGradient id="paint2_linear_157_8862" x1="13.0686" y1="8.43538" x2="-2.91523" y2="0.168475" gradientUnits="userSpaceOnUse">
      <stop stop-color="#5E2F13"/>
      <stop offset="0.0293" stop-color="#603013"/>
      <stop offset="0.3853" stop-color="#783C18"/>
      <stop offset="0.7174" stop-color="#86431B"/>
      <stop offset="1" stop-color="#8B451C"/>
    </linearGradient>
    <linearGradient id="paint3_linear_157_8862" x1="4.67898" y1="5.80371" x2="7.54475" y2="1.35715" gradientUnits="userSpaceOnUse">
      <stop stop-color="#EFA95C"/>
      <stop offset="0.0909" stop-color="#F0AF67"/>
      <stop offset="0.2511" stop-color="#F3BF85"/>
      <stop offset="0.4604" stop-color="#F8D8B4"/>
      <stop offset="0.5" stop-color="#F9DDBE"/>
      <stop offset="1" stop-color="#EFA95C"/>
    </linearGradient>
    <linearGradient id="paint4_linear_157_8862" x1="8.14206" y1="5.62986" x2="3.096" y2="8.45059" gradientUnits="userSpaceOnUse">
      <stop stop-color="#EFA95C"/>
      <stop offset="0.1818" stop-color="#F0AF67"/>
      <stop offset="0.5022" stop-color="#F3BF85"/>
      <stop offset="0.9207" stop-color="#F8D8B4"/>
      <stop offset="1" stop-color="#F9DDBE"/>
    </linearGradient>
    <linearGradient id="paint5_linear_157_8862" x1="9.05273" y1="3.13082" x2="15.5733" y2="3.13082" gradientUnits="userSpaceOnUse">
      <stop stop-color="#EFA95C"/>
      <stop offset="0.1818" stop-color="#F0AF67"/>
      <stop offset="0.5022" stop-color="#F3BF85"/>
      <stop offset="0.9207" stop-color="#F8D8B4"/>
      <stop offset="1" stop-color="#F9DDBE"/>
    </linearGradient>
    <linearGradient id="paint6_linear_157_8862" x1="10.6461" y1="9.40953" x2="13.3073" y2="5.28036" gradientUnits="userSpaceOnUse">
      <stop stop-color="#EFA95C"/>
      <stop offset="0.0909" stop-color="#F0AF67"/>
      <stop offset="0.2511" stop-color="#F3BF85"/>
      <stop offset="0.4604" stop-color="#F8D8B4"/>
      <stop offset="0.5" stop-color="#F9DDBE"/>
      <stop offset="1" stop-color="#EFA95C"/>
    </linearGradient>
    <linearGradient id="paint7_linear_157_8862" x1="7.6698" y1="9.87444" x2="5.55667" y2="10.9674" gradientUnits="userSpaceOnUse">
      <stop stop-color="#EFA95C"/>
      <stop offset="0.1818" stop-color="#F0AF67"/>
      <stop offset="0.5022" stop-color="#F3BF85"/>
      <stop offset="0.9207" stop-color="#F8D8B4"/>
      <stop offset="1" stop-color="#F9DDBE"/>
    </linearGradient>
    <linearGradient id="paint8_linear_157_8862" x1="15.8294" y1="4.62673" x2="16.9908" y2="4.00397" gradientUnits="userSpaceOnUse">
      <stop stop-color="#EFA95C"/>
      <stop offset="0.1818" stop-color="#F0AF67"/>
      <stop offset="0.5022" stop-color="#F3BF85"/>
      <stop offset="0.9207" stop-color="#F8D8B4"/>
      <stop offset="1" stop-color="#F9DDBE"/>
    </linearGradient>
    <linearGradient id="paint9_linear_157_8862" x1="10.1169" y1="0.969121" x2="11.7855" y2="0.0430126" gradientUnits="userSpaceOnUse">
      <stop stop-color="#EFA95C"/>
      <stop offset="0.1818" stop-color="#F0AF67"/>
      <stop offset="0.5022" stop-color="#F3BF85"/>
      <stop offset="0.9207" stop-color="#F8D8B4"/>
      <stop offset="1" stop-color="#F9DDBE"/>
    </linearGradient>
    <linearGradient id="paint10_linear_157_8862" x1="1.84642" y1="6.06469" x2="0.571946" y2="6.7206" gradientUnits="userSpaceOnUse">
      <stop stop-color="#EFA95C"/>
      <stop offset="0.1818" stop-color="#F0AF67"/>
      <stop offset="0.5022" stop-color="#F3BF85"/>
      <stop offset="0.9207" stop-color="#F8D8B4"/>
      <stop offset="1" stop-color="#F9DDBE"/>
    </linearGradient>
    <linearGradient id="paint11_linear_157_8862" x1="13.6421" y1="3.39807" x2="16.835" y2="6.20979" gradientUnits="userSpaceOnUse">
      <stop stop-color="#EFA95C"/>
      <stop offset="0.085" stop-color="#F0AF67"/>
      <stop offset="0.2348" stop-color="#F3BF85"/>
      <stop offset="0.4305" stop-color="#F8D8B4"/>
      <stop offset="0.4675" stop-color="#F9DDBE"/>
      <stop offset="1" stop-color="#EFA95C"/>
    </linearGradient>
    <linearGradient id="paint12_linear_157_8862" x1="10.4935" y1="3.6038" x2="8.7797" y2="-0.348302" gradientUnits="userSpaceOnUse">
      <stop stop-color="#EFA95C"/>
      <stop offset="0.085" stop-color="#F0AF67"/>
      <stop offset="0.2348" stop-color="#F3BF85"/>
      <stop offset="0.4305" stop-color="#F8D8B4"/>
      <stop offset="0.4675" stop-color="#F9DDBE"/>
      <stop offset="1" stop-color="#EFA95C"/>
    </linearGradient>
    <linearGradient id="paint13_linear_157_8862" x1="12.8593" y1="7.7437" x2="14.9078" y2="8.90696" gradientUnits="userSpaceOnUse">
      <stop stop-color="#EFA95C"/>
      <stop offset="0.1818" stop-color="#F0AF67"/>
      <stop offset="0.5022" stop-color="#F3BF85"/>
      <stop offset="0.9207" stop-color="#F8D8B4"/>
      <stop offset="1" stop-color="#F9DDBE"/>
    </linearGradient>
    <linearGradient id="paint14_linear_157_8862" x1="8.17304" y1="3.65824" x2="10.1412" y2="6.71214" gradientUnits="userSpaceOnUse">
      <stop stop-color="#EFA95C"/>
      <stop offset="0.085" stop-color="#F0AF67"/>
      <stop offset="0.2348" stop-color="#F3BF85"/>
      <stop offset="0.4305" stop-color="#F8D8B4"/>
      <stop offset="0.4675" stop-color="#F9DDBE"/>
      <stop offset="1" stop-color="#EFA95C"/>
    </linearGradient>
    <linearGradient id="paint15_linear_157_8862" x1="5.6918" y1="3.17781" x2="0.846842" y2="0.671989" gradientUnits="userSpaceOnUse">
      <stop stop-color="#EFA95C"/>
      <stop offset="1" stop-color="#F9DDBE"/>
    </linearGradient>
    <linearGradient id="paint16_linear_157_8862" x1="7.76401" y1="7.64364" x2="10.0275" y2="11.1556" gradientUnits="userSpaceOnUse">
      <stop stop-color="#EFA95C"/>
      <stop offset="0.085" stop-color="#F0AF67"/>
      <stop offset="0.2348" stop-color="#F3BF85"/>
      <stop offset="0.4305" stop-color="#F8D8B4"/>
      <stop offset="0.4675" stop-color="#F9DDBE"/>
      <stop offset="1" stop-color="#EFA95C"/>
    </linearGradient>
    <linearGradient id="paint17_linear_157_8862" x1="5.07352" y1="7.16339" x2="1.10766" y2="5.11224" gradientUnits="userSpaceOnUse">
      <stop stop-color="#EFA95C"/>
      <stop offset="0.085" stop-color="#F0AF67"/>
      <stop offset="0.2348" stop-color="#F3BF85"/>
      <stop offset="0.4305" stop-color="#F8D8B4"/>
      <stop offset="0.4675" stop-color="#F9DDBE"/>
      <stop offset="1" stop-color="#EFA95C"/>
    </linearGradient>
    <linearGradient id="paint18_linear_157_8862" x1="2.20805" y1="1.42056" x2="20.2486" y2="10.7512" gradientUnits="userSpaceOnUse">
      <stop stop-color="#EFA95C"/>
      <stop offset="0.1818" stop-color="#F0AF67"/>
      <stop offset="0.5022" stop-color="#F3BF85"/>
      <stop offset="0.9207" stop-color="#F8D8B4"/>
      <stop offset="1" stop-color="#F9DDBE"/>
    </linearGradient>
  </defs>
</svg>
