<svg width="20" height="14" viewBox="0 0 20 14" fill="none" xmlns="http://www.w3.org/2000/svg">
  <path d="M19.9993 6.32982L19.9999 6.32978V5.66174L0.000488281 7.65918L0.000839844 8.32307C0.0119727 9.84155 0.814513 11.2896 2.44108 12.3735C6.05659 14.7828 12.3719 14.4807 16.5467 11.6987C18.8514 10.1628 20.0214 8.19236 19.9993 6.32982Z" fill="url(#paint0_linear_157_11299)"/>
  <path d="M16.5464 11.0261C12.3716 13.8081 6.05631 14.1103 2.44084 11.701C-1.17468 9.2917 -0.721238 5.08335 3.45357 2.30138C7.62838 -0.480641 13.9437 -0.782761 17.5592 1.62653C21.1747 4.03578 20.7213 8.24413 16.5464 11.0261Z" fill="url(#paint1_linear_157_11299)"/>
  <path d="M15.3388 10.2216C11.934 12.4905 6.78354 12.7369 3.83487 10.772C0.886228 8.8071 1.25603 5.37499 4.6608 3.1061C8.06561 0.8372 13.2161 0.590807 16.1647 2.55569C19.1134 4.52062 18.7436 7.95277 15.3388 10.2216Z" fill="url(#paint2_linear_157_11299)"/>
  <path d="M17.1667 4.89989C17.1667 4.89989 17.3442 5.31779 17.2894 5.53109C17.2346 5.74439 17.0372 5.91049 17.0372 5.91049C17.0372 5.91049 17.0153 6.5223 16.7741 7.09498C16.5329 7.66766 16.3276 7.89931 15.9424 8.05553C15.5573 8.21175 15.4635 8.21288 15.4635 8.21288L14.7202 8.48425C14.7202 8.48425 14.4208 9.29796 13.7831 9.8114C13.1454 10.3248 12.3177 10.6665 12.3177 10.6665C12.3177 10.6665 11.6106 10.9659 11.1995 11.0187C10.7884 11.0714 10.4157 11.0568 10.4157 11.0568C10.4157 11.0568 9.02722 11.5649 8.29628 11.5775C7.56538 11.5902 6.69932 11.1665 6.69932 11.1665C6.69932 11.1665 5.35139 11.2219 4.58373 10.6026C3.81612 9.98326 3.6378 9.09075 3.6378 9.09075C3.6378 9.09075 2.67361 7.2833 2.85022 6.59611C3.02682 5.90891 3.86319 5.07802 4.64928 5.04646C5.43542 5.0149 14.4066 2.47739 14.4066 2.47739C14.4066 2.47739 15.4358 2.52098 15.916 2.95295C16.3962 3.38483 17.1667 4.89989 17.1667 4.89989Z" fill="url(#paint3_linear_157_11299)"/>
  <path d="M16.431 3.74567C16.3803 3.74567 16.3307 3.71677 16.3013 3.66388C15.4837 2.19012 13.4278 2.70937 13.4071 2.71474C13.3243 2.73647 13.2419 2.6766 13.2231 2.58106C13.2043 2.48552 13.256 2.39048 13.3387 2.36861C13.4317 2.34409 15.6257 1.78764 16.5604 3.47245C16.6062 3.555 16.5853 3.66479 16.5138 3.71767C16.4881 3.73656 16.4594 3.74567 16.431 3.74567Z" fill="#FFA538"/>
  <path d="M14.9135 8.04485C14.8288 8.04485 14.7601 7.96586 14.7598 7.86807C14.7595 7.7701 14.828 7.6903 14.9129 7.68985C15.2741 7.68795 16.2692 7.56933 16.532 7.04958C16.8561 6.40869 16.5251 5.41811 16.5217 5.40819C16.4907 5.31698 16.5296 5.21392 16.6086 5.17807C16.6875 5.14219 16.7769 5.18709 16.808 5.27834C16.824 5.32541 17.1961 6.44066 16.7977 7.22853C16.3925 8.02961 14.9743 8.04458 14.9141 8.04481C14.9139 8.04485 14.9137 8.04485 14.9135 8.04485Z" fill="#FFA538"/>
  <path d="M12.273 10.4523C11.9163 10.4523 11.6866 10.3568 11.6668 10.3482C11.5873 10.3139 11.5469 10.2116 11.5767 10.1198C11.6064 10.028 11.6949 9.98132 11.7746 10.0157C11.8104 10.0308 12.6769 10.3808 13.6918 9.51477C14.3792 8.92834 14.3522 7.8251 14.3519 7.814C14.3488 7.71603 14.4151 7.63371 14.4999 7.63014C14.5847 7.62586 14.6561 7.70305 14.6593 7.80102C14.6609 7.85386 14.691 9.10373 13.8747 9.80021C13.2577 10.3266 12.682 10.4522 12.273 10.4523Z" fill="#FFA538"/>
  <path d="M3.23377 8.3259C3.19185 8.3259 3.15013 8.30624 3.11982 8.26751C2.81771 7.88194 2.38306 6.92405 2.90021 6.05849C3.51736 5.02558 4.86756 4.83275 4.92471 4.82504C5.0094 4.81367 5.08545 4.88338 5.09529 4.98076C5.10514 5.0781 5.04482 5.1662 4.96049 5.17761C4.94713 5.17945 3.6906 5.36092 3.15342 6.26002C2.64615 7.10903 3.31928 7.99249 3.34818 8.02969C3.40482 8.10254 3.39974 8.21472 3.33674 8.28023C3.30724 8.31084 3.27045 8.3259 3.23377 8.3259Z" fill="#FFA538"/>
  <path d="M6.36892 11.2316C6.14361 11.2316 5.90889 11.2096 5.66865 11.1573C4.12588 10.8211 3.92904 9.32042 3.92724 9.30532C3.91564 9.2082 3.97443 9.11862 4.05857 9.10523C4.14228 9.09188 4.22005 9.15942 4.23189 9.25622C4.23857 9.30897 4.40677 10.5211 5.72576 10.8084C7.10576 11.1091 8.33428 10.3045 8.34658 10.2963C8.42006 10.2472 8.5142 10.2764 8.55666 10.3613C8.59912 10.4462 8.57393 10.5547 8.50037 10.6037C8.45494 10.634 7.54197 11.2316 6.36892 11.2316Z" fill="#FFA538"/>
  <path d="M8.44803 11.4598C7.29202 11.4598 6.80081 10.9152 6.77163 10.8815C6.71155 10.8122 6.71155 10.6998 6.77159 10.6305C6.83143 10.5615 6.92827 10.5612 6.98834 10.6296C7.00272 10.6454 7.95628 11.6589 10.4153 10.6634C10.4956 10.6309 10.5832 10.6796 10.6114 10.7722C10.6395 10.8647 10.5973 10.9659 10.5172 10.9984C9.66952 11.3416 8.98663 11.4598 8.44803 11.4598Z" fill="#FFA538"/>
  <path d="M4.54751 9.68375C4.54751 9.68375 4.91294 10.6792 5.89958 10.8563C6.88622 11.0334 7.56591 10.7298 7.56591 10.7298C7.56591 10.7298 8.48825 11.16 10.0004 11.0335C11.5125 10.907 13.1569 10.0465 13.6831 9.43916C14.2094 8.83181 14.297 8.35097 14.297 8.35097C14.297 8.35097 15.5687 7.94606 16.1826 7.23749C16.7965 6.52892 16.4896 5.66174 16.4896 5.66174C16.4896 5.66174 17.6517 4.7828 16.8404 3.79587C16.0292 2.8089 14.4578 2.73302 14.4578 2.73302C14.4578 2.73302 13.7069 1.51832 11.9291 1.49302C9.95579 1.46493 8.8595 2.35344 8.8595 2.35344C8.8595 2.35344 7.06161 2.65714 5.85571 3.6947C4.64981 4.73225 4.51825 5.46611 4.51825 5.46611C4.51825 5.46611 3.13379 5.87446 2.78614 7.3135C2.40981 8.87122 4.54751 9.68375 4.54751 9.68375Z" fill="#E37A34"/>
  <path d="M7.61606 11.344C7.53485 11.344 7.46696 11.2706 7.46262 11.1759C7.45813 11.078 7.52325 10.9944 7.60809 10.9893C9.10305 10.8981 10.0402 10.3263 10.0494 10.3205C10.1242 10.2742 10.2174 10.3063 10.2577 10.3926C10.298 10.4788 10.2702 10.5863 10.1956 10.6329C10.1554 10.658 9.19321 11.2481 7.6243 11.3438C7.62153 11.344 7.61879 11.344 7.61606 11.344Z" fill="#FFA538"/>
  <path d="M16.7741 5.96766C16.7274 5.96766 16.6812 5.94318 16.651 5.89678C16.6 5.81842 16.6137 5.70715 16.6816 5.64827C16.684 5.6462 16.966 5.39363 17.0079 5.01152C17.034 4.77329 16.9615 4.52681 16.7923 4.27893C16.2038 3.41635 15.0855 3.38961 15.0742 3.38943C14.9894 3.38812 14.9214 3.30778 14.9224 3.20985C14.9234 3.11197 14.995 3.03226 15.0776 3.03447C15.1294 3.0351 16.3531 3.06134 17.0339 4.05931C17.2569 4.38614 17.3506 4.72293 17.3125 5.06044C17.2524 5.59173 16.8821 5.91842 16.8663 5.93208C16.8387 5.95607 16.8062 5.96766 16.7741 5.96766Z" fill="#FFA538"/>
  <path d="M9.21012 10.3283C7.97512 10.3283 6.79532 10.0408 5.91512 9.45422C5.03848 8.87005 4.55566 8.05364 4.55566 7.15539C4.55566 6.08316 5.24512 5.00881 6.44727 4.20773C8.67985 2.71999 12.0738 2.56093 14.0129 3.85313C14.8896 4.43731 15.3724 5.25372 15.3724 6.15196C15.3724 7.22419 14.6829 8.29859 13.4808 9.09962C12.2616 9.91202 10.6959 10.3283 9.21012 10.3283ZM10.7177 3.32847C9.2879 3.32847 7.77817 3.73068 6.60102 4.51512C5.4966 5.25106 4.8632 6.21341 4.8632 7.15535C4.8632 7.92144 5.29141 8.6287 6.06887 9.14678C7.92305 10.3824 11.1791 10.2232 13.327 8.79218C14.4313 8.05625 15.0648 7.09389 15.0648 6.15192C15.0648 5.38582 14.6366 4.6786 13.8591 4.16052C13.0211 3.60214 11.8965 3.32847 10.7177 3.32847ZM13.4039 8.94588H13.4045H13.4039Z" fill="#FFA538"/>
  <path d="M8.39811 10.7061C7.16307 10.7061 5.9833 10.4186 5.10307 9.83203C4.22643 9.24786 3.74365 8.43144 3.74365 7.5332C3.74365 6.46097 4.43311 5.38662 5.63522 4.58554C7.8678 3.0978 11.2618 2.93873 13.2009 4.23094C14.0775 4.81511 14.5603 5.63153 14.5603 6.52977C14.5603 7.602 13.8709 8.67635 12.6687 9.47743C11.4496 10.2898 9.8839 10.7061 8.39811 10.7061ZM9.90565 3.70627C8.47589 3.70627 6.96616 4.10848 5.78897 4.89293C4.68459 5.62887 4.05119 6.59122 4.05119 7.53315C4.05119 8.29925 4.47936 9.00647 5.25682 9.52459C7.1112 10.7603 10.3672 10.6012 12.5149 9.16999C13.6193 8.43406 14.2527 7.4717 14.2527 6.52977C14.2527 5.76367 13.8245 5.05641 13.0471 4.53833C12.2091 3.9799 11.0845 3.70627 9.90565 3.70627Z" fill="#FFA538"/>
  <path d="M8.78731 10.3384C7.55227 10.3384 6.3725 10.0509 5.49227 9.4644C4.61563 8.88023 4.13281 8.06381 4.13281 7.16557C4.13281 6.09334 4.82227 5.01895 6.02442 4.21791C8.25696 2.73017 11.6509 2.57106 13.5901 3.86331C14.4667 4.44749 14.9495 5.2639 14.9495 6.16214C14.9495 7.23437 14.2601 8.30877 13.0579 9.1098C11.8388 9.9222 10.2731 10.3384 8.78731 10.3384ZM10.2949 3.33865C8.86508 3.33865 7.35536 3.74086 6.17817 4.5253C5.07379 5.26124 4.44035 6.22359 4.44035 7.16557C4.44035 7.93162 4.86856 8.63888 5.64602 9.15696C7.5004 10.3926 10.7564 10.2336 12.9041 8.80236C14.0085 8.06643 14.6419 7.10407 14.6419 6.1621C14.6419 5.396 14.2137 4.68878 13.4363 4.1707C12.5983 3.61232 11.4737 3.33865 10.2949 3.33865Z" fill="#FFA538"/>
  <path d="M9.21012 9.62344C7.97512 9.62344 6.79532 9.33593 5.91512 8.74941C5.03848 8.16523 4.55566 7.34882 4.55566 6.45057C4.55566 5.37835 5.24512 4.30395 6.44727 3.50291C8.67973 2.01517 12.0737 1.85607 14.0129 3.14831C14.8896 3.73249 15.3724 4.5489 15.3724 5.44715C15.3724 6.51938 14.6829 7.59377 13.4808 8.39485C12.2616 9.20721 10.6959 9.62344 9.21012 9.62344ZM10.7177 2.62361C9.2879 2.62361 7.77821 3.02582 6.60102 3.81026C5.4966 4.5462 4.8632 5.50855 4.8632 6.45048C4.8632 7.21658 5.29141 7.9238 6.06887 8.44192C7.92309 9.6775 11.1792 9.5183 13.327 8.08732C14.4314 7.35134 15.0648 6.38903 15.0648 5.44706C15.0648 4.68096 14.6366 3.97374 13.8591 3.45566C13.0211 2.89728 11.8965 2.62361 10.7177 2.62361ZM13.4039 8.24107H13.4045H13.4039Z" fill="#FFA538"/>
  <path d="M10.2541 8.6315C8.80303 8.6315 7.32232 8.26054 6.24287 7.54124C5.27201 6.89426 4.7563 6.06166 4.79068 5.19669C4.82505 4.33136 5.40509 3.55624 6.42396 3.01413C8.45338 1.93419 11.6787 2.10457 13.6135 3.39389C14.5843 4.04082 15.1001 4.87347 15.0657 5.73839C15.0313 6.60372 14.4513 7.37884 13.4324 7.92095C12.5352 8.39841 11.4038 8.6315 10.2541 8.6315ZM9.60615 2.65394C8.50127 2.65394 7.4149 2.87779 6.55271 3.33654C5.64341 3.82035 5.12677 4.48677 5.0979 5.21296C5.06908 5.9388 5.53029 6.65647 6.39666 7.2338C8.25541 8.47239 11.3539 8.63601 13.3037 7.59863L13.368 7.75981L13.3037 7.59863C14.213 7.11482 14.7296 6.4484 14.7585 5.72216C14.7873 4.99633 14.326 4.27865 13.4597 3.70133C12.4229 3.01043 10.9999 2.65394 9.60615 2.65394Z" fill="#FFA538"/>
  <path d="M8.39942 9.86364C8.28618 9.86364 8.17884 9.85039 8.07829 9.82257C7.70446 9.71914 7.40036 9.48938 7.18255 9.15368C6.75547 8.9934 6.4177 8.75701 6.2202 8.43704C6.08864 8.22387 5.98809 7.99831 5.91938 7.76553C5.55653 7.74141 5.31235 7.70967 5.25372 7.7016C5.06325 7.69876 4.21989 7.65832 4.01879 7.17274C3.9293 6.95656 3.97899 6.70849 4.16641 6.43546C4.3634 6.14857 4.78555 5.89785 5.32243 5.68509C5.3875 5.44438 5.57555 5.18036 5.99891 4.93604C6.38266 4.71458 6.85016 4.51963 7.36415 4.35312C7.59661 4.18685 7.86329 4.02436 8.16919 3.8694C9.78122 3.05249 11.1838 2.85637 12.1185 3.31723C12.3195 3.41638 12.4964 3.54347 12.6485 3.69776C13.1916 3.75019 13.6095 3.86002 13.8234 4.03126C14.1876 4.32283 14.3714 4.91381 14.3151 5.61205C14.2384 6.56237 13.6681 7.92026 12.3135 8.61963C11.6092 8.98325 10.7469 9.23379 9.88966 9.34741C9.35552 9.66707 8.83513 9.8636 8.39942 9.86364ZM7.80446 9.32374C7.90462 9.38848 8.01911 9.44114 8.15001 9.47735C8.37454 9.53947 8.64677 9.51229 8.94587 9.41603C8.54431 9.42009 8.15751 9.39033 7.80446 9.32374ZM7.377 8.85607C8.01759 9.07171 8.88602 9.12473 9.7879 9.01283C10.2383 8.73677 10.7048 8.36544 11.1351 7.94953C11.0199 7.9695 10.9059 7.98758 10.7938 8.00399C9.80497 8.14858 8.68481 8.03438 7.71469 7.758C7.50731 7.77468 7.30481 7.78478 7.11051 7.78992C7.11676 7.94587 7.13368 8.09867 7.16216 8.24466C7.20012 8.43934 7.26544 8.65643 7.377 8.85607ZM11.7118 7.83379C11.3632 8.21057 10.9764 8.56697 10.5806 8.87284C11.1407 8.74398 11.6917 8.55174 12.1879 8.29556C12.8265 7.96594 13.2733 7.47883 13.5655 6.96706C13.205 7.38456 12.4781 7.65669 11.7118 7.83379ZM6.25434 7.78347C6.30993 7.93762 6.38219 8.08753 6.47075 8.23109C6.57751 8.40404 6.74247 8.55034 6.95294 8.66995C6.9163 8.56062 6.88594 8.44475 6.86212 8.3227C6.82883 8.15228 6.8093 7.97473 6.80255 7.79425C6.60661 7.79479 6.42278 7.79028 6.25434 7.78347ZM8.73165 7.62094C9.39888 7.72509 10.0997 7.74768 10.7551 7.65182C11.0397 7.61017 11.2986 7.56305 11.5335 7.51174C11.3581 7.53302 11.1696 7.54623 10.9668 7.54984C10.4794 7.55845 10.0045 7.5043 9.56255 7.40426C9.29235 7.49488 9.01267 7.56589 8.73165 7.62094ZM6.15563 7.4199C6.35001 7.42887 6.56891 7.43474 6.80544 7.43397C6.80551 7.43311 6.80551 7.43226 6.80559 7.4314C6.55133 7.31814 6.31954 7.1929 6.11793 7.05845C6.12086 7.17969 6.13344 7.30052 6.15563 7.4199ZM5.31102 6.06904C4.87875 6.24745 4.55211 6.44537 4.40754 6.65597C4.33305 6.76445 4.25332 6.91557 4.29633 7.01959C4.38692 7.23861 4.91746 7.34272 5.26528 7.34673C5.27098 7.34682 5.27676 7.34723 5.28246 7.34804C5.2911 7.34925 5.50082 7.37761 5.83879 7.40146C5.81055 7.21264 5.80247 7.02112 5.81508 6.8295C5.56188 6.61025 5.38911 6.37301 5.32442 6.1272C5.31942 6.10831 5.31493 6.08893 5.31102 6.06904ZM7.13559 7.19497C7.32102 7.26805 7.5179 7.33546 7.72341 7.39587C8.11329 7.36359 8.51868 7.30786 8.91407 7.21756C8.24751 6.98226 7.69868 6.64565 7.35895 6.28568C7.25087 6.56463 7.17399 6.87725 7.13559 7.19497ZM10.1769 7.15322C10.4306 7.18465 10.6931 7.1997 10.9621 7.19493C11.324 7.18848 11.6436 7.14844 11.9238 7.08329C11.9462 7.05507 11.9683 7.02689 11.9901 6.99862C12.0536 6.91648 12.114 6.83492 12.1714 6.75412C11.7163 6.84281 11.1849 6.88383 10.6608 6.87067C10.5083 6.97585 10.3461 7.06972 10.1769 7.15322ZM6.14204 6.66814C6.33446 6.81016 6.57126 6.94578 6.84032 7.06932C6.89278 6.691 6.99469 6.32234 7.13665 5.99939C7.07188 5.89339 7.02665 5.78717 7.00298 5.68248C6.9954 5.64889 6.98884 5.61025 6.98528 5.56792C6.82833 5.60313 6.67325 5.64032 6.5213 5.67946C6.33833 5.9671 6.23579 6.23866 6.18004 6.47179C6.1645 6.53703 6.1518 6.6025 6.14204 6.66814ZM7.50622 5.96314C7.85708 6.37608 8.60509 6.81183 9.54439 7.03825C9.71888 6.97757 9.8881 6.90827 10.0499 6.8291C9.21364 6.73428 8.487 6.48293 8.24716 6.04343C8.12438 5.8185 8.0997 5.57486 8.17372 5.34397C8.11083 5.35371 8.04766 5.36377 7.98415 5.37427C7.94138 5.41147 7.89989 5.4488 7.85981 5.48604C7.72735 5.60935 7.60837 5.77274 7.50622 5.96314ZM12.6372 6.63771C12.5772 6.73356 12.5164 6.82531 12.4565 6.9117C12.9367 6.70701 13.247 6.41544 13.4132 6.11756C13.4106 6.11291 13.4078 6.10827 13.405 6.10362C13.3717 6.20809 13.2883 6.32265 13.1125 6.43104C12.9848 6.50976 12.8233 6.57887 12.6372 6.63771ZM11.9973 5.46196C11.7976 5.80633 11.4972 6.16201 11.1053 6.51287C11.6077 6.49889 12.0781 6.43437 12.4486 6.33013C12.5757 6.11683 12.6784 5.91201 12.7551 5.71976C12.5845 5.6405 12.3406 5.55132 11.9973 5.46196ZM8.55524 5.28924C8.53231 5.32089 8.51267 5.35268 8.49642 5.38455C8.41669 5.54104 8.42028 5.69465 8.50739 5.85416C8.69411 6.19623 9.47911 6.45191 10.5073 6.50556C10.5324 6.50687 10.5575 6.50804 10.5825 6.50908C10.6226 6.47955 10.6618 6.44912 10.7001 6.41774C11.1774 6.02675 11.4804 5.67919 11.6706 5.38415C11.0867 5.25727 10.4456 5.17883 9.96419 5.17874C9.964 5.17874 9.96357 5.17874 9.96337 5.17874C9.5888 5.17883 9.09509 5.21782 8.55524 5.28924ZM13.7603 6.12459C13.8037 6.26043 13.8081 6.38356 13.7933 6.48888C13.9178 6.16859 13.9867 5.85471 14.0089 5.57914C14.0549 5.0102 13.92 4.54059 13.6482 4.32296C13.5151 4.21647 13.2702 4.13712 12.9452 4.08509C13.036 4.23865 13.1111 4.40885 13.17 4.59537C13.1856 4.64478 13.1979 4.69514 13.2071 4.74623C13.4021 4.86823 13.5716 5.00908 13.7165 5.169C13.8807 5.35033 13.9105 5.69217 13.7923 6.03992C13.784 6.0644 13.7735 6.09285 13.7603 6.12459ZM5.60586 5.95592C5.6084 5.97851 5.6127 6.00123 5.61868 6.024C5.65465 6.1607 5.74165 6.29839 5.87086 6.43325C5.87489 6.41463 5.87915 6.3961 5.88356 6.37752C5.92571 6.2011 5.99102 6.00538 6.09051 5.79853C5.92145 5.84862 5.75895 5.90123 5.60586 5.95592ZM13.0311 5.88126C12.9942 5.97242 12.9533 6.06264 12.9097 6.15146C12.9298 6.14046 12.9492 6.12928 12.9676 6.11792C13.1027 6.03469 13.1156 5.98216 13.1158 5.98167C13.1129 5.96287 13.0892 5.9277 13.0311 5.88126ZM13.1821 5.40362C13.3376 5.52103 13.4569 5.63599 13.5472 5.74659C13.5717 5.59357 13.549 5.47544 13.5038 5.42553C13.4194 5.3323 13.3249 5.24632 13.22 5.16737C13.2122 5.24555 13.1994 5.32441 13.1821 5.40362ZM7.28966 5.50268C7.28962 5.53545 7.29446 5.56584 7.30055 5.59285C7.30485 5.61178 7.31032 5.63103 7.31688 5.65042C7.35442 5.58847 7.39368 5.52941 7.43466 5.47355C7.38622 5.48306 7.33801 5.49276 7.28966 5.50268ZM6.62997 5.00263C6.45497 5.08153 6.28965 5.16521 6.13657 5.25358C5.98641 5.34023 5.86774 5.4295 5.78086 5.52094C5.96387 5.46142 6.15501 5.40561 6.35114 5.35353C6.43176 5.23775 6.52419 5.12039 6.62997 5.00263ZM7.50356 4.6708C7.25001 4.85412 7.04216 5.04095 6.8718 5.22608C6.93305 5.21228 6.99454 5.1988 7.05606 5.18572C7.11509 5.06787 7.21645 4.94916 7.38333 4.84515C7.74626 4.61895 8.21934 4.47107 8.74774 4.39853C8.79181 4.3712 8.83622 4.34429 8.88091 4.31773C8.40614 4.41313 7.93973 4.53072 7.50356 4.6708ZM12.2411 4.87869C12.4363 4.96142 12.6241 5.05367 12.8015 5.15511C12.8358 5.17477 12.8689 5.19429 12.901 5.21386C12.9144 5.13009 12.9207 5.0506 12.9197 4.97576C12.7294 4.87301 12.514 4.78703 12.2724 4.71742C12.2649 4.77057 12.2545 4.82436 12.2411 4.87869ZM7.97059 4.94699C7.87618 4.98153 7.78712 5.01936 7.70427 5.06047C7.75852 5.05101 7.81274 5.04181 7.86657 5.03293C7.90059 5.00421 7.93528 4.97553 7.97059 4.94699ZM9.96353 4.82382H9.96427C10.3582 4.82386 10.982 4.88518 11.5921 5.0061C10.894 4.78315 10.1622 4.68653 9.49396 4.6969C9.34103 4.74835 9.20087 4.80813 9.07626 4.87377C9.42372 4.84059 9.72857 4.82382 9.96353 4.82382ZM11.1206 4.52242C11.4027 4.5859 11.6801 4.66615 11.9467 4.763C11.9565 4.71963 11.9634 4.67914 11.9681 4.64145C11.7111 4.58631 11.429 4.54672 11.1206 4.52242ZM12.2749 4.35371C12.4702 4.4066 12.6511 4.46936 12.8178 4.54221C12.7385 4.34866 12.6355 4.17936 12.5095 4.03504C12.4017 4.0267 12.2885 4.02053 12.1708 4.01647C12.2099 4.09239 12.2396 4.17522 12.259 4.26408C12.2654 4.29366 12.2707 4.3235 12.2749 4.35371ZM10.7238 4.1497C10.8161 4.1497 10.9089 4.15254 11.0021 4.1584C11.342 4.17977 11.6542 4.21872 11.9396 4.27549C11.9026 4.16913 11.8391 4.07977 11.7534 4.01092C11.2272 4.0143 10.6357 4.0543 10.027 4.13108C9.92298 4.17292 9.81786 4.21859 9.71224 4.26769C10.028 4.19145 10.3715 4.1497 10.7238 4.1497ZM10.9575 3.42607C10.3076 3.42607 9.53638 3.6212 8.68802 4.00488C9.10017 3.918 9.52118 3.84699 9.93685 3.79253C10.4952 3.57017 11.0286 3.45218 11.4297 3.51034C11.5865 3.53306 11.7272 3.58491 11.8472 3.66146C11.9113 3.66164 11.9745 3.66237 12.0369 3.66363C12.024 3.65687 12.0108 3.65019 11.9977 3.6437C11.7025 3.49816 11.3523 3.42607 10.9575 3.42607Z" fill="#FFA538"/>
  <path d="M7.26549 8.93019C6.67463 8.93019 6.15514 8.8136 5.8385 8.5957C5.53366 8.38596 5.52783 8.14854 5.55147 8.02568C5.71752 7.16342 7.95159 5.53275 9.10554 5.11125C12.1244 4.00863 12.7125 4.23307 12.8895 4.59808C13.106 5.04452 12.6214 5.81233 11.2691 7.16554C10.1251 8.31026 8.91073 8.71784 8.09339 8.85815C7.811 8.90666 7.53104 8.93019 7.26549 8.93019ZM9.15198 5.2805L9.19839 5.44971C7.97253 5.89745 5.97084 7.48429 5.85174 8.10269C5.84256 8.1503 5.8992 8.22415 5.99604 8.29079C6.61647 8.7177 9.03628 8.9301 11.0677 6.89732C12.6822 5.28167 12.665 4.86174 12.6212 4.77153C12.5658 4.65755 12.1556 4.36963 9.19839 5.44975L9.15198 5.2805Z" fill="#FFA538"/>
  <path d="M14.6761 7.91753C14.6398 7.91753 14.6033 7.90274 14.574 7.87263C14.5105 7.80748 14.5048 7.6953 14.5612 7.62209C14.5747 7.60464 15.9032 5.86365 15.781 4.62568C15.6662 3.4631 14.5692 3.35291 11.9895 3.53804C11.9047 3.54412 11.8318 3.46973 11.8265 3.37189C11.8212 3.27406 11.8857 3.18979 11.9704 3.18371C14.428 3.00724 15.9314 3.0136 16.0866 4.58547C16.2243 5.98105 14.8496 7.78205 14.791 7.85802C14.7606 7.89742 14.7185 7.91753 14.6761 7.91753Z" fill="#FFA538"/>
  <path d="M7.4186 3.87205C7.36223 3.87205 7.30793 3.83617 7.28098 3.77404C7.24293 3.68639 7.27363 3.57976 7.34957 3.53585C7.47879 3.46114 10.5347 1.70951 12.3866 1.98323C14.2936 2.26497 14.5452 3.23919 14.555 3.28048C14.5774 3.37507 14.5291 3.47264 14.4472 3.49847C14.366 3.52413 14.2824 3.46966 14.259 3.37683C14.2533 3.35708 14.0111 2.58111 12.3476 2.33535C10.5881 2.07557 7.5182 3.83544 7.48738 3.85325C7.46524 3.86601 7.44176 3.87205 7.4186 3.87205Z" fill="#FFA538"/>
  <path d="M4.94288 8.95703C4.93596 8.95703 4.92897 8.95649 4.9219 8.9554C4.77514 8.93232 3.47729 8.7114 3.10006 8.07587C3.00147 7.90978 2.96995 7.72226 3.00889 7.53372C3.20663 6.57605 4.57358 5.64611 4.63167 5.60702C4.70503 5.55765 4.79913 5.58624 4.84194 5.67086C4.88475 5.75549 4.85999 5.86419 4.78667 5.9136C4.42249 6.15914 3.4469 6.94363 3.30807 7.61604C3.28901 7.7082 3.30354 7.79057 3.35374 7.8752C3.60838 8.30441 4.6021 8.54666 4.96346 8.60374C5.0476 8.61704 5.10651 8.70653 5.09499 8.80365C5.08452 8.89251 5.01854 8.95703 4.94288 8.95703Z" fill="#FFA538"/>
  <path d="M14.724 6.64625C14.6684 6.64625 14.6147 6.61135 14.5874 6.55049C14.5482 6.46347 14.5776 6.35635 14.653 6.31117C15.1007 6.04287 16.291 5.22442 16.421 4.66698C16.4435 4.57023 16.4217 4.51473 16.4034 4.48137C16.1354 3.9944 14.5873 3.81933 13.6773 3.82244C13.6771 3.82244 13.6769 3.82244 13.6767 3.82244C13.5921 3.82244 13.5233 3.74336 13.523 3.64557C13.5226 3.54755 13.5913 3.46779 13.6762 3.46743C13.9358 3.46662 16.2169 3.48069 16.663 4.29101C16.7384 4.42808 16.7574 4.59002 16.7179 4.75932C16.5295 5.56699 14.9717 6.52019 14.7947 6.62623C14.7721 6.63985 14.7478 6.64625 14.724 6.64625Z" fill="#FFA538"/>
  <path d="M10.0896 10.7813C9.06752 10.7813 8.59772 10.3289 8.56815 10.2993C8.50401 10.235 8.49709 10.1229 8.55276 10.0489C8.60842 9.97483 8.70553 9.96689 8.76971 10.0311C8.77893 10.0401 9.79881 10.9922 12.1932 9.89002C13.4766 9.29922 13.5214 7.64552 13.5227 7.57536C13.5245 7.47748 13.5966 7.39998 13.6795 7.40151C13.7643 7.40341 13.8317 7.48411 13.8302 7.58203C13.829 7.6617 13.7829 9.54038 12.3071 10.2197C11.3871 10.6433 10.654 10.7813 10.0896 10.7813Z" fill="#FFA538"/>
  <path d="M6.36561 10.775C6.18107 10.775 5.99084 10.7548 5.79998 10.7061C4.59564 10.3994 4.68693 9.41139 4.68799 9.40147C4.69838 9.30418 4.77502 9.2352 4.85943 9.24705C4.94373 9.25905 5.00365 9.34764 4.99322 9.44493C4.99099 9.47072 4.94482 10.1248 5.86623 10.3595C6.87596 10.6168 7.91491 9.9604 7.9253 9.95377C7.99944 9.90616 8.09311 9.93686 8.1344 10.0225C8.17573 10.1081 8.14924 10.216 8.0751 10.2638C8.03658 10.2886 7.26944 10.775 6.36561 10.775Z" fill="#FFA538"/>
  <path d="M14.4584 7.59659C14.3737 7.59659 14.305 7.51751 14.3047 7.41972C14.3044 7.32175 14.373 7.24199 14.4579 7.24163C14.8516 7.23983 15.8885 7.09366 15.9566 6.44745C16.0291 5.75899 15.263 4.97959 14.9617 4.73734C14.892 4.6813 14.8749 4.57066 14.9234 4.49023C14.972 4.40984 15.0679 4.39 15.1375 4.44605C15.1879 4.48658 16.3715 5.45101 16.2619 6.49032C16.1472 7.57865 14.5277 7.59637 14.4588 7.59659C14.4586 7.59659 14.4585 7.59659 14.4584 7.59659Z" fill="#FFA538"/>
  <path d="M8.0543 7.2305C7.95582 7.2305 7.86043 7.22288 7.76879 7.20683C7.19532 7.10643 6.7866 6.85688 6.55414 6.46508C6.2702 5.98659 6.3641 5.47748 6.36821 5.45602C6.37438 5.4241 6.38805 5.39475 6.40778 5.37126C7.59985 3.94803 8.75731 3.31805 9.51837 3.04019C10.4141 2.71318 11.2787 2.68937 11.8311 2.97657C12.1999 3.16827 12.3972 3.4896 12.3723 3.85813C12.3384 4.35876 11.9115 5.0195 11.2008 5.6709C10.3434 6.45683 9.04465 7.2305 8.0543 7.2305ZM6.66289 5.57757C6.65211 5.68956 6.64321 5.99037 6.81055 6.269C6.9936 6.57378 7.33153 6.77121 7.81489 6.85588C8.69583 7.01026 10.0891 6.23677 11.0095 5.3929C11.644 4.81134 12.0388 4.22725 12.0656 3.83054C12.0841 3.55682 11.8796 3.39109 11.7048 3.30024C10.8032 2.83157 8.64844 3.23167 6.66289 5.57757Z" fill="#FFA538"/>
  <path d="M10.2164 8.71259C9.49477 8.71259 8.72841 8.60799 7.97985 8.32242C6.94321 7.92693 6.44754 7.46471 6.50668 6.94856C6.6075 6.06804 8.33645 5.56231 9.53196 5.48449C10.7813 5.40316 12.5191 5.5455 14.557 5.89613C14.6083 5.90496 14.6422 5.91087 14.6565 5.91294C14.8545 5.91858 15.4753 5.96754 15.5969 6.35285C15.6615 6.55772 15.5719 6.78562 15.3305 7.03026C14.9229 7.44329 13.8083 8.0478 12.4668 8.40398C11.8465 8.56872 11.0623 8.71259 10.2164 8.71259ZM10.2675 5.81714C10.0127 5.81714 9.7729 5.8244 9.54923 5.83896C8.17551 5.92841 6.87063 6.47949 6.81157 6.99514C6.79485 7.1414 6.88454 7.53071 8.07637 7.9854C10.9992 9.10042 14.4744 7.42544 15.1275 6.76358C15.2903 6.59865 15.3166 6.50235 15.3078 6.47444C15.277 6.37661 14.9551 6.27629 14.6449 6.26781C14.63 6.26768 14.6192 6.26583 14.5116 6.2473C12.8613 5.96331 11.4127 5.81714 10.2675 5.81714Z" fill="#FFA538"/>
  <path d="M5.96506 9.28711C4.84471 9.28711 4.09736 9.17723 4.024 9.16596C3.65908 9.11001 3.43424 8.94973 3.3556 8.68963C3.20064 8.17678 3.72631 7.52786 3.78677 7.45559C3.80935 7.42858 3.83877 7.41055 3.8708 7.40405C3.89748 7.39864 6.56893 6.85063 9.04135 5.83805C14.1807 3.73308 15.1372 3.75229 15.3951 4.04873C15.5739 4.25427 15.6439 4.56884 15.5872 4.9119C15.493 5.48178 14.9515 6.62817 12.3839 7.90315C10.0775 9.04829 7.61627 9.28711 5.96506 9.28711ZM3.97537 7.74288C3.82068 7.94279 3.57791 8.34788 3.64607 8.57286C3.69256 8.72624 3.89928 8.78868 4.06447 8.81402C4.24244 8.8413 8.46807 9.46096 12.2624 7.57696C14.7905 6.32159 15.2184 5.24842 15.2851 4.84526C15.338 4.52515 15.2278 4.35743 15.178 4.30017C15.1564 4.27736 14.9116 4.09417 13.0148 4.71117C12.0253 5.03304 10.7592 5.51108 9.1442 6.17249C6.83709 7.11744 4.36049 7.66122 3.97537 7.74288Z" fill="#FFA538"/>
  <path d="M7.60562 3.25317C7.55172 3.25317 7.49937 3.22039 7.47121 3.16218C7.4298 3.07661 7.45633 2.96849 7.53043 2.9207C7.59168 2.88121 9.04742 1.95109 10.5514 1.74685C12.0815 1.5391 12.7566 2.0496 12.7845 2.07142C12.8549 2.12634 12.8734 2.23666 12.8258 2.31786C12.7783 2.39911 12.6827 2.42048 12.6123 2.36552C12.6071 2.36159 11.9902 1.90889 10.5873 2.09942C9.14535 2.29523 7.69492 3.22129 7.68043 3.23062C7.65676 3.24591 7.63101 3.25317 7.60562 3.25317Z" fill="#FFA538"/>
  <path d="M10.706 10.9311C10.458 10.9311 10.2098 10.8977 9.95979 10.831C9.93424 10.8253 9.90877 10.8188 9.88354 10.8118C9.8749 10.8093 9.86662 10.8061 9.85877 10.8022C9.62256 10.7309 9.38463 10.63 9.1433 10.4995C8.76619 10.2956 8.58494 9.95182 8.65846 9.57986C8.77119 9.00934 9.51053 8.43959 10.7079 8.45127C10.8143 8.44077 11.7261 8.37084 12.2554 8.9827C12.4273 9.18144 12.4462 9.45916 12.3072 9.74474C12.2033 9.95813 12.0224 10.1654 11.7948 10.3428C12.0004 10.2547 12.209 10.1419 12.4224 10.0044C13.2209 9.48946 13.6064 8.8744 13.7796 8.50141C13.3216 8.50528 12.7767 8.41701 12.0565 8.2423C11.1823 8.03026 9.6574 7.85758 8.22197 7.94965C6.74654 8.04433 5.82822 8.39631 5.7024 8.91543C5.62576 9.23153 5.69134 9.48261 5.90287 9.68297C6.40025 10.1539 7.5317 10.1698 8.07475 9.85191C8.1506 9.80754 8.24307 9.84248 8.28146 9.92995C8.3199 10.0174 8.28963 10.1242 8.21389 10.1685C7.57471 10.5426 6.31431 10.5318 5.70783 9.95741C5.40064 9.66647 5.29638 9.27309 5.40623 8.8198C5.79185 7.22891 10.2868 7.45037 12.1198 7.89491C12.8895 8.08157 13.4419 8.1606 13.8971 8.14216C13.8876 7.85276 13.9348 6.92931 14.8403 6.25303C15.327 5.88945 15.8001 5.94387 16.0805 6.11605C16.3186 6.26222 16.4634 6.5124 16.4678 6.78531C16.471 6.98459 16.3988 7.37093 15.879 7.71953C15.2267 8.15691 14.7372 8.40984 14.1319 8.48076C13.9863 8.86683 13.5815 9.66367 12.5724 10.3143C11.9341 10.726 11.3204 10.9311 10.706 10.9311ZM9.98498 10.4745C10.8067 10.6836 11.7929 10.0767 12.0391 9.57093C12.1437 9.35601 12.0667 9.2671 12.0378 9.2336C11.5907 8.71683 10.7375 8.80465 10.729 8.8056C10.7235 8.80619 10.7176 8.80655 10.7125 8.80641C9.62072 8.79496 9.02986 9.29699 8.95834 9.65889C8.9042 9.93297 9.13272 10.1018 9.27381 10.1781C9.51557 10.3088 9.75178 10.4076 9.98498 10.4745ZM15.5891 6.33666C15.4168 6.33666 15.2158 6.39536 15.0074 6.55104C14.2443 7.12093 14.1982 7.87873 14.2037 8.11313C14.7408 8.0308 15.1618 7.78991 15.7245 7.41259C16.0048 7.22462 16.1637 6.99838 16.1603 6.79193C16.158 6.64762 16.0762 6.51547 15.936 6.4294C15.8459 6.37408 15.7266 6.33666 15.5891 6.33666Z" fill="#FFC538"/>
  <path d="M10.2777 10.2297C9.54025 10.2297 8.96053 9.92417 8.69154 9.37864C8.45545 8.89987 8.50482 8.31989 8.82365 7.82719C9.26361 7.1473 10.3293 7.05126 11.1331 7.24969C11.8202 7.41934 12.283 7.79175 12.371 8.2459C12.4493 8.65037 12.3595 8.96313 12.2483 9.17625C12.8913 8.71984 13.274 8.20699 13.2804 8.19834C13.3353 8.12363 13.4323 8.11434 13.4971 8.17764C13.5619 8.24094 13.57 8.3528 13.5152 8.42764C13.4684 8.49162 12.3477 9.99753 10.6291 10.2077C10.5086 10.2225 10.3912 10.2297 10.2777 10.2297ZM10.3876 7.51547C9.84252 7.51547 9.30787 7.67209 9.07006 8.03963C8.82666 8.41583 8.78506 8.85073 8.95885 9.20307C9.20697 9.70618 9.81924 9.94978 10.5966 9.8547C11.0337 9.80127 11.4321 9.65352 11.7805 9.46705C11.7329 9.38837 11.7481 9.27981 11.8155 9.22259C11.8298 9.21015 12.1816 8.89545 12.0708 8.3234C12.0107 8.01303 11.6267 7.73463 11.0687 7.59685C10.8547 7.54405 10.6201 7.51547 10.3876 7.51547Z" fill="#FFC538"/>
  <path d="M5.14459 9.05465C4.89186 9.05465 4.41694 8.99337 4.02674 8.58995C3.59139 8.13986 3.40451 7.56596 3.52686 7.05473C3.52854 7.04765 3.53029 7.04066 3.53209 7.03363C3.52803 7.02745 3.52404 7.02119 3.52014 7.01488C3.41803 6.84846 3.34264 6.55013 3.5635 6.07403C4.04307 5.04007 5.53995 5.13489 5.60342 5.13944C5.68811 5.14548 5.75252 5.22966 5.74737 5.32741C5.74213 5.4252 5.66916 5.4999 5.58452 5.49373C5.57088 5.49269 4.22104 5.40856 3.83471 6.24152C3.78346 6.35198 3.73393 6.48873 3.72834 6.61316C3.91201 6.35865 4.19174 6.17646 4.53205 6.10027C4.92643 6.01203 5.2492 6.09292 5.41748 6.32236C5.52639 6.47087 5.556 6.66889 5.4967 6.85207C5.41366 7.10861 5.17655 7.29522 4.86244 7.35122C4.63037 7.3926 4.14881 7.44662 3.80256 7.26997C3.76463 7.62141 3.91697 7.99959 4.23205 8.32543C4.67526 8.78368 5.27311 8.69256 5.27909 8.69148C5.3635 8.67791 5.44096 8.74536 5.45287 8.84243C5.46475 8.9395 5.4062 9.02931 5.32209 9.04297C5.31323 9.04455 5.24721 9.05465 5.14459 9.05465ZM3.90526 6.93314C4.09619 7.0422 4.42721 7.0697 4.81537 7.00045C5.05393 6.95793 5.17487 6.83174 5.2085 6.72786C5.22291 6.68327 5.23014 6.6165 5.18264 6.55176C5.11096 6.45392 4.9178 6.37547 4.59053 6.44878C4.27518 6.51943 4.03526 6.69139 3.90526 6.93314Z" fill="#FFC538"/>
  <path d="M10.5644 10.0981C9.94796 10.0981 9.43784 9.76095 9.20768 9.33949C9.18495 9.29787 9.16491 9.25572 9.14753 9.21316C8.91026 9.12028 8.74499 9.04134 8.72589 9.03214C8.64753 8.99436 8.61053 8.89043 8.64327 8.79999C8.67596 8.70955 8.76608 8.66685 8.8444 8.70459C8.90143 8.73205 8.97569 8.76573 9.06218 8.80234C9.05768 8.52655 9.1571 8.25207 9.35643 8.01415C9.89081 7.37632 10.7018 7.35783 11.2685 7.62235C11.641 7.7962 11.8633 8.07398 11.8633 8.36532C11.8633 9.13935 11.4087 9.3302 10.8145 9.49927C10.4988 9.58917 10.0511 9.50694 9.65104 9.38769C9.97546 9.70072 10.5393 9.86091 11.1242 9.63516C12.3278 9.17055 12.5458 8.03056 12.5479 8.01906C12.5651 7.92307 12.6466 7.86135 12.7297 7.88137C12.8128 7.9013 12.8663 7.99526 12.849 8.09124C12.8391 8.1462 12.5912 9.44314 11.2217 9.97182C10.995 10.0593 10.7735 10.0981 10.5644 10.0981ZM9.38491 8.92925C9.83671 9.09404 10.4101 9.24873 10.7409 9.15455C11.3959 8.96816 11.5558 8.81329 11.5558 8.36523C11.5558 8.25639 11.4298 8.08047 11.1532 7.95134C10.6975 7.73858 10.01 7.74471 9.57753 8.26086C9.40222 8.4701 9.33698 8.70121 9.38491 8.92925Z" fill="#FFC538"/>
  <path d="M6.82783 10.5515C6.60287 10.5515 6.36162 10.5404 6.10482 10.5142C5.44388 10.4469 4.98216 10.2065 4.73255 9.7997C4.45017 9.33955 4.55548 8.84411 4.56009 8.82323C4.58114 8.72824 4.66489 8.67089 4.7472 8.69523C4.82919 8.7194 4.8788 8.81548 4.85833 8.91016C4.85513 8.92549 4.78501 9.27531 4.98634 9.59902C5.18232 9.91422 5.56775 10.1031 6.13189 10.1606C7.76408 10.3269 8.75974 9.85159 8.76967 9.84677C8.84783 9.80858 8.93803 9.85065 8.97123 9.94073C9.00443 10.0309 8.96822 10.1349 8.89021 10.1734C8.85369 10.1913 8.10541 10.5515 6.82783 10.5515Z" fill="#FFC538"/>
  <path d="M7.19102 10.249C6.01481 10.249 5.47141 9.45549 5.44692 9.41879C5.39516 9.34106 5.40774 9.22965 5.47508 9.16987C5.54227 9.11022 5.63856 9.12465 5.6904 9.20188C5.71469 9.23754 6.26391 10.0208 7.48708 9.87614C8.76118 9.72519 9.66454 8.98551 9.67353 8.97808C9.74239 8.92082 9.83853 8.93885 9.88814 9.01829C9.93779 9.09778 9.92232 9.20855 9.85349 9.2659C9.81431 9.29859 8.87794 10.0682 7.51852 10.2293C7.40438 10.2428 7.2952 10.249 7.19102 10.249Z" fill="#FFC538"/>
  <path d="M9.01211 9.1552C8.8989 9.1552 8.79156 9.14195 8.69101 9.11413C8.31718 9.0107 8.01304 8.7809 7.79527 8.44519C7.3682 8.28491 7.03042 8.04853 6.83296 7.72855C6.7014 7.51543 6.60089 7.28982 6.53214 7.05704C6.16929 7.03292 5.92507 7.00114 5.86648 6.99311C5.67597 6.99027 4.83265 6.94983 4.63159 6.46426C4.5421 6.24807 4.59175 6.00001 4.77921 5.72697C4.97734 5.43842 5.40308 5.18653 5.94441 4.97296C6.01378 4.73427 6.19749 4.4666 6.61167 4.22755C6.99542 4.00609 7.46296 3.81114 7.97699 3.64464C8.20941 3.47836 8.47609 3.31592 8.78199 3.16091C10.3941 2.34396 11.7966 2.14788 12.7312 2.60875C12.9323 2.70789 13.1092 2.83499 13.2612 2.98927C13.8043 3.04171 14.2223 3.15154 14.4362 3.32277C14.8004 3.61434 14.9842 4.20533 14.9279 4.90357C14.8512 5.85389 14.2809 7.21178 12.9263 7.91115C12.222 8.27477 11.3597 8.52531 10.5025 8.63888C9.96824 8.95867 9.44785 9.15516 9.01211 9.1552ZM8.41715 8.6153C8.5173 8.68009 8.63179 8.73275 8.76269 8.76895C8.98711 8.83108 9.25945 8.80389 9.55859 8.70764C9.15672 8.71169 8.77019 8.68194 8.41715 8.6153ZM7.98968 8.14762C8.63027 8.36331 9.49879 8.41629 10.4006 8.30443C10.7348 8.09956 11.0779 7.84226 11.4085 7.55317C11.4079 7.55326 11.4071 7.55335 11.4064 7.55348C10.2614 7.72089 8.92879 7.50457 7.86242 7.07702C7.81558 7.07882 7.76906 7.08031 7.72312 7.08153C7.72937 7.23748 7.74632 7.39018 7.77476 7.53622C7.81281 7.7309 7.87812 7.94798 7.98968 8.14762ZM12.0138 7.44582C11.7518 7.70371 11.4749 7.94681 11.1933 8.16444C11.7534 8.03559 12.3045 7.84334 12.8007 7.58716C13.2615 7.34929 13.6225 7.02941 13.8975 6.67738C13.4888 7.00646 12.8481 7.26971 12.0138 7.44582ZM6.86703 7.07503C6.92261 7.22918 6.99488 7.37909 7.08343 7.52264C7.19011 7.6955 7.35527 7.8419 7.56558 7.96151C7.52894 7.85218 7.49859 7.73631 7.47476 7.61431C7.44148 7.44384 7.42195 7.26633 7.41519 7.0859C7.22019 7.08586 7.03542 7.08189 6.86703 7.07503ZM8.76496 7.00484C9.59691 7.22896 10.5232 7.32485 11.3678 7.20127C11.5477 7.17494 11.7172 7.14568 11.8769 7.11381C11.9791 7.01119 12.0788 6.90619 12.1754 6.7997C11.9918 6.82309 11.7936 6.83761 11.5795 6.84144C11.092 6.85015 10.6173 6.79591 10.1753 6.69586C9.71914 6.84879 9.23629 6.94582 8.76496 7.00484ZM12.6927 6.70222C12.6181 6.79352 12.5409 6.88437 12.4613 6.97427C13.5201 6.67422 13.9988 6.24546 14.0896 5.88026C13.8381 6.18382 13.4106 6.51845 12.6927 6.70222ZM6.76835 6.71151C6.87996 6.71665 6.99968 6.7208 7.12613 6.72323C6.98687 6.64311 6.85664 6.55912 6.73683 6.4717C6.74308 6.55208 6.75359 6.63211 6.76835 6.71151ZM7.73277 6.64054C7.78906 6.66575 7.84629 6.69036 7.90464 6.71444C8.42011 6.69217 8.98277 6.63342 9.5268 6.50912C8.86008 6.27377 8.3114 5.93725 7.97164 5.57724C7.84613 5.90123 7.76273 6.27057 7.73277 6.64054ZM5.91847 5.36277C5.4889 5.54059 5.16425 5.73779 5.02027 5.94753C4.94577 6.05601 4.86605 6.20713 4.90905 6.31119C4.9996 6.53017 5.53015 6.63432 5.87796 6.63833C5.88367 6.63842 5.88945 6.63883 5.89515 6.63964C5.90378 6.64086 6.11355 6.66926 6.45152 6.69307C6.42773 6.53419 6.41824 6.37332 6.42335 6.21214C6.17788 5.97882 6.00831 5.72819 5.94042 5.47021C5.93187 5.43765 5.92417 5.40168 5.91847 5.36277ZM6.74316 6.05019C6.93374 6.20749 7.16886 6.35876 7.43625 6.49762C7.4816 6.07179 7.59031 5.65276 7.74933 5.29104C7.68461 5.18504 7.63933 5.07882 7.61566 4.97413C7.60808 4.94058 7.60148 4.90195 7.59796 4.85961C7.44113 4.89478 7.28582 4.93202 7.13402 4.97115C6.95105 5.2588 6.84847 5.53035 6.79277 5.76353C6.77007 5.85853 6.75355 5.95425 6.74316 6.05019ZM10.7896 6.44483C11.0433 6.47625 11.3059 6.49126 11.5748 6.48653C11.9367 6.48008 12.2563 6.44005 12.5365 6.3749C12.5589 6.34667 12.581 6.3185 12.6029 6.29023C12.6663 6.20813 12.7268 6.12648 12.7841 6.04573C12.329 6.13441 11.7977 6.17571 11.2735 6.16227C11.121 6.26746 10.9588 6.36128 10.7896 6.44483ZM8.11894 5.25474C8.4698 5.66768 9.21781 6.10348 10.1571 6.32986C10.3314 6.26922 10.501 6.19978 10.6626 6.1207C9.82637 6.02589 9.09972 5.77454 8.85988 5.33504C8.73711 5.11011 8.71242 4.86646 8.78644 4.63558C8.72355 4.64532 8.66039 4.65537 8.59687 4.66588C8.5541 4.70307 8.51261 4.7404 8.47254 4.77764C8.34007 4.90091 8.22109 5.0643 8.11894 5.25474ZM13.2499 5.92932C13.1899 6.02517 13.1291 6.11687 13.0692 6.20326C13.5394 6.00285 13.8467 5.71917 14.0154 5.42778C14.0135 5.42444 14.0117 5.42111 14.0098 5.41777C13.972 5.51601 13.8884 5.62201 13.7253 5.72255C13.5975 5.80132 13.436 5.87048 13.2499 5.92932ZM12.61 4.75357C12.4102 5.09798 12.1099 5.45362 11.718 5.80452C12.2204 5.79054 12.6907 5.72602 13.0613 5.62179C13.1884 5.40848 13.2911 5.20366 13.3677 5.01137C13.1972 4.93211 12.9532 4.84288 12.61 4.75357ZM9.16797 4.58084C9.14504 4.61249 9.12539 4.64428 9.10914 4.67616C9.02941 4.83265 9.03301 4.98626 9.12011 5.14581C9.30683 5.48788 10.0918 5.74356 11.12 5.79721C11.1452 5.79852 11.1702 5.79969 11.1952 5.80073C11.2353 5.7712 11.2745 5.74081 11.3128 5.70943C11.7901 5.3184 12.093 4.97088 12.2833 4.6758C11.6994 4.54897 11.0583 4.47047 10.5769 4.47038C10.5767 4.47038 10.5763 4.47038 10.5761 4.47038C10.2015 4.47038 9.70777 4.50943 9.16797 4.58084ZM6.21636 5.24834C6.21808 5.28743 6.22417 5.32701 6.23472 5.36705C6.27136 5.50632 6.35253 5.6473 6.47097 5.78621C6.47851 5.74712 6.48691 5.70812 6.49624 5.66917C6.53843 5.49275 6.60374 5.29703 6.7032 5.09018C6.53331 5.14049 6.37015 5.19329 6.21636 5.24834ZM14.3629 5.44004C14.4018 5.5597 14.4143 5.66863 14.4132 5.76169C14.5332 5.44793 14.5998 5.1409 14.6216 4.8707C14.6676 4.30176 14.5327 3.83215 14.2609 3.61452C14.1279 3.50798 13.8831 3.42868 13.5579 3.3766C13.6487 3.53017 13.7238 3.70041 13.7827 3.88693C13.7983 3.93634 13.8106 3.98666 13.8198 4.03779C14.0148 4.15983 14.1843 4.30059 14.3292 4.46056C14.4934 4.64194 14.5232 4.98378 14.405 5.33148C14.3946 5.362 14.3809 5.39861 14.3629 5.44004ZM13.6438 5.17282C13.6068 5.26398 13.566 5.35425 13.5223 5.44302C13.5425 5.43206 13.5618 5.42084 13.5804 5.40943C13.7154 5.32616 13.7284 5.27368 13.7285 5.27318C13.7257 5.25447 13.7019 5.2193 13.6438 5.17282ZM13.794 4.6991C13.9491 4.8203 14.0673 4.94085 14.1566 5.0574C14.1862 4.89505 14.1637 4.76912 14.1166 4.71714C14.0322 4.62395 13.9377 4.53792 13.8328 4.45898C13.8248 4.53837 13.8116 4.61854 13.794 4.6991ZM7.90238 4.79428C7.90234 4.82706 7.90714 4.8574 7.91328 4.88445C7.91757 4.90339 7.92304 4.92264 7.92961 4.94203C7.96711 4.88012 8.00644 4.82102 8.04734 4.76516C7.9989 4.77467 7.95074 4.78432 7.90238 4.79428ZM7.24269 4.29419C7.06769 4.37309 6.90234 4.45681 6.74925 4.54514C6.60292 4.62958 6.48652 4.71809 6.40031 4.81033C6.58132 4.75163 6.77015 4.69658 6.96386 4.64514C7.04449 4.52936 7.13695 4.41195 7.24269 4.29419ZM8.11632 3.96236C7.86277 4.14568 7.65492 4.33251 7.48457 4.51763C7.54578 4.50384 7.60722 4.49036 7.66875 4.47728C7.72777 4.35943 7.82914 4.24072 7.99601 4.1367C8.35894 3.91051 8.83207 3.76263 9.36047 3.69009C9.40453 3.66281 9.44894 3.63585 9.49363 3.60929C9.01887 3.70469 8.55246 3.82232 8.11632 3.96236ZM12.8538 4.17029C13.0491 4.25303 13.2368 4.34527 13.4141 4.44671C13.4484 4.46633 13.4816 4.48603 13.5137 4.50573C13.5271 4.42187 13.5334 4.3423 13.5323 4.26741C13.3421 4.16466 13.1266 4.07868 12.885 4.00907C12.8776 4.06218 12.8672 4.11597 12.8538 4.17029ZM8.58336 4.23855C8.48879 4.27313 8.39992 4.31092 8.31695 4.35203C8.37121 4.34257 8.42547 4.33337 8.47933 4.32449C8.51332 4.29577 8.54804 4.26709 8.58336 4.23855ZM10.5762 4.11542H10.577C10.9709 4.11547 11.5948 4.17679 12.2048 4.29775C11.5068 4.0748 10.7749 3.97836 10.1066 3.98851C9.95363 4.03995 9.81359 4.09969 9.6889 4.16538C10.0364 4.1322 10.3413 4.11542 10.5762 4.11542ZM11.7333 3.81403C12.0154 3.87746 12.2928 3.95776 12.5594 4.0546C12.5692 4.01123 12.5761 3.97074 12.5808 3.93305C12.3239 3.87787 12.0416 3.83828 11.7333 3.81403ZM12.8875 3.64532C13.083 3.6982 13.2638 3.76101 13.4305 3.83382C13.3512 3.64031 13.2482 3.47097 13.1222 3.32665C13.0143 3.31831 12.9012 3.31213 12.7835 3.30807C12.8226 3.38395 12.8523 3.46682 12.8717 3.55569C12.8781 3.58522 12.8834 3.61511 12.8875 3.64532ZM11.3364 3.44126C11.4288 3.44126 11.5216 3.44414 11.6148 3.44996C11.9547 3.47133 12.2669 3.51028 12.5523 3.56705C12.5153 3.46073 12.4518 3.37133 12.3661 3.30253C11.8398 3.30586 11.2484 3.34586 10.6397 3.42268C10.5357 3.46452 10.4305 3.51015 10.325 3.55925C10.6407 3.48301 10.9842 3.44126 11.3364 3.44126ZM11.5702 2.71763C10.9203 2.71763 10.1492 2.91267 9.30074 3.29644C9.71289 3.20956 10.1339 3.13855 10.5496 3.08409C11.1078 2.86181 11.6412 2.74378 12.0425 2.8019C12.1992 2.82462 12.3399 2.87647 12.4599 2.95302C12.5241 2.9532 12.5873 2.95393 12.6496 2.95519C12.6367 2.94838 12.6236 2.94175 12.6104 2.93521C12.3152 2.78972 11.965 2.71763 11.5702 2.71763Z" fill="#FFC538"/>
  <path d="M7.30677 9.59874C7.00451 9.59874 6.6456 9.55785 6.22622 9.44775C5.73056 9.31763 5.34415 9.08359 5.10392 8.78129C4.88071 8.65762 4.67181 8.50613 4.50438 8.33666C4.15024 7.97823 4.00173 7.57435 4.07477 7.1688C4.09208 7.07281 4.17325 7.011 4.25669 7.03115C4.33981 7.05113 4.39325 7.14509 4.37595 7.24107C4.31376 7.58598 4.52177 7.8821 4.7072 8.06975C4.74899 8.11209 4.79364 8.15289 4.8406 8.1922C4.83591 8.16222 4.83235 8.13188 4.82989 8.10126C4.79575 7.67759 5.00243 7.27809 5.34415 7.10717C5.64118 6.95857 5.98509 7.03215 6.28755 7.30893C6.6756 7.66398 6.90423 8.2601 6.83126 8.72638C6.80618 8.88661 6.70697 9.00929 6.55189 9.07178C6.49439 9.09495 6.429 9.11006 6.35759 9.11768C7.764 9.46763 8.39494 8.97201 8.40119 8.96687C8.47029 8.91073 8.56603 8.9289 8.61529 9.00817C8.66447 9.08738 8.64963 9.19716 8.58138 9.2546C8.55912 9.27327 8.15888 9.59874 7.30677 9.59874ZM5.29036 8.48941C5.73575 8.72286 6.22212 8.82863 6.45036 8.7367C6.52154 8.70803 6.52661 8.67552 6.52853 8.6633C6.58165 8.32381 6.39591 7.86114 6.09642 7.58715C5.97255 7.47381 5.72603 7.30302 5.46638 7.43291C5.2436 7.54432 5.11392 7.79378 5.13607 8.06844C5.14817 8.21844 5.20114 8.36015 5.29036 8.48941Z" fill="#FFC538"/>
  <path d="M13.5193 7.59648C13.4467 7.59648 13.3821 7.53683 13.3683 7.45144C13.3528 7.35505 13.4079 7.2624 13.4914 7.24445C14.6061 7.00482 15.6649 5.87064 15.8669 5.01672C15.9318 4.74219 15.8993 4.53719 15.7702 4.40734C15.13 3.76306 13.5411 3.82163 13.5252 3.82231C13.4399 3.82551 13.369 3.74936 13.3659 3.65139C13.3628 3.55342 13.4291 3.47113 13.5139 3.46757C13.5842 3.46464 15.2403 3.40319 15.9724 4.13976C16.1915 4.36027 16.2594 4.70495 16.1636 5.11018C15.9373 6.0674 14.8073 7.32263 13.5477 7.59342C13.5382 7.59549 13.5287 7.59648 13.5193 7.59648Z" fill="#FFC538"/>
  <path d="M13.8975 3.82625C13.8776 3.82625 13.8574 3.82174 13.8379 3.81232C13.7596 3.77431 13.7229 3.67025 13.7558 3.57985C13.7582 3.57336 13.9982 2.89405 13.7422 2.42638C13.5838 2.13688 13.2594 1.97606 12.778 1.94838C11.1013 1.85172 9.77696 3.07864 9.76372 3.09108C9.69794 3.15294 9.60107 3.14171 9.54739 3.06579C9.49368 2.98991 9.50341 2.87818 9.56907 2.81619C9.62646 2.762 10.9954 1.49053 12.7933 1.59383C13.3815 1.62764 13.7886 1.84464 14.0033 2.23869C14.3439 2.86389 14.0519 3.68297 14.0393 3.7175C14.0146 3.7854 13.9575 3.8262 13.8975 3.82625Z" fill="#FFC538"/>
  <path d="M15.1306 6.01216C15.0867 6.01216 15.0432 5.99061 15.0128 5.94886C14.9581 5.87384 14.9665 5.76189 15.0315 5.69882C15.2956 5.44237 15.9831 4.64917 15.9929 4.06644C15.9956 3.90535 15.9453 3.7728 15.8391 3.66126C15.1443 2.93168 14.0214 2.96355 14.0102 2.964C13.9263 2.96689 13.8544 2.89024 13.8516 2.79232C13.8489 2.69439 13.9153 2.61242 14.0002 2.60918C14.0509 2.60724 15.2577 2.57077 16.0461 3.39863C16.2194 3.58064 16.305 3.80774 16.3004 4.07365C16.2856 4.93669 15.2725 5.92875 15.2294 5.97055C15.2006 5.9985 15.1655 6.01216 15.1306 6.01216Z" fill="#FFC538"/>
  <path d="M6.68027 4.56323C6.61109 4.56323 6.54859 4.50949 6.53152 4.4286C6.52058 4.37666 6.28351 3.14781 8.04535 2.37585C9.72105 1.64158 11.0324 1.90078 11.0874 1.91219C11.1711 1.9295 11.2266 2.02174 11.2116 2.11823C11.1966 2.21462 11.1168 2.27882 11.0333 2.2616C11.0206 2.25903 9.74601 2.01029 8.15449 2.70768C6.66117 3.36201 6.82308 4.30655 6.8307 4.34641C6.84886 4.44141 6.79757 4.53654 6.7155 4.55849C6.70371 4.56169 6.69191 4.56323 6.68027 4.56323Z" fill="#FFC538"/>
  <path d="M5.42057 5.26983C5.41104 5.26983 5.40143 5.26879 5.39178 5.26667C5.30831 5.24841 5.2535 5.15554 5.26932 5.05923C5.55143 3.34129 8.76917 3.11978 8.90601 3.11117C8.99198 3.10585 9.06327 3.18087 9.06788 3.27875C9.07249 3.37663 9.00749 3.46031 8.92272 3.46568C8.05741 3.52037 5.76858 3.92506 5.57147 5.12537C5.55749 5.2105 5.49299 5.26983 5.42057 5.26983Z" fill="#FFC538"/>
  <path d="M5.69671 5.4449C5.67882 5.4449 5.66058 5.44124 5.6428 5.43358C5.58038 5.40662 5.03194 5.15535 4.99558 4.64805C4.96862 4.27203 5.2246 3.90991 5.77823 3.54097C7.28847 2.53461 9.97644 2.44385 10.0901 2.44047C10.1732 2.4384 10.2456 2.51531 10.2478 2.61333C10.25 2.7113 10.1829 2.79282 10.098 2.79534C10.0709 2.79615 7.37417 2.88736 5.93198 3.84836C5.5103 4.12938 5.28659 4.40296 5.30206 4.61874C5.31952 4.86171 5.63984 5.05319 5.75066 5.10112C5.83019 5.13547 5.87054 5.23777 5.84073 5.32961C5.81765 5.40089 5.75902 5.4449 5.69671 5.4449Z" fill="#FFC538"/>
  <path d="M11.9569 7.44743C11.8738 7.44743 11.8054 7.37087 11.8033 7.27443C11.8011 7.17646 11.8682 7.09499 11.9531 7.09251C12.6047 7.07335 14.383 6.85392 14.7809 6.07916C15.2436 5.17844 14.704 4.45874 14.6808 4.42853C14.6246 4.35536 14.6301 4.24327 14.6933 4.17817C14.7564 4.11306 14.8532 4.11893 14.9098 4.1916C14.9171 4.20089 15.6253 5.13124 15.0455 6.26023C14.4796 7.36185 12.0634 7.44445 11.9609 7.44743C11.9596 7.44743 11.9582 7.44743 11.9569 7.44743Z" fill="#FFC538"/>
  <path d="M4.37034 9.00136C3.86425 9.00141 3.13702 8.7533 2.95343 7.77778C2.68307 6.34139 4.71796 5.78481 4.80472 5.76181C4.88765 5.73986 4.96991 5.7995 4.98898 5.895C5.00804 5.99049 4.9564 6.08575 4.87362 6.10776C4.85538 6.11262 3.04784 6.60713 3.25397 7.70239C3.46116 8.80325 4.51651 8.63842 4.56136 8.63084C4.64503 8.6166 4.72343 8.68359 4.73585 8.78044C4.74827 8.87728 4.69066 8.96741 4.60679 8.98197C4.53698 8.9941 4.45683 9.00136 4.37034 9.00136Z" fill="#FFC538"/>
  <path d="M9.24176 6.94142C9.18227 6.94142 9.12563 6.90129 9.10051 6.83425C9.06688 6.74426 9.10278 6.63984 9.18071 6.60093C9.53891 6.42225 10.5457 5.78515 10.4759 5.22112C10.3937 4.55669 9.54829 4.53681 9.53977 4.53668C9.45497 4.53546 9.38688 4.45521 9.38778 4.35728C9.38868 4.2594 9.45864 4.18311 9.54278 4.18167C9.58836 4.18217 10.6607 4.2043 10.7804 5.1709C10.8959 6.10494 9.46602 6.84547 9.30258 6.92685C9.28274 6.93673 9.26207 6.94142 9.24176 6.94142Z" fill="#FFC538"/>
  <path d="M10.6334 7.44762C10.5722 7.44762 10.5144 7.40523 10.4904 7.33562C10.459 7.24455 10.4976 7.14135 10.5765 7.10514C11.2935 6.77602 12.2829 6.11718 12.2377 5.68296C12.1818 5.14423 11.2823 4.64806 10.9405 4.50234C10.8608 4.46839 10.82 4.36636 10.8494 4.27439C10.8787 4.18241 10.9671 4.13539 11.0468 4.16925C11.1907 4.23043 12.4548 4.79139 12.5431 5.64071C12.6322 6.49883 11.0151 7.28598 10.69 7.43504C10.6714 7.44356 10.6523 7.44762 10.6334 7.44762Z" fill="#FFC538"/>
  <path d="M8.49185 5.83894C8.44466 5.83894 8.39814 5.81405 8.36802 5.76693C8.31767 5.68821 8.33185 5.57739 8.39993 5.5191C8.47775 5.45246 10.3458 3.90318 13.8339 5.29976C13.9142 5.33186 13.9567 5.43298 13.9288 5.52564C13.9009 5.61824 13.8135 5.66734 13.7331 5.63515C10.4095 4.30444 8.60083 5.7893 8.58294 5.80445C8.55548 5.82775 8.52353 5.83894 8.49185 5.83894Z" fill="#FFC538"/>
  <g opacity="0.4">
    <path d="M14.7335 6.90469C14.7126 6.90469 14.6922 6.89238 14.6806 6.8702C14.6632 6.83661 14.6726 6.79297 14.7017 6.77277C15.3704 6.30943 15.6053 5.73634 15.6076 5.73061C15.6218 5.69509 15.6583 5.67944 15.6891 5.69585C15.72 5.71222 15.7335 5.75428 15.7194 5.78986C15.7094 5.81483 15.4685 6.40704 14.765 6.8945C14.7552 6.90145 14.7443 6.90469 14.7335 6.90469Z" fill="white"/>
  </g>
  <g opacity="0.4">
    <path d="M11.7559 9.69154C11.7318 9.69154 11.7089 9.67508 11.6991 9.6478C11.686 9.6116 11.7009 9.57003 11.7322 9.55497C12.3499 9.25813 12.6507 8.89622 12.6536 8.89257C12.677 8.86408 12.7159 8.86286 12.7406 8.88973C12.7653 8.91665 12.7664 8.9616 12.743 8.99009C12.7302 9.00578 12.4211 9.37765 11.7795 9.68599C11.7718 9.68978 11.7638 9.69154 11.7559 9.69154Z" fill="white"/>
  </g>
  <g opacity="0.4">
    <path d="M10.4124 7.47965C9.29568 7.47965 8.78174 7.17334 8.75623 7.1577C8.72627 7.1393 8.71494 7.09643 8.7308 7.0618C8.74666 7.02717 8.78389 7.01401 8.81393 7.03227C8.82115 7.03669 9.55822 7.4719 11.1671 7.29422C11.2008 7.29016 11.2309 7.3191 11.2342 7.35815C11.2374 7.39719 11.2126 7.43186 11.1788 7.43556C10.8972 7.46667 10.642 7.47965 10.4124 7.47965Z" fill="white"/>
  </g>
  <path d="M6.02512 6.36679C6.02512 6.36679 6.17363 6.59619 6.02512 6.70597C5.87656 6.81575 5.86653 7.05669 6.20551 7.08694C6.5445 7.1172 7.48754 7.24997 7.66625 7.40818C7.84493 7.56639 7.5252 7.72969 7.85774 7.84732C8.19028 7.96495 8.35626 7.89817 8.69805 8.01697C9.03989 8.13578 9.34755 8.22031 9.54095 8.05539C9.73434 7.89046 9.57704 7.58884 9.83192 7.47324C10.0868 7.35764 10.024 7.57144 10.1788 7.55944C10.3335 7.54745 10.3877 7.34786 10.4661 7.37734C10.5444 7.40687 10.5966 7.23676 10.7062 7.13902C10.8158 7.04127 11.3036 6.80949 11.5942 6.83365C11.8847 6.85782 12.0922 6.87247 12.3612 6.76391C12.6301 6.65534 12.5972 6.61107 12.811 6.46873C13.0248 6.32639 13.4166 6.3048 13.5979 6.13496C13.7792 5.96512 13.7408 5.75764 13.9611 5.70669C14.1813 5.65574 14.5845 5.64758 14.5815 5.42166C14.5785 5.19578 14.2116 4.95123 14.2116 4.95123L6.02512 6.36679Z" fill="url(#paint4_linear_157_11299)"/>
  <g opacity="0.4">
    <path d="M16.0872 4.66271C16.0568 4.66271 16.0303 4.6367 16.0263 4.60094C15.9769 4.16632 15.2592 3.89116 14.9868 3.82182C14.9536 3.81339 14.9326 3.77547 14.9399 3.73719C14.9472 3.69891 14.9801 3.6747 15.0132 3.68313C15.0567 3.69418 16.0777 3.96104 16.1483 4.58246C16.1527 4.62132 16.129 4.65699 16.0952 4.66208C16.0925 4.66253 16.0898 4.66271 16.0872 4.66271Z" fill="white"/>
  </g>
  <g opacity="0.4">
    <path d="M12.2741 8.6496C12.2406 8.6496 12.2132 8.61858 12.2126 8.57976C12.203 7.90447 11.7014 7.64649 11.6963 7.64397C11.6651 7.62841 11.6508 7.58662 11.6642 7.55064C11.6777 7.51466 11.7138 7.49807 11.7451 7.51362C11.7688 7.52543 12.3247 7.8115 12.3356 8.57747C12.3362 8.61669 12.309 8.64897 12.2751 8.6496C12.2747 8.6496 12.2744 8.6496 12.2741 8.6496Z" fill="white"/>
  </g>
  <g opacity="0.4">
    <path d="M8.25022 8.42827C8.24717 8.42827 8.24417 8.428 8.24108 8.42751C7.65495 8.32701 7.2792 8.01308 7.06725 7.76741C7.04327 7.73963 7.04334 7.69468 7.06745 7.667C7.09155 7.63932 7.13053 7.63941 7.15444 7.66723C7.35331 7.89766 7.70639 8.1923 8.25921 8.28707C8.2928 8.29284 8.316 8.32895 8.311 8.36772C8.30643 8.40294 8.28018 8.42827 8.25022 8.42827Z" fill="white"/>
  </g>
  <g opacity="0.4">
    <path d="M6.93304 7.54432C6.91362 7.54432 6.89452 7.53377 6.88257 7.51402C6.84483 7.4518 6.82667 7.41217 6.82593 7.41051C6.81015 7.37583 6.82163 7.333 6.85163 7.3147C6.88143 7.29639 6.91878 7.3096 6.93475 7.34423C6.93491 7.34459 6.95058 7.37849 6.98339 7.4326C7.00288 7.46474 6.99608 7.50902 6.96823 7.53147C6.95749 7.54013 6.94522 7.54432 6.93304 7.54432Z" fill="white"/>
  </g>
  <g opacity="0.4">
    <path d="M13.8799 6.66711C13.8588 6.66711 13.8383 6.65457 13.8269 6.63208C13.8096 6.59826 13.8194 6.55475 13.8487 6.53487C14.1848 6.30687 14.425 5.96124 14.5626 5.50764C14.5739 5.47062 14.609 5.45114 14.641 5.46408C14.6731 5.47707 14.69 5.51756 14.6788 5.55457C14.5333 6.03392 14.2678 6.41521 13.9111 6.65728C13.9013 6.66395 13.8905 6.66711 13.8799 6.66711Z" fill="white"/>
  </g>
  <g opacity="0.4">
    <path d="M14.7203 5.11742C14.7176 5.11742 14.715 5.11724 14.7123 5.11684C14.6786 5.11183 14.6548 5.07626 14.6592 5.03735C14.6716 4.92649 14.6717 4.85705 14.6717 4.85638C14.6716 4.8172 14.6991 4.78532 14.7331 4.78528H14.7332C14.7671 4.78528 14.7946 4.81688 14.7947 4.85602C14.7947 4.85917 14.7948 4.93451 14.7812 5.05552C14.7772 5.09132 14.7508 5.11742 14.7203 5.11742Z" fill="white"/>
  </g>
  <g opacity="0.4">
    <path d="M13.4474 2.00028C13.4379 2.00028 13.4281 1.99771 13.4191 1.99225C13.0869 1.79266 12.6419 1.78116 12.3271 1.80673C12.2925 1.8093 12.2638 1.77999 12.2614 1.74086C12.259 1.70177 12.2845 1.66782 12.3184 1.66507C12.6491 1.63819 13.1182 1.65136 13.4759 1.86628C13.506 1.88436 13.5177 1.92724 13.502 1.96205C13.4911 1.98635 13.4697 2.00028 13.4474 2.00028Z" fill="white"/>
  </g>
  <g opacity="0.4">
    <path d="M11.7646 1.89918C11.7368 1.89918 11.7116 1.87731 11.7048 1.84476C11.6969 1.80666 11.7172 1.7683 11.7502 1.75914C11.7529 1.75842 11.8175 1.74052 11.9245 1.71965C11.9583 1.71293 11.9898 1.73913 11.9954 1.77776C12.0011 1.81645 11.9786 1.85306 11.945 1.85964C11.8426 1.8797 11.7796 1.89706 11.779 1.8972C11.7742 1.89855 11.7693 1.89918 11.7646 1.89918Z" fill="white"/>
  </g>
  <g opacity="0.4">
    <path d="M6.69926 3.28294C6.67465 3.28294 6.65141 3.26576 6.64191 3.23771C6.62957 3.20115 6.64523 3.15999 6.67688 3.14574C7.52891 2.76206 8.47782 2.69132 8.48731 2.69064C8.52121 2.68807 8.55039 2.71801 8.55246 2.75715C8.55453 2.79628 8.52875 2.82996 8.49485 2.83235C8.48555 2.83302 7.5552 2.90264 6.7216 3.27798C6.71426 3.28136 6.70668 3.28294 6.69926 3.28294Z" fill="white"/>
  </g>
  <g opacity="0.4">
    <path d="M4.69051 6.23046C4.68551 6.23046 4.68043 6.22973 4.67539 6.22829C4.64246 6.21869 4.6225 6.18009 4.63078 6.14209C4.76621 5.52193 5.6382 5.14335 5.67527 5.12752C5.70707 5.11395 5.74254 5.13271 5.75426 5.1695C5.76605 5.20624 5.74977 5.24709 5.71793 5.26071C5.70945 5.26431 4.86965 5.6291 4.75004 6.1768C4.74304 6.20899 4.71801 6.23046 4.69051 6.23046Z" fill="white"/>
  </g>
  <g opacity="0.4">
    <path d="M16.0875 7.34085C16.0664 7.34085 16.046 7.3284 16.0345 7.30604C16.0171 7.27232 16.0268 7.22877 16.0561 7.20875C16.1904 7.11686 16.2664 7.00893 16.2819 6.88792C16.3068 6.69292 16.1691 6.51713 16.1677 6.51542C16.1448 6.48656 16.1464 6.4417 16.1713 6.41515C16.1962 6.38859 16.235 6.39031 16.258 6.41898C16.2654 6.42804 16.4367 6.64482 16.4037 6.90749C16.3829 7.07345 16.287 7.21592 16.1187 7.33093C16.1089 7.33765 16.0981 7.34085 16.0875 7.34085Z" fill="white"/>
  </g>
  <g opacity="0.4">
    <path d="M14.3068 3.42804C14.2965 3.42804 14.286 3.42502 14.2764 3.41871C14.2247 3.38471 14.1581 3.35306 14.0785 3.32461C14.046 3.31303 14.0279 3.27326 14.0379 3.2358C14.048 3.19833 14.0824 3.17736 14.1149 3.18895C14.2031 3.22047 14.2779 3.25626 14.3373 3.29531C14.3668 3.31474 14.3771 3.35811 14.3603 3.39215C14.349 3.41515 14.3282 3.42804 14.3068 3.42804Z" fill="white"/>
  </g>
  <g opacity="0.4">
    <path d="M7.08398 10.1032C6.27793 10.1032 5.93265 9.72645 5.91652 9.70828C5.89218 9.68091 5.89171 9.63596 5.91542 9.60787C5.93906 9.57983 5.97789 9.57924 6.00222 9.60638C6.00632 9.61094 6.4266 10.0622 7.42195 9.93966C7.4559 9.93555 7.48601 9.96373 7.48961 10.0027C7.4932 10.0417 7.46875 10.0767 7.43496 10.0809C7.30949 10.0963 7.1925 10.1032 7.08398 10.1032Z" fill="white"/>
  </g>
  <g opacity="0.4">
    <path d="M10.1311 10.6737C10.1297 10.6737 10.1282 10.6736 10.1268 10.6735C9.15545 10.5952 8.83408 9.98178 8.82092 9.95572C8.80377 9.92187 8.81365 9.8784 8.84299 9.85861C8.87213 9.83882 8.90986 9.85018 8.92701 9.8839C8.93127 9.89211 9.23514 10.4592 10.1353 10.5318C10.1692 10.5346 10.1948 10.5685 10.1924 10.6076C10.1902 10.645 10.1631 10.6737 10.1311 10.6737Z" fill="white"/>
  </g>
  <g opacity="0.4">
    <path d="M13.8024 8.36461C13.4861 8.36461 13.2631 8.32313 13.2458 8.31984C13.2123 8.31339 13.1896 8.27688 13.1952 8.23819C13.2007 8.19951 13.2324 8.17349 13.2659 8.17976C13.2738 8.18129 14.0561 8.32611 14.7779 8.06533C14.8105 8.05379 14.8449 8.07444 14.8551 8.11191C14.8652 8.14933 14.8471 8.18914 14.8147 8.20086C14.4567 8.33012 14.0908 8.36461 13.8024 8.36461Z" fill="white"/>
  </g>
  <g opacity="0.4">
    <path d="M16.1153 3.85427C16.0895 3.85427 16.0655 3.83538 16.0569 3.80553C15.9413 3.40156 15.2256 3.03366 15.2184 3.03001C15.1873 3.01423 15.1732 2.9723 15.1869 2.93641C15.2005 2.90053 15.2369 2.88434 15.268 2.90003C15.2995 2.91608 16.0412 3.29769 16.1737 3.76099C16.1843 3.79823 16.1668 3.83836 16.1346 3.85066C16.1282 3.8531 16.1217 3.85427 16.1153 3.85427Z" fill="white"/>
  </g>
  <g opacity="0.4">
    <path d="M3.57389 6.77712C3.54444 6.77712 3.51846 6.75269 3.51331 6.71811C3.42901 6.1498 3.78745 5.88551 3.80272 5.87455C3.83163 5.85381 3.86948 5.86409 3.88745 5.89736C3.90534 5.93059 3.89655 5.97424 3.86784 5.99502C3.85542 6.00408 3.56456 6.2223 3.6346 6.69417C3.64034 6.7328 3.61784 6.7695 3.58436 6.77613C3.58085 6.77676 3.57733 6.77712 3.57389 6.77712Z" fill="white"/>
  </g>
  <g opacity="0.4">
    <path d="M4.12946 8.93833C4.12563 8.93833 4.12172 8.93792 4.11782 8.93707C3.45809 8.79117 3.10797 8.1372 3.0934 8.10943C3.07578 8.07593 3.08504 8.03233 3.11407 8.012C3.14309 7.99167 3.1809 8.0023 3.19856 8.03576C3.20188 8.04203 3.53614 8.66385 4.14094 8.79762C4.1743 8.80501 4.19618 8.84221 4.18977 8.88071C4.18418 8.91466 4.1584 8.93833 4.12946 8.93833Z" fill="white"/>
  </g>
  <g opacity="0.4">
    <path d="M6.45558 7.84273C6.43456 7.84273 6.41405 7.83029 6.40261 7.80788C6.11835 7.25364 5.70944 7.21153 5.69218 7.21C5.65839 7.20702 5.63296 7.17307 5.63542 7.13403C5.63788 7.09499 5.66718 7.06545 5.70093 7.06834C5.72073 7.06992 6.18995 7.11437 6.50847 7.73552C6.52581 7.76924 6.51612 7.8128 6.48686 7.83277C6.47702 7.83949 6.46624 7.84273 6.45558 7.84273Z" fill="white"/>
  </g>
  <g opacity="0.4">
    <path d="M11.3974 7.96407C11.3851 7.96407 11.3726 7.95984 11.3619 7.951C10.9438 7.60911 10.1973 7.75492 10.1898 7.75646C10.1566 7.76317 10.1245 7.73738 10.1186 7.69874C10.1127 7.66011 10.1351 7.62332 10.1686 7.61655C10.2013 7.60997 10.9736 7.45939 11.433 7.83513C11.4608 7.85781 11.4673 7.90213 11.4476 7.93409C11.4356 7.95366 11.4167 7.96407 11.3974 7.96407Z" fill="white"/>
  </g>
  <g opacity="0.4">
    <path d="M12.6016 7.93833C12.5776 7.93833 12.5549 7.92215 12.545 7.8951C12.5317 7.85903 12.5462 7.81732 12.5775 7.80199C12.583 7.79929 13.1321 7.52792 13.5019 7.19559C13.5287 7.17151 13.5674 7.17702 13.5883 7.20799C13.6091 7.23892 13.6043 7.28355 13.5775 7.30763C13.1949 7.6515 12.6487 7.92134 12.6257 7.93265C12.6178 7.93653 12.6096 7.93833 12.6016 7.93833Z" fill="white"/>
  </g>
  <g opacity="0.4">
    <path d="M9.07271 2.20273C9.04532 2.20273 9.02036 2.18154 9.01321 2.14958C9.0047 2.11161 9.02439 2.07289 9.05728 2.06301C9.09134 2.05282 9.89923 1.814 10.5133 1.92888C10.5468 1.93515 10.5696 1.97162 10.5641 2.01035C10.5586 2.04908 10.5265 2.07523 10.4935 2.06905C9.90517 1.959 9.0963 2.19804 9.08821 2.20043C9.08302 2.20197 9.07782 2.20273 9.07271 2.20273Z" fill="white"/>
  </g>
  <g opacity="0.4">
    <path d="M10.2023 9.36463C10.2017 9.36463 10.2011 9.36463 10.2005 9.36458C9.19884 9.33113 8.54719 8.90363 8.51997 8.88546C8.49055 8.86584 8.48055 8.82247 8.49751 8.78852C8.51442 8.75457 8.55208 8.7429 8.58153 8.76251C8.58794 8.76675 9.23528 9.19028 10.204 9.22265C10.238 9.22378 10.2647 9.25647 10.2638 9.29569C10.2628 9.3342 10.2354 9.36463 10.2023 9.36463Z" fill="white"/>
  </g>
  <g opacity="0.4">
    <path d="M4.98365 8.54097C4.97533 8.54097 4.96685 8.53903 4.95877 8.53488C4.48107 8.29074 4.26685 7.69317 4.25794 7.66783C4.24517 7.6315 4.26037 7.5902 4.29181 7.57541C4.32326 7.56062 4.35916 7.57816 4.37193 7.61445C4.37396 7.62013 4.57724 8.18456 5.00857 8.40503C5.03962 8.4209 5.05369 8.46283 5.03994 8.49868C5.02978 8.52519 5.00728 8.54097 4.98365 8.54097Z" fill="white"/>
  </g>
  <g opacity="0.4">
    <path d="M11.1728 9.90198C11.1421 9.90198 11.1156 9.87561 11.1118 9.83963C11.1077 9.80072 11.1316 9.76528 11.1654 9.7605C11.2094 9.75428 11.2601 9.74193 11.3161 9.72376C11.3487 9.71325 11.3827 9.73517 11.3919 9.77295C11.4011 9.81068 11.382 9.84991 11.3493 9.8605C11.2873 9.88061 11.2304 9.89436 11.1803 9.90144C11.1778 9.9018 11.1753 9.90198 11.1728 9.90198Z" fill="white"/>
  </g>
  <g opacity="0.4">
    <path d="M12.4605 10.1683C12.4369 10.1683 12.4144 10.1526 12.4043 10.1262C12.3904 10.0903 12.4044 10.0484 12.4355 10.0324C12.8162 9.83711 13.3832 9.23513 13.3889 9.22909C13.4139 9.20248 13.4529 9.20433 13.4758 9.23305C13.4989 9.26186 13.4973 9.30677 13.4724 9.33337C13.4486 9.35875 12.8848 9.95731 12.4854 10.1621C12.4773 10.1663 12.4688 10.1683 12.4605 10.1683Z" fill="white"/>
  </g>
  <g opacity="0.4">
    <path d="M5.27972 4.24016C5.26936 4.24016 5.25886 4.23714 5.24921 4.23074C5.21976 4.21126 5.20952 4.16789 5.2264 4.13385C5.37761 3.82916 5.89284 3.5182 5.91468 3.50513C5.94487 3.48705 5.98198 3.50067 5.99761 3.53543C6.01327 3.57023 6.00147 3.61307 5.97132 3.63114C5.96632 3.63417 5.4664 3.93592 5.33311 4.20441C5.32179 4.22731 5.30104 4.24016 5.27972 4.24016Z" fill="white"/>
  </g>
  <g opacity="0.4">
    <path d="M6.30812 4.73928C6.2905 4.73928 6.273 4.73058 6.26085 4.71371C6.23909 4.6836 6.24261 4.63883 6.26874 4.61376C6.28581 4.5973 6.69187 4.20948 7.13109 4.03955C7.16327 4.02719 7.19816 4.04712 7.20898 4.08432C7.21976 4.12151 7.20241 4.16173 7.17019 4.17422C6.75335 4.33549 6.35151 4.71899 6.34749 4.72287C6.33597 4.73387 6.32198 4.73928 6.30812 4.73928Z" fill="white"/>
  </g>
  <g opacity="0.4">
    <path d="M5.51803 8.89104C5.5081 8.89104 5.4981 8.88825 5.48873 8.88243C5.45889 8.86372 5.44779 8.82062 5.464 8.78617C5.66853 8.35119 6.25771 8.0928 6.28268 8.08202C6.31455 8.06832 6.3499 8.08689 6.36186 8.12364C6.37373 8.16034 6.35764 8.20128 6.3258 8.21503C6.32014 8.21751 5.75463 8.46579 5.57213 8.85394C5.56103 8.87756 5.53986 8.89104 5.51803 8.89104Z" fill="white"/>
  </g>
  <path d="M14.4585 5.04639C14.396 4.87362 14.1861 4.94806 14.1402 4.70315C14.0943 4.45825 14.0077 4.33832 13.8474 4.31028C13.768 4.29644 13.6223 4.18809 13.4953 4.08219C13.4739 4.06325 13.4522 4.04463 13.43 4.02669C13.3309 3.94071 13.2554 3.86853 13.2554 3.86853C13.2554 3.86853 13.2156 3.85847 13.1538 3.83827C13.0885 3.80103 13.0233 3.76844 12.96 3.74125C12.6687 3.61591 12.5892 3.39138 12.4554 3.18255C12.5323 3.03805 12.8333 3.05897 12.6985 2.90527C12.5249 2.70721 12.4783 2.89661 12.231 2.70721C11.9837 2.5178 11.9336 2.41086 11.7561 2.47732C11.5786 2.54382 11.3543 2.45734 11.1374 2.56758C11.0609 2.60649 11.0174 2.64278 10.9851 2.67614C10.5323 2.68665 10.0737 2.7532 9.74543 2.79274C9.14836 2.86465 8.89933 3.20099 8.57554 3.32051C8.25175 3.44003 7.77917 3.55315 7.59363 3.9908C7.59363 3.9908 7.5248 4.25139 7.44078 4.66235C7.43316 4.69959 7.42105 4.73345 7.40527 4.7651C7.32507 4.76605 7.26531 4.75261 7.18718 4.77227C7.10906 4.79197 7.09527 4.86186 7.0332 4.92583C6.97113 4.98985 6.97738 4.84878 6.8239 5.00135C6.67038 5.15388 6.64046 5.31492 6.63019 5.4238C6.62152 5.51614 6.38995 5.6606 6.54495 5.64617C6.54495 5.64617 6.51296 5.6624 6.35144 5.76032C6.18988 5.85825 5.88839 6.21447 5.96515 6.39382C6.04191 6.57318 5.85734 6.62286 5.96913 6.82741C6.08093 7.03197 6.34824 7.0142 6.66921 7.04676C6.99015 7.07931 7.16558 7.10126 7.46156 7.25163C7.75753 7.40199 7.50964 7.70672 7.79804 7.8074C8.08644 7.90807 8.51836 7.81209 8.69836 7.89306C8.87839 7.97408 9.27453 8.25505 9.46707 8.03729C9.65961 7.81953 9.4909 7.43247 9.835 7.55947C10.1791 7.68652 10.2016 7.35753 10.2978 7.34734C10.394 7.33715 10.4287 7.45302 10.5805 7.15072C10.7323 6.84842 11.5816 6.71768 11.9555 6.76398C12.3295 6.81028 12.2121 6.57728 12.6084 6.4688C13.0047 6.36033 13.3017 6.30217 13.4479 6.20685C13.5941 6.11154 13.6318 5.83359 13.7834 5.70676C13.9351 5.57989 14.237 5.63458 14.3069 5.53111C14.3768 5.42759 14.5211 5.21916 14.4585 5.04639Z" fill="url(#paint5_linear_157_11299)"/>
  <path d="M14.0145 5.09912C14.0023 4.95994 13.8513 4.86292 13.8805 4.79542C13.9098 4.72793 13.5553 4.5002 13.5553 4.5002C13.5553 4.5002 13.5539 4.50133 13.5535 4.5016C13.5426 4.4933 13.5319 4.48501 13.5202 4.47685C12.967 4.09109 12.638 4.16702 12.4553 3.69461C12.4409 3.65732 12.4259 3.62247 12.4105 3.58866C12.4407 3.56142 12.465 3.52315 12.4553 3.47315C12.4334 3.35926 12.332 3.33081 12.2991 3.25002C12.2662 3.16922 12.3704 3.13149 12.3512 3.07563C12.332 3.01976 12.258 2.99546 12.0662 2.98915C11.8743 2.98284 11.9894 2.91007 11.8743 2.88162C11.7592 2.85313 11.7894 2.95123 11.6003 2.9529C11.4801 2.95398 11.4064 2.97572 11.3685 2.99145C11.2111 3.04217 11.4254 3.26242 11.0814 3.3993C10.6575 3.56801 9.90777 3.41039 10.1584 3.10962C10.4089 2.80881 9.51659 2.86706 9.15261 3.10962C8.94886 3.24537 8.87648 3.54262 8.49171 3.60912C8.10694 3.67563 7.60581 4.17996 7.60581 4.40962C7.60581 4.5332 7.66999 4.67712 7.68526 4.81364C7.68546 4.85259 7.67147 4.91192 7.59577 4.95146C7.47456 5.01472 7.43069 4.93879 7.33569 4.95146C7.24069 4.96413 7.22241 5.06111 7.16761 5.12437C7.1128 5.18762 7.03397 5.17577 6.993 5.18172C6.95202 5.18767 6.84241 5.28889 6.82413 5.38586C6.80585 5.48289 6.62311 5.60426 6.61948 5.66165C6.61581 5.71905 6.59636 5.85404 6.45624 5.92991C6.31616 6.00584 6.19921 6.16612 6.24307 6.21251C6.28694 6.25891 6.20975 6.25471 6.23374 6.36436C6.25772 6.47401 6.33811 6.44448 6.36733 6.50354C6.39659 6.5626 6.21018 6.71865 6.25772 6.79881C6.30522 6.87893 6.48065 6.8663 6.61218 6.79881C6.74374 6.73131 6.68159 6.83253 6.88077 6.81148C7.07995 6.79038 7.31007 6.64831 7.43327 6.62825C7.55647 6.60814 7.96608 6.71869 7.90581 6.82626C7.8455 6.93384 7.9387 7.42086 8.14151 7.40828C8.34433 7.39565 8.36116 7.31973 8.4021 7.30075C8.443 7.28177 8.5837 7.35395 8.66956 7.33686C8.75542 7.31973 8.85745 7.2994 8.94073 7.23682C9.02402 7.17424 9.22546 7.22022 9.46734 7.27C9.70921 7.31977 9.91093 7.20562 9.97999 7.09502C10.0491 6.98443 10.3396 6.95913 10.4437 6.88321C10.5478 6.80728 10.4569 6.61481 10.4569 6.61481C10.4275 6.55918 10.3784 6.5177 10.3289 6.47789L10.3291 6.47793C10.3291 6.47793 10.2238 6.38415 10.3587 6.31378C10.4937 6.24344 10.5424 6.41499 10.7178 6.25052C10.8932 6.08605 10.7479 5.98478 10.8329 5.85512C10.9178 5.72541 11.0193 5.76337 11.0605 5.66107C11.0983 5.5672 11.3516 5.63555 11.2713 5.51675C11.3062 5.52527 11.3392 5.53699 11.3681 5.55534C11.666 5.74443 11.1179 6.02816 11.2421 6.26594C11.2749 6.32861 11.4155 6.33591 11.61 6.30796C11.6751 6.37951 11.6576 6.47667 11.8195 6.46887C12.0168 6.4594 12.2397 6.18312 12.3928 6.22527C12.546 6.26747 12.8097 6.15561 13.0108 6.06364C13.2119 5.97166 13.1862 5.90476 13.2775 5.88366C13.3689 5.86256 13.526 5.75715 13.5955 5.62189C13.6649 5.48663 13.738 5.39439 13.8586 5.39439C13.9792 5.39439 14.0267 5.23834 14.0145 5.09912Z" fill="url(#paint6_radial_157_11299)"/>
  <path opacity="0.4" d="M7.60546 4.47693C7.72898 4.04104 7.71175 3.77905 7.99679 3.69469C8.28183 3.61033 8.50109 3.83103 8.82995 3.64897C9.15882 3.46692 9.18511 3.44131 9.2414 3.28964C9.29769 3.13797 9.50964 2.93847 9.8312 2.95384C10.1528 2.96921 10.3793 3.03094 10.2697 3.10975C10.1601 3.18856 9.77456 3.15776 9.78828 3.37981C9.80199 3.60186 9.69964 3.89712 9.42195 3.79591C9.14421 3.69469 8.89245 3.6799 8.88312 3.86868C8.87378 4.0574 9.03804 4.15524 8.86456 4.35939C8.69109 4.56354 8.50257 4.60154 8.31554 4.47693C8.12851 4.35231 8.06456 4.4272 7.85526 4.62192C7.64601 4.81665 7.53171 4.73725 7.60546 4.47693Z" fill="url(#paint7_linear_157_11299)"/>
  <path opacity="0.4" d="M6.82553 6.0102C6.80362 6.18744 6.98143 6.42513 7.36116 6.34424C7.74093 6.26336 7.92729 6.29059 8.14104 6.39402C8.35483 6.49745 8.25616 6.82012 8.57956 6.87702C8.90296 6.93397 9.6923 6.9213 9.81288 6.80741C9.93347 6.69352 9.8348 6.4988 9.71421 6.32098C9.59362 6.14312 10.1916 6.24884 9.89698 5.86854C9.60237 5.48825 8.78237 5.63703 8.61796 5.73193C8.4535 5.82684 8.69468 6.00349 8.59604 6.11444C8.49737 6.2254 8.15206 6.2254 7.98214 6.06724C7.81221 5.90908 8.26171 5.99763 8.21237 5.75092C8.163 5.50416 6.84745 5.83293 6.82553 6.0102Z" fill="url(#paint8_linear_157_11299)"/>
  <path opacity="0.4" d="M12.9922 5.2809C13.2572 5.1043 13.6801 5.11923 13.6924 4.83397C13.7048 4.54871 13.6006 4.41999 13.2772 4.31039C12.9538 4.20078 12.9747 4.36611 12.6985 4.35935C12.4221 4.35263 12.7645 3.99154 12.5248 3.86205C12.2851 3.73257 11.2546 3.80957 11.112 4.08108C10.9695 4.35259 11.769 4.22644 11.8297 4.40971C11.8904 4.59298 10.7667 4.70831 10.6078 4.85629C10.4488 5.00426 10.286 5.23933 10.9484 5.26729C11.6109 5.29524 11.6465 5.2791 11.6616 5.28086C11.6767 5.28262 12.2467 5.06242 12.1152 5.3433C11.9836 5.62428 12.8032 5.40683 12.9922 5.2809Z" fill="url(#paint9_linear_157_11299)"/>
  <path opacity="0.4" d="M10.5258 3.49847C10.2901 3.61866 10.3668 3.7954 10.0489 4.0202C9.73098 4.24499 9.19383 4.53706 9.27602 4.83391C9.35825 5.13075 9.97044 5.42809 10.1522 4.8587C10.334 4.28931 10.9946 4.59297 11.0457 4.44116C11.0968 4.28931 10.5513 4.07421 10.8674 3.86862C11.1836 3.66298 11.9729 3.86546 11.7646 3.49851C11.5563 3.13151 10.5258 3.49847 10.5258 3.49847Z" fill="url(#paint10_linear_157_11299)"/>
  <g opacity="0.4">
    <path d="M13.7828 4.87075C13.7549 4.87075 13.7297 4.84871 13.723 4.81606C13.709 4.74762 13.5059 4.61994 13.3251 4.54361C13.2932 4.53013 13.2768 4.48942 13.2884 4.45254C13.3001 4.4157 13.3355 4.39672 13.3673 4.41025C13.4698 4.45344 13.8068 4.60799 13.8427 4.78342C13.8505 4.82161 13.8301 4.85984 13.797 4.86881C13.7922 4.87012 13.7875 4.87075 13.7828 4.87075Z" fill="white"/>
  </g>
  <g opacity="0.4">
    <path d="M9.83236 6.59866C9.80971 6.59866 9.78791 6.58419 9.77717 6.55917C9.71545 6.41534 9.55162 6.2635 9.55002 6.26196C9.52342 6.23748 9.51912 6.1928 9.54029 6.16219C9.56154 6.13153 9.60025 6.12653 9.62674 6.15096C9.63435 6.15795 9.81369 6.32436 9.88744 6.49614C9.90252 6.53126 9.8901 6.57387 9.85963 6.59127C9.85084 6.59627 9.8415 6.59866 9.83236 6.59866Z" fill="white"/>
  </g>
  <g opacity="0.4">
    <path d="M9.51659 4.54784C9.50065 4.54784 9.48475 4.54076 9.47272 4.52661C9.44889 4.49865 9.44925 4.4537 9.4735 4.4262C9.67499 4.19779 10.0535 3.96709 10.0696 3.9574C10.0997 3.93918 10.1368 3.95253 10.1526 3.98724C10.1684 4.02196 10.1568 4.06488 10.1267 4.0831C10.123 4.0854 9.74819 4.31385 9.55971 4.52751C9.54772 4.54108 9.53214 4.54784 9.51659 4.54784Z" fill="white"/>
  </g>
  <g opacity="0.4">
    <path d="M11.2 5.21358C11.1893 5.21358 11.1784 5.21033 11.1685 5.20352C11.0619 5.12999 10.909 5.11313 10.9075 5.11295C10.8737 5.10938 10.8488 5.07489 10.8518 5.03585C10.8549 4.99685 10.8848 4.968 10.9185 4.97151C10.9259 4.97228 11.1005 4.99117 11.2316 5.08161C11.2608 5.10172 11.2703 5.14532 11.2529 5.179C11.2413 5.20122 11.221 5.21358 11.2 5.21358Z" fill="white"/>
  </g>
  <g opacity="0.4">
    <path d="M6.9029 5.50866C6.89841 5.50866 6.89388 5.50807 6.88931 5.5069C6.85618 5.49829 6.83536 5.46024 6.84282 5.422C6.86759 5.2954 6.99134 5.15645 7.08364 5.15158C7.12579 5.14937 7.19048 5.12642 7.24571 5.06867C7.27087 5.04229 7.30974 5.04455 7.33263 5.07363C7.35544 5.10266 7.35349 5.14757 7.32833 5.1739C7.26091 5.24446 7.17154 5.28914 7.08923 5.29346C7.06044 5.29594 6.97696 5.38098 6.96282 5.45325C6.95642 5.48625 6.93103 5.50866 6.9029 5.50866Z" fill="white"/>
  </g>
  <g opacity="0.4">
    <path d="M9.26711 3.22348C9.24914 3.22348 9.23133 3.21446 9.21922 3.19706C9.19789 3.16653 9.202 3.1219 9.2284 3.09728C9.23782 3.08849 9.46188 2.88191 9.73383 2.843C9.7677 2.83826 9.79829 2.86581 9.80243 2.90472C9.80664 2.94363 9.78266 2.97911 9.74895 2.98394C9.51258 3.01775 9.3077 3.20589 9.30567 3.20779C9.2943 3.21834 9.28067 3.22348 9.26711 3.22348Z" fill="white"/>
  </g>
  <g opacity="0.4">
    <path d="M7.85799 7.71245C7.85061 7.71245 7.84311 7.71092 7.8358 7.70767C7.72213 7.657 7.69811 7.52868 7.67693 7.41543C7.66545 7.35379 7.6535 7.29009 7.62838 7.24162C7.61092 7.20794 7.62041 7.16434 7.64955 7.14423C7.67873 7.12413 7.71654 7.13504 7.73393 7.16867C7.76947 7.23725 7.7842 7.31601 7.79721 7.38544C7.81654 7.48878 7.83088 7.55325 7.88014 7.57521C7.91182 7.58932 7.9276 7.63044 7.91533 7.667C7.90596 7.69518 7.88264 7.71245 7.85799 7.71245Z" fill="white"/>
  </g>
  <g opacity="0.4">
    <path d="M6.10744 6.43955C6.07401 6.43955 6.04658 6.40862 6.04596 6.36985C6.04166 6.10289 6.26409 5.95438 6.27354 5.94816C6.30315 5.92886 6.34065 5.94081 6.35741 5.97494C6.37412 6.00898 6.36381 6.05222 6.33436 6.0716C6.33155 6.0735 6.16608 6.18612 6.16897 6.36723C6.16959 6.40646 6.14256 6.43878 6.10862 6.4395C6.10823 6.43955 6.10784 6.43955 6.10744 6.43955Z" fill="white"/>
  </g>
  <g opacity="0.4">
    <path d="M12.6984 3.8508C12.6914 3.8508 12.6842 3.8494 12.6772 3.84642C12.403 3.73001 12.3532 3.49908 12.3512 3.4893C12.3435 3.45116 12.364 3.41292 12.3971 3.40395C12.4299 3.39498 12.4628 3.41842 12.4709 3.45621C12.4728 3.46446 12.5118 3.62487 12.7197 3.71315C12.7516 3.72668 12.7679 3.76748 12.7562 3.80427C12.747 3.83303 12.7235 3.8508 12.6984 3.8508Z" fill="white"/>
  </g>
  <g opacity="0.4">
    <path d="M11.9575 2.77838C11.9329 2.77838 11.9098 2.76129 11.9002 2.73329C11.8825 2.68095 11.8736 2.65471 11.7212 2.68776C11.6672 2.69948 11.6238 2.70345 11.5854 2.70696C11.5122 2.71368 11.4543 2.719 11.3426 2.77292C11.3112 2.78807 11.2752 2.77098 11.2621 2.73478C11.249 2.69862 11.2638 2.65701 11.2951 2.6419C11.425 2.57923 11.4982 2.57252 11.5757 2.56544C11.6127 2.56206 11.6509 2.55854 11.6985 2.54822C11.8315 2.51932 11.9558 2.50782 12.0148 2.68149C12.0272 2.71801 12.0116 2.75922 11.9799 2.77351C11.9726 2.7768 11.965 2.77838 11.9575 2.77838Z" fill="white"/>
  </g>
  <g opacity="0.4">
    <path d="M12.3183 6.36824C12.2853 6.36824 12.258 6.33799 12.2569 6.29962C12.2557 6.26044 12.2824 6.22757 12.3163 6.22631C12.421 6.2223 12.7152 6.19939 12.818 6.14245C12.8484 6.12554 12.8853 6.14038 12.9 6.17572C12.9148 6.21107 12.9018 6.2535 12.8712 6.27049C12.7267 6.35057 12.3616 6.36666 12.3204 6.36824C12.3197 6.36824 12.319 6.36824 12.3183 6.36824Z" fill="white"/>
  </g>
  <path d="M9.44547 5.52171L9.17797 5.34344L9.13719 5.47929L8.83234 5.40418L8.94508 5.60729L8.74121 5.63447L9.00871 5.81274L8.85777 5.88051L8.95848 5.91743C9.20004 6.00603 9.47086 6.03245 9.71317 5.99115C9.77516 5.82969 9.73547 5.64922 9.60254 5.48826L9.54715 5.42117L9.44547 5.52171Z" fill="#3C7413"/>
  <path d="M13.8017 4.09781L14.0692 4.27608L14.1099 4.14024L14.4148 4.21535L14.302 4.01224L14.506 3.98505L14.2385 3.80678L14.3894 3.73907L14.2887 3.70214C14.0471 3.61355 13.7762 3.58713 13.534 3.62842C13.472 3.78988 13.5117 3.97036 13.6446 4.13131L13.7 4.1984L13.8017 4.09781Z" fill="#3C7413"/>
  <path d="M11.77 4.24598L12.0016 4.09161L11.7898 4.04454L11.8597 3.85013L11.5679 3.8967L11.4973 3.75549L11.2657 3.90987L11.1412 3.79846L11.0997 3.8609C11.0003 4.01077 10.9993 4.18931 11.0969 4.35838C11.3506 4.42344 11.6186 4.42272 11.8434 4.35649L11.9372 4.32885L11.77 4.24598Z" fill="#3C7413"/>
  <path d="M9.04196 8.29811L9.27364 8.14373L9.06176 8.09666L9.13164 7.90225L8.83993 7.94883L8.7693 7.80762L8.53766 7.96199L8.41317 7.85058L8.37172 7.91303C8.27227 8.06289 8.27125 8.24143 8.36887 8.4105C8.62262 8.47556 8.89055 8.47489 9.11543 8.40861L9.20918 8.38097L9.04196 8.29811Z" fill="#3C7413"/>
  <path d="M6.73604 3.52983L6.50439 3.6842L6.71627 3.73127L6.64639 3.92568L6.93811 3.87911L7.00873 4.02032L7.24037 3.86595L7.36486 3.97735L7.40631 3.91491C7.50576 3.76504 7.50678 3.5865 7.40916 3.41743C7.15541 3.35237 6.88748 3.35309 6.6626 3.41933L6.56885 3.44696L6.73604 3.52983Z" fill="#3C7413"/>
  <path d="M8.63182 4.40982L8.42334 4.54873L8.8515 4.83403L9.05998 4.69512L8.63182 4.40982Z" fill="#3C7413"/>
  <path d="M14.1162 7.34747L13.9077 7.48638L14.3359 7.77169L14.5443 7.63278L14.1162 7.34747Z" fill="#3C7413"/>
  <path d="M14.3486 5.13135L14.1401 5.27026L14.5683 5.55556L14.7767 5.41665L14.3486 5.13135Z" fill="#3C7413"/>
  <path d="M6.69873 6.15533L6.7215 6.36697L7.28647 6.39402L7.26365 6.18234L6.69873 6.15533Z" fill="#3C7413"/>
  <path d="M12.2314 2.20874L12.2543 2.42037L12.8192 2.44742L12.7964 2.23575L12.2314 2.20874Z" fill="#3C7413"/>
  <path d="M3.75049 6.91229L3.7733 7.12392L4.33822 7.15098L4.31541 6.9393L3.75049 6.91229Z" fill="#3C7413"/>
  <path d="M11.3672 6.91229L11.39 7.12392L11.955 7.15098L11.9321 6.9393L11.3672 6.91229Z" fill="#3C7413"/>
  <path d="M8.25684 2.58813L8.27965 2.79977L8.84457 2.82677L8.8218 2.61514L8.25684 2.58813Z" fill="#3C7413"/>
  <path d="M11.4787 5.86735L11.238 5.70694L10.8672 5.95405L11.1079 6.11447L11.4787 5.86735Z" fill="#3C7413"/>
  <path d="M10.07 9.13972L9.82932 8.97931L9.4585 9.22642L9.69924 9.38684L10.07 9.13972Z" fill="#3C7413"/>
  <path d="M11.0051 2.99139L10.6875 2.9762L10.7281 3.35266L11.0457 3.36786L11.0051 2.99139Z" fill="#3C7413"/>
  <path d="M6.49096 8.03247L6.17334 8.01727L6.21389 8.39374L6.5315 8.40893L6.49096 8.03247Z" fill="#3C7413"/>
  <defs>
    <linearGradient id="paint0_linear_157_11299" x1="0.000488281" y1="9.83087" x2="19.9999" y2="9.83087" gradientUnits="userSpaceOnUse">
      <stop stop-color="#C5BAEB"/>
      <stop offset="0.2126" stop-color="#D9D1F2"/>
      <stop offset="0.4658" stop-color="#EBE7F8"/>
      <stop offset="0.6298" stop-color="#F2EFFA"/>
      <stop offset="0.7875" stop-color="#F0EDF9"/>
      <stop offset="0.8652" stop-color="#EAE5F7"/>
      <stop offset="0.9254" stop-color="#DED8F3"/>
      <stop offset="0.9764" stop-color="#CFC6EE"/>
      <stop offset="1" stop-color="#C5BAEB"/>
    </linearGradient>
    <linearGradient id="paint1_linear_157_11299" x1="2.20088" y1="1.17292" x2="22.2404" y2="11.7635" gradientUnits="userSpaceOnUse">
      <stop stop-color="#F2EFFA"/>
      <stop offset="1" stop-color="white"/>
    </linearGradient>
    <linearGradient id="paint2_linear_157_11299" x1="8.04741" y1="5.2745" x2="27.8218" y2="15.8378" gradientUnits="userSpaceOnUse">
      <stop stop-color="#F2EFFA"/>
      <stop offset="1" stop-color="white"/>
    </linearGradient>
    <linearGradient id="paint3_linear_157_11299" x1="8.41355" y1="0.705426" x2="13.095" y2="12.3666" gradientUnits="userSpaceOnUse">
      <stop stop-color="#8B451C"/>
      <stop offset="1" stop-color="#8B451C" stop-opacity="0"/>
    </linearGradient>
    <linearGradient id="paint4_linear_157_11299" x1="9.59384" y1="3.95781" x2="11.524" y2="8.76558" gradientUnits="userSpaceOnUse">
      <stop stop-color="#8B451C"/>
      <stop offset="1" stop-color="#8B451C" stop-opacity="0"/>
    </linearGradient>
    <linearGradient id="paint5_linear_157_11299" x1="7.95265" y1="2.28944" x2="13.7636" y2="9.31838" gradientUnits="userSpaceOnUse">
      <stop stop-color="#AB2C37"/>
      <stop offset="0.0581" stop-color="#B32F3A"/>
      <stop offset="0.3191" stop-color="#D43947"/>
      <stop offset="0.5693" stop-color="#EC4150"/>
      <stop offset="0.8021" stop-color="#FA4555"/>
      <stop offset="1" stop-color="#FF4757"/>
    </linearGradient>
    <radialGradient id="paint6_radial_157_11299" cx="0" cy="0" r="1" gradientUnits="userSpaceOnUse" gradientTransform="translate(10.1232 5.15192) rotate(-17.8005) scale(6.79863 3.0314)">
      <stop stop-color="#FF4757"/>
      <stop offset="0.2766" stop-color="#FF4A56"/>
      <stop offset="0.4692" stop-color="#FF5353"/>
      <stop offset="0.6363" stop-color="#FF624E"/>
      <stop offset="0.7888" stop-color="#FF7847"/>
      <stop offset="0.9301" stop-color="#FF943E"/>
      <stop offset="1" stop-color="#FFA538"/>
    </radialGradient>
    <linearGradient id="paint7_linear_157_11299" x1="8.57038" y1="3.23964" x2="9.45523" y2="4.36099" gradientUnits="userSpaceOnUse">
      <stop stop-color="#FFA538"/>
      <stop offset="1" stop-color="#FFA538" stop-opacity="0"/>
    </linearGradient>
    <linearGradient id="paint8_linear_157_11299" x1="8.21261" y1="6.98631" x2="8.70001" y2="5.25989" gradientUnits="userSpaceOnUse">
      <stop stop-color="#FFA538"/>
      <stop offset="1" stop-color="#FFA538" stop-opacity="0"/>
    </linearGradient>
    <linearGradient id="paint9_linear_157_11299" x1="13.3429" y1="6.33068" x2="11.4201" y2="4.65031" gradientUnits="userSpaceOnUse">
      <stop stop-color="#FFA538"/>
      <stop offset="1" stop-color="#FFA538" stop-opacity="0"/>
    </linearGradient>
    <linearGradient id="paint10_linear_157_11299" x1="9.97305" y1="3.622" x2="11.4789" y2="4.79836" gradientUnits="userSpaceOnUse">
      <stop stop-color="#FFA538"/>
      <stop offset="1" stop-color="#FFA538" stop-opacity="0"/>
    </linearGradient>
  </defs>
</svg>
