<svg width="17" height="16" viewBox="0 0 17 16" fill="none" xmlns="http://www.w3.org/2000/svg">
  <g clip-path="url(#clip0_157_2231)">
    <path d="M15.1917 7.18782C15.6381 11.1383 12.7665 14.7414 8.81614 15.1878C4.86573 15.6342 1.26255 12.7627 0.816137 8.81228C0.369727 4.86182 3.24127 1.25868 7.19168 0.812281C7.90762 0.731379 8.62751 0.760929 9.33364 0.894403C9.35989 0.899968 9.38613 0.905504 9.41238 0.911069L10.8973 3.40773L14.5999 5.04521C14.6111 5.06956 14.6224 5.09385 14.6336 5.1182C14.9213 5.77668 15.1108 6.47182 15.1917 7.18782Z" fill="url(#paint0_linear_157_2231)"/>
    <path d="M15.1917 7.18783C15.1107 6.47183 14.9213 5.77668 14.6336 5.1182C14.6223 5.09386 14.611 5.06957 14.5999 5.04521L10.8972 3.40774L9.41236 0.911074C9.38611 0.905509 9.35986 0.899973 9.33361 0.894409C8.62748 0.760934 7.90759 0.731384 7.19165 0.812286L8.81611 15.1878C12.7665 14.7414 15.6381 11.1383 15.1917 7.18783Z" fill="url(#paint1_linear_157_2231)"/>
    <path d="M8.6226 13.4751C5.60373 13.8162 2.86998 11.6376 2.52885 8.61874C2.18771 5.59987 4.36635 2.86612 7.38521 2.52499C10.4041 2.18385 13.1378 4.36249 13.479 7.38135C13.8201 10.4002 11.6415 13.134 8.6226 13.4751Z" fill="#F3586A"/>
    <path d="M13.479 7.38136C13.1379 4.3625 10.4041 2.18386 7.38525 2.52499L8.62264 13.4751C11.6415 13.134 13.8201 10.4002 13.479 7.38136Z" fill="#E6173A"/>
    <path d="M14.5998 5.0452C14.1211 5.41493 13.5076 5.67197 12.8674 5.74431C11.0059 5.95466 9.32774 4.61726 9.11739 2.75577C9.04505 2.11561 9.15863 1.4601 9.41233 0.911056C9.45725 0.931601 9.48434 0.945573 9.52187 0.975484L14.5125 4.95269C14.55 4.98258 14.5698 5.00597 14.5998 5.0452Z" fill="#E6DBCF"/>
    <path d="M6.31629 7.38191C6.75737 7.33207 7.07453 6.9341 7.02469 6.49302C6.97485 6.05195 6.57688 5.73479 6.1358 5.78463C5.69472 5.83447 5.37756 6.23244 5.42741 6.67352C5.47725 7.1146 5.87522 7.43175 6.31629 7.38191Z" fill="url(#paint2_linear_157_2231)"/>
    <path d="M9.87196 10.2155C10.313 10.1656 10.6302 9.76766 10.5804 9.32658C10.5305 8.8855 10.1325 8.56834 9.69146 8.61819C9.25039 8.66803 8.93323 9.066 8.98307 9.50708C9.03291 9.94815 9.43088 10.2653 9.87196 10.2155Z" fill="url(#paint3_linear_157_2231)"/>
    <path d="M6.08617 10.4063C5.73896 10.1296 5.68185 9.62416 5.95855 9.27696L8.79214 5.72141C9.06884 5.37421 9.57428 5.31709 9.92148 5.59379C10.2687 5.87049 10.3258 6.37592 10.0491 6.72312L7.2155 10.2787C6.93876 10.6259 6.43337 10.683 6.08617 10.4063Z" fill="url(#paint4_linear_157_2231)"/>
  </g>
  <defs>
    <linearGradient id="paint0_linear_157_2231" x1="0.729896" y1="16.1016" x2="15.193" y2="-13.7767" gradientUnits="userSpaceOnUse">
      <stop stop-color="#FFA538"/>
      <stop offset="0.5213" stop-color="#F7E041"/>
      <stop offset="1" stop-color="#FCF3B3"/>
    </linearGradient>
    <linearGradient id="paint1_linear_157_2231" x1="11.6896" y1="7.88724" x2="18.0277" y2="-0.242433" gradientUnits="userSpaceOnUse">
      <stop stop-color="#FFA538"/>
      <stop offset="0.5213" stop-color="#F7E041"/>
      <stop offset="1" stop-color="#FCF3B3"/>
    </linearGradient>
    <linearGradient id="paint2_linear_157_2231" x1="5.99726" y1="7.3175" x2="6.54978" y2="6.41243" gradientUnits="userSpaceOnUse">
      <stop offset="0.0026" stop-color="#FFA538"/>
      <stop offset="0.5213" stop-color="#F7E041"/>
      <stop offset="1" stop-color="#FCF3B3"/>
    </linearGradient>
    <linearGradient id="paint3_linear_157_2231" x1="9.55293" y1="10.1511" x2="10.1054" y2="9.24599" gradientUnits="userSpaceOnUse">
      <stop offset="0.0026" stop-color="#FFA538"/>
      <stop offset="0.5213" stop-color="#F7E041"/>
      <stop offset="1" stop-color="#FCF3B3"/>
    </linearGradient>
    <linearGradient id="paint4_linear_157_2231" x1="5.20007" y1="11.8077" x2="13.5202" y2="5.30436" gradientUnits="userSpaceOnUse">
      <stop offset="0.0026" stop-color="#FFA538"/>
      <stop offset="0.5213" stop-color="#F7E041"/>
      <stop offset="1" stop-color="#FCF3B3"/>
    </linearGradient>
    <clipPath id="clip0_157_2231">
      <rect width="14.467" height="14.467" fill="white" transform="translate(0.00390625 1.62451) rotate(-6.44717)"/>
    </clipPath>
  </defs>
</svg>
