<svg width="19" height="16" viewBox="0 0 19 16" fill="none" xmlns="http://www.w3.org/2000/svg">
  <path d="M18.0025 5.38629L0 6.84963C0 9.37155 1.04402 11.7955 2.91303 13.6128L3.44001 14.1252C3.65419 14.3192 3.9133 14.5007 4.2188 14.6658C6.50642 15.9014 10.5022 15.7465 13.1438 14.3196C13.8914 13.9158 14.4502 13.4533 14.8156 12.9698C14.8156 12.9698 18.0025 9.32714 18.0025 5.38629Z" fill="url(#paint0_linear_157_2117)"/>
  <path d="M14.8946 9.30643C11.1365 11.3364 5.45169 11.5568 2.19716 9.79885C-1.0574 8.04084 -0.649234 4.97011 3.10879 2.94017C6.86682 0.910235 12.5517 0.689752 15.8062 2.44776C19.0607 4.20573 18.6526 7.27649 14.8946 9.30643Z" fill="url(#paint1_linear_157_2117)"/>
  <path d="M14.3064 8.98856C10.9236 10.8159 5.80632 11.0143 2.87669 9.43183C-0.0528979 7.84937 0.314518 5.08525 3.69732 3.25796C7.08012 1.43068 12.1974 1.23224 15.127 2.8147C18.0566 4.39716 17.6892 7.16131 14.3064 8.98856Z" fill="url(#paint2_linear_157_2117)"/>
  <path d="M2.87641 9.43198C5.80599 11.0145 10.9232 10.816 14.3061 8.98871C15.5241 8.33078 16.3508 7.5514 16.7737 6.74947C16.2682 3.41859 12.9814 0.847443 9.00155 0.847443C4.67168 0.847443 1.16162 3.8907 1.16162 7.64476C1.16162 7.70733 1.16275 7.76971 1.16468 7.83185C1.46944 8.42892 2.03763 8.97891 2.87641 9.43198Z" fill="url(#paint3_linear_157_2117)"/>
  <path d="M12.5997 1.25684C12.7374 1.33122 12.6801 1.66533 12.4717 2.00303C12.2633 2.34076 11.9827 2.55423 11.845 2.47982C11.7073 2.40544 11.7646 2.07132 11.973 1.73363C12.1814 1.3959 12.462 1.18242 12.5997 1.25684Z" fill="white"/>
  <path d="M4.66067 5.40575C4.65438 5.55442 4.31164 5.66242 3.89514 5.64699C3.47867 5.63156 3.14614 5.49853 3.15243 5.34986C3.15873 5.20119 3.50146 5.09319 3.91793 5.10865C4.33443 5.12405 4.66696 5.25709 4.66067 5.40575Z" fill="white"/>
  <path d="M3.12463 3.33303C3.26236 3.40741 3.20504 3.74152 2.99663 4.07922C2.78822 4.41695 2.50762 4.63043 2.36993 4.55601C2.23219 4.48163 2.28951 4.14752 2.49792 3.80982C2.70633 3.47209 2.98693 3.25865 3.12463 3.33303Z" fill="white"/>
  <path d="M5.64745 1.10214C5.79257 1.04128 6.04841 1.28042 6.21888 1.63627C6.38938 1.99213 6.40996 2.32993 6.26484 2.39079C6.11972 2.45165 5.86388 2.21252 5.69337 1.85666C5.52294 1.5008 5.50237 1.16297 5.64745 1.10214Z" fill="white"/>
  <path d="M10.9798 0.503944C10.8266 0.54385 10.7931 0.880758 10.9049 1.25645C11.0167 1.63212 11.2316 1.90431 11.3848 1.86438C11.538 1.82447 11.5715 1.48756 11.4597 1.1119C11.3478 0.736204 11.133 0.464039 10.9798 0.503944Z" fill="white"/>
  <path d="M8.26429 4.92293C8.40198 4.99731 8.3447 5.33139 8.13629 5.66912C7.92788 6.00685 7.64728 6.22033 7.50955 6.14591C7.37185 6.07153 7.42917 5.73742 7.63754 5.39972C7.84595 5.06202 8.12655 4.84855 8.26429 4.92293Z" fill="white"/>
  <path d="M3.52895 7.96947C3.66665 8.04385 3.60937 8.37797 3.40096 8.71566C3.19255 9.0534 2.91195 9.26687 2.77421 9.19246C2.63648 9.11807 2.69383 8.78396 2.90221 8.44626C3.11065 8.10853 3.39125 7.89509 3.52895 7.96947Z" fill="white"/>
  <path d="M6.64389 4.17011C6.49069 4.21002 6.45718 4.54693 6.56899 4.92259C6.68081 5.29825 6.89566 5.57045 7.04886 5.53054C7.20207 5.49064 7.23558 5.15373 7.12376 4.77807C7.01194 4.40237 6.7971 4.13021 6.64389 4.17011Z" fill="white"/>
  <path d="M3.70688 6.25956C3.55368 6.29946 3.52017 6.63637 3.63198 7.01207C3.7438 7.38773 3.95865 7.65993 4.11185 7.62002C4.26502 7.58012 4.29856 7.24321 4.18675 6.86751C4.07493 6.49182 3.86008 6.21965 3.70688 6.25956Z" fill="white"/>
  <path d="M6.18002 8.52699C6.02682 8.56689 5.99331 8.9038 6.10513 9.27949C6.21695 9.65516 6.43179 9.92732 6.58499 9.88742C6.7382 9.84751 6.77171 9.5106 6.65989 9.13491C6.54807 8.75925 6.33323 8.48708 6.18002 8.52699Z" fill="white"/>
  <path d="M16.1761 4.96833C16.0229 5.00824 15.9894 5.34514 16.1012 5.72081C16.2131 6.09647 16.4279 6.36863 16.5811 6.32873C16.7343 6.28882 16.7678 5.95192 16.656 5.57622C16.5442 5.20059 16.3293 4.92843 16.1761 4.96833Z" fill="white"/>
  <path d="M14.9681 6.18154C14.8699 6.29863 15.0563 6.58859 15.3844 6.8292C15.7124 7.06982 16.0578 7.16993 16.1559 7.05284C16.2541 6.93576 16.0677 6.6458 15.7396 6.40518C15.4116 6.16457 15.0662 6.06442 14.9681 6.18154Z" fill="white"/>
  <path d="M6.82744 7.02918C6.7293 7.14626 6.9157 7.43626 7.24373 7.67687C7.57173 7.91746 7.91721 8.0176 8.01531 7.90051C8.11342 7.78343 7.92705 7.49347 7.59902 7.25285C7.27102 7.01223 6.92555 6.91209 6.82744 7.02918Z" fill="white"/>
  <path d="M8.45323 8.41751C8.47971 8.5642 8.83432 8.63052 9.24534 8.56565C9.65633 8.50074 9.96808 8.32921 9.94164 8.18252C9.91516 8.03583 9.56054 7.96951 9.14952 8.03438C8.73847 8.09929 8.42675 8.27082 8.45323 8.41751Z" fill="white"/>
  <path d="M9.74696 9.34925C9.63792 9.24095 9.30359 9.36994 9.00021 9.63737C8.69682 9.90477 8.53929 10.2093 8.64833 10.3176C8.75737 10.4259 9.0917 10.2969 9.39509 10.0295C9.69851 9.76209 9.85604 9.45752 9.74696 9.34925Z" fill="white"/>
  <path d="M10.9744 8.78483C10.818 8.75805 10.6304 9.04732 10.5554 9.43091C10.4804 9.81454 10.5464 10.1472 10.7028 10.174C10.8592 10.2008 11.0468 9.91149 11.1218 9.52786C11.1968 9.14427 11.1308 8.81161 10.9744 8.78483Z" fill="white"/>
  <path d="M3.35973 7.47913C3.36296 7.3304 3.02775 7.20341 2.611 7.19552C2.19429 7.18762 1.85384 7.30178 1.85061 7.45054C1.84737 7.59931 2.18258 7.72629 2.59933 7.73419C3.01605 7.74205 3.35649 7.62789 3.35973 7.47913Z" fill="white"/>
  <path d="M6.1679 5.59297C6.0763 5.47135 5.72583 5.55491 5.38514 5.7796C5.04448 6.00427 4.84258 6.28498 4.93418 6.40661C5.02581 6.5282 5.37624 6.44464 5.71694 6.21998C6.05763 5.99532 6.2595 5.7146 6.1679 5.59297Z" fill="white"/>
  <path d="M15.1222 7.34314C15.2599 7.41752 15.2026 7.7516 14.9942 8.08933C14.7858 8.42706 14.5052 8.64054 14.3675 8.56612C14.2297 8.49174 14.2871 8.15763 14.4955 7.81993C14.7039 7.4822 14.9845 7.26872 15.1222 7.34314Z" fill="white"/>
  <path d="M13.5018 6.59043C13.3486 6.63037 13.3151 6.96724 13.4269 7.34294C13.5387 7.7186 13.7536 7.99077 13.9068 7.95086C14.06 7.91096 14.0935 7.57405 13.9817 7.19839C13.8699 6.82269 13.655 6.55053 13.5018 6.59043Z" fill="white"/>
  <path d="M13.0258 8.01317C12.9342 7.89155 12.5837 7.97511 12.2431 8.1998C11.9024 8.42449 11.7005 8.70518 11.7921 8.8268C11.8837 8.94839 12.2342 8.86483 12.5748 8.64017C12.9155 8.41548 13.1174 8.13476 13.0258 8.01317Z" fill="white"/>
  <path d="M5.16156 2.70919C5.06993 2.58756 4.7195 2.67112 4.3788 2.89582C4.03815 3.12051 3.83621 3.40119 3.92784 3.52282C4.01948 3.64441 4.36991 3.56088 4.7106 3.33619C5.05129 3.11149 5.2532 2.83078 5.16156 2.70919Z" fill="white"/>
  <path d="M2.66259 5.24111C2.68007 5.0932 2.35836 4.93861 1.94407 4.89578C1.52978 4.85295 1.17977 4.93812 1.1623 5.086C1.14486 5.23387 1.46653 5.38846 1.88081 5.43133C2.2951 5.47413 2.64511 5.38899 2.66259 5.24111Z" fill="white"/>
  <path d="M10.7252 7.55396C10.7189 7.70263 11.0514 7.83567 11.4679 7.8511C11.8844 7.86652 12.2271 7.75852 12.2334 7.60989C12.2397 7.46122 11.9072 7.32818 11.4907 7.31275C11.0742 7.29729 10.7315 7.40529 10.7252 7.55396Z" fill="white"/>
  <path d="M13.9102 4.85663C13.904 5.0053 14.2365 5.13834 14.653 5.15373C15.0695 5.16916 15.4122 5.06116 15.4185 4.91252C15.4248 4.76386 15.0922 4.63082 14.6758 4.61539C14.2593 4.59996 13.9165 4.70796 13.9102 4.85663Z" fill="white"/>
  <path d="M15.1659 3.68208C15.0676 3.79906 15.2537 4.08922 15.5814 4.3302C15.9091 4.57118 16.2544 4.67171 16.3527 4.55473C16.4509 4.43774 16.2649 4.14758 15.9373 3.90657C15.6095 3.66563 15.2642 3.56509 15.1659 3.68208Z" fill="white"/>
  <path d="M14.2737 3.93052C14.3477 4.06221 14.7068 4.02188 15.0757 3.84041C15.4446 3.65895 15.6837 3.4051 15.6097 3.27341C15.5357 3.14172 15.1767 3.18209 14.8077 3.36352C14.4388 3.54499 14.1997 3.79883 14.2737 3.93052Z" fill="white"/>
  <path d="M13.1633 2.29375C13.1458 2.44163 13.4675 2.59621 13.8818 2.63905C14.2961 2.68185 14.6461 2.59671 14.6636 2.44883C14.681 2.30095 14.3593 2.14633 13.945 2.1035C13.5308 2.0607 13.1808 2.14587 13.1633 2.29375Z" fill="white"/>
  <path d="M3.67841 4.04088C3.66097 4.18875 3.98264 4.34337 4.39693 4.38621C4.81122 4.42901 5.16123 4.34387 5.1787 4.19599C5.19614 4.04811 4.87447 3.89353 4.46019 3.85069C4.0459 3.80783 3.69589 3.89297 3.67841 4.04088Z" fill="white"/>
  <path d="M8.62906 1.39204C8.70743 1.52149 9.06497 1.47066 9.42767 1.27851C9.79038 1.08635 10.0209 0.825599 9.94249 0.696145C9.86415 0.566692 9.50658 0.617519 9.14388 0.809676C8.78121 1.00187 8.55071 1.26258 8.62906 1.39204Z" fill="white"/>
  <path d="M6.38302 0.965688C6.36537 1.11353 6.68686 1.26851 7.10108 1.31181C7.51533 1.3551 7.86545 1.27039 7.8831 1.12251C7.90075 0.974636 7.57929 0.819687 7.16504 0.77636C6.75082 0.733066 6.40067 0.817811 6.38302 0.965688Z" fill="white"/>
  <path d="M3.90987 2.0152C3.89222 2.16304 4.21372 2.31803 4.62793 2.36135C5.04219 2.40465 5.3923 2.3199 5.40995 2.17206C5.42761 2.02418 5.10611 1.86923 4.69189 1.8259C4.27768 1.78258 3.92752 1.86732 3.90987 2.0152Z" fill="white"/>
  <path d="M12.4946 2.96066C12.6397 2.8998 12.8956 3.13894 13.0661 3.4948C13.2365 3.85065 13.2572 4.18845 13.112 4.24931C12.9669 4.31017 12.7111 4.07104 12.5406 3.71518C12.3701 3.35935 12.3495 3.02152 12.4946 2.96066Z" fill="white"/>
  <path d="M12.0087 4.56783C11.9171 4.4462 11.5667 4.52976 11.226 4.75446C10.8853 4.97912 10.6834 5.25984 10.775 5.38146C10.8666 5.50305 11.2171 5.41949 11.5578 5.19483C11.8985 4.97014 12.1004 4.68942 12.0087 4.56783Z" fill="white"/>
  <path d="M9.5849 5.92577C9.49327 5.80414 9.14284 5.88771 8.80214 6.1124C8.46149 6.33709 8.25955 6.61781 8.35118 6.7394C8.44282 6.86099 8.79325 6.77746 9.13394 6.55277C9.47463 6.32808 9.67654 6.04736 9.5849 5.92577Z" fill="white"/>
  <path d="M10.5251 5.89932C10.5077 6.0472 10.8293 6.20182 11.2436 6.24462C11.6579 6.28745 12.0079 6.20228 12.0254 6.0544C12.0429 5.90653 11.7212 5.75191 11.3069 5.70911C10.8926 5.66627 10.5426 5.75141 10.5251 5.89932Z" fill="white"/>
  <path d="M10.757 3.87371C10.7394 4.02158 11.0608 4.17653 11.4751 4.21986C11.8894 4.26315 12.2395 4.17841 12.2571 4.03056C12.2748 3.88272 11.9533 3.72774 11.5391 3.68441C11.1248 3.64112 10.7747 3.72586 10.757 3.87371Z" fill="white"/>
  <path d="M4.0505 9.19626C4.03285 9.34413 4.35434 9.49908 4.76856 9.54241C5.18281 9.5857 5.53293 9.50096 5.55058 9.35312C5.56823 9.20524 5.24677 9.05029 4.83252 9.00696C4.4183 8.96364 4.06819 9.04841 4.0505 9.19626Z" fill="white"/>
  <path d="M12.611 5.56998C12.5934 5.71782 12.9149 5.8728 13.3291 5.91613C13.7434 5.95943 14.0934 5.87468 14.1111 5.7268C14.1288 5.57896 13.8073 5.42398 13.3931 5.38068C12.9788 5.33736 12.6287 5.4221 12.611 5.56998Z" fill="white"/>
  <path d="M9.9227 3.93632C9.7695 3.97626 9.73599 4.31313 9.8478 4.68883C9.95962 5.06449 10.1745 5.33665 10.3277 5.29675C10.4809 5.25684 10.5144 4.91993 10.4026 4.54424C10.2907 4.16858 10.0759 3.89641 9.9227 3.93632Z" fill="white"/>
  <path d="M9.03146 2.91597C9.0138 3.06382 9.3353 3.2188 9.74952 3.26213C10.1638 3.30542 10.5138 3.22068 10.5315 3.0728C10.5492 2.92496 10.2277 2.76997 9.81348 2.72665C9.39926 2.68335 9.04911 2.7681 9.03146 2.91597Z" fill="white"/>
  <path d="M2.0239 6.04561C1.8952 5.95823 1.59238 6.14318 1.34754 6.45877C1.10267 6.77436 1.0085 7.10104 1.1372 7.18845C1.2659 7.27583 1.56872 7.09088 1.81356 6.77529C2.05843 6.45969 2.1526 6.13302 2.0239 6.04561Z" fill="white"/>
  <path d="M7.57542 9.4767C7.73003 9.51147 7.93436 9.23233 8.03183 8.85315C8.12927 8.47397 8.08292 8.13841 7.92831 8.10363C7.7737 8.06886 7.56937 8.34803 7.4719 8.72718C7.37446 9.10633 7.42081 9.44192 7.57542 9.4767Z" fill="white"/>
  <path d="M7.06914 1.91538C6.971 2.03246 7.1574 2.32242 7.48543 2.56304C7.81343 2.80362 8.15891 2.90376 8.25701 2.78668C8.35511 2.6696 8.16875 2.37963 7.84072 2.13902C7.51268 1.89844 7.16724 1.79829 7.06914 1.91538Z" fill="white"/>
  <path d="M9.03721 2.07486C9.06369 2.22155 9.4183 2.28791 9.82932 2.223C10.2403 2.15809 10.5521 1.98656 10.5256 1.83987C10.4991 1.69318 10.1445 1.62685 9.7335 1.69173C9.32249 1.7566 9.01077 1.92813 9.03721 2.07486Z" fill="white"/>
  <path d="M7.81712 4.36281C7.97173 4.39758 8.17606 4.11841 8.27353 3.73926C8.37096 3.36011 8.32462 3.02452 8.17001 2.98974C8.0154 2.95497 7.81107 3.23414 7.7136 3.61329C7.61616 3.99244 7.6625 4.32803 7.81712 4.36281Z" fill="white"/>
  <path d="M5.20626 8.04126C5.30971 8.15426 5.65019 8.04021 5.96676 7.78653C6.2833 7.53285 6.45609 7.23559 6.35261 7.12261C6.24916 7.00961 5.90868 7.12367 5.5921 7.37734C5.27557 7.63102 5.10281 7.92829 5.20626 8.04126Z" fill="white"/>
  <defs>
    <linearGradient id="paint0_linear_157_2117" x1="0.152571" y1="10.4431" x2="18.155" y2="10.4431" gradientUnits="userSpaceOnUse">
      <stop stop-color="#E2823A"/>
      <stop offset="1" stop-color="#EFA95C"/>
    </linearGradient>
    <linearGradient id="paint1_linear_157_2117" x1="-1.49634" y1="0.452657" x2="17.7733" y2="12.3439" gradientUnits="userSpaceOnUse">
      <stop stop-color="#EFA95C"/>
      <stop offset="0.0552" stop-color="#F0B068"/>
      <stop offset="0.2182" stop-color="#F3C087"/>
      <stop offset="0.389" stop-color="#F6CD9F"/>
      <stop offset="0.5687" stop-color="#F8D6B1"/>
      <stop offset="0.7634" stop-color="#F9DBBB"/>
      <stop offset="1" stop-color="#F9DDBE"/>
    </linearGradient>
    <linearGradient id="paint2_linear_157_2117" x1="15.5731" y1="2.57375" x2="3.36935" y2="10.1046" gradientUnits="userSpaceOnUse">
      <stop stop-color="#E2823A"/>
      <stop offset="1" stop-color="#EFA95C"/>
    </linearGradient>
    <linearGradient id="paint3_linear_157_2117" x1="8.96769" y1="4.11027" x2="8.96769" y2="-4.17378" gradientUnits="userSpaceOnUse">
      <stop stop-color="#F2EFFA"/>
      <stop offset="1" stop-color="white"/>
    </linearGradient>
  </defs>
</svg>
