<svg width="22" height="18" viewBox="0 0 22 18" fill="none" xmlns="http://www.w3.org/2000/svg">
  <path d="M21.9987 9.26168L21.9993 9.26164V8.62497L0 10.5286L0.000386719 11.1613C0.0126328 12.6085 0.895427 13.9886 2.68465 15.0216C6.66171 17.3177 13.6085 17.0298 18.2008 14.3784C20.736 12.9147 22.023 11.0368 21.9987 9.26168Z" fill="url(#paint0_linear_157_1950)"/>
  <path d="M18.2011 13.7375C13.6088 16.3889 6.66194 16.6768 2.68492 14.3807C-1.29214 12.0845 -0.793362 8.07375 3.79893 5.4224C8.39122 2.77105 15.3381 2.48307 19.3151 4.77924C23.2921 7.07537 22.7934 11.0862 18.2011 13.7375Z" fill="url(#paint1_linear_157_1950)"/>
  <path d="M16.8733 12.9707C13.128 15.133 7.4625 15.3678 4.219 13.4952C0.9755 11.6226 1.38224 8.3516 5.12753 6.18923C8.87282 4.02687 14.5383 3.79205 17.7818 5.66467C21.0254 7.53729 20.6186 10.8083 16.8733 12.9707Z" fill="url(#paint2_linear_157_1950)"/>
  <path d="M9.22588 17.4483C9.62983 17.6264 10.1001 17.4472 10.2762 17.0479L13.5919 9.53081L12.959 8.62122L12.129 8.88556L8.81337 16.4026C8.63723 16.8019 8.82194 17.2701 9.22588 17.4483Z" fill="#C86D36"/>
  <path d="M13.5918 9.53082L11.7821 8.73262C11.7215 8.70588 11.6938 8.63564 11.7202 8.5757L13.3951 4.77852C13.9035 3.62587 15.0578 2.8905 16.3298 2.90883C16.4158 2.91008 16.4732 2.99815 16.4389 3.07605L13.5918 9.53082Z" fill="#E7EFFF"/>
  <path d="M16.3298 2.90888C16.0192 2.90442 15.7158 2.94515 15.427 3.02562L12.7261 9.14904L13.5918 9.53088L16.4389 3.07612C16.4732 2.99821 16.4158 2.91013 16.3298 2.90888Z" fill="#D3DBFE"/>
  <path d="M12.1289 8.88559L11.707 9.84207L12.0643 9.99966C12.2003 10.0597 12.2619 10.2186 12.2019 10.3545L9.41677 16.6688C9.31074 16.9092 9.0979 17.0691 8.85731 17.12C8.9397 17.2601 9.06497 17.3774 9.22575 17.4483C9.6297 17.6265 10.1 17.4472 10.2761 17.0479L13.5918 9.53083L12.1289 8.88559Z" fill="#AC5E2E"/>
  <path d="M4.18166 14.4631C4.53299 14.7148 5.02009 14.6364 5.26965 14.288L12.2766 4.5064L11.0044 3.59506L3.99745 13.3766C3.74786 13.7251 3.83034 14.2115 4.18166 14.4631Z" fill="#E7EFFF"/>
  <path d="M11.1333 2.75759C11.0038 2.66484 10.9741 2.4847 11.0668 2.35522L12.4219 0.463534C12.5147 0.334025 12.6948 0.304283 12.8243 0.397034C12.9538 0.489785 12.9835 0.669932 12.8908 0.79941L11.5357 2.69109C11.443 2.82062 11.2628 2.85035 11.1333 2.75759Z" fill="#E7EFFF"/>
  <path d="M12.0806 3.43627C11.9511 3.34352 11.9213 3.16338 12.0141 3.0339L13.3692 1.14221C13.4619 1.01271 13.6421 0.982963 13.7715 1.07571C13.901 1.16846 13.9308 1.34861 13.838 1.47809L12.483 3.36977C12.3902 3.49928 12.2101 3.52902 12.0806 3.43627Z" fill="#E7EFFF"/>
  <path d="M13.0283 4.11495C12.8989 4.0222 12.8691 3.84206 12.9618 3.71258L14.3169 1.8209C14.4097 1.69139 14.5898 1.66164 14.7193 1.75439C14.8488 1.84714 14.8786 2.02729 14.7858 2.15677L13.4307 4.04845C13.3379 4.17796 13.1578 4.20771 13.0283 4.11495Z" fill="#E7EFFF"/>
  <path d="M12.2131 4.59526L10.9409 3.68393L9.25993 6.03056C9.31965 6.17858 9.4874 6.37776 9.61308 6.5144C9.69925 6.60813 9.70756 6.74939 9.63342 6.8529L4.63379 13.8323C4.46664 14.0656 4.19291 14.1771 3.92479 14.1502C3.97989 14.2711 4.0659 14.38 4.18191 14.4631C4.53323 14.7148 5.02034 14.6363 5.2699 14.288L12.2131 4.59526Z" fill="#D3DBFE"/>
  <path d="M10.4355 5.73303C11.0882 6.20057 11.9932 6.05488 12.4568 5.40761L13.4305 4.04847L11.0669 2.35535L10.0933 3.71449C9.62962 4.36176 9.78286 5.26549 10.4355 5.73303Z" fill="#E7EFFF"/>
  <defs>
    <linearGradient id="paint0_linear_157_1950" x1="0" y1="12.5983" x2="21.9993" y2="12.5983" gradientUnits="userSpaceOnUse">
      <stop stop-color="#C5BAEB"/>
      <stop offset="0.2126" stop-color="#D9D1F2"/>
      <stop offset="0.4658" stop-color="#EBE7F8"/>
      <stop offset="0.6298" stop-color="#F2EFFA"/>
      <stop offset="0.7875" stop-color="#F0EDF9"/>
      <stop offset="0.8652" stop-color="#EAE5F7"/>
      <stop offset="0.9254" stop-color="#DED8F3"/>
      <stop offset="0.9764" stop-color="#CFC6EE"/>
      <stop offset="1" stop-color="#C5BAEB"/>
    </linearGradient>
    <linearGradient id="paint1_linear_157_1950" x1="2.42096" y1="4.34698" x2="22.974" y2="16.8838" gradientUnits="userSpaceOnUse">
      <stop stop-color="#F2EFFA"/>
      <stop offset="1" stop-color="white"/>
    </linearGradient>
    <linearGradient id="paint2_linear_157_1950" x1="8.85276" y1="8.25578" x2="29.1107" y2="20.7461" gradientUnits="userSpaceOnUse">
      <stop stop-color="#F2EFFA"/>
      <stop offset="1" stop-color="white"/>
    </linearGradient>
  </defs>
</svg>
