<svg width="21" height="12" viewBox="0 0 21 12" fill="none" xmlns="http://www.w3.org/2000/svg">
  <path d="M20.0028 5.86814L20.0033 5.86811V5.33405L0.00390625 6.9309L0.00425781 7.46165C0.0153906 8.67561 0.817931 9.83327 2.4445 10.6998C6.06001 12.6259 12.3753 12.3843 16.5501 10.1603C18.8548 8.93246 20.0248 7.35716 20.0028 5.86814Z" fill="url(#paint0_linear_157_2171)"/>
  <path d="M16.5503 9.62256C12.3755 11.8466 6.06022 12.0882 2.44474 10.1621C-1.17077 8.23595 -0.717332 4.87157 3.45748 2.64752C7.63229 0.423428 13.9476 0.181898 17.5631 2.10801C21.1786 4.03409 20.7252 7.39847 16.5503 9.62256Z" fill="url(#paint1_linear_157_2171)"/>
  <path d="M15.3432 8.97937C11.9384 10.7932 6.7879 10.9902 3.83926 9.41939C0.890623 7.84853 1.26043 5.10472 4.6652 3.29084C8.07001 1.47697 13.2205 1.27999 16.1691 2.85082C19.1178 4.42165 18.748 7.16549 15.3432 8.97937Z" fill="url(#paint2_linear_157_2171)"/>
  <path d="M7.34434 5.21222H2.82617L3.13313 3.40609H4.56559V2.66427H5.62536V1.74573H9.66696L7.34434 5.21222Z" fill="url(#paint3_linear_157_2171)"/>
  <path d="M12.8293 6.85211C12.8293 6.85211 13.2736 7.40971 13.6343 7.78197C13.9951 8.15423 14.1771 7.9774 14.258 7.89879C14.3389 7.82018 14.4247 8.08225 14.8743 8.28944C15.3238 8.49662 15.2809 8.44024 15.7216 8.22845C16.1624 8.01665 16.4726 8.43819 16.7072 8.41948C16.9418 8.40081 16.744 8.17464 17.0148 8.12071C17.2857 8.06676 17.4257 8.24557 17.5982 8.09772C17.7707 7.94987 17.5401 7.87864 17.6493 7.69392C17.7584 7.50923 18.4308 7.40701 18.7976 7.14911C19.1644 6.89122 18.7678 6.82392 18.9813 6.65589C19.1947 6.48789 19.463 6.19741 19.4474 5.88837C19.4317 5.57929 19.0928 5.72048 18.9987 5.41882C18.9044 5.11714 18.717 4.71773 18.457 4.66086C18.1971 4.60398 17.9612 5.08888 17.8079 4.80492C17.6546 4.52097 17.2789 4.42372 17.1637 4.555C17.0486 4.68627 16.6924 4.89251 16.5285 4.67408C16.3647 4.45566 15.9999 4.31808 15.7731 4.61703C15.5464 4.91598 15.1791 5.15473 15.1945 4.96265C15.2099 4.77057 14.6898 5.1184 14.5775 5.18814C14.4651 5.25789 14.4469 4.92401 14.1388 5.17747C13.8308 5.43097 13.5909 5.79992 13.2859 6.11202C12.9808 6.42413 12.8293 6.85211 12.8293 6.85211Z" fill="url(#paint4_linear_157_2171)"/>
  <path d="M16.854 5.65931C16.854 5.65931 16.9908 6.40737 17.0331 6.9534C17.0755 7.49943 16.7857 7.49673 16.6569 7.49554C16.5281 7.49435 16.6862 7.75657 16.5199 8.24114C16.3537 8.72575 16.3383 8.6515 15.8214 8.81002C15.3045 8.96854 15.4273 9.51551 15.2324 9.67162C15.0375 9.82772 14.9955 9.51151 14.7428 9.66707C14.4901 9.82264 14.5359 10.0607 14.2781 10.0732C14.0204 10.0857 14.1355 9.86391 13.8947 9.80224C13.6538 9.74057 13.0537 10.151 12.5538 10.2206C12.0539 10.2902 12.2991 9.95081 11.9929 9.9777C11.6867 10.0046 11.2342 9.97777 10.9826 9.73062C10.7309 9.48343 11.1098 9.34506 10.9244 9.04643C10.7389 8.74785 10.5412 8.30692 10.691 8.07476C10.8409 7.8426 11.4344 8.04124 11.3092 7.71324C11.184 7.38524 11.3877 7.03814 11.5875 7.05468C11.7874 7.07123 12.235 6.96987 12.1738 6.68419C12.1125 6.3985 12.2735 6.02862 12.7015 6.09202C13.1295 6.15542 13.6134 6.07079 13.4378 5.93545C13.2621 5.8001 13.9557 5.68772 14.1009 5.65935C14.2461 5.63098 13.9752 5.363 14.4265 5.33265C14.8778 5.3023 15.3755 5.40957 15.8745 5.42618C16.3734 5.44276 16.854 5.65931 16.854 5.65931Z" fill="url(#paint5_linear_157_2171)"/>
  <path d="M14.8735 1.65712C14.8735 1.65712 15.0995 1.8444 15.0388 2.20635C14.9909 2.49189 13.9471 3.43833 12.5275 3.4724C11.8891 3.48772 13.4777 1.55872 13.4777 1.55872L14.8735 1.65712Z" fill="url(#paint6_linear_157_2171)"/>
  <path d="M9.35132 0.380859C9.68273 1.43987 10.5423 3.02194 11.653 3.39633C12.7638 3.77072 14.1012 2.98269 14.3157 2.0542L9.35132 0.380859Z" fill="url(#paint7_linear_157_2171)"/>
  <path d="M9.35132 0.380876L9.88788 0L14.8732 1.65716L14.3158 2.05418L9.35132 0.380876Z" fill="url(#paint8_linear_157_2171)"/>
  <path d="M12.875 1.96567C12.875 1.96567 13.1009 2.15296 13.0403 2.51491C12.9924 2.80045 11.9486 3.74686 10.529 3.78095C9.89052 3.79627 11.4792 1.86731 11.4792 1.86731L12.875 1.96567Z" fill="url(#paint9_linear_157_2171)"/>
  <path d="M7.35352 0.689331C7.68496 1.74834 8.54449 3.33041 9.65524 3.7048C10.766 4.07919 12.1034 3.29116 12.3179 2.36267L7.35352 0.689331Z" fill="url(#paint10_linear_157_2171)"/>
  <path d="M7.35352 0.689348L7.89004 0.308472L12.8754 1.96563L12.3179 2.36265L7.35352 0.689348Z" fill="url(#paint11_linear_157_2171)"/>
  <path d="M12.8293 3.56833C12.8293 3.56833 13.0124 3.79194 12.8781 4.13659C12.7721 4.40844 11.5518 5.15386 10.1513 4.93756C9.5213 4.84028 11.4794 3.2262 11.4794 3.2262L12.8293 3.56833Z" fill="url(#paint12_linear_157_2171)"/>
  <path d="M7.67261 1.34384C7.77909 2.44174 8.29593 4.14601 9.30894 4.70898C10.3219 5.27195 11.7977 4.7337 12.2002 3.86L7.67261 1.34384Z" fill="url(#paint13_linear_157_2171)"/>
  <path d="M7.67261 1.34382L8.278 1.06433L12.8294 3.56827L12.2002 3.85993L7.67261 1.34382Z" fill="url(#paint14_linear_157_2171)"/>
  <path d="M10.5255 3.88181C10.5255 3.88181 10.713 4.10225 10.5856 4.44914C10.4851 4.72278 9.27999 5.48886 7.87534 5.29649C7.24354 5.20999 9.16898 3.56274 9.16898 3.56274L10.5255 3.88181Z" fill="url(#paint15_linear_157_2171)"/>
  <path d="M5.3252 1.74588C5.45367 2.84176 6.00461 4.53694 7.02871 5.0825C8.05282 5.62806 9.51751 5.06473 9.90239 4.18432L5.3252 1.74588Z" fill="url(#paint16_linear_157_2171)"/>
  <path d="M5.3252 1.74581L5.92488 1.45605L10.5257 3.88188L9.90239 4.18422L5.3252 1.74581Z" fill="url(#paint17_linear_157_2171)"/>
  <path d="M5.64941 10.5978C5.59972 10.6206 5.58546 10.5925 5.52995 10.5925C5.47441 10.5925 5.47441 10.556 5.41882 10.556C5.36327 10.556 5.36327 10.6105 5.30776 10.6105C5.25237 10.6105 5.25237 10.6001 5.19698 10.6001C5.1414 10.6001 5.1414 10.6207 5.08585 10.6207C5.03038 10.6207 5.03038 10.5796 4.97487 10.5796C4.91933 10.5796 4.91933 10.5892 4.86378 10.5892C4.80815 10.5892 4.80815 10.5513 4.75253 10.5513C4.69698 10.5513 4.69698 10.5842 4.64143 10.5842C4.58577 10.5842 4.58577 10.5764 4.53011 10.5764C4.47433 10.5764 4.47433 10.626 4.41858 10.626C4.36284 10.626 4.36284 10.5419 4.30706 10.5419C4.26776 10.5419 4.23612 10.55 4.19956 10.5429C4.16147 10.5356 4.12772 10.5342 4.09327 10.5202C4.05796 10.5057 4.02886 10.4902 3.99811 10.4697C3.96702 10.4489 3.91971 10.4467 3.89409 10.4207C3.86843 10.3946 3.84503 10.3648 3.82565 10.3343C3.80636 10.304 3.82757 10.2588 3.81534 10.2252C3.80327 10.1921 3.81389 10.1618 3.80948 10.1265C3.80514 10.092 3.70374 10.0575 3.70737 10.0218C3.71089 9.98747 3.75194 9.95236 3.76346 9.91776C3.77401 9.88611 3.82546 9.86535 3.83721 9.83197C3.84835 9.80033 3.85413 9.76641 3.86639 9.73332C3.87811 9.70171 3.8762 9.66505 3.88897 9.63222C3.90124 9.60068 3.86514 9.55166 3.87843 9.51908C3.89128 9.48765 3.90901 9.45661 3.9228 9.42428C3.9362 9.393 3.96288 9.36546 3.97721 9.33341C3.99112 9.30224 4.01628 9.27452 4.03112 9.24269C4.04557 9.21169 4.11171 9.20128 4.12706 9.16967C4.14206 9.13885 4.12077 9.0925 4.13663 9.06114C4.15214 9.0305 4.16675 8.99896 4.18311 8.96786C4.19917 8.9374 4.20225 8.90046 4.21917 8.86964C4.23573 8.8394 4.24749 8.80613 4.26491 8.77556C4.28198 8.74554 4.37487 8.75289 4.39276 8.72258C4.41038 8.69281 4.42897 8.66422 4.44741 8.6342C4.46554 8.60464 4.39956 8.53021 4.4185 8.50048C4.43718 8.47121 4.45901 8.44277 4.47847 8.41332C4.49765 8.38431 4.49979 8.34444 4.51975 8.31532C4.53944 8.28659 4.61253 8.28886 4.633 8.26003C4.65319 8.23159 4.62061 8.16999 4.64159 8.14151C4.66229 8.1134 4.78124 8.14779 4.80272 8.11964C4.82397 8.09181 4.78628 8.02524 4.80827 7.99745C4.83003 7.96995 4.87089 7.95535 4.89339 7.92788C4.91565 7.9007 4.92757 7.86607 4.95058 7.83896C4.97335 7.81214 5.03151 7.8116 5.05507 7.7849C5.07835 7.75844 5.09351 7.7264 5.11753 7.70005C5.14132 7.67399 5.11229 7.60594 5.13683 7.57999C5.16112 7.55432 5.23722 7.5709 5.26226 7.54538C5.28702 7.52012 5.29171 7.47798 5.31722 7.45286C5.34249 7.42799 5.35097 7.38798 5.37694 7.36329C5.40269 7.33885 5.46655 7.3492 5.49304 7.32494C5.51925 7.30093 5.52378 7.25664 5.55073 7.23285C5.57745 7.20927 5.59417 7.17561 5.62163 7.15229C5.64882 7.12915 5.69616 7.12644 5.72405 7.10359C5.75167 7.08092 5.79714 7.07775 5.82546 7.05537C5.85355 7.0332 5.88933 7.02066 5.91812 6.99874C5.94663 6.97704 5.93808 6.91368 5.96726 6.89227C5.99624 6.87104 6.02683 6.8515 6.05648 6.83056C6.08585 6.80983 6.12288 6.79855 6.15296 6.77815C6.18277 6.75793 6.22132 6.74925 6.25183 6.72935C6.28202 6.70963 6.3003 6.67431 6.3312 6.65492C6.36171 6.63578 6.37402 6.59206 6.40421 6.57342C6.43488 6.55446 6.47097 6.54333 6.50128 6.52491C6.5321 6.50617 6.55972 6.4832 6.59015 6.465C6.62113 6.44651 6.66421 6.44583 6.6948 6.42784C6.72593 6.40957 6.72449 6.34379 6.75523 6.32605C6.78652 6.308 6.87113 6.36981 6.90199 6.35233C6.93343 6.33452 6.95249 6.29898 6.98351 6.28172C7.01515 6.26413 7.01812 6.20278 7.04929 6.18577C7.08109 6.16843 7.11163 6.14919 7.14296 6.13246C7.17495 6.11538 7.20765 6.09952 7.23917 6.08305C7.27132 6.06621 7.35035 6.12738 7.38199 6.11116C7.41433 6.09458 7.39324 5.98901 7.42507 5.97311C7.45761 5.95682 7.50691 5.96954 7.53886 5.95394C7.5716 5.93793 7.63433 5.9761 7.66644 5.96075C7.69933 5.94503 7.70265 5.87713 7.73496 5.86213C7.76804 5.84674 7.81472 5.85752 7.84714 5.84285C7.88042 5.82778 7.88863 5.76564 7.92121 5.7513C7.95468 5.73655 7.9948 5.73515 8.0275 5.72116C8.06125 5.70675 8.12746 5.7597 8.16039 5.74603C8.19429 5.73198 8.18539 5.62983 8.21843 5.61656C8.25253 5.6029 8.31199 5.64504 8.34515 5.63221C8.37941 5.61894 8.42332 5.62976 8.4566 5.61736C8.49113 5.60449 8.4991 5.53168 8.53257 5.51968C8.56734 5.50724 8.61175 5.51961 8.64543 5.50807C8.68047 5.49607 8.71636 5.48846 8.75011 5.4774C8.78539 5.46583 8.80179 5.40528 8.8357 5.39471C8.87125 5.38365 8.91242 5.38909 8.9464 5.37907C8.98218 5.36855 9.02027 5.36646 9.05433 5.35701C9.09039 5.34706 9.12051 5.31985 9.15461 5.31106C9.19094 5.30169 9.22765 5.29509 9.26176 5.28694C9.29847 5.27818 9.33324 5.26391 9.36742 5.25649C9.40457 5.24841 9.45918 5.31902 9.49324 5.31235C9.53094 5.305 9.55441 5.24239 9.58828 5.23659C9.62679 5.22999 9.65988 5.203 9.6934 5.19817C9.73301 5.19247 9.77043 5.18588 9.80297 5.18224C9.84531 5.17751 9.88906 5.23893 9.91918 5.23681C9.99109 5.23172 10.025 5.15881 10.0079 5.20646C9.99054 5.25468 9.99332 5.25285 9.96016 5.29343C9.92703 5.33402 9.91594 5.32634 9.88281 5.36692C9.84969 5.40751 9.84957 5.40744 9.8164 5.44802C9.78328 5.48861 9.84168 5.52923 9.80855 5.56982C9.77539 5.6104 9.69992 5.55792 9.66676 5.59851C9.63359 5.63913 9.6348 5.63996 9.60164 5.68054C9.56847 5.72116 9.58644 5.73367 9.55324 5.77429C9.52004 5.81495 9.52219 5.81643 9.48898 5.85709C9.45574 5.89778 9.50261 5.93033 9.46941 5.97102C9.43621 6.01171 9.41992 6.0004 9.38672 6.04105C9.35351 6.08171 9.31019 6.05158 9.27703 6.09224C9.24386 6.13286 9.23461 6.12644 9.2014 6.16706C9.16824 6.20769 9.17957 6.21558 9.1464 6.2562C9.11324 6.29682 9.13902 6.31474 9.10586 6.35536C9.07269 6.39598 9.01988 6.35925 8.98672 6.39987C8.95355 6.44049 8.96031 6.44521 8.92715 6.48584C8.89394 6.52649 8.94375 6.5611 8.91054 6.60175C8.87734 6.64241 8.84683 6.62122 8.81363 6.66187C8.78039 6.70257 8.83609 6.74128 8.80285 6.78197C8.76965 6.82267 8.70234 6.77588 8.66914 6.81654C8.63593 6.8572 8.70496 6.90521 8.67179 6.94586C8.63859 6.98652 8.57359 6.94132 8.54043 6.98194C8.50722 7.0226 8.57097 7.06686 8.53777 7.10752C8.50457 7.14818 8.48992 7.13798 8.45671 7.1786C8.42351 7.21926 8.43523 7.2274 8.40203 7.26806C8.36882 7.30875 8.36546 7.30645 8.33226 7.34714C8.29902 7.38784 8.25441 7.35684 8.22121 7.39753C8.188 7.43819 8.23187 7.46872 8.19867 7.50938C8.16546 7.55003 8.15617 7.54358 8.12296 7.58424C8.08976 7.6249 8.0391 7.58968 8.00589 7.63034C7.97269 7.671 7.96937 7.66869 7.93617 7.70938C7.90308 7.7499 7.91683 7.75945 7.88374 7.79996C7.85066 7.84048 7.83542 7.82991 7.80234 7.87043C7.76921 7.91098 7.77238 7.91318 7.73925 7.95373C7.70609 7.99431 7.70003 7.99009 7.66691 8.03071C7.63371 8.07137 7.69468 8.11376 7.66148 8.15445C7.6282 8.19518 7.61222 8.18408 7.57894 8.22481C7.54574 8.26547 7.58706 8.29423 7.55386 8.33489C7.5207 8.37551 7.44328 8.3217 7.41011 8.36232C7.37695 8.4029 7.43113 8.44057 7.39796 8.48119C7.3648 8.52181 7.3366 8.50217 7.30343 8.54279C7.27023 8.58345 7.25199 8.57072 7.21878 8.61135C7.18554 8.65204 7.19605 8.65932 7.16281 8.70005C7.12952 8.74078 7.18347 8.7783 7.15019 8.81903C7.11699 8.85972 7.04796 8.81175 7.01476 8.85241C6.98156 8.89307 6.95956 8.87775 6.92632 8.91844C6.89312 8.95913 6.95597 9.00282 6.92273 9.04351C6.88945 9.08424 6.87433 9.07375 6.84109 9.11448C6.80781 9.15521 6.76999 9.1289 6.73671 9.16967C6.70347 9.21036 6.70081 9.20852 6.66757 9.24922C6.63433 9.28995 6.65417 9.30375 6.62093 9.34448C6.58765 9.38525 6.61738 9.40593 6.58409 9.4467C6.55081 9.48743 6.55093 9.4875 6.51769 9.52823C6.48441 9.569 6.4982 9.57862 6.46491 9.61939C6.43163 9.66015 6.36273 9.61222 6.32945 9.65298C6.29613 9.69378 6.37671 9.74979 6.34339 9.7906C6.31019 9.83129 6.22812 9.77423 6.19491 9.81489C6.16171 9.85558 6.2157 9.89314 6.18249 9.9338C6.14917 9.9746 6.18484 9.9994 6.15152 10.0402C6.11823 10.081 6.10562 10.0722 6.07234 10.1129C6.03902 10.1537 6.04503 10.1579 6.01171 10.1987C5.97835 10.2396 5.91007 10.1921 5.87675 10.2329C5.84343 10.2737 5.87765 10.2975 5.84433 10.3383C5.81093 10.3792 5.85152 10.4074 5.81812 10.4483C5.78468 10.4892 5.67698 10.4312 5.65437 10.478C5.6287 10.531 5.69913 10.5749 5.64941 10.5978Z" fill="url(#paint18_linear_157_2171)"/>
  <path d="M10.7417 4.19285C10.6753 4.21534 10.6739 4.21484 10.648 4.29345C10.6367 4.32787 10.6419 4.37751 10.6385 4.42829C10.636 4.46668 10.6787 4.50773 10.6846 4.55585C10.6894 4.59499 10.6745 4.63929 10.6871 4.68507C10.6977 4.72407 10.7447 4.7538 10.7621 4.79774C10.7773 4.83588 10.7466 4.89333 10.7677 4.93529C10.7864 4.97259 10.8558 4.98784 10.8798 5.02817C10.9005 5.06292 10.8749 5.12855 10.9046 5.17026C10.9293 5.205 10.9863 5.22335 11.0167 5.26231C11.0436 5.2967 11.0527 5.34597 11.0835 5.38328C11.1118 5.41748 11.1728 5.4301 11.2041 5.46643C11.2334 5.50042 11.2055 5.57889 11.2372 5.61453C11.2673 5.64834 11.3161 5.66975 11.3481 5.70482C11.3788 5.73845 11.4156 5.76869 11.448 5.8033C11.4792 5.83678 11.4936 5.88497 11.5262 5.91921C11.5579 5.95252 11.6067 5.97288 11.6396 6.00676C11.6716 6.03989 11.7428 6.04104 11.7757 6.07456C11.8081 6.10758 11.7866 6.18648 11.8197 6.21975C11.8525 6.25265 11.9182 6.25788 11.9515 6.2909C11.9846 6.32366 11.9931 6.37802 12.0267 6.41078C12.0601 6.44343 12.1423 6.43334 12.176 6.46589C12.2098 6.49847 12.1915 6.57712 12.2255 6.60949C12.2594 6.64189 12.3222 6.64834 12.3562 6.68039C12.3905 6.71268 12.3885 6.77778 12.4226 6.80957C12.4572 6.84172 12.5326 6.83599 12.5669 6.86753C12.6018 6.89957 12.6011 6.96438 12.6356 6.99563C12.6708 7.02753 12.7355 7.03092 12.7702 7.06184C12.8058 7.09356 12.8633 7.10307 12.8981 7.13364C12.934 7.16518 12.9528 7.212 12.9878 7.24213C13.0242 7.27353 13.0623 7.30164 13.0974 7.33134C13.1344 7.36263 13.1667 7.39669 13.2021 7.42585C13.2398 7.45685 13.289 7.47289 13.3245 7.50122C13.3631 7.53196 13.3612 7.60344 13.3969 7.63072C13.4369 7.66122 13.5132 7.64503 13.5491 7.67077C13.5911 7.7009 13.5968 7.76877 13.6324 7.79159C13.6717 7.81671 13.7211 7.82522 13.7582 7.84731C13.7985 7.87139 13.8586 7.86097 13.8963 7.8817C13.9378 7.90455 13.9715 7.93277 14.0098 7.9518C14.0529 7.97328 14.097 7.9833 14.1359 8.00042C14.1806 8.0201 14.1976 8.08743 14.2367 8.1021C14.2838 8.11977 14.3381 8.10549 14.3769 8.11699C14.4286 8.13235 14.4748 8.12759 14.5117 8.13472C14.6011 8.1521 14.5775 8.20775 14.6295 8.16702C14.6857 8.12301 14.6947 8.13948 14.7165 8.05575C14.7216 8.03611 15.7945 6.28023 14.7593 5.27053C13.8248 4.35883 10.7741 4.18186 10.7417 4.19285Z" fill="#FDF8D1"/>
  <path d="M13.5799 5.86519C13.5412 5.83203 13.6235 5.76873 13.5852 5.73669C13.546 5.70393 13.3922 5.62257 13.3535 5.59096C13.3139 5.5586 13.2952 5.36508 13.2561 5.3339C13.2161 5.30196 13.2401 5.20176 13.2006 5.17105C13.1601 5.13955 13.1027 5.12729 13.0628 5.09709C13.0218 5.06602 12.7989 5.01833 12.7586 4.9886C12.7172 4.958 12.5781 5.02507 12.5375 4.99588C12.4956 4.96575 12.407 4.96625 12.3661 4.93759C12.3237 4.90797 12.2218 4.82727 12.1805 4.79915C12.1377 4.77003 11.9028 4.73694 11.8604 4.71059C11.8159 4.68295 11.7683 4.66017 11.7256 4.63447C11.6806 4.60736 11.6231 4.59929 11.5802 4.57431C11.5346 4.54782 11.5044 4.49981 11.4613 4.47562C11.4151 4.44963 11.3219 4.49887 11.2786 4.47544C11.2314 4.44992 11.2061 4.39362 11.1626 4.37109C11.1145 4.34615 11.0849 4.29457 11.0417 4.27316C10.9922 4.24865 10.9431 4.22955 10.9004 4.20944C10.8487 4.18507 10.7972 4.20576 10.7561 4.18749C10.8019 4.16435 10.8526 4.17725 10.8995 4.15425C10.9457 4.13165 10.9496 4.03361 10.9968 4.01116C11.0433 3.98903 11.1277 4.03473 11.1751 4.01278C11.2219 3.99112 11.2846 3.99948 11.3322 3.978C11.3793 3.95677 11.4202 3.92462 11.4681 3.90353C11.5154 3.8827 11.5151 3.76844 11.5631 3.74779C11.6106 3.72731 11.6909 3.7715 11.739 3.75121C11.7867 3.73113 11.8284 3.6988 11.8765 3.67894C11.9244 3.65919 11.9504 3.59323 11.9987 3.57369C12.0468 3.55423 12.0939 3.53156 12.1423 3.51231C12.1906 3.49313 12.2325 3.459 12.2811 3.44004C12.3295 3.42112 12.3867 3.42033 12.4354 3.40166C12.484 3.38302 12.5725 3.45359 12.6213 3.43518C12.6701 3.41679 12.7243 3.41153 12.7732 3.39337C12.8221 3.37524 12.8461 3.2999 12.8951 3.28203C12.9442 3.26411 12.9645 3.1784 13.0136 3.16074C13.0628 3.14304 13.1192 3.14189 13.1684 3.12448C13.2178 3.10696 13.2988 3.16582 13.3481 3.14859C13.3977 3.13129 13.4378 3.09135 13.4873 3.07434C13.537 3.05726 13.5946 3.06064 13.6441 3.04385C13.6939 3.02694 13.7237 2.96004 13.7733 2.94346C13.8231 2.92678 13.881 2.93074 13.9305 2.91438C13.9805 2.89787 14.0503 2.93395 14.0999 2.9178C14.15 2.90151 14.1841 2.84452 14.2337 2.82859C14.2838 2.81248 14.3085 2.72893 14.358 2.71322C14.4082 2.69732 14.4718 2.71826 14.5213 2.70276C14.5716 2.68705 14.6335 2.70449 14.683 2.68921C14.7334 2.67368 14.7744 2.63356 14.8239 2.61846C14.8744 2.60307 14.9076 2.53999 14.9571 2.5251C15.0078 2.50989 15.0704 2.53018 15.1199 2.51552C15.1707 2.50048 15.2076 2.44703 15.2571 2.43258C15.308 2.41769 15.3663 2.42591 15.4158 2.41167C15.4667 2.397 15.5448 2.46574 15.5941 2.45175C15.6452 2.43726 15.682 2.38269 15.7312 2.36896C15.783 2.35451 15.8381 2.35562 15.889 2.34395C15.9415 2.33191 15.9932 2.32387 16.0447 2.31468C16.0978 2.3052 16.1526 2.32027 16.2046 2.31374C16.2582 2.307 16.3069 2.28199 16.3592 2.27831C16.4131 2.27453 16.4656 2.31572 16.518 2.31511C16.5721 2.31446 16.6237 2.26454 16.6761 2.26714C16.7301 2.26984 16.7869 2.23927 16.839 2.24529C16.8925 2.25149 16.9458 2.26433 16.9973 2.27395C17.0503 2.28382 17.1142 2.26115 17.1648 2.27449C17.2167 2.28815 17.2523 2.35249 17.3016 2.36965C17.352 2.38716 17.3822 2.44325 17.4297 2.46422C17.4782 2.4856 17.5433 2.47378 17.5887 2.49861C17.6349 2.52384 17.6764 2.55462 17.7193 2.58324C17.7626 2.61222 17.7994 2.64736 17.8392 2.67962C17.8794 2.71217 17.9703 2.69927 18.0066 2.73495C18.0431 2.77078 18.0242 2.85321 18.0568 2.89207C18.0893 2.93089 18.1584 2.94765 18.1868 2.98928C18.215 3.03073 18.2415 3.07686 18.2655 3.12087C18.2893 3.16452 18.2426 3.23711 18.2621 3.28311C18.2812 3.32856 18.2627 3.38093 18.2775 3.42847C18.292 3.47526 18.3933 3.50092 18.4034 3.54958C18.4133 3.5973 18.4018 3.64899 18.4074 3.69837C18.4128 3.74667 18.3705 3.79623 18.3716 3.84597C18.3727 3.89441 18.4901 3.94635 18.487 3.99602C18.4839 4.04439 18.4847 4.09889 18.4775 4.14827C18.4705 4.19624 18.4499 4.24753 18.4389 4.29634C18.4282 4.34374 18.3019 4.36637 18.2874 4.41445C18.2733 4.46106 18.25 4.50244 18.2322 4.54958C18.2152 4.59438 18.255 4.65919 18.2345 4.70616C18.2151 4.75038 18.2565 4.8215 18.2339 4.86749C18.2126 4.9111 18.1718 4.94985 18.1475 4.99491C18.1244 5.03791 18.0977 5.08217 18.0719 5.12636C18.0471 5.16875 17.9154 5.15681 17.8882 5.20021C17.8621 5.24199 17.9104 5.32489 17.8819 5.36756C17.8545 5.40873 17.7846 5.42585 17.7551 5.46773C17.7265 5.50828 17.7693 5.5941 17.7387 5.6353C17.709 5.67527 17.6722 5.71279 17.6406 5.75331C17.6099 5.79267 17.5128 5.78791 17.4802 5.82777C17.4485 5.86656 17.3974 5.89125 17.364 5.93043C17.3315 5.96863 17.2978 6.0054 17.2635 6.04393C17.2301 6.08156 17.1928 6.11551 17.1578 6.15343C17.1236 6.19052 17.1902 6.3091 17.1545 6.34637C17.1195 6.38288 16.9987 6.349 16.9622 6.3857C16.9265 6.42163 16.9048 6.46953 16.8677 6.50565C16.8313 6.54105 16.8558 6.63177 16.8181 6.66724C16.781 6.70205 16.6471 6.6481 16.6087 6.68299C16.571 6.71723 16.5781 6.79382 16.5392 6.8281C16.5009 6.8618 16.4231 6.85639 16.3836 6.89009C16.3447 6.92322 16.3176 6.9677 16.2776 7.00079C16.2381 7.03337 16.2797 7.15152 16.2392 7.18407C16.1992 7.21611 16.0919 7.17657 16.0508 7.20858C16.0103 7.24008 16.0265 7.33553 15.9848 7.36692C15.9438 7.39788 15.8716 7.39442 15.8295 7.42528C15.788 7.4557 15.7726 7.51823 15.7301 7.54855C15.688 7.57846 15.6435 7.60694 15.6004 7.63667C15.5579 7.66601 15.4956 7.67182 15.4521 7.70098C15.4092 7.72977 15.3466 7.73396 15.3028 7.76258C15.2594 7.79083 15.2109 7.81239 15.1667 7.84047C15.1229 7.86826 15.0842 7.90325 15.0395 7.93083C14.9953 7.95804 14.9218 7.94384 14.8767 7.97087C14.8321 7.99758 14.8475 8.06066 14.802 8.08715C14.757 8.11332 14.6542 8.15379 14.6084 8.17975C14.6139 8.1379 14.655 8.08077 14.6559 8.02703C14.6567 7.98291 14.7179 7.93771 14.7135 7.88606C14.7097 7.84115 14.6022 7.80338 14.5933 7.75306C14.5854 7.70818 14.6267 7.65224 14.6139 7.6033C14.6022 7.55875 14.632 7.49866 14.6156 7.4509C14.6006 7.40693 14.5026 7.38646 14.4831 7.33985C14.4651 7.29663 14.5154 7.22408 14.4931 7.1787C14.4723 7.13638 14.3861 7.12049 14.3613 7.07637C14.338 7.03506 14.2732 7.01502 14.2462 6.9722C14.2208 6.93191 14.3034 6.82878 14.2744 6.78719C14.247 6.74787 14.1317 6.76077 14.1009 6.72033C14.0718 6.68209 14.0751 6.6211 14.0428 6.58192C14.0121 6.54458 13.9276 6.54595 13.8938 6.50778C13.8617 6.47134 13.9113 6.37005 13.8762 6.33289C13.8428 6.29746 13.7975 6.26891 13.7614 6.23283C13.7266 6.19823 13.6178 5.89766 13.5799 5.86519Z" fill="url(#paint19_linear_157_2171)"/>
  <path d="M5.15487 8.65284C5.1746 8.61301 5.27335 8.60883 5.29471 8.56932C5.31593 8.53011 5.28956 8.46941 5.31229 8.43056C5.33487 8.39199 5.41573 8.385 5.43971 8.34683C5.46358 8.30887 5.45311 8.25383 5.47827 8.21631C5.50327 8.179 5.45878 8.10079 5.48499 8.06392C5.51104 8.02722 5.52081 7.97892 5.54796 7.94266C5.57503 7.90655 5.68311 7.92309 5.7112 7.88745C5.73921 7.85191 5.68612 7.76039 5.71503 7.72536C5.74389 7.69036 5.85569 7.71454 5.88534 7.68005C5.91499 7.64559 5.93085 7.60158 5.9612 7.56766C5.99159 7.53371 5.98585 7.47179 6.0169 7.43837C6.048 7.40492 6.10038 7.38853 6.13202 7.35565C6.16374 7.32271 6.13182 7.23599 6.16401 7.20362C6.19636 7.17114 6.266 7.16977 6.29874 7.13795C6.33167 7.1059 6.38683 7.09351 6.42003 7.06215C6.45351 7.03054 6.54538 7.05339 6.57909 7.0225C6.61308 6.99132 6.618 6.93416 6.65214 6.9037C6.68663 6.87292 6.64854 6.77203 6.68308 6.74204C6.71808 6.71166 6.82784 6.75577 6.86276 6.72622C6.89823 6.69619 6.88413 6.61639 6.9194 6.58727C6.9553 6.55764 7.02788 6.56687 7.06351 6.53818C7.09983 6.50887 7.14007 6.48498 7.17597 6.45668C7.21272 6.42774 7.27214 6.42525 7.30831 6.39743C7.3455 6.36881 7.34093 6.29502 7.37737 6.26763C7.41499 6.23934 7.39405 6.1445 7.43073 6.11751C7.46878 6.08954 7.52069 6.07797 7.55753 6.05147C7.59608 6.02372 7.62983 5.99078 7.66691 5.96472C7.70601 5.93718 7.81886 6.00173 7.85605 5.97614C7.89569 5.94886 7.87105 5.84368 7.90823 5.81863C7.94843 5.79156 8.04499 5.83972 8.08198 5.81535C8.12308 5.78828 8.09163 5.67031 8.12831 5.64674C8.1707 5.61949 8.26995 5.6746 8.30573 5.65222C8.35109 5.62385 8.33624 5.5234 8.3696 5.50317C8.44624 5.45668 8.4196 5.46374 8.4762 5.42402C8.50909 5.39526 8.64144 5.47863 8.6773 5.4499C8.71159 5.4224 8.66277 5.30194 8.69964 5.27444C8.73511 5.24802 8.85452 5.31949 8.8923 5.29311C8.92867 5.2677 8.96359 5.24211 9.00199 5.21677C9.03913 5.19222 9.08382 5.17932 9.12277 5.15485C9.16062 5.13106 9.16132 5.05645 9.20078 5.03277C9.23921 5.00966 9.24292 4.93476 9.28285 4.91173C9.32183 4.88924 9.36359 4.86848 9.4039 4.84609C9.44331 4.82422 9.53863 4.88881 9.57921 4.867C9.61906 4.84559 9.65179 4.81322 9.69273 4.79192C9.73296 4.77098 9.7496 4.70077 9.79081 4.67993C9.82898 4.69691 9.8441 4.77905 9.8914 4.80126C9.93074 4.81971 10.0004 4.79051 10.0457 4.81279C10.0854 4.83233 10.1148 4.87424 10.1589 4.89688C10.1988 4.91735 10.2746 4.88358 10.3179 4.90665C10.3578 4.92788 10.3947 4.95805 10.4373 4.98158C10.4769 5.0035 10.5454 4.98602 10.5873 5.00999C10.6268 5.03255 10.603 5.15063 10.6444 5.17503C10.6837 5.19821 10.748 5.18739 10.7889 5.21226C10.8279 5.23602 10.9027 5.21306 10.9432 5.23836C10.9819 5.26265 10.9488 5.38491 10.9888 5.41069C11.0273 5.43548 11.074 5.44994 11.1136 5.47614C11.1518 5.50144 11.2387 5.46616 11.278 5.49279C11.3159 5.5186 11.2979 5.61448 11.3367 5.64155C11.3744 5.66782 11.4275 5.67565 11.466 5.70315C11.5033 5.72986 11.5732 5.71911 11.6112 5.74698C11.6483 5.77415 11.7138 5.7704 11.7515 5.79874C11.7882 5.82631 11.7839 5.90128 11.8212 5.92997C11.8576 5.95794 11.8859 5.9955 11.9228 6.02455C11.9588 6.05292 12.043 6.03097 12.0796 6.06034C12.1153 6.0891 12.0904 6.18221 12.1265 6.21194C12.162 6.24114 12.2199 6.24784 12.2558 6.27801C12.2909 6.30757 12.3013 6.36225 12.3368 6.39274C12.3716 6.42269 12.4496 6.41091 12.4848 6.44176C12.5193 6.47207 12.4733 6.57973 12.5081 6.61095C12.5441 6.64317 12.5813 6.67028 12.6151 6.70207C12.6502 6.73516 12.7283 6.72744 12.7611 6.76003C12.7954 6.79402 12.8534 6.80681 12.8853 6.84022C12.9186 6.87511 13.0062 6.86762 13.037 6.9019C13.0691 6.93772 13.0208 7.03306 13.0504 7.06817C13.0813 7.10497 13.0893 7.155 13.1174 7.19097C13.1469 7.22874 13.2381 7.22543 13.2647 7.26226C13.2927 7.30105 13.2626 7.37252 13.2875 7.41022C13.3138 7.45009 13.3832 7.46501 13.4062 7.50361C13.4307 7.54459 13.4388 7.59235 13.4598 7.63186C13.4823 7.67407 13.5229 7.70759 13.5416 7.74806C13.5617 7.79132 13.5665 7.83929 13.5827 7.88049C13.6001 7.92472 13.6388 7.96191 13.6521 8.00369C13.6666 8.0491 13.5764 8.11622 13.5867 8.15857C13.598 8.20517 13.7352 8.22748 13.742 8.2702C13.7497 8.3177 13.7693 8.36622 13.7725 8.40868C13.776 8.45726 13.6935 8.50679 13.6925 8.54845C13.6913 8.59866 13.717 8.65594 13.7118 8.69548C13.6703 8.71894 13.6384 8.77524 13.5963 8.79849C13.5545 8.82152 13.4604 8.76324 13.4179 8.78606C13.3758 8.80866 13.3787 8.90392 13.3359 8.92627C13.2936 8.9484 13.2664 8.99745 13.2234 9.01937C13.1809 9.04103 13.1266 9.04464 13.0834 9.06608C13.0406 9.08731 12.993 9.10184 12.9496 9.12285C12.9065 9.14365 12.86 9.1598 12.8163 9.18038C12.773 9.20074 12.6912 9.15114 12.6472 9.17129C12.6036 9.19126 12.5623 9.21498 12.518 9.23469C12.4742 9.25423 12.4804 9.37159 12.436 9.39087C12.3919 9.40998 12.342 9.41971 12.2973 9.43856C12.253 9.45723 12.1595 9.37584 12.1146 9.39426C12.07 9.41254 12.0586 9.5007 12.0135 9.51869C11.9687 9.53653 11.8911 9.48333 11.8457 9.50092C11.8007 9.51836 11.7736 9.57535 11.7281 9.5925C11.683 9.60952 11.6286 9.60541 11.5828 9.62213C11.5375 9.63871 11.4806 9.62732 11.4347 9.64365C11.3894 9.65976 11.3948 9.8003 11.3489 9.81612C11.3033 9.83184 11.2266 9.77099 11.1805 9.78646C11.1347 9.80177 11.1181 9.89408 11.0718 9.90911C11.0259 9.92404 10.9423 9.8402 10.8959 9.85487C10.8497 9.86939 10.8302 9.95803 10.7836 9.97226C10.7372 9.98639 10.6489 9.88179 10.6021 9.8956C10.5556 9.90933 10.5252 9.96909 10.4782 9.98254C10.4315 9.99587 10.3687 9.95911 10.3215 9.97215C10.2749 9.98506 10.2302 10.0023 10.183 10.0149C10.1362 10.0274 10.0921 10.0471 10.0447 10.0593C9.99769 10.0715 9.98242 10.1905 9.93492 10.2024C9.88773 10.2142 9.84773 10.2538 9.80003 10.2652C9.75281 10.2766 9.69238 10.2428 9.64468 10.2539C9.59722 10.2649 9.55429 10.295 9.50636 10.3057C9.45878 10.3164 9.40964 10.3234 9.3616 10.3337C9.31449 10.3438 9.25062 10.2848 9.20445 10.2945C9.15722 10.3043 9.13042 10.3969 9.08417 10.4062C9.03687 10.4158 8.97792 10.3742 8.93163 10.3832C8.88425 10.3925 8.84827 10.4508 8.80191 10.4596C8.75445 10.4686 8.69109 10.4026 8.64472 10.4111C8.59714 10.4197 8.53941 10.3747 8.49296 10.3827C8.44531 10.391 8.41062 10.4593 8.36413 10.467C8.31636 10.4749 8.28597 10.5728 8.23945 10.5801C8.19159 10.5876 8.13359 10.5374 8.08698 10.5443C8.03902 10.5514 7.99577 10.5846 7.94913 10.591C7.90109 10.5976 7.84737 10.5652 7.80073 10.5711C7.75257 10.5772 7.70515 10.584 7.65843 10.5894C7.61015 10.595 7.55534 10.54 7.50862 10.5448C7.46026 10.5498 7.41608 10.5791 7.36937 10.5833C7.32085 10.5876 7.27241 10.5775 7.22562 10.581C7.17694 10.5846 7.13206 10.6189 7.08522 10.6216C7.0364 10.6244 6.99019 10.6573 6.94335 10.6592C6.8944 10.6611 6.84433 10.5895 6.79749 10.5904C6.74843 10.5914 6.70163 10.6636 6.65483 10.6635C6.60569 10.6633 6.55831 10.6277 6.51167 10.6264C6.46249 10.625 6.41061 10.6904 6.36413 10.6877C6.31495 10.685 6.27042 10.6317 6.22421 10.6275C6.17515 10.6231 6.1305 10.5981 6.08464 10.5922C6.03569 10.5859 5.9919 10.5667 5.94655 10.5588C5.89784 10.5503 5.85358 10.5386 5.80886 10.5283C5.76065 10.5172 5.6855 10.5952 5.64175 10.5822C5.5944 10.568 5.56628 10.5025 5.52401 10.4862C5.47803 10.4684 5.4555 10.4124 5.41522 10.3922C5.37143 10.3702 5.31155 10.3785 5.27417 10.354C5.23378 10.3274 5.15589 10.3379 5.12253 10.3085C5.08694 10.2771 5.06147 10.228 5.03342 10.1937C5.00413 10.1579 5.02214 10.0915 5.00049 10.053C4.97842 10.0136 4.92745 9.98376 4.91268 9.94195C4.89796 9.90028 4.96792 9.84074 4.95983 9.79702C4.95186 9.75409 4.8176 9.7219 4.81546 9.67739C4.81335 9.63399 4.94198 9.58962 4.94483 9.54507C4.94756 9.50171 4.96772 9.46408 4.97464 9.41993C4.98135 9.37689 4.99335 9.33875 5.00354 9.29532C5.01358 9.25268 4.87014 9.17407 4.88307 9.13132C4.89585 9.08911 4.94854 9.05469 4.9637 9.01266C4.97874 8.97096 5.03151 8.94032 5.04846 8.89905C5.06542 8.85782 5.14307 8.83976 5.16155 8.79925C5.18014 8.75841 5.13514 8.69267 5.15487 8.65284Z" fill="url(#paint20_linear_157_2171)"/>
  <path d="M13.742 8.27035C13.7352 8.22764 13.598 8.20533 13.5867 8.15876C13.5764 8.11641 13.6666 8.0493 13.6521 8.00388C13.6494 7.99559 13.6452 7.98759 13.6409 7.97955C13.6336 7.99328 13.6247 8.0059 13.6114 8.01332C13.5832 8.02915 13.4586 7.90188 13.424 7.92058C13.3947 7.93648 13.4063 8.02093 13.3723 8.03877C13.3422 8.05456 13.3306 8.10459 13.2969 8.12174C13.2663 8.13732 13.2011 8.09709 13.1675 8.11371C13.1365 8.12906 13.108 8.15051 13.0745 8.16673C13.043 8.18187 13.0696 8.30326 13.036 8.31905C13.0043 8.33397 12.8935 8.20587 12.8598 8.22133C12.828 8.23597 12.8792 8.40851 12.8455 8.42361C12.8134 8.43799 12.718 8.33318 12.6843 8.34796C12.652 8.36212 12.6153 8.36843 12.5814 8.38292C12.5489 8.39687 12.581 8.54252 12.5471 8.55672C12.5144 8.57042 12.3946 8.40667 12.3606 8.42059C12.3277 8.43407 12.3811 8.63 12.347 8.64366C12.314 8.65689 12.1971 8.49166 12.163 8.50507C12.1298 8.51808 12.1245 8.59233 12.0903 8.60549C12.057 8.61829 11.9958 8.56869 11.9615 8.58159C11.928 8.59417 11.9611 8.75976 11.9267 8.77245C11.8932 8.78481 11.8023 8.66442 11.7678 8.67686C11.7341 8.689 11.7461 8.81072 11.7115 8.82294C11.6777 8.83487 11.6532 8.87185 11.6186 8.88382C11.5847 8.89554 11.5429 8.88973 11.5081 8.90148C11.4741 8.91302 11.4442 8.9372 11.4095 8.94874C11.3753 8.96005 11.3435 8.97977 11.3087 8.99105C11.2745 9.00215 11.2364 9.00547 11.2015 9.01657C11.1672 9.02746 11.0947 8.93587 11.0598 8.94672C11.0254 8.95739 10.9694 8.9075 10.9343 8.91817C10.8999 8.92866 10.8924 9.01517 10.8573 9.02562C10.8227 9.03593 10.7729 9.00205 10.7377 9.01228C10.7031 9.02237 10.7113 9.15992 10.6761 9.16997C10.6413 9.17989 10.6086 9.19816 10.5732 9.208C10.5384 9.2177 10.4721 9.1317 10.4367 9.14136C10.4018 9.15087 10.3626 9.14673 10.3271 9.15617C10.2921 9.1655 10.3009 9.31732 10.2653 9.32659C10.2303 9.3357 10.1436 9.17524 10.108 9.18428C10.073 9.19322 10.042 9.21568 10.0064 9.22455C9.97136 9.23327 9.95429 9.30445 9.91871 9.3131C9.88355 9.32165 9.853 9.34774 9.81734 9.35621C9.78207 9.36458 9.71984 9.27522 9.6841 9.28351C9.64879 9.29169 9.65652 9.46106 9.62074 9.46917C9.58531 9.47718 9.52726 9.40102 9.4914 9.40895C9.45589 9.41677 9.42613 9.44813 9.39019 9.45587C9.35468 9.46352 9.3289 9.51228 9.29296 9.51985C9.25742 9.52731 9.21441 9.50616 9.17851 9.51351C9.14289 9.52079 9.07937 9.41086 9.04335 9.41803C9.00761 9.42516 8.97523 9.44549 8.9391 9.45249C8.90343 9.45941 8.87394 9.4934 8.83785 9.50021C8.80199 9.50698 8.78316 9.59248 8.74691 9.59915C8.71101 9.60575 8.66078 9.54598 8.62449 9.55247C8.58831 9.55892 8.56355 9.61815 8.52804 9.62449C8.49183 9.63098 8.43089 9.51837 8.39538 9.52475C8.35917 9.53124 8.35941 9.70858 8.32394 9.71496C8.28773 9.72148 8.2207 9.58044 8.18523 9.58686C8.14902 9.59338 8.10988 9.58441 8.07441 9.59079C8.0382 9.59731 8.0114 9.64648 7.97597 9.65289C7.93968 9.65945 7.89534 9.62611 7.85988 9.63249C7.82363 9.63905 7.79816 9.69459 7.76273 9.70101C7.72644 9.70753 7.68788 9.70101 7.65245 9.70743C7.61616 9.71395 7.59093 9.77025 7.55554 9.77659C7.51925 9.78312 7.47234 9.7368 7.43702 9.74315C7.40073 9.74963 7.39171 9.88375 7.3564 9.89002C7.32007 9.89651 7.28413 9.90304 7.24886 9.90927C7.21245 9.91572 7.17882 9.93338 7.14351 9.93958C7.10706 9.946 7.03464 9.77414 6.99933 9.78027C6.9628 9.78661 6.95323 9.92235 6.91788 9.92841C6.88132 9.93468 6.82276 9.82713 6.78745 9.83307C6.75085 9.83924 6.73702 9.958 6.70171 9.96384C6.66503 9.9699 6.62058 9.93194 6.5853 9.9376C6.54855 9.94348 6.49398 9.84713 6.45874 9.85261C6.4219 9.85831 6.40265 9.95534 6.36741 9.9606C6.3305 9.96608 6.28042 9.88581 6.24522 9.89078C6.20823 9.89601 6.18343 9.96687 6.14827 9.97148C6.11116 9.97635 6.07815 10.0002 6.04304 10.0044C6.00573 10.0088 5.97405 10.0486 5.93893 10.0523C5.90143 10.0562 5.87026 10.1169 5.83519 10.1198C5.79749 10.123 5.74862 9.9797 5.71362 9.98179C5.67558 9.98403 5.64097 9.96687 5.60597 9.96777C5.56772 9.96878 5.53304 10.0868 5.49831 10.0861C5.45983 10.0854 5.43057 9.98294 5.3962 9.98013C5.35761 9.97696 5.296 10.1316 5.26229 10.1256C5.22413 10.119 5.18518 10.0786 5.15284 10.0683C5.11639 10.0567 5.12081 9.95923 5.09112 9.94283C5.05897 9.92502 4.98468 9.95483 4.95968 9.93115C4.93464 9.90747 5.0178 9.81318 4.99905 9.78333C4.98167 9.75558 4.93108 9.75208 4.91846 9.71878C4.9071 9.68876 4.96346 9.6482 4.95546 9.61349C4.95038 9.5914 4.94632 9.5723 4.94268 9.55063C4.9305 9.59335 4.81339 9.63588 4.81546 9.67751C4.81764 9.72202 4.95186 9.75421 4.95983 9.79714C4.96796 9.84086 4.89796 9.9004 4.91268 9.94207C4.92745 9.98388 4.97843 10.0138 5.0005 10.0531C5.02218 10.0917 5.00413 10.158 5.03343 10.1938C5.06147 10.2281 5.08694 10.2773 5.12253 10.3087C5.15589 10.3381 5.23374 10.3275 5.27413 10.3541C5.31151 10.3787 5.3714 10.3704 5.41518 10.3923C5.45546 10.4125 5.478 10.4686 5.52393 10.4864C5.56624 10.5027 5.59436 10.5682 5.64171 10.5823C5.68546 10.5954 5.76058 10.5174 5.80882 10.5285C5.85354 10.5387 5.8978 10.5505 5.94651 10.5589C5.99186 10.5669 6.03565 10.5861 6.0846 10.5923C6.13046 10.5983 6.17507 10.6232 6.22417 10.6277C6.27042 10.6318 6.31491 10.6851 6.36409 10.6879C6.41058 10.6905 6.46245 10.6252 6.51163 10.6265C6.55827 10.6278 6.60565 10.6635 6.6548 10.6636C6.70155 10.6637 6.74839 10.5915 6.79745 10.5906C6.84429 10.5896 6.89437 10.6612 6.94331 10.6593C6.99015 10.6574 7.03636 10.6245 7.08519 10.6217C7.13202 10.619 7.17691 10.5847 7.22558 10.5811C7.27237 10.5777 7.32077 10.5878 7.36933 10.5834C7.41609 10.5793 7.46023 10.55 7.50859 10.545C7.5553 10.5402 7.61015 10.5951 7.65839 10.5896C7.70511 10.5842 7.75253 10.5774 7.8007 10.5713C7.84738 10.5654 7.90105 10.5977 7.94909 10.5912C7.9957 10.5847 8.03898 10.5515 8.08695 10.5445C8.13351 10.5376 8.19152 10.5878 8.23941 10.5803C8.28593 10.573 8.31632 10.4751 8.3641 10.4672C8.41062 10.4594 8.44527 10.3912 8.49292 10.3829C8.53937 10.3749 8.59706 10.4199 8.64468 10.4113C8.69109 10.4028 8.75441 10.4687 8.80187 10.4598C8.84824 10.451 8.88421 10.3927 8.9316 10.3834C8.97789 10.3744 9.03687 10.416 9.08414 10.4064C9.13039 10.3971 9.15718 10.3045 9.20441 10.2947C9.25062 10.285 9.31445 10.344 9.36156 10.3339C9.4096 10.3236 9.45875 10.3165 9.50632 10.3059C9.55429 10.2952 9.59718 10.2651 9.64468 10.2541C9.69238 10.243 9.75285 10.2768 9.80007 10.2655C9.84777 10.254 9.88773 10.2144 9.93496 10.2026C9.98246 10.1907 9.99773 10.0716 10.0448 10.0595C10.0921 10.0473 10.1362 10.0276 10.1831 10.0151C10.2302 10.0025 10.2749 9.98525 10.3216 9.97235C10.3687 9.9593 10.4316 9.99603 10.4782 9.98273C10.5252 9.96929 10.5557 9.90952 10.6022 9.89579C10.649 9.88195 10.7373 9.98659 10.7836 9.97242C10.8303 9.95818 10.8498 9.86955 10.8959 9.85503C10.9424 9.84039 11.0259 9.92419 11.0719 9.90931C11.1182 9.89424 11.1348 9.80197 11.1806 9.78665C11.2267 9.77122 11.3035 9.83207 11.349 9.81635C11.395 9.80053 11.3895 9.65999 11.4348 9.64384C11.4807 9.62755 11.5377 9.63894 11.583 9.62233C11.6287 9.6056 11.6831 9.60971 11.7282 9.5927C11.7738 9.57554 11.8009 9.51855 11.8459 9.50115C11.8912 9.48356 11.9689 9.53676 12.0136 9.51892C12.0587 9.50089 12.0702 9.41273 12.1147 9.39449C12.1596 9.37607 12.2532 9.45746 12.2974 9.43879C12.3421 9.41994 12.392 9.41021 12.4361 9.3911C12.4805 9.37182 12.4743 9.25446 12.5181 9.23493C12.5623 9.21521 12.6037 9.19153 12.6473 9.17156C12.6913 9.15141 12.773 9.20104 12.8163 9.18068C12.86 9.1601 12.9066 9.14395 12.9496 9.12315C12.9931 9.10218 13.0407 9.08765 13.0835 9.06642C13.1267 9.04497 13.181 9.04137 13.2235 9.01971C13.2666 8.99779 13.2937 8.94877 13.336 8.92661C13.3788 8.90422 13.3759 8.80896 13.418 8.78639C13.4605 8.76358 13.5546 8.82186 13.5964 8.79883C13.6386 8.77558 13.6704 8.71928 13.7119 8.69582C13.7171 8.65628 13.6914 8.599 13.6926 8.54879C13.6936 8.50713 13.7761 8.4576 13.7726 8.40901C13.7694 8.36637 13.7497 8.31786 13.742 8.27035Z" fill="url(#paint21_linear_157_2171)"/>
  <path d="M18.4498 3.9375C18.4382 3.95422 18.4265 3.97109 18.4157 3.98893C18.3984 4.01784 18.4195 4.06856 18.4006 4.09865C18.3825 4.12731 18.2805 4.11102 18.2609 4.14068C18.2422 4.16908 18.2179 4.19424 18.1978 4.22351C18.1785 4.25162 18.1504 4.27422 18.1297 4.30313C18.1098 4.33096 18.1348 4.38672 18.1136 4.41526C18.0932 4.4428 18.0713 4.46994 18.0497 4.49813C18.0288 4.52534 18.0173 4.55955 17.9952 4.58734C17.9738 4.61426 17.9613 4.64814 17.9387 4.67557C17.9168 4.70221 17.9013 4.73447 17.8784 4.76154C17.856 4.78785 17.8364 4.81733 17.8129 4.84408C17.7901 4.8701 17.7624 4.89353 17.7386 4.91995C17.7154 4.94568 17.707 4.98425 17.6828 5.01035C17.6591 5.03579 17.5745 5.01301 17.5498 5.03879C17.5258 5.06394 17.5679 5.14432 17.5429 5.16977C17.5184 5.19468 17.4158 5.15391 17.3905 5.17907C17.3657 5.20365 17.3694 5.25303 17.3437 5.27787C17.3186 5.30216 17.31 5.34177 17.284 5.36632C17.2586 5.39032 17.2389 5.42049 17.2127 5.44471C17.1869 5.46843 17.1822 5.51305 17.1556 5.53695C17.1295 5.56041 17.0489 5.53234 17.022 5.55591C16.995 5.57963 17.0112 5.64569 16.9841 5.66916C16.9569 5.69262 16.8688 5.65543 16.8415 5.67864C16.8141 5.70192 16.8248 5.76334 16.7974 5.78634C16.7699 5.80941 16.774 5.86502 16.7464 5.8878C16.7187 5.91073 16.6873 5.93022 16.6595 5.95286C16.6316 5.9756 16.5993 5.99402 16.5714 6.01644C16.5434 6.03897 16.4577 5.99986 16.4297 6.02206C16.4014 6.04445 16.3949 6.08997 16.3667 6.11207C16.3383 6.13431 16.3497 6.20019 16.3213 6.22211C16.2928 6.24417 16.1958 6.19014 16.1673 6.21187C16.1386 6.23375 16.1499 6.30007 16.1213 6.32159C16.0925 6.34332 16.0472 6.3461 16.0186 6.36744C15.9896 6.38899 15.954 6.40244 15.9252 6.42359C15.8962 6.44497 15.9089 6.51482 15.8801 6.5358C15.8508 6.5571 15.8104 6.56525 15.7813 6.58615C15.7518 6.60731 15.7163 6.6209 15.687 6.64162C15.6574 6.66264 15.6552 6.71652 15.6258 6.7371C15.5961 6.75797 15.5376 6.74363 15.5082 6.76403C15.4783 6.78475 15.4339 6.78706 15.4044 6.80728C15.3744 6.82786 15.3402 6.84261 15.3106 6.86265C15.2805 6.88312 15.3029 6.96934 15.2732 6.98923C15.243 7.00952 15.1979 7.01082 15.1682 7.03054C15.1379 7.05072 15.1008 7.06182 15.0711 7.0814C15.0405 7.10144 15.0121 7.12353 14.9823 7.14289C14.9516 7.16282 14.9188 7.17944 14.8888 7.19865C14.858 7.21847 14.8105 7.21534 14.7805 7.23437C14.7495 7.25408 14.6996 7.24713 14.6696 7.26598C14.6384 7.28559 14.6469 7.358 14.6169 7.37663C14.5928 7.39163 14.5438 7.37155 14.5088 7.36975C14.5452 7.39768 14.6041 7.41754 14.6155 7.45088C14.6318 7.49868 14.6021 7.55873 14.6137 7.60328C14.6265 7.65222 14.5853 7.70816 14.5932 7.75304C14.602 7.80336 14.7096 7.84113 14.7134 7.88604C14.7177 7.93773 14.6565 7.98293 14.6558 8.02701C14.6549 8.08075 14.6138 8.13788 14.6082 8.17973C14.6541 8.15377 14.7569 8.11333 14.8019 8.08713C14.8474 8.06064 14.832 7.99756 14.8766 7.97085C14.9217 7.94386 14.9952 7.95802 15.0394 7.93081C15.0841 7.90323 15.1227 7.8682 15.1665 7.84045C15.2108 7.81237 15.2593 7.79081 15.3026 7.76255C15.3465 7.7339 15.4091 7.72975 15.452 7.70096C15.4954 7.67176 15.5579 7.66599 15.6003 7.63662C15.6433 7.60688 15.6879 7.57841 15.7299 7.54849C15.7725 7.51818 15.7879 7.45564 15.8294 7.42522C15.8715 7.3944 15.9437 7.39783 15.9847 7.36686C16.0263 7.33547 16.0101 7.24002 16.0506 7.20852C16.0918 7.17655 16.1991 7.21606 16.239 7.18401C16.2797 7.15147 16.238 7.03331 16.2775 7.00073C16.3175 6.96761 16.3446 6.92316 16.3834 6.89004C16.423 6.85634 16.5007 6.86174 16.539 6.82804C16.578 6.79377 16.5709 6.71717 16.6086 6.68289C16.6469 6.648 16.7809 6.70196 16.8179 6.66714C16.8557 6.63164 16.8312 6.54092 16.8676 6.50552C16.9047 6.46944 16.9264 6.42154 16.9621 6.3856C16.9986 6.34895 17.1194 6.38279 17.1543 6.34632C17.1901 6.30901 17.1235 6.19043 17.1577 6.15334C17.1927 6.11542 17.23 6.08147 17.2634 6.04384C17.2976 6.0053 17.3313 5.96854 17.3639 5.93033C17.3973 5.89115 17.4484 5.8665 17.48 5.82772C17.5126 5.78789 17.6097 5.79265 17.6404 5.75325C17.672 5.71274 17.7088 5.67518 17.7385 5.63524C17.7691 5.59404 17.7263 5.50822 17.7549 5.46767C17.7845 5.42575 17.8544 5.40867 17.8818 5.36751C17.9102 5.32487 17.8619 5.24193 17.8881 5.20016C17.9152 5.15676 18.047 5.16865 18.0717 5.1263C18.0975 5.08208 18.1242 5.03781 18.1473 4.99481C18.1716 4.94976 18.2124 4.91101 18.2338 4.8674C18.2563 4.82141 18.215 4.75029 18.2343 4.70606C18.2548 4.6591 18.215 4.59433 18.232 4.54949C18.2498 4.50234 18.2731 4.46097 18.2872 4.41436C18.3017 4.36628 18.4281 4.34364 18.4388 4.29625C18.4498 4.24741 18.4704 4.19615 18.4774 4.14818C18.4846 4.0988 18.4837 4.0443 18.4868 3.99593C18.4881 3.97675 18.471 3.95714 18.4498 3.9375Z" fill="url(#paint22_linear_157_2171)"/>
  <path d="M0.251967 5.71252C-0.00885405 6.34189 -0.0644401 6.97677 0.0911852 7.58555H3.96936L4.02361 5.71252H0.251967Z" fill="url(#paint23_linear_157_2171)"/>
  <path d="M6.8453 4.78085L1.78076 5.18685C1.78076 5.88657 2.07447 6.55912 2.60026 7.06334L2.7485 7.20549C2.80877 7.25931 2.88166 7.3097 2.9676 7.35547C3.61116 7.69832 4.7353 7.65532 5.47842 7.25945C5.68874 7.14739 5.84596 7.01907 5.94878 6.88492C5.94878 6.88492 6.8453 5.87425 6.8453 4.78085Z" fill="url(#paint24_linear_157_2171)"/>
  <path d="M5.971 5.86857C4.91377 6.43179 3.31447 6.49296 2.39888 6.00521C1.48329 5.51743 1.5981 4.66546 2.65537 4.10224C3.71259 3.53901 5.31189 3.47785 6.22748 3.96563C7.14307 4.45334 7.02822 5.30535 5.971 5.86857Z" fill="url(#paint25_linear_157_2171)"/>
  <path d="M5.80533 5.78038C4.85365 6.28737 3.41404 6.34241 2.58985 5.90336C1.76567 5.46431 1.86903 4.69737 2.82071 4.19037C3.7724 3.68338 5.21201 3.62831 6.03615 4.06739C6.86037 4.50644 6.75701 5.27339 5.80533 5.78038Z" fill="url(#paint26_linear_157_2171)"/>
  <path d="M2.04883 5.29739H2.04891C2.09988 5.52501 2.27867 5.73756 2.58981 5.90333C3.41399 6.34241 4.8536 6.28734 5.80524 5.78034C6.19637 5.57197 6.44387 5.3197 6.54294 5.06433H6.54309C6.54309 5.06433 6.58876 4.87676 6.46579 4.67996C6.3429 4.48316 6.15153 4.46488 5.73973 4.36101C5.32793 4.25713 5.28915 4.12095 4.98215 4.14117C4.6752 4.16139 4.62403 4.22209 4.31293 4.14117C4.00184 4.06026 3.94434 4.12095 3.72508 4.19946C3.50582 4.27796 3.60082 4.4514 3.34504 4.55258C3.08926 4.65375 2.77684 4.62286 2.48992 4.78085C2.16129 4.96186 2.04883 5.29739 2.04883 5.29739Z" fill="url(#paint27_linear_157_2171)"/>
  <path d="M3.60869 4.67997C3.37423 4.50544 3.74755 5.13928 4.37607 5.38881C5.00459 5.63834 4.85111 5.97553 4.85111 5.97553C4.85111 5.97553 5.23115 5.4765 4.76342 5.23371C4.29568 4.99092 4.1422 5.0771 3.60869 4.67997Z" fill="url(#paint28_linear_157_2171)"/>
  <path d="M6.13075 4.45956C6.02802 4.42929 5.90095 4.40171 5.73978 4.36106C5.51228 4.30368 5.39864 4.23652 5.29075 4.19125C5.33829 4.24849 5.38474 4.33031 5.32532 4.3874C5.22524 4.4835 5.2636 4.51385 5.22524 4.73638C5.18689 4.95892 4.99634 4.964 4.99634 4.964C4.99634 4.964 5.09919 5.14768 5.42259 5.02549C5.74599 4.9033 5.49935 4.83248 5.70212 4.70099C5.84763 4.60662 6.0795 4.546 6.13075 4.45956Z" fill="url(#paint29_linear_157_2171)"/>
  <path d="M4.31301 5.69731C4.19559 5.74283 3.76719 5.98562 3.57531 5.80858C3.38344 5.63153 3.08199 5.65687 2.76957 5.59109C2.45711 5.52534 2.42973 5.20671 2.52289 5.06737C2.58414 4.97582 2.59297 4.84007 2.55785 4.74741C2.53512 4.75761 2.51246 4.76846 2.49 4.78082C2.16129 4.9618 2.04883 5.29736 2.04883 5.29736H2.04891C2.09988 5.52498 2.27867 5.73753 2.58981 5.9033C2.86516 6.05 3.20934 6.14122 3.58094 6.17918C3.66559 6.14231 3.74262 6.11405 3.81098 6.11203C4.15629 6.1019 4.1618 5.97546 4.3975 5.92489C4.63325 5.87436 4.43043 5.65178 4.31301 5.69731Z" fill="url(#paint30_linear_157_2171)"/>
  <path d="M4.20027 4.7809C4.37969 4.63096 4.63512 4.76843 4.64242 4.58633C4.64973 4.40424 4.7318 4.67064 4.815 4.4245C4.8982 4.17835 4.98484 4.13113 4.99633 4.3031C5.00781 4.47507 5.22707 4.73469 4.85066 4.87631C4.47433 5.01792 4.07234 4.88777 4.20027 4.7809Z" fill="url(#paint31_linear_157_2171)"/>
  <path d="M6.54334 5.06439C6.54334 5.06439 6.58901 4.87682 6.46604 4.68002C6.41354 4.59596 6.34834 4.5446 6.25905 4.5051C6.11967 4.53836 6.48897 4.89214 6.33815 4.98538C6.16822 5.09041 6.26143 5.00369 6.05315 5.29741C5.84483 5.59114 5.52975 5.56587 5.32553 5.71253C5.22635 5.78376 5.08264 5.94476 5.04346 6.06843C5.31561 5.99926 5.57494 5.9032 5.80549 5.78037C6.19662 5.572 6.44412 5.31973 6.54319 5.06435H6.54334V5.06439Z" fill="url(#paint32_linear_157_2171)"/>
  <path d="M0.0202637 7.1893C0.0661622 7.62406 0.215537 8.04917 0.469913 8.45372H3.04957L1.33937 7.1893H0.0202637Z" fill="url(#paint33_linear_157_2171)"/>
  <path d="M4.54656 7.45678C4.54656 7.45678 4.57719 7.62734 4.41922 7.94943C4.20285 8.39057 2.75757 8.70235 1.98039 8.18317C1.35812 7.76748 2.57043 7.3197 2.57043 7.3197L4.54656 7.45678Z" fill="url(#paint34_linear_157_2171)"/>
  <path d="M0.594482 5.35132C0.70542 6.29758 1.18112 7.76129 2.06538 8.23238C2.94964 8.70348 4.21437 8.21703 4.54671 7.45682L0.594482 5.35132Z" fill="url(#paint35_linear_157_2171)"/>
  <path d="M0.801758 5.46155C0.801758 5.46155 0.988907 7.3748 2.04606 7.96775C3.42176 8.73942 4.36739 7.36106 4.36739 7.36106L0.801758 5.46155Z" fill="#FCF3B3"/>
  <path d="M0.801758 5.46155C0.801758 5.46155 1.63559 5.9919 1.8952 6.1767C2.15485 6.36149 1.34848 7.07336 1.34848 7.07336C1.34848 7.07336 1.93231 6.49154 2.11774 6.43679C2.30321 6.38204 2.38477 6.53948 2.39219 6.71743C2.39961 6.89538 2.3625 7.97687 2.3625 7.97687C2.3625 7.97687 2.49016 6.76533 2.57098 6.63528C2.6518 6.50524 2.85207 6.63528 2.97078 6.92277C3.08946 7.21025 3.312 8.05217 3.312 8.05217C3.312 8.05217 3.18172 7.1076 3.17641 6.96386C3.17106 6.82012 4.36731 7.3611 4.36731 7.3611L0.801758 5.46155Z" fill="#FEFAE1"/>
  <defs>
    <linearGradient id="paint0_linear_157_2171" x1="0.00390625" y1="8.66706" x2="20.0033" y2="8.66706" gradientUnits="userSpaceOnUse">
      <stop stop-color="#C5BAEB"/>
      <stop offset="0.2126" stop-color="#D9D1F2"/>
      <stop offset="0.4658" stop-color="#EBE7F8"/>
      <stop offset="0.6298" stop-color="#F2EFFA"/>
      <stop offset="0.7875" stop-color="#F0EDF9"/>
      <stop offset="0.8652" stop-color="#EAE5F7"/>
      <stop offset="0.9254" stop-color="#DED8F3"/>
      <stop offset="0.9764" stop-color="#CFC6EE"/>
      <stop offset="1" stop-color="#C5BAEB"/>
    </linearGradient>
    <linearGradient id="paint1_linear_157_2171" x1="2.20478" y1="1.74541" x2="20.0451" y2="13.5389" gradientUnits="userSpaceOnUse">
      <stop stop-color="#F2EFFA"/>
      <stop offset="1" stop-color="white"/>
    </linearGradient>
    <linearGradient id="paint2_linear_157_2171" x1="8.05177" y1="5.02434" x2="25.6234" y2="16.7657" gradientUnits="userSpaceOnUse">
      <stop stop-color="#F2EFFA"/>
      <stop offset="1" stop-color="white"/>
    </linearGradient>
    <linearGradient id="paint3_linear_157_2171" x1="9.75118" y1="3.47897" x2="6.06879" y2="3.47897" gradientUnits="userSpaceOnUse">
      <stop stop-color="#594A8E"/>
      <stop offset="1" stop-color="#594A8E" stop-opacity="0"/>
    </linearGradient>
    <linearGradient id="paint4_linear_157_2171" x1="16.6472" y1="6.50342" x2="19.2555" y2="7.70945" gradientUnits="userSpaceOnUse">
      <stop stop-color="#7AB922"/>
      <stop offset="1" stop-color="#C4D44F"/>
    </linearGradient>
    <linearGradient id="paint5_linear_157_2171" x1="13.7703" y1="7.43309" x2="15.0934" y2="10.2987" gradientUnits="userSpaceOnUse">
      <stop stop-color="#7AB922"/>
      <stop offset="0.6313" stop-color="#ACCB40"/>
      <stop offset="1" stop-color="#C4D44F"/>
    </linearGradient>
    <linearGradient id="paint6_linear_157_2171" x1="13.7461" y1="3.92076" x2="13.6801" y2="1.33819" gradientUnits="userSpaceOnUse">
      <stop stop-color="#E37A34"/>
      <stop offset="0.0373" stop-color="#E58540"/>
      <stop offset="0.163" stop-color="#ECA763"/>
      <stop offset="0.2963" stop-color="#F2C380"/>
      <stop offset="0.4377" stop-color="#F6D897"/>
      <stop offset="0.5907" stop-color="#FAE7A7"/>
      <stop offset="0.7638" stop-color="#FBF0B0"/>
      <stop offset="1" stop-color="#FCF3B3"/>
    </linearGradient>
    <linearGradient id="paint7_linear_157_2171" x1="11.2922" y1="3.65014" x2="11.9692" y2="0.0432752" gradientUnits="userSpaceOnUse">
      <stop stop-color="#E37A34"/>
      <stop offset="0.1901" stop-color="#EA9C58"/>
      <stop offset="0.4352" stop-color="#F2C17F"/>
      <stop offset="0.6603" stop-color="#F7DD9C"/>
      <stop offset="0.8559" stop-color="#FBEDAD"/>
      <stop offset="1" stop-color="#FCF3B3"/>
    </linearGradient>
    <linearGradient id="paint8_linear_157_2171" x1="13.7024" y1="-2.07888" x2="11.32" y2="3.35031" gradientUnits="userSpaceOnUse">
      <stop stop-color="#E37A34"/>
      <stop offset="0.0373" stop-color="#E58540"/>
      <stop offset="0.163" stop-color="#ECA763"/>
      <stop offset="0.2963" stop-color="#F2C380"/>
      <stop offset="0.4377" stop-color="#F6D897"/>
      <stop offset="0.5907" stop-color="#FAE7A7"/>
      <stop offset="0.7638" stop-color="#FBF0B0"/>
      <stop offset="1" stop-color="#FCF3B3"/>
    </linearGradient>
    <linearGradient id="paint9_linear_157_2171" x1="11.7476" y1="4.23024" x2="11.6816" y2="1.64767" gradientUnits="userSpaceOnUse">
      <stop stop-color="#E37A34"/>
      <stop offset="0.0373" stop-color="#E58540"/>
      <stop offset="0.163" stop-color="#ECA763"/>
      <stop offset="0.2963" stop-color="#F2C380"/>
      <stop offset="0.4377" stop-color="#F6D897"/>
      <stop offset="0.5907" stop-color="#FAE7A7"/>
      <stop offset="0.7638" stop-color="#FBF0B0"/>
      <stop offset="1" stop-color="#FCF3B3"/>
    </linearGradient>
    <linearGradient id="paint10_linear_157_2171" x1="9.29436" y1="3.95953" x2="9.97136" y2="0.352674" gradientUnits="userSpaceOnUse">
      <stop stop-color="#E37A34"/>
      <stop offset="0.1901" stop-color="#EA9C58"/>
      <stop offset="0.4352" stop-color="#F2C17F"/>
      <stop offset="0.6603" stop-color="#F7DD9C"/>
      <stop offset="0.8559" stop-color="#FBEDAD"/>
      <stop offset="1" stop-color="#FCF3B3"/>
    </linearGradient>
    <linearGradient id="paint11_linear_157_2171" x1="11.7045" y1="-1.76945" x2="9.32222" y2="3.6597" gradientUnits="userSpaceOnUse">
      <stop stop-color="#E37A34"/>
      <stop offset="0.0373" stop-color="#E58540"/>
      <stop offset="0.163" stop-color="#ECA763"/>
      <stop offset="0.2963" stop-color="#F2C380"/>
      <stop offset="0.4377" stop-color="#F6D897"/>
      <stop offset="0.5907" stop-color="#FAE7A7"/>
      <stop offset="0.7638" stop-color="#FBF0B0"/>
      <stop offset="1" stop-color="#FCF3B3"/>
    </linearGradient>
    <linearGradient id="paint12_linear_157_2171" x1="11.2531" y1="5.60476" x2="11.6467" y2="3.04604" gradientUnits="userSpaceOnUse">
      <stop stop-color="#E37A34"/>
      <stop offset="0.0373" stop-color="#E58540"/>
      <stop offset="0.163" stop-color="#ECA763"/>
      <stop offset="0.2963" stop-color="#F2C380"/>
      <stop offset="0.4377" stop-color="#F6D897"/>
      <stop offset="0.5907" stop-color="#FAE7A7"/>
      <stop offset="0.7638" stop-color="#FBF0B0"/>
      <stop offset="1" stop-color="#FCF3B3"/>
    </linearGradient>
    <linearGradient id="paint13_linear_157_2171" x1="8.90101" y1="4.90505" x2="10.2248" y2="1.44989" gradientUnits="userSpaceOnUse">
      <stop stop-color="#E37A34"/>
      <stop offset="0.1901" stop-color="#EA9C58"/>
      <stop offset="0.4352" stop-color="#F2C17F"/>
      <stop offset="0.6603" stop-color="#F7DD9C"/>
      <stop offset="0.8559" stop-color="#FBEDAD"/>
      <stop offset="1" stop-color="#FCF3B3"/>
    </linearGradient>
    <linearGradient id="paint14_linear_157_2171" x1="12.4571" y1="-0.292293" x2="9.0707" y2="4.67039" gradientUnits="userSpaceOnUse">
      <stop stop-color="#E37A34"/>
      <stop offset="0.0373" stop-color="#E58540"/>
      <stop offset="0.163" stop-color="#ECA763"/>
      <stop offset="0.2963" stop-color="#F2C380"/>
      <stop offset="0.4377" stop-color="#F6D897"/>
      <stop offset="0.5907" stop-color="#FAE7A7"/>
      <stop offset="0.7638" stop-color="#FBF0B0"/>
      <stop offset="1" stop-color="#FCF3B3"/>
    </linearGradient>
    <linearGradient id="paint15_linear_157_2171" x1="8.99335" y1="5.93728" x2="9.34167" y2="3.37372" gradientUnits="userSpaceOnUse">
      <stop stop-color="#E37A34"/>
      <stop offset="0.0373" stop-color="#E58540"/>
      <stop offset="0.163" stop-color="#ECA763"/>
      <stop offset="0.2963" stop-color="#F2C380"/>
      <stop offset="0.4377" stop-color="#F6D897"/>
      <stop offset="0.5907" stop-color="#FAE7A7"/>
      <stop offset="0.7638" stop-color="#FBF0B0"/>
      <stop offset="1" stop-color="#FCF3B3"/>
    </linearGradient>
    <linearGradient id="paint16_linear_157_2171" x1="6.62789" y1="5.27927" x2="7.88804" y2="1.80514" gradientUnits="userSpaceOnUse">
      <stop stop-color="#E37A34"/>
      <stop offset="0.1901" stop-color="#EA9C58"/>
      <stop offset="0.4352" stop-color="#F2C17F"/>
      <stop offset="0.6603" stop-color="#F7DD9C"/>
      <stop offset="0.8559" stop-color="#FBEDAD"/>
      <stop offset="1" stop-color="#FCF3B3"/>
    </linearGradient>
    <linearGradient id="paint17_linear_157_2171" x1="10.0755" y1="0.0216506" x2="6.78688" y2="5.03777" gradientUnits="userSpaceOnUse">
      <stop stop-color="#E37A34"/>
      <stop offset="0.0373" stop-color="#E58540"/>
      <stop offset="0.163" stop-color="#ECA763"/>
      <stop offset="0.2963" stop-color="#F2C380"/>
      <stop offset="0.4377" stop-color="#F6D897"/>
      <stop offset="0.5907" stop-color="#FAE7A7"/>
      <stop offset="0.7638" stop-color="#FBF0B0"/>
      <stop offset="1" stop-color="#FCF3B3"/>
    </linearGradient>
    <linearGradient id="paint18_linear_157_2171" x1="9.72711" y1="11.6269" x2="6.45892" y2="6.34591" gradientUnits="userSpaceOnUse">
      <stop stop-color="#594A8E"/>
      <stop offset="1" stop-color="#594A8E" stop-opacity="0"/>
    </linearGradient>
    <linearGradient id="paint19_linear_157_2171" x1="12.9806" y1="6.15224" x2="17.3545" y2="1.53509" gradientUnits="userSpaceOnUse">
      <stop stop-color="#E37A34"/>
      <stop offset="1" stop-color="#FFA538"/>
    </linearGradient>
    <linearGradient id="paint20_linear_157_2171" x1="6.52104" y1="11.0223" x2="12.026" y2="5.21128" gradientUnits="userSpaceOnUse">
      <stop stop-color="#E37A34"/>
      <stop offset="1" stop-color="#FFA538"/>
    </linearGradient>
    <linearGradient id="paint21_linear_157_2171" x1="7.63898" y1="6.13262" x2="9.44003" y2="9.81337" gradientUnits="userSpaceOnUse">
      <stop stop-color="#8B451C"/>
      <stop offset="1" stop-color="#8B451C" stop-opacity="0"/>
    </linearGradient>
    <linearGradient id="paint22_linear_157_2171" x1="15.3707" y1="4.03417" x2="16.5808" y2="6.50724" gradientUnits="userSpaceOnUse">
      <stop stop-color="#8B451C"/>
      <stop offset="1" stop-color="#8B451C" stop-opacity="0"/>
    </linearGradient>
    <linearGradient id="paint23_linear_157_2171" x1="4.91678" y1="6.64905" x2="0.668022" y2="6.64905" gradientUnits="userSpaceOnUse">
      <stop stop-color="#594A8E"/>
      <stop offset="1" stop-color="#594A8E" stop-opacity="0"/>
    </linearGradient>
    <linearGradient id="paint24_linear_157_2171" x1="1.82365" y1="6.1839" x2="6.88823" y2="6.1839" gradientUnits="userSpaceOnUse">
      <stop stop-color="#C5BAEB"/>
      <stop offset="0.2126" stop-color="#D9D1F2"/>
      <stop offset="0.4658" stop-color="#EBE7F8"/>
      <stop offset="0.6298" stop-color="#F2EFFA"/>
      <stop offset="0.7697" stop-color="#F0ECF9"/>
      <stop offset="0.853" stop-color="#E9E4F7"/>
      <stop offset="0.9214" stop-color="#DDD6F3"/>
      <stop offset="0.9814" stop-color="#CCC2ED"/>
      <stop offset="1" stop-color="#C5BAEB"/>
    </linearGradient>
    <linearGradient id="paint25_linear_157_2171" x1="1.35982" y1="3.41203" x2="6.73924" y2="6.77793" gradientUnits="userSpaceOnUse">
      <stop stop-color="#F2EFFA"/>
      <stop offset="1" stop-color="white"/>
    </linearGradient>
    <linearGradient id="paint26_linear_157_2171" x1="6.1617" y1="4.00053" x2="2.75485" y2="6.13218" gradientUnits="userSpaceOnUse">
      <stop stop-color="#D7D1EB"/>
      <stop offset="1" stop-color="#F2EFFA"/>
    </linearGradient>
    <linearGradient id="paint27_linear_157_2171" x1="5.18251" y1="6.15873" x2="3.93282" y2="4.39098" gradientUnits="userSpaceOnUse">
      <stop stop-color="#FCF3B3"/>
      <stop offset="1" stop-color="#FEFBE3"/>
    </linearGradient>
    <linearGradient id="paint28_linear_157_2171" x1="5.33166" y1="4.20581" x2="4.20043" y2="5.5031" gradientUnits="userSpaceOnUse">
      <stop stop-color="#F7E041"/>
      <stop offset="0.9792" stop-color="#F7E041" stop-opacity="0"/>
    </linearGradient>
    <linearGradient id="paint29_linear_157_2171" x1="7.61505" y1="2.46861" x2="5.14026" y2="5.30678" gradientUnits="userSpaceOnUse">
      <stop stop-color="#F7E041"/>
      <stop offset="0.9792" stop-color="#F7E041" stop-opacity="0"/>
    </linearGradient>
    <linearGradient id="paint30_linear_157_2171" x1="5.89434" y1="2.95934" x2="2.85621" y2="6.44351" gradientUnits="userSpaceOnUse">
      <stop stop-color="#F7E041"/>
      <stop offset="0.9792" stop-color="#F7E041" stop-opacity="0"/>
    </linearGradient>
    <linearGradient id="paint31_linear_157_2171" x1="5.48785" y1="5.51133" x2="4.69109" y2="4.50212" gradientUnits="userSpaceOnUse">
      <stop stop-color="#F7E041"/>
      <stop offset="0.9792" stop-color="#F7E041" stop-opacity="0"/>
    </linearGradient>
    <linearGradient id="paint32_linear_157_2171" x1="5.41561" y1="4.98639" x2="5.89456" y2="5.62143" gradientUnits="userSpaceOnUse">
      <stop stop-color="#F7E041"/>
      <stop offset="0.9792" stop-color="#F7E041" stop-opacity="0"/>
    </linearGradient>
    <linearGradient id="paint33_linear_157_2171" x1="4.09105" y1="7.82151" x2="0.802023" y2="7.82151" gradientUnits="userSpaceOnUse">
      <stop stop-color="#594A8E"/>
      <stop offset="1" stop-color="#594A8E" stop-opacity="0"/>
    </linearGradient>
    <linearGradient id="paint34_linear_157_2171" x1="2.60957" y1="8.49437" x2="3.49095" y2="7.26809" gradientUnits="userSpaceOnUse">
      <stop stop-color="#7AB922"/>
      <stop offset="1" stop-color="#F7E041"/>
    </linearGradient>
    <linearGradient id="paint35_linear_157_2171" x1="3.99714" y1="4.01445" x2="2.23546" y2="7.49265" gradientUnits="userSpaceOnUse">
      <stop stop-color="#7AB922"/>
      <stop offset="1" stop-color="#F7E041"/>
    </linearGradient>
  </defs>
</svg>
