<svg width="20" height="16" viewBox="0 0 20 16" fill="none" xmlns="http://www.w3.org/2000/svg">
  <path d="M19.9988 4.6355L0 6.2798C0 9.11361 1.15979 11.8373 3.23606 13.8794L3.82148 14.4552C4.05941 14.6731 4.34726 14.8772 4.68663 15.0626C7.22793 16.4511 11.6669 16.2769 14.6013 14.6737C15.4318 14.2199 16.0526 13.7002 16.4586 13.1569C16.4586 13.1569 19.9988 9.06371 19.9988 4.6355Z" fill="url(#paint0_linear_157_7122)"/>
  <path d="M16.5467 9.0405C12.372 11.3215 6.05672 11.5692 2.44129 9.59381C-1.17413 7.6184 -0.720779 4.16795 3.45398 1.88694C7.62874 -0.394079 13.944 -0.641791 17.5594 1.33359C21.1749 3.309 20.7215 6.75948 16.5467 9.0405Z" fill="url(#paint1_linear_157_7122)"/>
  <path d="M15.8923 8.68336C12.1343 10.7366 6.44962 10.9596 3.19513 9.18145C-0.0593259 7.40329 0.348833 4.29729 4.10676 2.24406C7.86469 0.1908 13.5494 -0.0321822 16.8039 1.74598C20.0583 3.52414 19.6502 6.6301 15.8923 8.68336Z" fill="url(#paint2_linear_157_7122)"/>
  <path d="M16.8042 3.99482C13.5497 2.21666 7.865 2.43964 4.10704 4.4929C2.62213 5.30421 1.66078 6.2799 1.24121 7.27308C1.56468 7.98653 2.21284 8.64453 3.19545 9.1814C6.44994 10.9596 12.1346 10.7366 15.8926 8.68331C17.3775 7.87201 18.3388 6.89631 18.7584 5.9031C18.4349 5.18968 17.7868 4.53168 16.8042 3.99482Z" fill="url(#paint3_linear_157_7122)"/>
  <path d="M6.18682 5.15611C4.86524 5.40652 2.36183 6.10511 3.41877 6.69595C4.47575 7.28678 5.53718 7.22546 5.07113 7.85755C4.60508 8.48963 5.29711 9.06435 6.80822 9.14453C8.31934 9.22471 8.89839 8.7436 9.18085 8.36935C9.46331 7.99514 9.26558 7.90926 8.41824 7.53121C7.57087 7.15311 8.39 6.49825 9.05378 5.84336C9.71749 5.18849 7.62735 4.88315 6.18682 5.15611Z" fill="url(#paint4_linear_157_7122)"/>
  <path d="M7.69156 3.56475C6.83461 3.67747 5.73185 4.36918 4.64632 4.71489C3.56078 5.0606 2.32353 5.94196 2.85044 6.5882C3.37739 7.23445 2.51564 8.35609 3.66988 8.71695C4.82413 9.07782 7.76425 9.5881 9.27752 8.79351C10.7908 7.99892 6.21497 7.41259 7.8348 6.24911C9.45466 5.08567 10.8018 5.67887 10.8415 4.83322C10.8812 3.98765 8.75834 3.42447 7.69156 3.56475Z" fill="url(#paint5_radial_157_7122)"/>
  <path d="M12.2 4.33343C12.2 4.33343 14.2195 4.10982 14.5726 4.42207C14.9257 4.73433 13.6422 5.18968 14.6715 5.61646C15.7008 6.04324 17.9903 6.29257 17.8491 6.67621C17.7079 7.05985 15.2143 6.75233 14.4345 6.99298C13.6547 7.23363 16.2391 7.93407 14.8268 8.47263C13.4146 9.0112 9.36135 9.17156 10.8725 8.34292C12.3836 7.51428 10.4488 7.42072 9.18483 6.80593C7.92082 6.19114 9.1071 4.49379 12.2 4.33343Z" fill="url(#paint6_radial_157_7122)"/>
  <path d="M12.0881 5.91461C11.6353 6.16199 10.9503 6.18887 10.5582 5.97461C10.1661 5.76035 10.2152 5.3861 10.668 5.13872C11.1208 4.89135 11.8058 4.86447 12.1979 5.07873C12.59 5.29299 12.5409 5.66723 12.0881 5.91461Z" fill="url(#paint7_linear_157_7122)"/>
  <path d="M5.13732 6.84146C4.84174 7.00297 4.3946 7.02049 4.13862 6.88064C3.88265 6.74076 3.91476 6.49645 4.21034 6.33498C4.50593 6.17348 4.95307 6.15595 5.20904 6.2958C5.46502 6.43564 5.43291 6.67995 5.13732 6.84146Z" fill="url(#paint8_linear_157_7122)"/>
  <path d="M10.0036 10.0309C9.70799 10.1924 9.26085 10.2099 9.00484 10.0701C8.74886 9.93022 8.78097 9.68594 9.07655 9.52444C9.37214 9.36293 9.81928 9.34541 10.0753 9.48525C10.3313 9.6251 10.2992 9.86941 10.0036 10.0309Z" fill="url(#paint9_linear_157_7122)"/>
  <path d="M17.3536 5.53039C17.0581 5.6919 16.6109 5.70942 16.3549 5.56958C16.099 5.4297 16.131 5.18542 16.4267 5.02392C16.7222 4.86241 17.1694 4.84489 17.4254 4.98473C17.6813 5.12458 17.6492 5.36889 17.3536 5.53039Z" fill="url(#paint10_linear_157_7122)"/>
  <path d="M7.53772 4.79974C7.24213 4.96125 6.79499 4.97877 6.53902 4.83893C6.28304 4.69905 6.31515 4.45477 6.61073 4.29327C6.90632 4.13176 7.35346 4.11424 7.60943 4.25408C7.86541 4.39393 7.83334 4.63824 7.53772 4.79974Z" fill="url(#paint11_linear_157_7122)"/>
  <path d="M11.2028 4.17947C10.9072 4.34098 10.46 4.3585 10.2041 4.21866C9.94809 4.07878 9.98016 3.8345 10.2758 3.673C10.5714 3.51149 11.0185 3.49397 11.2745 3.63381C11.5305 3.77366 11.4984 4.01797 11.2028 4.17947Z" fill="url(#paint12_linear_157_7122)"/>
  <path d="M12.8642 4.14558C12.8642 4.14558 12.8196 4.18543 12.6822 4.17327C12.5448 4.16111 12.5672 4.30527 12.482 4.31703C12.3969 4.32878 12.1677 4.42079 12.1357 4.46848C12.1036 4.51617 11.9284 4.67549 11.8976 4.8899C11.8667 5.1043 11.7335 5.57674 11.804 5.66826C11.8746 5.75979 11.9622 5.7768 11.9947 5.89003C12.0271 6.00325 12.2455 6.13456 12.3091 6.20849C12.3726 6.28242 12.5316 6.25976 12.6569 6.30161C12.7821 6.34342 13.0473 6.20834 13.1425 6.19644C13.2378 6.18454 13.5266 6.1618 13.5958 6.10081C13.6651 6.03981 13.8282 5.99168 13.7917 5.90393C13.7551 5.81617 13.8219 5.65045 13.8953 5.46816C13.9688 5.28592 14.1872 4.81619 14.0595 4.71486C13.9318 4.61354 13.9296 4.46937 13.8337 4.40501C13.7378 4.34065 13.5034 4.06806 13.4548 4.021C13.4062 3.97394 13.2887 4.02603 13.1527 4.08477C13.0165 4.14347 12.8642 4.14558 12.8642 4.14558Z" fill="url(#paint13_linear_157_7122)"/>
  <path d="M2.93938 5.91783C2.93938 5.91783 2.89477 5.95768 2.75739 5.94552C2.62005 5.93336 2.64239 6.07753 2.55723 6.08928C2.47212 6.10104 2.2429 6.19305 2.21087 6.24073C2.17884 6.28842 2.00357 6.44775 1.97275 6.66215C1.94193 6.87656 1.80865 7.34899 1.87923 7.44052C1.94982 7.53205 2.03747 7.54905 2.0699 7.66228C2.10232 7.77551 2.32071 7.90681 2.38427 7.98075C2.44782 8.05468 2.60684 8.03202 2.73208 8.07383C2.85727 8.11564 3.12246 7.98056 3.21773 7.96866C3.31297 7.95675 3.60175 7.93402 3.67101 7.87303C3.74027 7.81203 3.90339 7.7639 3.86687 7.67614C3.83034 7.58842 3.8971 7.42266 3.97054 7.24038C4.04397 7.05814 4.26237 6.5884 4.13468 6.48708C4.00698 6.38575 4.00476 6.24158 3.90886 6.17723C3.81296 6.11287 3.57859 5.84028 3.53003 5.79322C3.48148 5.74616 3.36394 5.79825 3.22785 5.85699C3.09172 5.91569 2.93938 5.91783 2.93938 5.91783Z" fill="url(#paint14_linear_157_7122)"/>
  <path d="M7.61467 8.00044C7.61467 8.00044 7.57006 8.04029 7.43268 8.02813C7.29534 8.01597 7.31764 8.16014 7.23253 8.17189C7.14737 8.18365 6.91819 8.27566 6.88616 8.32335C6.85413 8.37103 6.67886 8.53036 6.64804 8.74476C6.61722 8.95917 6.48394 9.4316 6.55453 9.52313C6.62511 9.61466 6.71273 9.63166 6.74519 9.74489C6.77761 9.85812 6.99601 9.98942 7.05956 10.0634C7.12311 10.1373 7.28214 10.1146 7.40737 10.1564C7.53256 10.1982 7.79775 10.0632 7.89303 10.0513C7.98826 10.0394 8.27705 10.0166 8.3463 9.95564C8.41556 9.89464 8.57868 9.84651 8.54216 9.75875C8.50564 9.67103 8.57239 9.50527 8.64583 9.32299C8.71927 9.14075 8.93766 8.67101 8.80997 8.56969C8.68228 8.46836 8.68005 8.3242 8.58415 8.25984C8.48825 8.19548 8.25388 7.92289 8.20533 7.87583C8.15673 7.82877 8.03924 7.88086 7.90314 7.9396C7.76697 7.9983 7.61467 8.00044 7.61467 8.00044Z" fill="url(#paint15_linear_157_7122)"/>
  <path d="M11.366 4.21713C11.366 4.21713 11.4209 4.21332 11.5091 4.29528C11.5973 4.37723 11.668 4.26508 11.7341 4.30249C11.8003 4.3399 12.0146 4.3986 12.0654 4.38259C12.1162 4.36658 12.3332 4.34965 12.4828 4.21709C12.6324 4.08453 13.0073 3.82747 13.0129 3.72607C13.0186 3.62467 12.9678 3.56593 13.0129 3.46985C13.0581 3.37378 12.9847 3.16562 12.9847 3.08023C12.9847 2.99483 12.8606 2.92545 12.7986 2.82937C12.7366 2.7333 12.4715 2.68528 12.3982 2.64254C12.3249 2.59985 12.1105 2.46108 12.0259 2.4664C11.9413 2.47172 11.7992 2.4179 11.7721 2.49841C11.7451 2.57896 11.5996 2.65844 11.4396 2.74583C11.2797 2.83322 10.8472 3.04285 10.8754 3.18159C10.9036 3.32036 10.8189 3.42176 10.8471 3.51783C10.8754 3.61391 10.8754 3.92883 10.881 3.98753C10.8866 4.04623 10.9994 4.07292 11.1291 4.10494C11.2589 4.13706 11.366 4.21713 11.366 4.21713Z" fill="url(#paint16_linear_157_7122)"/>
  <path d="M14.9008 3.44918C14.9008 3.44918 15.3342 3.35806 15.4305 3.49476C15.5268 3.63147 15.7194 3.54034 16.0853 3.61324C16.4513 3.68614 17.0676 3.72259 17.1446 3.82284C17.2217 3.92309 17.1735 4.07399 17.1446 4.37675C17.1157 4.6795 17.1061 5.04835 17.1061 5.06898C17.1061 5.08961 16.575 5.17175 16.432 5.35392C16.289 5.53609 15.7193 5.68248 15.6423 5.67312C15.5653 5.66377 15.1512 5.31776 15.0163 5.19914C14.8815 5.08051 14.2555 4.62949 14.1689 4.41752C14.0822 4.20559 14.1689 3.92306 14.1689 3.73168C14.1689 3.54034 14.506 3.39451 14.9008 3.44918Z" fill="url(#paint17_linear_157_7122)"/>
  <path d="M4.08045 3.83679C4.08045 3.83679 4.5138 3.74567 4.61013 3.88237C4.70642 4.01907 4.89903 3.92795 5.26501 4.00085C5.63094 4.07374 6.2473 4.11019 6.32433 4.21045C6.40136 4.3107 6.35324 4.46159 6.32433 4.76435C6.29542 5.06711 6.28581 5.43596 6.28581 5.45658C6.28581 5.47721 5.75473 5.55935 5.61168 5.74152C5.46868 5.92369 4.89903 6.07008 4.822 6.06073C4.74497 6.05137 4.33088 5.70537 4.19603 5.58674C4.06123 5.46812 3.43526 5.01709 3.34858 4.80512C3.2619 4.5932 3.34858 4.31066 3.34858 4.11929C3.34858 3.92795 3.68561 3.78211 4.08045 3.83679Z" fill="url(#paint18_linear_157_7122)"/>
  <path d="M9.59313 2.65349C9.59313 2.65349 9.50563 2.65959 9.36489 2.5288C9.22415 2.39802 9.11142 2.57701 9.00579 2.51731C8.90017 2.45761 8.55818 2.36393 8.47721 2.38948C8.39619 2.41502 8.04987 2.44204 7.81124 2.65353C7.57261 2.86501 6.97429 3.27519 6.96531 3.437C6.95629 3.5988 7.0373 3.69251 6.96531 3.84581C6.89332 3.99911 7.01031 4.33125 7.01031 4.46751C7.01031 4.60377 7.20828 4.71448 7.3073 4.86778C7.40628 5.02108 7.82925 5.09775 7.94624 5.16588C8.06323 5.23401 8.40522 5.45544 8.54021 5.44694C8.67521 5.43843 8.90205 5.52434 8.94517 5.39585C8.98833 5.26735 9.22044 5.14052 9.47567 5.00105C9.7309 4.86157 10.4211 4.52714 10.3761 4.30571C10.3311 4.08428 10.4661 3.92248 10.4211 3.76918C10.3761 3.61588 10.3761 3.11339 10.3671 3.01972C10.3581 2.92605 10.1781 2.88346 9.9711 2.83237C9.76414 2.78125 9.59313 2.65349 9.59313 2.65349Z" fill="url(#paint19_linear_157_7122)"/>
  <path d="M14.3945 8.36492C14.3945 8.36492 14.4768 8.35919 14.6093 8.48228C14.7418 8.60538 14.8479 8.43693 14.9473 8.49312C15.0467 8.5493 15.3686 8.63747 15.4448 8.6134C15.521 8.58938 15.847 8.56391 16.0716 8.36488C16.2962 8.16581 16.8593 7.77977 16.8678 7.62747C16.8763 7.47517 16.8 7.38701 16.8678 7.24269C16.9356 7.09841 16.8255 6.78578 16.8255 6.65755C16.8255 6.52931 16.6391 6.4251 16.5459 6.28082C16.4528 6.13654 16.0546 6.06438 15.9445 6.00028C15.8344 5.93615 15.5125 5.72773 15.3855 5.73575C15.2584 5.74377 15.045 5.66289 15.0043 5.78385C14.9638 5.9048 14.7452 6.02416 14.505 6.15543C14.2648 6.2867 13.6152 6.60147 13.6576 6.80989C13.6999 7.0183 13.5729 7.1706 13.6152 7.31488C13.6576 7.45916 13.6576 7.93211 13.666 8.02028C13.6745 8.10844 13.8439 8.14855 14.0387 8.19665C14.2336 8.24466 14.3945 8.36492 14.3945 8.36492Z" fill="url(#paint20_linear_157_7122)"/>
  <path d="M6.41074 7.83991C6.41074 7.83991 6.31566 8.25027 6.14406 8.27541C5.9725 8.30051 5.97875 8.50423 5.75481 8.78765C5.53087 9.07107 5.23646 9.5848 5.10794 9.60875C4.97943 9.63267 4.85506 9.52783 4.57701 9.37557C4.29897 9.2233 3.94952 9.05976 3.92971 9.05107C3.90995 9.04239 4.05479 8.55192 3.94042 8.35244C3.826 8.15297 3.9255 7.6024 3.9669 7.54018C4.00831 7.47797 4.51428 7.26818 4.68475 7.20238C4.85521 7.13658 5.55102 6.78913 5.79067 6.80396C6.03028 6.81878 6.26461 7.01212 6.44805 7.0927C6.63152 7.17329 6.62937 7.52399 6.41074 7.83991Z" fill="url(#paint21_linear_157_7122)"/>
  <path d="M10.2011 6.76049C10.2011 6.76049 10.2961 7.17086 10.4677 7.196C10.6393 7.2211 10.633 7.42482 10.857 7.70824C11.0809 7.99166 11.3753 8.50538 11.5039 8.52934C11.6324 8.55326 11.7567 8.44842 12.0348 8.29615C12.3128 8.14389 12.6623 7.98035 12.6821 7.97166C12.7018 7.96298 12.557 7.47251 12.6714 7.27303C12.7858 7.07356 12.6863 6.52298 12.6449 6.46077C12.6035 6.39856 12.0975 6.18877 11.9271 6.12297C11.7566 6.05721 11.0607 5.70972 10.8211 5.72458C10.5815 5.73941 10.3472 5.93274 10.1638 6.01333C9.98028 6.09384 9.98242 6.44458 10.2011 6.76049Z" fill="url(#paint22_linear_157_7122)"/>
  <path d="M10.6721 8.01694C10.6721 8.01694 11.0358 7.94046 11.1166 8.0552C11.1974 8.16995 11.3591 8.09347 11.6663 8.15464C11.9735 8.21582 12.4908 8.24643 12.5555 8.33057C12.6202 8.4147 12.5797 8.54139 12.5555 8.7955C12.5312 9.0496 12.5231 9.35923 12.5231 9.37653C12.5231 9.39387 12.0774 9.46278 11.9573 9.61571C11.8373 9.76864 11.3592 9.89148 11.2945 9.88364C11.2298 9.8758 10.8822 9.58536 10.7691 9.48581C10.6559 9.38622 10.1305 9.00765 10.0577 8.82976C9.98496 8.65188 10.0577 8.41474 10.0577 8.25408C10.0577 8.09343 10.3407 7.97103 10.6721 8.01694Z" fill="url(#paint23_linear_157_7122)"/>
  <path d="M7.2548 5.30688C7.2548 5.30688 7.68816 5.21576 7.78445 5.35246C7.88074 5.48916 8.07335 5.39804 8.43932 5.47094C8.80526 5.54384 9.42162 5.58028 9.49865 5.68054C9.57568 5.78079 9.52755 5.93169 9.49865 6.23444C9.46974 6.5372 9.46013 6.90605 9.46013 6.92668C9.46013 6.9473 8.92904 7.02944 8.786 7.21161C8.64299 7.39378 8.07335 7.54017 7.99632 7.53082C7.91929 7.52147 7.50519 7.17546 7.37035 7.05684C7.23551 6.93821 6.60954 6.48718 6.5229 6.27522C6.43622 6.06329 6.5229 5.78075 6.5229 5.58938C6.5229 5.398 6.85997 5.25221 7.2548 5.30688Z" fill="url(#paint24_linear_157_7122)"/>
  <path opacity="0.2" d="M9.4041 2.88598C9.80819 2.94535 9.85745 3.09066 10.0312 3.09713C10.2049 3.10364 10.2105 3.30769 10.0312 3.41948C9.8519 3.5313 8.74367 3.7585 8.84938 3.63821C8.95512 3.51792 9.51296 3.38602 9.36464 3.22145C9.21636 3.05687 8.78684 2.7953 9.4041 2.88598Z" fill="white"/>
  <path opacity="0.2" d="M6.87889 5.65927C7.14721 5.67646 7.16135 5.84351 7.47205 6.02394C7.78275 6.20438 8.18524 6.33875 8.45356 6.20138C8.72188 6.06401 8.77551 6.09817 8.73813 6.20138C8.70071 6.30459 8.41825 6.54517 8.157 6.53848C7.89572 6.53179 7.44381 6.40862 7.2249 6.11939C7.006 5.83016 6.7871 5.81009 6.73768 5.6898C6.68823 5.56955 6.87889 5.65927 6.87889 5.65927Z" fill="white"/>
  <path opacity="0.2" d="M16.2851 6.55185C16.0908 6.73498 15.7626 6.97951 15.4519 6.94613C15.1412 6.91272 14.3997 6.54867 14.2444 6.75073C14.089 6.95282 15.0847 7.02535 15.3248 7.15281C15.5648 7.28027 16.271 7.1934 16.5182 6.93944C16.7653 6.68552 16.5052 6.34447 16.2851 6.55185Z" fill="white"/>
  <path opacity="0.2" d="M13.7284 4.71499C13.6225 4.82785 13.4071 4.98821 13.2447 5.03165C13.0823 5.07508 13.167 5.35577 13.5695 5.16532C13.972 4.97487 13.929 4.80933 13.8781 4.71499C13.8273 4.62065 13.7284 4.71499 13.7284 4.71499Z" fill="white"/>
  <path opacity="0.2" d="M12.5908 3.26999C12.2537 3.23088 11.6469 3.1229 11.784 3.32714C11.921 3.53141 12.2034 3.7185 12.5035 3.6049C12.8037 3.49131 12.8444 3.29938 12.5908 3.26999Z" fill="white"/>
  <path opacity="0.2" d="M16.2989 4.00288C16.0376 4.11282 15.8328 4.0706 15.4868 4.12513C15.1408 4.17965 15.5151 4.6207 16.0235 4.51376C16.5319 4.40685 17.2027 4.09275 16.9203 3.95911C16.6378 3.82548 16.2989 4.00288 16.2989 4.00288Z" fill="white"/>
  <path opacity="0.2" d="M4.42139 7.60939C4.49025 7.42397 4.93509 7.60939 5.41173 7.56429C5.88836 7.51919 6.33324 7.20342 6.32265 7.40393C6.31207 7.6044 5.75071 7.96527 5.13634 7.92017C4.52201 7.87503 4.42139 7.60939 4.42139 7.60939Z" fill="white"/>
  <path opacity="0.2" d="M2.38281 6.37752C2.52582 6.28119 2.61582 6.44658 2.6741 6.51171C2.73234 6.57685 2.88593 6.63562 3.10835 6.53859C3.33077 6.44155 3.36257 6.37641 3.61678 6.44155C3.871 6.50672 3.82862 6.56184 3.54264 6.65706C3.25667 6.75229 2.94421 7.06303 2.6741 6.88762C2.40398 6.71222 2.38281 6.37752 2.38281 6.37752Z" fill="white"/>
  <path opacity="0.2" d="M4.67403 4.38537C4.91793 4.35406 5.0416 4.34012 5.10516 4.48873C5.16871 4.63733 5.25344 4.63637 5.49707 4.54665C5.7407 4.45694 5.85191 4.42407 6.03194 4.38537C6.21202 4.34667 6.29143 4.48414 5.97897 4.60835C5.66652 4.73256 5.61886 5.02415 5.15281 4.93351C4.68676 4.84287 4.21646 4.44415 4.67403 4.38537Z" fill="white"/>
  <path opacity="0.2" d="M10.2933 6.11945C10.4407 5.86605 10.6935 5.80823 10.9535 5.95429C11.2135 6.10034 11.5042 6.41718 11.8573 6.37763C12.2104 6.33807 12.5775 6.49178 12.5034 6.65214C12.4293 6.81254 11.9645 6.72116 11.572 6.80359C11.1794 6.88606 10.0356 6.56242 10.2933 6.11945Z" fill="white"/>
  <path opacity="0.2" d="M11.6172 8.37144C11.1158 8.40298 11.5042 8.52844 10.9181 8.41562C10.332 8.30276 9.88008 8.49657 10.5297 8.67032C11.1794 8.84406 11.8573 8.85075 12.1185 8.58345C12.3798 8.3161 11.6172 8.37144 11.6172 8.37144Z" fill="white"/>
  <path opacity="0.2" d="M7.6915 8.79359C8.10431 8.62566 8.25587 8.77718 8.48892 8.70369C8.72192 8.63017 8.66544 9.07491 8.34771 9.05635C8.02994 9.03783 7.66982 9.45211 7.33088 9.1247C6.99194 8.79725 6.91425 8.50171 7.2744 8.41561C7.63447 8.32948 7.38791 8.9171 7.6915 8.79359Z" fill="white"/>
  <g opacity="0.4">
    <path d="M5.25981 4.88932C4.63173 4.88932 4.01928 4.4292 3.9924 4.40876C3.96686 4.38931 3.96276 4.3539 3.9833 4.32969C4.00385 4.30547 4.04123 4.30159 4.06686 4.32104C4.07338 4.32599 4.72591 4.81528 5.33419 4.77436C5.367 4.77232 5.39536 4.7955 5.39766 4.82648C5.40001 4.85746 5.37532 4.88437 5.34258 4.88655C5.31504 4.88844 5.28735 4.88932 5.25981 4.88932Z" fill="white"/>
  </g>
  <g opacity="0.4">
    <path d="M5.31315 7.92708C5.07354 7.92708 4.89839 7.86397 4.88745 7.85995C4.8569 7.84867 4.84179 7.81614 4.85366 7.7872C4.8655 7.75829 4.89983 7.74387 4.93053 7.75511C4.93421 7.75644 5.29971 7.88697 5.67939 7.75474C5.71014 7.74406 5.74435 7.75895 5.75568 7.78812C5.76701 7.81729 5.75123 7.84959 5.72041 7.86032C5.57674 7.91037 5.43643 7.92708 5.31315 7.92708Z" fill="white"/>
  </g>
  <g opacity="0.4">
    <path d="M2.92707 6.82806C2.70848 6.82806 2.60797 6.74248 2.60188 6.73708C2.57789 6.7159 2.5766 6.6803 2.59899 6.65761C2.62121 6.63506 2.6584 6.63373 2.68242 6.65435C2.68664 6.65779 2.8648 6.79656 3.28917 6.64341C3.3198 6.63236 3.35417 6.64689 3.36589 6.67594C3.37757 6.70496 3.36222 6.73745 3.33152 6.74854C3.16714 6.80784 3.0332 6.82806 2.92707 6.82806Z" fill="white"/>
  </g>
  <g opacity="0.4">
    <path d="M11.4405 6.76806C10.8901 6.76806 10.5418 6.48242 10.5254 6.46867C10.5008 6.44808 10.4986 6.41262 10.5202 6.38937C10.542 6.36612 10.5795 6.3639 10.6041 6.38435C10.6083 6.38782 11.0269 6.72939 11.6522 6.64041C11.6845 6.63579 11.7149 6.65694 11.7198 6.68765C11.7247 6.71837 11.7023 6.74702 11.6698 6.75164C11.5901 6.76303 11.5135 6.76806 11.4405 6.76806Z" fill="white"/>
  </g>
  <g opacity="0.4">
    <path d="M7.64627 9.25337C7.42236 9.25337 7.24264 9.03205 7.2342 9.02148C7.2144 8.99675 7.21959 8.96152 7.24569 8.94278C7.27182 8.92407 7.30905 8.92884 7.32893 8.95357C7.3308 8.95586 7.51561 9.18287 7.69978 9.13389C7.73135 9.12547 7.76416 9.14291 7.7731 9.17282C7.78197 9.20273 7.76357 9.23378 7.73197 9.24221C7.70287 9.24993 7.67424 9.25337 7.64627 9.25337Z" fill="white"/>
  </g>
  <g opacity="0.4">
    <path d="M13.0893 5.2678C13.0659 5.2678 13.0433 5.26684 13.0218 5.26466C12.8071 5.24278 12.5936 5.03599 12.5846 5.02723C12.5618 5.0049 12.5624 4.96934 12.586 4.94775C12.6095 4.92616 12.6472 4.92671 12.67 4.94901C12.6719 4.95085 12.8628 5.13535 13.0345 5.15284C13.216 5.17128 13.5189 5.08549 13.5219 5.08464C13.5535 5.07565 13.5865 5.09247 13.596 5.12219C13.6055 5.15191 13.5877 5.1833 13.5563 5.19232C13.5443 5.19572 13.2899 5.2678 13.0893 5.2678Z" fill="white"/>
  </g>
  <g opacity="0.4">
    <path d="M12.1399 3.84485C12.1319 3.84485 12.1238 3.8433 12.1159 3.84005C12.0859 3.82748 12.0724 3.79428 12.0856 3.76585C12.1107 3.71211 12.1041 3.70139 12.0895 3.67787C12.0727 3.6507 12.0474 3.60967 12.0601 3.53441C12.0873 3.37379 12.4531 3.39519 12.6091 3.41194C12.6418 3.41541 12.6652 3.44329 12.6615 3.47412C12.6579 3.50495 12.6283 3.5272 12.5958 3.52369C12.383 3.50099 12.196 3.5208 12.1772 3.553C12.1714 3.5876 12.1792 3.60017 12.1921 3.62098C12.2194 3.6652 12.2401 3.71303 12.1943 3.81125C12.1845 3.83232 12.1627 3.84485 12.1399 3.84485Z" fill="white"/>
  </g>
  <g opacity="0.4">
    <path d="M8.08545 6.51852C8.05463 6.51852 8.01959 6.51667 7.97916 6.51249C7.66967 6.48055 7.39772 6.2111 7.38632 6.19964C7.36382 6.17706 7.36487 6.14149 7.38874 6.12017C7.41253 6.09884 7.45015 6.09983 7.47272 6.12238C7.47526 6.1249 7.72651 6.3732 7.99205 6.40063C8.15572 6.41752 8.20092 6.39335 8.26357 6.35989C8.30506 6.33775 8.35666 6.31021 8.44345 6.29102C8.47545 6.28404 8.50736 6.30274 8.51486 6.33298C8.52236 6.36322 8.50248 6.39349 8.47052 6.40056C8.40029 6.41608 8.36053 6.4373 8.32201 6.45785C8.26389 6.48891 8.20838 6.51852 8.08545 6.51852Z" fill="white"/>
  </g>
  <g opacity="0.4">
    <path d="M15.8578 4.51058C15.5481 4.51058 15.2703 4.30944 15.2579 4.30031C15.232 4.28127 15.2272 4.24601 15.2473 4.22146C15.2675 4.19695 15.3048 4.19244 15.3307 4.21141C15.3336 4.21352 15.6225 4.42164 15.9082 4.39587C16.2049 4.36907 16.657 4.11071 16.6615 4.10809C16.6896 4.09197 16.7262 4.10043 16.7432 4.12694C16.7602 4.15348 16.7513 4.18808 16.7233 4.20424C16.7038 4.21544 16.2433 4.4786 15.9195 4.50788C15.8989 4.50973 15.8783 4.51058 15.8578 4.51058Z" fill="white"/>
  </g>
  <g opacity="0.4">
    <path d="M15.6734 7.20266C15.5645 7.20266 15.4555 7.18839 15.361 7.14968C15.1015 7.04348 14.7297 7.05516 14.7262 7.05531C14.6936 7.05682 14.6658 7.03228 14.6646 7.00119C14.6634 6.97017 14.6889 6.94404 14.7217 6.94289C14.7381 6.94234 15.1237 6.92995 15.4082 7.04647C15.651 7.14584 16.0489 7.05375 16.1931 6.99649C16.2233 6.98448 16.2582 6.99797 16.2709 7.02658C16.2836 7.05523 16.2693 7.08821 16.2391 7.10022C16.1648 7.12965 15.9195 7.20266 15.6734 7.20266Z" fill="white"/>
  </g>
  <g opacity="0.4">
    <path d="M11.5449 8.93212C11.5425 8.93212 11.5401 8.93197 11.5376 8.93171C11.307 8.90495 10.5613 8.68053 10.5297 8.67099C10.4984 8.66156 10.4811 8.62992 10.4911 8.60031C10.5011 8.5707 10.5346 8.55447 10.5658 8.56378C10.5734 8.56608 11.3324 8.79457 11.552 8.82C11.5846 8.82377 11.6078 8.85183 11.6038 8.88266C11.6001 8.91123 11.5745 8.93212 11.5449 8.93212Z" fill="white"/>
  </g>
  <g opacity="0.4">
    <path d="M8.79364 4.01392C8.74677 4.01392 8.7013 4.00194 8.65427 3.97373C8.48341 3.87134 8.02627 3.69301 8.0217 3.6912C7.99135 3.67941 7.97685 3.64651 7.98935 3.61778C8.00181 3.5891 8.03654 3.57531 8.06693 3.58718C8.08607 3.59464 8.53825 3.77105 8.7179 3.87869C8.79837 3.9269 8.86962 3.89651 9.06383 3.80154C9.17098 3.74916 9.30434 3.68399 9.48188 3.61985C9.51254 3.60884 9.54691 3.62333 9.55859 3.65235C9.57031 3.68137 9.55492 3.7139 9.52426 3.72495C9.35293 3.78683 9.22289 3.85041 9.11836 3.9015C8.9886 3.9649 8.88833 4.01392 8.79364 4.01392Z" fill="white"/>
  </g>
  <path d="M9.49771 5.81694L9.20908 5.65924L9.16509 5.77946L8.83615 5.71299L8.95779 5.89272L8.73779 5.91675L9.02642 6.07445L8.86357 6.13437L8.9722 6.16705C9.23287 6.24542 9.52513 6.26882 9.78653 6.23226C9.85344 6.08942 9.81059 5.92972 9.66716 5.78733L9.60735 5.72796L9.49771 5.81694Z" fill="#3C7413"/>
  <path d="M14.1981 4.55714L14.4868 4.71484L14.5307 4.59463L14.8597 4.66109L14.738 4.48136L14.958 4.45733L14.6694 4.29964L14.8323 4.23971L14.7236 4.20707C14.463 4.1287 14.1707 4.1053 13.9093 4.14186C13.8424 4.2847 13.8852 4.4444 14.0286 4.58679L14.0884 4.64616L14.1981 4.55714Z" fill="#3C7413"/>
  <path d="M12.0057 4.68828L12.2557 4.55169L12.0271 4.51006L12.1025 4.33806L11.7877 4.37927L11.7115 4.25436L11.4615 4.39095L11.3272 4.2924L11.2825 4.34767C11.1751 4.48027 11.1741 4.63819 11.2794 4.78779C11.5532 4.84535 11.8423 4.84472 12.0849 4.78609L12.186 4.76165L12.0057 4.68828Z" fill="#3C7413"/>
  <path d="M9.06233 8.27321L9.31233 8.13662L9.08369 8.09499L9.15912 7.92299L8.84432 7.9642L8.76811 7.83929L8.51815 7.97589L8.38382 7.87733L8.33909 7.9326C8.23179 8.0652 8.2307 8.22312 8.33601 8.37276C8.60979 8.43031 8.89893 8.42969 9.14155 8.37106L9.24268 8.34662L9.06233 8.27321Z" fill="#3C7413"/>
  <path d="M6.57369 4.05469L6.32373 4.19128L6.55236 4.23294L6.47693 4.40491L6.79173 4.36369L6.86794 4.4886L7.1179 4.35201L7.25224 4.45056L7.29696 4.3953C7.40426 4.26273 7.40536 4.10478 7.30005 3.95517C7.02626 3.89762 6.73712 3.89825 6.49451 3.95684L6.39338 3.98127L6.57369 4.05469Z" fill="#3C7413"/>
  <path d="M8.61945 4.83319L8.39453 4.9561L8.85652 5.20851L9.08144 5.08564L8.61945 4.83319Z" fill="#3C7413"/>
  <path d="M14.537 7.43225L14.312 7.55516L14.774 7.80757L14.999 7.68469L14.537 7.43225Z" fill="#3C7413"/>
  <path d="M14.7884 5.47141L14.5635 5.59432L15.0255 5.84676L15.2504 5.72385L14.7884 5.47141Z" fill="#3C7413"/>
  <path d="M6.53418 6.3775L6.55879 6.56477L7.16835 6.58869L7.14374 6.40142L6.53418 6.3775Z" fill="#3C7413"/>
  <path d="M12.5029 2.88596L12.5275 3.07323L13.1371 3.09715L13.1125 2.90987L12.5029 2.88596Z" fill="#3C7413"/>
  <path d="M3.35303 7.04712L3.37764 7.23439L3.9872 7.25831L3.96259 7.07104L3.35303 7.04712Z" fill="#3C7413"/>
  <path d="M11.5723 7.04712L11.5969 7.23439L12.2065 7.25831L12.1819 7.07104L11.5723 7.04712Z" fill="#3C7413"/>
  <path d="M8.21484 3.2215L8.23945 3.40877L8.84906 3.43269L8.82445 3.24541L8.21484 3.2215Z" fill="#3C7413"/>
  <path d="M11.6916 6.12269L11.4319 5.98077L11.0317 6.19936L11.2915 6.34127L11.6916 6.12269Z" fill="#3C7413"/>
  <path d="M10.1711 9.01792L9.91134 8.87601L9.51123 9.09459L9.77095 9.2365L10.1711 9.01792Z" fill="#3C7413"/>
  <path d="M11.1801 3.57809L10.8374 3.56464L10.8812 3.89774L11.2239 3.91116L11.1801 3.57809Z" fill="#3C7413"/>
  <path d="M6.31002 8.03827L5.96729 8.02481L6.01107 8.35788L6.3538 8.37133L6.31002 8.03827Z" fill="#3C7413"/>
  <defs>
    <linearGradient id="paint0_linear_157_7122" x1="0.16949" y1="10.3177" x2="20.1683" y2="10.3177" gradientUnits="userSpaceOnUse">
      <stop stop-color="#C5BAEB"/>
      <stop offset="0.2126" stop-color="#D9D1F2"/>
      <stop offset="0.4658" stop-color="#EBE7F8"/>
      <stop offset="0.6298" stop-color="#F2EFFA"/>
      <stop offset="0.7697" stop-color="#F0ECF9"/>
      <stop offset="0.853" stop-color="#E9E4F7"/>
      <stop offset="0.9214" stop-color="#DDD6F3"/>
      <stop offset="0.9814" stop-color="#CCC2ED"/>
      <stop offset="1" stop-color="#C5BAEB"/>
    </linearGradient>
    <linearGradient id="paint1_linear_157_7122" x1="-1.66178" y1="-0.908208" x2="19.8791" y2="12.2334" gradientUnits="userSpaceOnUse">
      <stop stop-color="#F2EFFA"/>
      <stop offset="1" stop-color="white"/>
    </linearGradient>
    <linearGradient id="paint2_linear_157_7122" x1="17.2994" y1="1.4752" x2="3.65734" y2="9.79797" gradientUnits="userSpaceOnUse">
      <stop stop-color="#D7D1EB"/>
      <stop offset="1" stop-color="#F2EFFA"/>
    </linearGradient>
    <linearGradient id="paint3_linear_157_7122" x1="5.89128" y1="4.3433" x2="18.0874" y2="11.7839" gradientUnits="userSpaceOnUse">
      <stop stop-color="#E37A34"/>
      <stop offset="0.4225" stop-color="#F08E36"/>
      <stop offset="1" stop-color="#FFA538"/>
    </linearGradient>
    <linearGradient id="paint4_linear_157_7122" x1="9.23085" y1="9.2809" x2="6.80004" y2="6.41011" gradientUnits="userSpaceOnUse">
      <stop stop-color="#FFA538"/>
      <stop offset="1" stop-color="#FFA538" stop-opacity="0"/>
    </linearGradient>
    <radialGradient id="paint5_radial_157_7122" cx="0" cy="0" r="1" gradientUnits="userSpaceOnUse" gradientTransform="translate(6.78356 6.37871) scale(3.56703 3.37567)">
      <stop stop-color="#FFA538" stop-opacity="0"/>
      <stop offset="1" stop-color="#FFA538"/>
    </radialGradient>
    <radialGradient id="paint6_radial_157_7122" cx="0" cy="0" r="1" gradientUnits="userSpaceOnUse" gradientTransform="translate(13.2706 6.58819) scale(4.36999 4.13555)">
      <stop stop-color="#FFA538" stop-opacity="0"/>
      <stop offset="0.9984" stop-color="#FFA538" stop-opacity="0.998"/>
      <stop offset="1" stop-color="#FFA538"/>
    </radialGradient>
    <linearGradient id="paint7_linear_157_7122" x1="10.1132" y1="4.8356" x2="12.4495" y2="6.26094" gradientUnits="userSpaceOnUse">
      <stop stop-color="#FFA538"/>
      <stop offset="1" stop-color="#FFA538" stop-opacity="0"/>
    </linearGradient>
    <linearGradient id="paint8_linear_157_7122" x1="3.84812" y1="6.13706" x2="5.37325" y2="7.06756" gradientUnits="userSpaceOnUse">
      <stop stop-color="#FFA538"/>
      <stop offset="1" stop-color="#FFA538" stop-opacity="0"/>
    </linearGradient>
    <linearGradient id="paint9_linear_157_7122" x1="8.71433" y1="9.32652" x2="10.2395" y2="10.257" gradientUnits="userSpaceOnUse">
      <stop stop-color="#FFA538"/>
      <stop offset="1" stop-color="#FFA538" stop-opacity="0"/>
    </linearGradient>
    <linearGradient id="paint10_linear_157_7122" x1="16.0644" y1="4.826" x2="17.5896" y2="5.75645" gradientUnits="userSpaceOnUse">
      <stop stop-color="#FFA538"/>
      <stop offset="1" stop-color="#FFA538" stop-opacity="0"/>
    </linearGradient>
    <linearGradient id="paint11_linear_157_7122" x1="6.24851" y1="4.09535" x2="7.77368" y2="5.02584" gradientUnits="userSpaceOnUse">
      <stop stop-color="#FFA538"/>
      <stop offset="1" stop-color="#FFA538" stop-opacity="0"/>
    </linearGradient>
    <linearGradient id="paint12_linear_157_7122" x1="9.91356" y1="3.47504" x2="11.4387" y2="4.40553" gradientUnits="userSpaceOnUse">
      <stop stop-color="#FFA538"/>
      <stop offset="1" stop-color="#FFA538" stop-opacity="0"/>
    </linearGradient>
    <linearGradient id="paint13_linear_157_7122" x1="13.087" y1="6.06679" x2="12.9201" y2="4.9676" gradientUnits="userSpaceOnUse">
      <stop stop-color="#E37A34"/>
      <stop offset="0.4225" stop-color="#F08E36"/>
      <stop offset="1" stop-color="#FFA538"/>
    </linearGradient>
    <linearGradient id="paint14_linear_157_7122" x1="3.15997" y1="7.83683" x2="2.99306" y2="6.73762" gradientUnits="userSpaceOnUse">
      <stop stop-color="#E37A34"/>
      <stop offset="0.4225" stop-color="#F08E36"/>
      <stop offset="1" stop-color="#FFA538"/>
    </linearGradient>
    <linearGradient id="paint15_linear_157_7122" x1="7.79293" y1="9.67001" x2="7.62602" y2="8.5708" gradientUnits="userSpaceOnUse">
      <stop stop-color="#E37A34"/>
      <stop offset="0.4225" stop-color="#F08E36"/>
      <stop offset="1" stop-color="#FFA538"/>
    </linearGradient>
    <linearGradient id="paint16_linear_157_7122" x1="11.4689" y1="4.22023" x2="11.9882" y2="3.26967" gradientUnits="userSpaceOnUse">
      <stop stop-color="#E37A34"/>
      <stop offset="0.4225" stop-color="#F08E36"/>
      <stop offset="1" stop-color="#FFA538"/>
    </linearGradient>
    <linearGradient id="paint17_linear_157_7122" x1="15.1449" y1="5.18439" x2="15.7201" y2="4.13175" gradientUnits="userSpaceOnUse">
      <stop stop-color="#E37A34"/>
      <stop offset="0.4225" stop-color="#F08E36"/>
      <stop offset="1" stop-color="#FFA538"/>
    </linearGradient>
    <linearGradient id="paint18_linear_157_7122" x1="4.12131" y1="5.42121" x2="5.18109" y2="4.28019" gradientUnits="userSpaceOnUse">
      <stop stop-color="#E37A34"/>
      <stop offset="0.4225" stop-color="#F08E36"/>
      <stop offset="1" stop-color="#FFA538"/>
    </linearGradient>
    <linearGradient id="paint19_linear_157_7122" x1="8.00452" y1="4.98364" x2="8.77578" y2="3.57204" gradientUnits="userSpaceOnUse">
      <stop stop-color="#E37A34"/>
      <stop offset="0.4225" stop-color="#F08E36"/>
      <stop offset="1" stop-color="#FFA538"/>
    </linearGradient>
    <linearGradient id="paint20_linear_157_7122" x1="14.5489" y1="8.36957" x2="15.3289" y2="6.942" gradientUnits="userSpaceOnUse">
      <stop stop-color="#E37A34"/>
      <stop offset="0.4225" stop-color="#F08E36"/>
      <stop offset="1" stop-color="#FFA538"/>
    </linearGradient>
    <linearGradient id="paint21_linear_157_7122" x1="5.48497" y1="9.5048" x2="5.18058" y2="7.55479" gradientUnits="userSpaceOnUse">
      <stop stop-color="#E37A34"/>
      <stop offset="0.4225" stop-color="#F08E36"/>
      <stop offset="1" stop-color="#FFA538"/>
    </linearGradient>
    <linearGradient id="paint22_linear_157_7122" x1="11.1525" y1="8.42602" x2="11.4567" y2="6.23603" gradientUnits="userSpaceOnUse">
      <stop stop-color="#E37A34"/>
      <stop offset="0.4225" stop-color="#F08E36"/>
      <stop offset="1" stop-color="#FFA538"/>
    </linearGradient>
    <linearGradient id="paint23_linear_157_7122" x1="10.1536" y1="7.85248" x2="12.6132" y2="9.80718" gradientUnits="userSpaceOnUse">
      <stop stop-color="#E37A34"/>
      <stop offset="0.4225" stop-color="#F08E36"/>
      <stop offset="1" stop-color="#FFA538"/>
    </linearGradient>
    <linearGradient id="paint24_linear_157_7122" x1="8.01234" y1="7.47396" x2="8.01234" y2="5.69344" gradientUnits="userSpaceOnUse">
      <stop stop-color="#E37A34"/>
      <stop offset="0.4225" stop-color="#F08E36"/>
      <stop offset="1" stop-color="#FFA538"/>
    </linearGradient>
  </defs>
</svg>
