<svg width="19" height="12" viewBox="0 0 19 12" fill="none" xmlns="http://www.w3.org/2000/svg">
  <path d="M18.0037 4.90311L0.00390625 6.53774V7.58866L0.00517187 7.58859C0.0107266 7.72698 0.112398 7.87155 0.307516 7.98522L6.87347 11.8231C7.2405 12.0369 7.79569 12.0601 8.1135 11.8749L17.7893 6.24869C17.9327 6.16516 18.0026 6.05344 18.0032 5.93636L18.0037 5.93633V4.90311Z" fill="url(#paint0_linear_157_8604)"/>
  <path d="M9.8945 0.5928L0.218726 6.21906C-0.0991212 6.4042 -0.059254 6.72755 0.307777 6.94131L6.8737 10.7792C7.24073 10.9929 7.79592 11.0162 8.11377 10.831L17.7895 5.20478C18.1074 5.01964 18.0675 4.69629 17.7005 4.48253L11.1346 0.644688C10.7675 0.430893 10.2124 0.407698 9.8945 0.5928Z" fill="url(#paint1_linear_157_8604)"/>
  <path d="M8.26235 9.77558L2.06258 5.147L0.218738 6.21913C0.0956563 6.29081 0.0268555 6.38334 0.00927734 6.48212L3.41321 8.46476C4.88752 9.32348 6.55994 9.77558 8.26235 9.77558Z" fill="url(#paint2_linear_157_8604)"/>
  <path d="M3.13867 4.52106L6.66372 6.57421C8.13803 7.43294 9.81045 7.88503 11.5129 7.88503L5.31326 3.25656L3.13867 4.52106Z" fill="url(#paint3_linear_157_8604)"/>
  <path d="M6.3125 2.67567L9.83755 4.72885C11.3119 5.58757 13.0749 6.03314 14.7773 6.03314L8.48712 1.41116L6.3125 2.67567Z" fill="url(#paint4_linear_157_8604)"/>
  <path d="M16.3645 3.89334C16.3645 3.89334 8.35604 0.823957 8.33976 0.848536C8.08192 1.23768 8.1296 1.73187 8.15442 1.89403C8.17924 2.05618 8.18289 2.23657 8.45423 2.66689C8.5333 2.79315 8.78287 3.04078 8.9769 3.15378L13.2963 5.66963C14.0515 6.10945 15.1938 6.15723 15.8477 5.77631C15.9771 5.70094 16.0772 5.61437 16.1495 5.52067C16.1495 5.5207 16.1498 5.52077 16.1498 5.52077C16.1498 5.52077 16.3485 5.32361 16.4684 4.9439C16.4688 4.94309 16.4694 4.94234 16.4696 4.94149C16.5644 4.5898 16.3645 3.89334 16.3645 3.89334Z" fill="url(#paint5_linear_157_8604)"/>
  <path d="M16.3412 3.81168C16.3412 3.81133 16.3413 3.81104 16.3412 3.81065C16.2857 3.60679 16.1905 3.42353 16.1421 3.33451C16.0446 3.15927 15.8449 2.9659 15.597 2.82151L11.3648 0.356492C10.625 -0.0744667 9.50572 -0.121248 8.86496 0.251971C8.78238 0.300064 8.71203 0.352839 8.65329 0.409125C8.65311 0.409302 8.6528 0.409409 8.65262 0.409621C8.65164 0.410615 8.65079 0.411608 8.64984 0.412601C8.62151 0.440052 8.59595 0.468319 8.5732 0.497331C8.39264 0.708821 8.32342 0.880729 8.32342 0.880729C8.32342 0.880729 8.32352 0.880764 8.32356 0.880764C8.14845 1.24756 8.34852 1.68703 8.90068 2.00865L13.3186 4.58188C14.0909 5.03174 15.2593 5.08058 15.9282 4.69101C16.32 4.46275 16.4531 4.13471 16.3412 3.81168Z" fill="url(#paint6_linear_157_8604)"/>
  <path d="M8.26755 1.42971C8.27617 1.36633 8.29459 1.30401 8.32342 1.24368L8.32328 1.24365C8.32328 1.24365 8.3925 1.07174 8.57306 0.860252C8.59581 0.831275 8.62137 0.802973 8.6497 0.775521C8.65065 0.774528 8.65153 0.773535 8.65248 0.772542C8.65265 0.772329 8.65297 0.772223 8.65315 0.772045C8.71189 0.715759 8.78228 0.662985 8.86482 0.614891C9.50558 0.241673 10.6248 0.288489 11.3647 0.719448L15.5968 3.18447C15.8448 3.32889 16.0445 3.52222 16.142 3.6975C16.1903 3.78652 16.2856 3.96978 16.341 4.17364C16.3411 4.17403 16.3409 4.17432 16.341 4.17467C16.3569 4.2206 16.3673 4.2666 16.3732 4.31246C16.3871 4.21298 16.3762 4.11073 16.341 4.00897C16.341 4.00862 16.3411 4.00833 16.341 4.00794C16.2856 3.80411 16.1903 3.62082 16.142 3.5318C16.0445 3.35656 15.8447 3.16323 15.5968 3.0188L11.3647 0.553782C10.6248 0.122859 9.50558 0.0760425 8.86482 0.449226C8.78228 0.497319 8.71189 0.550129 8.65315 0.606379C8.65297 0.606557 8.65265 0.606699 8.65248 0.606876C8.65149 0.607869 8.65065 0.608862 8.6497 0.609855C8.62137 0.637307 8.59581 0.665574 8.57306 0.694586C8.3925 0.906075 8.32328 1.07798 8.32328 1.07798C8.32328 1.07798 8.32338 1.07802 8.32342 1.07802C8.2698 1.19024 8.25156 1.30933 8.26755 1.42971Z" fill="url(#paint7_linear_157_8604)"/>
  <path d="M15.9141 4.28979C15.2241 4.69167 14.0587 4.69266 13.262 4.22865L8.6652 1.53401C8.47828 1.42513 8.33072 1.25003 8.2229 1.12189C8.29655 1.35749 8.50063 1.59158 8.83044 1.78366L13.2483 4.3569C14.0207 4.80672 15.189 4.8556 15.8579 4.46603C16.1377 4.30309 16.2848 4.08919 16.3058 3.86263C16.2319 4.00602 16.1023 4.1802 15.9141 4.28979Z" fill="url(#paint8_linear_157_8604)"/>
  <path d="M9.50269 0.618785C9.50269 0.618785 9.68061 0.472094 9.69823 0.472094C9.71584 0.472094 9.86835 0.441273 9.87422 0.54544C9.88009 0.649642 9.84173 0.753347 9.7569 0.762072C9.67207 0.770761 9.50269 0.706318 9.50269 0.618785Z" fill="url(#paint9_linear_157_8604)"/>
  <path d="M10.5999 2.11094C10.5999 2.11094 10.7778 1.96425 10.7954 1.96425C10.813 1.96425 10.9655 1.93343 10.9714 2.0376C10.9773 2.14176 10.9389 2.2455 10.8541 2.25423C10.7692 2.26292 10.5999 2.19847 10.5999 2.11094Z" fill="url(#paint10_linear_157_8604)"/>
  <path d="M10.9966 0.904421C10.9966 0.904421 10.898 1.11385 10.8821 1.12144C10.8662 1.12903 10.7415 1.22277 10.692 1.13113C10.6425 1.03951 10.6331 0.929177 10.7061 0.884666C10.779 0.840191 10.9595 0.825295 10.9966 0.904421Z" fill="url(#paint11_linear_157_8604)"/>
  <path d="M10.1919 0.748819C10.1548 0.673948 10.186 0.577195 10.274 0.553538C10.362 0.529882 10.4441 0.547615 10.4793 0.651179C10.5145 0.754742 10.2681 0.902675 10.1919 0.748819Z" fill="url(#paint12_linear_157_8604)"/>
  <path d="M10.0737 1.8935C10.0366 1.81863 10.0678 1.72188 10.1558 1.69822C10.2438 1.67457 10.3259 1.6923 10.3611 1.79586C10.3963 1.89943 10.1499 2.04736 10.0737 1.8935Z" fill="url(#paint13_linear_157_8604)"/>
  <path d="M10.0204 1.08955C9.88778 1.13374 9.83206 1.19592 9.91123 1.22844C9.9904 1.26096 10.0726 1.32016 10.1664 1.332C10.2603 1.34385 10.2514 1.24621 10.2192 1.14559C10.187 1.04497 10.0204 1.08955 10.0204 1.08955Z" fill="url(#paint14_linear_157_8604)"/>
  <path d="M11.4422 1.6281C11.3097 1.67232 11.2539 1.73446 11.3331 1.76698C11.4123 1.79954 11.4944 1.8587 11.5883 1.87055C11.6821 1.88239 11.6733 1.78475 11.6411 1.68413C11.6088 1.58351 11.4422 1.6281 11.4422 1.6281Z" fill="url(#paint15_linear_157_8604)"/>
  <path d="M9.64905 1.69658C9.73852 1.58845 9.75332 1.50598 9.66902 1.52053C9.58471 1.53507 9.48403 1.52854 9.3981 1.56848C9.31218 1.60841 9.37075 1.68665 9.4508 1.75493C9.53085 1.82317 9.64905 1.69658 9.64905 1.69658Z" fill="url(#paint16_linear_157_8604)"/>
  <path d="M9.16338 0.972614C9.21323 0.889586 9.31588 0.916399 9.3863 0.981481C9.45669 1.0466 9.40392 1.18566 9.36285 1.22709C9.32179 1.26851 9.10474 1.19159 9.10474 1.10281C9.10474 1.01404 9.16338 0.972614 9.16338 0.972614Z" fill="url(#paint17_linear_157_8604)"/>
  <path d="M11.3807 1.13161C11.4305 1.04858 11.5332 1.0754 11.6036 1.14048C11.674 1.20556 11.6212 1.34466 11.5801 1.38609C11.5391 1.42751 11.322 1.35058 11.322 1.26181C11.322 1.17304 11.3807 1.13161 11.3807 1.13161Z" fill="url(#paint18_linear_157_8604)"/>
  <path d="M10.6996 1.3932C10.7091 1.29659 10.8131 1.27602 10.9044 1.30404C10.9958 1.33206 11.0077 1.48049 10.9885 1.53575C10.9692 1.591 10.7405 1.61622 10.7025 1.53617C10.6645 1.45612 10.6996 1.3932 10.6996 1.3932Z" fill="url(#paint19_linear_157_8604)"/>
  <path d="M13.1645 5.75479C13.1645 5.75479 5.15609 2.68537 5.13981 2.70999C4.88197 3.09913 4.92965 3.59333 4.95447 3.75548C4.97929 3.91764 4.98294 4.09802 5.25428 4.52838C5.33334 4.65464 5.58292 4.90227 5.77695 5.01527L10.0964 7.53111C10.8515 7.97094 11.9938 8.01871 12.6478 7.6378C12.7772 7.56243 12.8772 7.47586 12.9495 7.38215C12.9496 7.38219 12.9498 7.38226 12.9498 7.38226C12.9498 7.38226 13.1486 7.1851 13.2684 6.80539C13.2688 6.80457 13.2694 6.80383 13.2696 6.80298C13.3644 6.45125 13.1645 5.75479 13.1645 5.75479Z" fill="url(#paint20_linear_157_8604)"/>
  <path d="M13.1412 5.67318C13.1412 5.67283 13.1414 5.67254 13.1413 5.67215C13.0858 5.46829 12.9905 5.28503 12.9421 5.19601C12.8447 5.02077 12.6449 4.82744 12.397 4.68301L8.16487 2.21799C7.42501 1.78707 6.30577 1.74025 5.66501 2.11347C5.58247 2.16156 5.51208 2.21434 5.45334 2.27062C5.45316 2.2708 5.45285 2.27091 5.45267 2.27112C5.45169 2.27211 5.45084 2.27311 5.44989 2.2741C5.42152 2.30155 5.396 2.32982 5.37325 2.35883C5.19269 2.57032 5.12347 2.74223 5.12347 2.74223C5.12347 2.74223 5.12357 2.74226 5.12361 2.74226C4.94849 3.10906 5.14857 3.54853 5.70073 3.87015L10.1186 6.44335C10.891 6.89321 12.0593 6.94205 12.7282 6.55248C13.12 6.32425 13.2531 5.99621 13.1412 5.67318Z" fill="url(#paint21_linear_157_8604)"/>
  <path d="M5.06762 3.29119C5.07623 3.22782 5.09465 3.1655 5.12348 3.10517L5.12334 3.10513C5.12334 3.10513 5.19256 2.93323 5.37312 2.72174C5.39587 2.69276 5.42143 2.66446 5.44977 2.63701C5.45071 2.63601 5.45159 2.63502 5.45254 2.63403C5.45272 2.63381 5.45303 2.63371 5.45321 2.63353C5.51196 2.57725 5.58234 2.52447 5.66489 2.47638C6.30564 2.10316 7.42484 2.14997 8.16474 2.58093L12.3969 5.04596C12.6448 5.19038 12.8445 5.38371 12.942 5.55895C12.9904 5.64797 13.0857 5.83127 13.1411 6.03509C13.1412 6.03548 13.141 6.03577 13.1411 6.03612C13.157 6.08205 13.1674 6.12805 13.1733 6.17391C13.1872 6.07443 13.1763 5.97218 13.1411 5.87042C13.1411 5.87007 13.1412 5.86978 13.1411 5.86939C13.0857 5.66556 12.9904 5.48227 12.942 5.39325C12.8445 5.21801 12.6448 5.02468 12.3969 4.88025L8.16474 2.41523C7.42488 1.98431 6.30564 1.93749 5.66489 2.31068C5.58234 2.35877 5.51196 2.41158 5.45321 2.46783C5.45303 2.46801 5.45272 2.46815 5.45254 2.46833C5.45156 2.46932 5.45071 2.47031 5.44977 2.47131C5.42143 2.49876 5.39587 2.52702 5.37312 2.55604C5.19256 2.76753 5.12334 2.93943 5.12334 2.93943C5.12334 2.93943 5.12344 2.93947 5.12348 2.93947C5.06987 3.05172 5.05159 3.17078 5.06762 3.29119Z" fill="url(#paint22_linear_157_8604)"/>
  <path d="M12.7141 6.15124C12.0242 6.55312 10.8587 6.55411 10.0621 6.0901L5.46525 3.39546C5.27832 3.28658 5.13077 3.11148 5.02295 2.98334C5.0966 3.21891 5.30068 3.45303 5.63048 3.64511L10.0484 6.21835C10.8207 6.66817 11.9891 6.71705 12.658 6.32748C12.9377 6.16454 13.0849 5.95064 13.1059 5.72408C13.0319 5.86747 12.9023 6.04165 12.7141 6.15124Z" fill="url(#paint23_linear_157_8604)"/>
  <path d="M10.6307 6.27952C10.4988 6.27952 10.367 6.24529 10.2494 6.17677C10.0888 6.08321 9.99345 5.91673 9.99345 5.73081C9.99345 5.54489 10.0888 5.37841 10.2484 5.28545L11.1057 4.78608C11.1831 4.741 11.2293 4.66027 11.2293 4.57012C11.2293 4.47996 11.1831 4.39924 11.1057 4.35416C10.9478 4.26219 10.7562 4.26223 10.602 4.352L9.24051 5.14497C9.00531 5.28194 8.71313 5.28194 8.47793 5.14497L8.46686 5.13855C8.30718 5.04552 8.21191 4.87903 8.21191 4.69312C8.21194 4.50723 8.30721 4.34072 8.46679 4.24779L9.32414 3.74846C9.40152 3.70338 9.44775 3.62262 9.44772 3.5325C9.44772 3.44234 9.40152 3.36162 9.32414 3.31654C9.16995 3.2267 8.97835 3.2267 8.82415 3.31654L7.46269 4.10954C7.2275 4.24652 6.93531 4.24652 6.70012 4.10954C6.54051 4.01659 6.44523 3.8501 6.44523 3.66415C6.44523 3.47823 6.54054 3.31175 6.70012 3.21879L7.55747 2.71945C7.63485 2.67437 7.68105 2.59365 7.68105 2.50349C7.68105 2.41334 7.63485 2.33261 7.55747 2.28754C7.39952 2.19557 7.20795 2.19557 7.05372 2.28537L5.37663 3.26224C5.31384 3.29877 5.23354 3.2771 5.19729 3.21376C5.16105 3.15041 5.18256 3.06941 5.24535 3.03284L6.92245 2.05597C7.15761 1.91896 7.44986 1.91896 7.68502 2.05597C7.84836 2.1511 7.94366 2.31758 7.94366 2.50349C7.94366 2.68945 7.84836 2.85593 7.68878 2.94889L6.83143 3.44823C6.75405 3.49331 6.70785 3.57403 6.70785 3.66419C6.70785 3.75434 6.75405 3.8351 6.83143 3.88014C6.98566 3.96995 7.17726 3.96995 7.33145 3.88014L8.69291 3.08714C8.92807 2.95013 9.22033 2.95013 9.45549 3.08714C9.6151 3.18006 9.71037 3.34658 9.71041 3.53246C9.71041 3.71841 9.61513 3.8849 9.45552 3.97785L8.59817 4.47719C8.52079 4.52227 8.47459 4.603 8.47459 4.69315C8.47456 4.78331 8.52079 4.86403 8.5982 4.90911L8.60924 4.91553C8.76351 5.00537 8.95511 5.00537 9.10934 4.91557L10.4708 4.1226C10.706 3.98562 10.9982 3.98562 11.2334 4.1226C11.3967 4.21772 11.492 4.3842 11.492 4.57015C11.492 4.75604 11.3967 4.92255 11.2371 5.01548L10.3798 5.51485C10.3024 5.55993 10.2562 5.64065 10.2562 5.73081C10.2562 5.82097 10.3024 5.90169 10.3798 5.94677C10.5351 6.03717 10.7266 6.03717 10.8808 5.94737L12.5579 4.97054C12.6207 4.93397 12.701 4.95564 12.7373 5.01902C12.7735 5.08237 12.752 5.16337 12.6892 5.19994L11.0121 6.17677C10.8944 6.24526 10.7625 6.27952 10.6307 6.27952Z" fill="white"/>
  <path d="M9.94038 7.6354C9.94038 7.6354 1.93197 4.56602 1.91569 4.5906C1.65785 4.97974 1.70552 5.47394 1.73034 5.63606C1.75516 5.79818 1.75882 5.9786 2.03016 6.40896C2.10922 6.53522 2.3588 6.78285 2.55282 6.89585L6.87226 9.41169C7.62738 9.85152 8.76968 9.89929 9.42366 9.51838C9.55303 9.44301 9.65312 9.35643 9.7254 9.26273C9.72547 9.26277 9.72575 9.26284 9.72575 9.26284C9.72575 9.26284 9.92446 9.06568 10.0443 8.68597C10.0447 8.68515 10.0453 8.68441 10.0455 8.68356C10.1404 8.33187 9.94038 7.6354 9.94038 7.6354Z" fill="url(#paint24_linear_157_8604)"/>
  <path d="M9.91715 7.5538C9.91711 7.55344 9.91729 7.55316 9.91718 7.55277C9.86171 7.3489 9.76643 7.16564 9.71806 7.07662C9.62057 6.90138 9.42085 6.70805 9.17293 6.56363L4.94075 4.09861C4.20088 3.66768 3.08165 3.62087 2.44089 3.99409C2.35831 4.04218 2.28796 4.09495 2.22922 4.15124C2.22904 4.15142 2.22872 4.15152 2.22855 4.15174C2.22756 4.15273 2.22672 4.15372 2.22577 4.15472C2.19744 4.18217 2.17188 4.21043 2.14913 4.23945C1.96857 4.45093 1.89935 4.62284 1.89935 4.62284C1.89935 4.62284 1.89945 4.62288 1.89949 4.62288C1.72437 4.98968 1.92445 5.42915 2.47661 5.75076L6.89452 8.324C7.66687 8.77386 8.83522 8.8227 9.5041 8.43313C9.89588 8.20486 10.029 7.87683 9.91715 7.5538Z" fill="url(#paint25_linear_157_8604)"/>
  <path d="M1.8435 5.17177C1.85211 5.10836 1.87053 5.04608 1.89936 4.98575L1.89922 4.98572C1.89922 4.98572 1.96844 4.81381 2.149 4.60232C2.17175 4.57334 2.19727 4.54504 2.22564 4.51759C2.22663 4.51659 2.22747 4.5156 2.22842 4.51461C2.2286 4.51443 2.22891 4.51429 2.22909 4.51411C2.28784 4.45782 2.35822 4.40505 2.44076 4.35696C3.08152 3.98374 4.20072 4.03055 4.94062 4.46151L9.17277 6.92654C9.42072 7.07096 9.62041 7.26429 9.7179 7.43957C9.76627 7.52859 9.86155 7.71184 9.91699 7.91571C9.91709 7.9161 9.91688 7.91638 9.91695 7.91674C9.93288 7.96267 9.94325 8.0087 9.94919 8.05453C9.96301 7.95504 9.95218 7.85279 9.91695 7.75104C9.91692 7.75065 9.91709 7.7504 9.91699 7.75001C9.86151 7.54618 9.76624 7.36289 9.7179 7.27386C9.62041 7.09862 9.42069 6.90529 9.17277 6.76087L4.94062 4.29585C4.20076 3.86492 3.08152 3.81811 2.44076 4.19129C2.35822 4.23938 2.28784 4.29219 2.22909 4.34844C2.22891 4.34862 2.2286 4.34876 2.22842 4.34894C2.22744 4.34993 2.22659 4.35093 2.22564 4.35192C2.19731 4.37937 2.17175 4.40764 2.149 4.43665C1.96844 4.64814 1.89922 4.82005 1.89922 4.82005C1.89922 4.82005 1.89932 4.82008 1.89936 4.82008C1.84575 4.9323 1.82746 5.0514 1.8435 5.17177Z" fill="url(#paint26_linear_157_8604)"/>
  <path d="M9.49 8.03186C8.80005 8.43373 7.63463 8.43473 6.83795 7.97071L2.24113 5.27608C2.0542 5.16719 1.90665 4.99209 1.79883 4.86395C1.87248 5.09956 2.07656 5.33364 2.40636 5.52573L6.82427 8.09896C7.59662 8.54879 8.76497 8.59766 9.43385 8.20809C9.71359 8.04516 9.86075 7.83126 9.88174 7.60469C9.80781 7.74809 9.67822 7.92227 9.49 8.03186Z" fill="url(#paint27_linear_157_8604)"/>
  <path d="M3.07861 4.36085C3.07861 4.36085 3.25654 4.21416 3.27415 4.21416C3.29177 4.21416 3.44427 4.18334 3.45014 4.28751C3.45602 4.39171 3.41766 4.49541 3.33283 4.50414C3.248 4.51283 3.07861 4.44838 3.07861 4.36085Z" fill="url(#paint28_linear_157_8604)"/>
  <path d="M4.17578 5.8531C4.17578 5.8531 4.35371 5.70638 4.37132 5.70638C4.38893 5.70638 4.54144 5.67556 4.54731 5.77972C4.55318 5.88392 4.51483 5.98763 4.43 5.99636C4.34513 6.00508 4.17578 5.9406 4.17578 5.8531Z" fill="url(#paint29_linear_157_8604)"/>
  <path d="M4.57252 4.64657C4.57252 4.64657 4.47394 4.85601 4.45805 4.8636C4.44216 4.87119 4.31739 4.96492 4.26789 4.87328C4.21839 4.78167 4.20904 4.67133 4.28202 4.62685C4.35493 4.58234 4.53539 4.56745 4.57252 4.64657Z" fill="url(#paint30_linear_157_8604)"/>
  <path d="M3.76778 4.49096C3.73069 4.41609 3.76191 4.31934 3.84991 4.29568C3.93791 4.27199 4.02003 4.28976 4.05522 4.39332C4.09045 4.49685 3.84404 4.64482 3.76778 4.49096Z" fill="url(#paint31_linear_157_8604)"/>
  <path d="M3.64962 5.63564C3.61253 5.56077 3.64375 5.46402 3.73175 5.44036C3.81974 5.41667 3.90187 5.43444 3.93706 5.538C3.97228 5.64157 3.72591 5.7895 3.64962 5.63564Z" fill="url(#paint32_linear_157_8604)"/>
  <path d="M3.59629 4.83168C3.46371 4.87587 3.40799 4.93801 3.48716 4.97057C3.56637 5.00313 3.64849 5.06228 3.74232 5.07413C3.83619 5.08598 3.82737 4.98834 3.79513 4.88772C3.76289 4.7871 3.59629 4.83168 3.59629 4.83168Z" fill="url(#paint33_linear_157_8604)"/>
  <path d="M5.01815 5.37022C4.88558 5.41441 4.82985 5.47659 4.90906 5.50911C4.98827 5.54167 5.07039 5.60083 5.16422 5.61267C5.25809 5.62452 5.24927 5.52688 5.21703 5.42626C5.18472 5.32564 5.01815 5.37022 5.01815 5.37022Z" fill="url(#paint34_linear_157_8604)"/>
  <path d="M3.22498 5.43871C3.31445 5.33057 3.32925 5.24811 3.24495 5.26265C3.16064 5.27719 3.05995 5.27067 2.97403 5.3106C2.88811 5.35054 2.94668 5.42878 3.02673 5.49705C3.10678 5.56529 3.22498 5.43871 3.22498 5.43871Z" fill="url(#paint35_linear_157_8604)"/>
  <path d="M2.7393 4.71474C2.78916 4.63171 2.89181 4.65853 2.96223 4.72361C3.03261 4.78869 2.97984 4.92779 2.93878 4.96922C2.89772 5.01064 2.68066 4.93371 2.68066 4.84494C2.68063 4.75617 2.7393 4.71474 2.7393 4.71474Z" fill="url(#paint36_linear_157_8604)"/>
  <path d="M4.95659 4.87374C5.00644 4.79071 5.1091 4.81752 5.17952 4.8826C5.2499 4.94769 5.19713 5.08679 5.15607 5.12821C5.115 5.16964 4.89795 5.09271 4.89795 5.00394C4.89791 4.91516 4.95659 4.87374 4.95659 4.87374Z" fill="url(#paint37_linear_157_8604)"/>
  <path d="M4.27556 5.13533C4.28498 5.03872 4.38904 5.01815 4.48038 5.04617C4.57175 5.07419 4.58367 5.22261 4.5644 5.27787C4.5451 5.33313 4.31641 5.35835 4.2784 5.2783C4.2404 5.19825 4.27556 5.13533 4.27556 5.13533Z" fill="url(#paint38_linear_157_8604)"/>
  <defs>
    <linearGradient id="paint0_linear_157_8604" x1="6.87808" y1="8.4515" x2="8.26868" y2="8.4515" gradientUnits="userSpaceOnUse">
      <stop stop-color="#C5BAEB"/>
      <stop offset="1" stop-color="#F2EFFA"/>
    </linearGradient>
    <linearGradient id="paint1_linear_157_8604" x1="6.64416" y1="4.33736" x2="19.2785" y2="11.5679" gradientUnits="userSpaceOnUse">
      <stop stop-color="#F2EFFA"/>
      <stop offset="1" stop-color="white"/>
    </linearGradient>
    <linearGradient id="paint2_linear_157_8604" x1="6.24023" y1="5.23617" x2="3.22488" y2="9.27122" gradientUnits="userSpaceOnUse">
      <stop stop-color="#594A8E"/>
      <stop offset="1" stop-color="#594A8E" stop-opacity="0"/>
    </linearGradient>
    <linearGradient id="paint3_linear_157_8604" x1="9.45752" y1="3.29976" x2="6.42122" y2="7.36287" gradientUnits="userSpaceOnUse">
      <stop stop-color="#594A8E"/>
      <stop offset="1" stop-color="#594A8E" stop-opacity="0"/>
    </linearGradient>
    <linearGradient id="paint4_linear_157_8604" x1="12.7314" y1="1.37665" x2="9.6172" y2="5.54395" gradientUnits="userSpaceOnUse">
      <stop stop-color="#594A8E"/>
      <stop offset="1" stop-color="#594A8E" stop-opacity="0"/>
    </linearGradient>
    <linearGradient id="paint5_linear_157_8604" x1="8.13403" y1="3.44092" x2="16.4951" y2="3.44092" gradientUnits="userSpaceOnUse">
      <stop stop-color="#BA5C25"/>
      <stop offset="0.1997" stop-color="#BD632B"/>
      <stop offset="0.4955" stop-color="#C7773B"/>
      <stop offset="0.8492" stop-color="#D69854"/>
      <stop offset="1" stop-color="#DEA861"/>
    </linearGradient>
    <linearGradient id="paint6_linear_157_8604" x1="11.7508" y1="3.58122" x2="13.1995" y2="1.09404" gradientUnits="userSpaceOnUse">
      <stop stop-color="#5E2F13"/>
      <stop offset="0.1827" stop-color="#733917"/>
      <stop offset="0.3971" stop-color="#85421B"/>
      <stop offset="0.5519" stop-color="#8B451C"/>
      <stop offset="0.6792" stop-color="#84421B"/>
      <stop offset="0.8645" stop-color="#713817"/>
      <stop offset="1" stop-color="#5E2F13"/>
    </linearGradient>
    <linearGradient id="paint7_linear_157_8604" x1="9.47939" y1="0.715582" x2="15.362" y2="4.26997" gradientUnits="userSpaceOnUse">
      <stop stop-color="white" stop-opacity="0"/>
      <stop offset="0.5931" stop-color="white" stop-opacity="0.6"/>
      <stop offset="1" stop-color="white" stop-opacity="0"/>
    </linearGradient>
    <linearGradient id="paint8_linear_157_8604" x1="9.60939" y1="2.92549" x2="15.9614" y2="2.92549" gradientUnits="userSpaceOnUse">
      <stop stop-color="white" stop-opacity="0"/>
      <stop offset="0.5931" stop-color="white" stop-opacity="0.6"/>
      <stop offset="1" stop-color="white" stop-opacity="0"/>
    </linearGradient>
    <linearGradient id="paint9_linear_157_8604" x1="9.68873" y1="0.815308" x2="9.68873" y2="0.553455" gradientUnits="userSpaceOnUse">
      <stop stop-color="#46230E"/>
      <stop offset="0.5777" stop-color="#582C12"/>
      <stop offset="1" stop-color="#5E2F13"/>
    </linearGradient>
    <linearGradient id="paint10_linear_157_8604" x1="10.7859" y1="2.30746" x2="10.7859" y2="2.04561" gradientUnits="userSpaceOnUse">
      <stop stop-color="#46230E"/>
      <stop offset="0.5777" stop-color="#582C12"/>
      <stop offset="1" stop-color="#5E2F13"/>
    </linearGradient>
    <linearGradient id="paint11_linear_157_8604" x1="10.709" y1="0.805663" x2="10.8217" y2="1.04161" gradientUnits="userSpaceOnUse">
      <stop stop-color="#46230E"/>
      <stop offset="0.5777" stop-color="#582C12"/>
      <stop offset="1" stop-color="#5E2F13"/>
    </linearGradient>
    <linearGradient id="paint12_linear_157_8604" x1="10.3296" y1="0.942114" x2="10.3296" y2="0.622167" gradientUnits="userSpaceOnUse">
      <stop stop-color="#46230E"/>
      <stop offset="0.5777" stop-color="#582C12"/>
      <stop offset="1" stop-color="#5E2F13"/>
    </linearGradient>
    <linearGradient id="paint13_linear_157_8604" x1="10.2114" y1="2.08683" x2="10.2114" y2="1.76685" gradientUnits="userSpaceOnUse">
      <stop stop-color="#46230E"/>
      <stop offset="0.5777" stop-color="#582C12"/>
      <stop offset="1" stop-color="#5E2F13"/>
    </linearGradient>
    <linearGradient id="paint14_linear_157_8604" x1="10.0582" y1="1.33594" x2="10.0582" y2="1.15836" gradientUnits="userSpaceOnUse">
      <stop stop-color="#46230E"/>
      <stop offset="0.5777" stop-color="#582C12"/>
      <stop offset="1" stop-color="#5E2F13"/>
    </linearGradient>
    <linearGradient id="paint15_linear_157_8604" x1="11.4801" y1="1.87449" x2="11.4801" y2="1.6969" gradientUnits="userSpaceOnUse">
      <stop stop-color="#46230E"/>
      <stop offset="0.5777" stop-color="#582C12"/>
      <stop offset="1" stop-color="#5E2F13"/>
    </linearGradient>
    <linearGradient id="paint16_linear_157_8604" x1="9.5392" y1="1.53053" x2="9.63332" y2="1.68055" gradientUnits="userSpaceOnUse">
      <stop stop-color="#46230E"/>
      <stop offset="0.5777" stop-color="#582C12"/>
      <stop offset="1" stop-color="#5E2F13"/>
    </linearGradient>
    <linearGradient id="paint17_linear_157_8604" x1="9.26273" y1="1.29515" x2="9.26273" y2="0.947964" gradientUnits="userSpaceOnUse">
      <stop stop-color="#46230E"/>
      <stop offset="0.5777" stop-color="#582C12"/>
      <stop offset="1" stop-color="#5E2F13"/>
    </linearGradient>
    <linearGradient id="paint18_linear_157_8604" x1="11.48" y1="1.45411" x2="11.48" y2="1.10693" gradientUnits="userSpaceOnUse">
      <stop stop-color="#46230E"/>
      <stop offset="0.5777" stop-color="#582C12"/>
      <stop offset="1" stop-color="#5E2F13"/>
    </linearGradient>
    <linearGradient id="paint19_linear_157_8604" x1="10.9285" y1="1.63734" x2="10.7777" y2="1.32524" gradientUnits="userSpaceOnUse">
      <stop stop-color="#46230E"/>
      <stop offset="0.5777" stop-color="#582C12"/>
      <stop offset="1" stop-color="#5E2F13"/>
    </linearGradient>
    <linearGradient id="paint20_linear_157_8604" x1="4.93408" y1="5.30237" x2="13.2951" y2="5.30237" gradientUnits="userSpaceOnUse">
      <stop stop-color="#BA5C25"/>
      <stop offset="0.1997" stop-color="#BD632B"/>
      <stop offset="0.4955" stop-color="#C7773B"/>
      <stop offset="0.8492" stop-color="#D69854"/>
      <stop offset="1" stop-color="#DEA861"/>
    </linearGradient>
    <linearGradient id="paint21_linear_157_8604" x1="8.55092" y1="5.44268" x2="9.99957" y2="2.95553" gradientUnits="userSpaceOnUse">
      <stop stop-color="#5E2F13"/>
      <stop offset="0.1827" stop-color="#733917"/>
      <stop offset="0.3971" stop-color="#85421B"/>
      <stop offset="0.5519" stop-color="#8B451C"/>
      <stop offset="0.6792" stop-color="#84421B"/>
      <stop offset="0.8645" stop-color="#713817"/>
      <stop offset="1" stop-color="#5E2F13"/>
    </linearGradient>
    <linearGradient id="paint22_linear_157_8604" x1="6.27942" y1="2.57707" x2="12.1621" y2="6.13145" gradientUnits="userSpaceOnUse">
      <stop stop-color="white" stop-opacity="0"/>
      <stop offset="0.5931" stop-color="white" stop-opacity="0.6"/>
      <stop offset="1" stop-color="white" stop-opacity="0"/>
    </linearGradient>
    <linearGradient id="paint23_linear_157_8604" x1="6.40941" y1="4.78694" x2="12.7614" y2="4.78694" gradientUnits="userSpaceOnUse">
      <stop stop-color="white" stop-opacity="0"/>
      <stop offset="0.5931" stop-color="white" stop-opacity="0.6"/>
      <stop offset="1" stop-color="white" stop-opacity="0"/>
    </linearGradient>
    <linearGradient id="paint24_linear_157_8604" x1="1.70999" y1="7.18299" x2="10.071" y2="7.18299" gradientUnits="userSpaceOnUse">
      <stop stop-color="#BA5C25"/>
      <stop offset="0.1997" stop-color="#BD632B"/>
      <stop offset="0.4955" stop-color="#C7773B"/>
      <stop offset="0.8492" stop-color="#D69854"/>
      <stop offset="1" stop-color="#DEA861"/>
    </linearGradient>
    <linearGradient id="paint25_linear_157_8604" x1="5.3268" y1="7.3233" x2="6.77545" y2="4.83615" gradientUnits="userSpaceOnUse">
      <stop stop-color="#5E2F13"/>
      <stop offset="0.1827" stop-color="#733917"/>
      <stop offset="0.3971" stop-color="#85421B"/>
      <stop offset="0.5519" stop-color="#8B451C"/>
      <stop offset="0.6792" stop-color="#84421B"/>
      <stop offset="0.8645" stop-color="#713817"/>
      <stop offset="1" stop-color="#5E2F13"/>
    </linearGradient>
    <linearGradient id="paint26_linear_157_8604" x1="3.05533" y1="4.45765" x2="8.93795" y2="8.01203" gradientUnits="userSpaceOnUse">
      <stop stop-color="white" stop-opacity="0"/>
      <stop offset="0.5931" stop-color="white" stop-opacity="0.6"/>
      <stop offset="1" stop-color="white" stop-opacity="0"/>
    </linearGradient>
    <linearGradient id="paint27_linear_157_8604" x1="3.18532" y1="6.66755" x2="9.53728" y2="6.66755" gradientUnits="userSpaceOnUse">
      <stop stop-color="white" stop-opacity="0"/>
      <stop offset="0.5931" stop-color="white" stop-opacity="0.6"/>
      <stop offset="1" stop-color="white" stop-opacity="0"/>
    </linearGradient>
    <linearGradient id="paint28_linear_157_8604" x1="3.26466" y1="4.55737" x2="3.26466" y2="4.29552" gradientUnits="userSpaceOnUse">
      <stop stop-color="#46230E"/>
      <stop offset="0.5777" stop-color="#582C12"/>
      <stop offset="1" stop-color="#5E2F13"/>
    </linearGradient>
    <linearGradient id="paint29_linear_157_8604" x1="4.36183" y1="6.04963" x2="4.36183" y2="5.78777" gradientUnits="userSpaceOnUse">
      <stop stop-color="#46230E"/>
      <stop offset="0.5777" stop-color="#582C12"/>
      <stop offset="1" stop-color="#5E2F13"/>
    </linearGradient>
    <linearGradient id="paint30_linear_157_8604" x1="4.28346" y1="4.54793" x2="4.39614" y2="4.78385" gradientUnits="userSpaceOnUse">
      <stop stop-color="#46230E"/>
      <stop offset="0.5777" stop-color="#582C12"/>
      <stop offset="1" stop-color="#5E2F13"/>
    </linearGradient>
    <linearGradient id="paint31_linear_157_8604" x1="3.90556" y1="4.68426" x2="3.90556" y2="4.36431" gradientUnits="userSpaceOnUse">
      <stop stop-color="#46230E"/>
      <stop offset="0.5777" stop-color="#582C12"/>
      <stop offset="1" stop-color="#5E2F13"/>
    </linearGradient>
    <linearGradient id="paint32_linear_157_8604" x1="3.7874" y1="5.82897" x2="3.7874" y2="5.50899" gradientUnits="userSpaceOnUse">
      <stop stop-color="#46230E"/>
      <stop offset="0.5777" stop-color="#582C12"/>
      <stop offset="1" stop-color="#5E2F13"/>
    </linearGradient>
    <linearGradient id="paint33_linear_157_8604" x1="3.63411" y1="5.07807" x2="3.63411" y2="4.90048" gradientUnits="userSpaceOnUse">
      <stop stop-color="#46230E"/>
      <stop offset="0.5777" stop-color="#582C12"/>
      <stop offset="1" stop-color="#5E2F13"/>
    </linearGradient>
    <linearGradient id="paint34_linear_157_8604" x1="5.05598" y1="5.61661" x2="5.05598" y2="5.43903" gradientUnits="userSpaceOnUse">
      <stop stop-color="#46230E"/>
      <stop offset="0.5777" stop-color="#582C12"/>
      <stop offset="1" stop-color="#5E2F13"/>
    </linearGradient>
    <linearGradient id="paint35_linear_157_8604" x1="3.11731" y1="5.27347" x2="3.21143" y2="5.4235" gradientUnits="userSpaceOnUse">
      <stop stop-color="#46230E"/>
      <stop offset="0.5777" stop-color="#582C12"/>
      <stop offset="1" stop-color="#5E2F13"/>
    </linearGradient>
    <linearGradient id="paint36_linear_157_8604" x1="2.83862" y1="5.03728" x2="2.83862" y2="4.69009" gradientUnits="userSpaceOnUse">
      <stop stop-color="#46230E"/>
      <stop offset="0.5777" stop-color="#582C12"/>
      <stop offset="1" stop-color="#5E2F13"/>
    </linearGradient>
    <linearGradient id="paint37_linear_157_8604" x1="5.05594" y1="5.19624" x2="5.05594" y2="4.84905" gradientUnits="userSpaceOnUse">
      <stop stop-color="#46230E"/>
      <stop offset="0.5777" stop-color="#582C12"/>
      <stop offset="1" stop-color="#5E2F13"/>
    </linearGradient>
    <linearGradient id="paint38_linear_157_8604" x1="4.50371" y1="5.37955" x2="4.3529" y2="5.06742" gradientUnits="userSpaceOnUse">
      <stop stop-color="#46230E"/>
      <stop offset="0.5777" stop-color="#582C12"/>
      <stop offset="1" stop-color="#5E2F13"/>
    </linearGradient>
  </defs>
</svg>
