<svg width="20" height="12" viewBox="0 0 20 12" fill="none" xmlns="http://www.w3.org/2000/svg">
  <path d="M19.7258 4.70605C19.5011 4.84938 19.6168 5.19152 19.4884 5.40565C19.3601 5.61978 19.4028 5.77731 19.2745 6.01362C19.1461 6.24992 18.8323 6.35101 18.6755 6.68643C18.5186 7.02184 18.2048 7.43146 17.9909 7.60473C17.7769 7.778 17.9338 8.01431 17.6771 8.17188C17.4203 8.3294 17.3205 8.25066 16.9639 8.53421C16.6074 8.81777 16.1367 9.11711 15.8514 9.41641C15.5662 9.71575 15.2809 9.9993 14.9101 10.1253C14.5393 10.2514 13.9402 10.3774 13.6264 10.5979C13.3126 10.8185 12.9846 10.7713 12.4997 11.0391C12.0148 11.3069 11.7295 11.4486 11.3587 11.5747C10.9878 11.7007 10.3318 11.6972 9.74699 11.7305C9.16222 11.7637 8.94828 11.9055 8.34921 11.9528C7.75019 12 7.37933 12 6.85164 12C6.3239 12 5.83898 11.7445 5.45386 11.7305C5.06879 11.7164 4.70519 11.8425 4.40918 11.6377C4.11316 11.4329 3.14328 11.1493 2.70113 10.8658C2.25898 10.5822 1.57437 10.2041 1.18929 9.90477C0.804217 9.60547 0.946834 9.66846 0.675818 9.19585C0.404842 8.72323 0.0482404 8.29791 0.0482404 7.80954C0.0482404 7.32118 0.133826 6.92735 0.0482404 6.75403C-0.0373455 6.58072 -0.0180096 6.23702 0.179139 5.94415C0.376287 5.65128 0.490389 5.05669 0.675818 4.85775C0.861248 4.6588 1.36043 4.35951 1.47453 4.04441C1.58863 3.72932 1.90242 3.60399 2.14488 3.29645C2.38734 2.9889 2.60152 2.85235 2.91949 2.64957C3.2375 2.44678 4.08582 2.10598 4.27777 1.78342C4.46972 1.46082 4.9689 1.38208 5.31121 1.25605C5.65351 1.13003 6.18125 0.862223 6.43796 0.736195C6.69468 0.610167 6.97996 0.704699 7.308 0.515636C7.63605 0.326572 8.3064 0.130951 8.5346 0.157874C8.76281 0.184797 9.31906 -0.0357628 9.51874 0.0587688C9.71843 0.1533 10.0465 0.0428915 10.3745 0.0350821C10.7026 0.0272728 11.1447 0.0113953 11.3729 0.0350821C11.6011 0.058769 12.4854 0.143938 13.0987 0.0225699C13.712 -0.098755 14.0971 0.310824 14.4394 0.26358C14.7817 0.216293 15.4093 0.342364 15.9655 0.531384C16.5218 0.720447 17.021 0.484139 17.2207 0.625915C17.4203 0.767691 17.6143 1.20881 18.0379 1.16157C18.4615 1.11432 19.4171 1.55876 19.5883 2.04544C19.7594 2.53212 19.788 3.14716 19.9448 3.29649C20.1017 3.44577 19.8908 4.60086 19.7258 4.70605Z" fill="#CC8241"/>
  <path d="M15.5059 9.39121C11.4323 11.989 5.77251 12.5915 2.24462 10.3418C-1.28327 8.09206 -0.0338527 4.67705 4.03978 2.07931C8.11341 -0.518432 13.0184 -0.0336931 16.9966 0.934534C21.8133 2.10679 19.5795 6.79347 15.5059 9.39121Z" fill="url(#paint0_linear_157_2099)"/>
  <path d="M8.70596 8.71632H6.716C6.716 8.71632 0.993272 8.71658 4.06272 5.40564C4.90241 4.49989 7.37928 4.4032 7.37928 4.4032L8.70596 8.71632Z" fill="url(#paint1_linear_157_2099)"/>
  <path d="M14.0155 4.77815C14.0154 4.77599 13.839 4.07207 13.6037 3.7147C13.5525 3.6272 13.3897 3.43115 13.3085 3.31746C13.1388 3.11144 12.9216 2.91988 12.6543 2.74941C11.0193 1.7068 8.16342 1.83753 6.27553 3.04146C5.6592 3.43447 5.22346 3.89345 4.97131 4.36947C4.97006 4.37146 4.96807 4.3734 4.96693 4.37539C4.71564 4.80913 4.57545 5.21383 4.50236 5.47495C4.47588 5.56167 4.43307 5.77274 4.43373 5.77274C4.30658 6.58853 4.68225 7.38853 5.5867 7.96534C7.33213 9.07841 10.3809 8.93879 12.3963 7.65358C13.6811 6.83411 14.2345 5.74707 14.0155 4.77815Z" fill="url(#paint2_radial_157_2099)"/>
  <path d="M12.742 3.32756C12.445 3.13815 12.5686 3.84863 12.2263 4.46306C11.884 5.07746 10.6882 5.69064 9.81103 5.95055C8.93388 6.2105 11.5547 7.04937 12.742 5.54636C13.7692 4.24604 12.9581 3.46533 12.742 3.32756Z" fill="url(#paint3_linear_157_2099)"/>
  <path d="M6.39162 6.37937C6.97666 6.75245 8.4847 6.80906 8.93396 6.41915C9.38326 6.02924 7.66459 6.37937 6.70185 5.46961C5.73912 4.55984 5.54658 3.72096 5.30053 4.33536C5.05447 4.94975 5.82498 6.01803 6.39162 6.37937Z" fill="url(#paint4_linear_157_2099)"/>
  <path d="M19.6993 3.29663C19.737 4.30218 19.3459 4.76901 19.1606 5.38081C18.9751 5.99266 18.6899 6.10799 18.3333 6.68631C17.9768 7.26459 17.6345 7.4313 17.2922 7.80938C16.9499 8.18751 16.4792 8.51831 15.98 8.76902C15.4808 9.01974 15.1813 9.29022 14.5394 9.79433C13.8976 10.2984 13.8626 10.2928 13.1845 10.4402C12.5063 10.5876 12.0577 10.7396 11.53 10.9443C11.0022 11.1491 10.0752 11.3539 9.49041 11.4642C8.90564 11.5745 8.70595 11.3539 7.97857 11.4799C7.25119 11.606 6.86416 11.7115 6.22424 11.5587C5.58431 11.4059 5.28291 11.1964 4.74092 11.1806C4.19892 11.1649 3.61416 10.9443 3.43068 10.6886C3.24721 10.4328 2.52373 10.1102 1.80279 9.77858C1.08186 9.44692 1.08967 9.19569 1.00408 8.83335C0.918497 8.47102 0.347989 7.91966 0.333732 7.63607C0.319591 7.35519 0.431349 5.93204 0.433458 5.90486C-0.189745 7.5163 0.305646 9.10495 2.24479 10.3415C5.77267 12.5913 11.4324 11.9887 15.5061 9.39096C18.1171 7.7259 19.9722 5.20258 19.6993 3.29663Z" fill="url(#paint5_linear_157_2099)"/>
  <path d="M6.88399 10.8938C6.58642 11.0836 6.13626 11.1042 5.87856 10.9398C5.62087 10.7755 5.65317 10.4885 5.95075 10.2987C6.24833 10.1089 6.69849 10.0883 6.95618 10.2527C7.21388 10.417 7.18157 10.704 6.88399 10.8938Z" fill="url(#paint6_linear_157_2099)"/>
  <path d="M16.2976 1.88831C16 2.07807 15.5498 2.09869 15.2921 1.93435C15.0344 1.77001 15.0667 1.48296 15.3643 1.29321C15.6619 1.10346 16.1121 1.08283 16.3698 1.24717C16.6275 1.41151 16.5951 1.69856 16.2976 1.88831Z" fill="url(#paint7_linear_157_2099)"/>
  <path d="M2.79757 4.70069C2.49999 4.89045 2.04983 4.91107 1.79214 4.74673C1.53444 4.58239 1.56675 4.29534 1.86433 4.10559C2.1619 3.91583 2.61206 3.89521 2.86976 4.05955C3.12745 4.22385 3.09515 4.51089 2.79757 4.70069Z" fill="url(#paint8_linear_157_2099)"/>
  <path d="M7.80645 11.2003C7.65681 11.2958 7.43048 11.3061 7.30087 11.2235C7.17126 11.1409 7.18755 10.9965 7.33716 10.9011C7.48681 10.8056 7.71313 10.7953 7.84274 10.878C7.97231 10.9606 7.95606 11.1049 7.80645 11.2003Z" fill="url(#paint9_linear_157_2099)"/>
  <path d="M16.9544 7.66311C16.8048 7.75855 16.5784 7.7689 16.4488 7.68628C16.3192 7.60366 16.3355 7.45929 16.4851 7.36385C16.6348 7.26842 16.8611 7.25806 16.9907 7.34073C17.1203 7.42331 17.1041 7.56767 16.9544 7.66311Z" fill="url(#paint10_linear_157_2099)"/>
  <path d="M17.3123 1.51447C17.1627 1.60991 16.9363 1.62026 16.8067 1.5376C16.6771 1.45497 16.6934 1.31061 16.843 1.21517C16.9927 1.11973 17.219 1.10938 17.3486 1.19205C17.4782 1.27471 17.462 1.41903 17.3123 1.51447Z" fill="url(#paint11_linear_157_2099)"/>
  <path d="M15.5692 1.14826C15.4195 1.2437 15.1932 1.25405 15.0636 1.17139C14.934 1.08876 14.9502 0.944398 15.0999 0.848961C15.2495 0.753523 15.4758 0.743168 15.6055 0.825835C15.7351 0.908502 15.7188 1.05282 15.5692 1.14826Z" fill="url(#paint12_linear_157_2099)"/>
  <path d="M16.265 3.94868C15.8799 4.21774 16.3506 4.52787 16.0226 5.38102C15.6945 6.23418 15.1817 7.39997 14.0617 8.04586C12.9418 8.69174 11.7865 9.27464 12.0717 9.54244C12.357 9.81025 13.9715 9.2431 15.1183 8.48693C16.265 7.73077 15.4806 7.13868 16.7785 6.68643C18.0764 6.23418 18.2618 4.28073 17.6913 3.19372C17.1208 2.10672 16.1081 2.154 16.4219 3.02045C16.7357 3.8869 16.265 3.94868 16.265 3.94868Z" fill="url(#paint13_linear_157_2099)"/>
  <path d="M4.05609 3.94853C3.57386 4.55606 2.98636 5.0525 2.27324 5.14703C1.56011 5.24156 1.01812 5.76142 0.989607 6.89567C0.961091 8.02992 1.66136 8.97515 3.04418 9.47926C4.42695 9.98337 5.15437 9.92038 4.69796 9.2902C4.24156 8.66006 3.01496 8.61277 2.67265 7.41553C2.33035 6.21824 3.57121 5.38735 4.14171 4.85761C4.71222 4.32783 5.21144 3.61895 4.71222 3.17783C4.21296 2.73671 4.2771 3.67007 4.05609 3.94853Z" fill="url(#paint14_linear_157_2099)"/>
  <defs>
    <linearGradient id="paint0_linear_157_2099" x1="5.89228" y1="2.92259" x2="23.9907" y2="12.9175" gradientUnits="userSpaceOnUse">
      <stop stop-color="#F2EFFA"/>
      <stop offset="1" stop-color="white"/>
    </linearGradient>
    <linearGradient id="paint1_linear_157_2099" x1="8.01456" y1="6.55974" x2="2.62179" y2="6.55974" gradientUnits="userSpaceOnUse">
      <stop stop-color="#7662BD"/>
      <stop offset="1" stop-color="#7662BD" stop-opacity="0"/>
    </linearGradient>
    <radialGradient id="paint2_radial_157_2099" cx="0" cy="0" r="1" gradientUnits="userSpaceOnUse" gradientTransform="translate(9.21039 4.18421) rotate(-9.0647) scale(4.03589 2.76569)">
      <stop offset="0.0087" stop-color="#FFC538"/>
      <stop offset="0.5064" stop-color="#FFC338"/>
      <stop offset="0.7377" stop-color="#FFBB38"/>
      <stop offset="0.9134" stop-color="#FFAF38"/>
      <stop offset="1" stop-color="#FFA538"/>
    </radialGradient>
    <linearGradient id="paint3_linear_157_2099" x1="13.1804" y1="6.96209" x2="11.1869" y2="5.10564" gradientUnits="userSpaceOnUse">
      <stop stop-color="white"/>
      <stop offset="1" stop-color="white" stop-opacity="0"/>
    </linearGradient>
    <linearGradient id="paint4_linear_157_2099" x1="8.21228" y1="3.60137" x2="6.34699" y2="6.08554" gradientUnits="userSpaceOnUse">
      <stop stop-color="white"/>
      <stop offset="1" stop-color="white" stop-opacity="0"/>
    </linearGradient>
    <linearGradient id="paint5_linear_157_2099" x1="6.53041" y1="25.5907" x2="10.7791" y2="5.07523" gradientUnits="userSpaceOnUse">
      <stop stop-color="#7662BD"/>
      <stop offset="1" stop-color="#7662BD" stop-opacity="0"/>
    </linearGradient>
    <linearGradient id="paint6_linear_157_2099" x1="6.41735" y1="13.7998" x2="6.41735" y2="10.1748" gradientUnits="userSpaceOnUse">
      <stop stop-color="#7662BD"/>
      <stop offset="1" stop-color="#7662BD" stop-opacity="0"/>
    </linearGradient>
    <linearGradient id="paint7_linear_157_2099" x1="15.8309" y1="4.79433" x2="15.8309" y2="1.16934" gradientUnits="userSpaceOnUse">
      <stop stop-color="#7662BD"/>
      <stop offset="1" stop-color="#7662BD" stop-opacity="0"/>
    </linearGradient>
    <linearGradient id="paint8_linear_157_2099" x1="2.33093" y1="7.60667" x2="2.33093" y2="3.98167" gradientUnits="userSpaceOnUse">
      <stop stop-color="#7662BD"/>
      <stop offset="1" stop-color="#7662BD" stop-opacity="0"/>
    </linearGradient>
    <linearGradient id="paint9_linear_157_2099" x1="7.57181" y1="12.6616" x2="7.57181" y2="10.8388" gradientUnits="userSpaceOnUse">
      <stop stop-color="#7662BD"/>
      <stop offset="1" stop-color="#7662BD" stop-opacity="0"/>
    </linearGradient>
    <linearGradient id="paint10_linear_157_2099" x1="16.7198" y1="9.12436" x2="16.7198" y2="7.30155" gradientUnits="userSpaceOnUse">
      <stop stop-color="#7662BD"/>
      <stop offset="1" stop-color="#7662BD" stop-opacity="0"/>
    </linearGradient>
    <linearGradient id="paint11_linear_157_2099" x1="17.0777" y1="2.97576" x2="17.0777" y2="1.15291" gradientUnits="userSpaceOnUse">
      <stop stop-color="#7662BD"/>
      <stop offset="1" stop-color="#7662BD" stop-opacity="0"/>
    </linearGradient>
    <linearGradient id="paint12_linear_157_2099" x1="15.3345" y1="2.60955" x2="15.3345" y2="0.786702" gradientUnits="userSpaceOnUse">
      <stop stop-color="#7662BD"/>
      <stop offset="1" stop-color="#7662BD" stop-opacity="0"/>
    </linearGradient>
    <linearGradient id="paint13_linear_157_2099" x1="17.0927" y1="7.6453" x2="13.3704" y2="5.67607" gradientUnits="userSpaceOnUse">
      <stop stop-color="white"/>
      <stop offset="1" stop-color="white" stop-opacity="0"/>
    </linearGradient>
    <linearGradient id="paint14_linear_157_2099" x1="0.581248" y1="8.54072" x2="3.74327" y2="7.16545" gradientUnits="userSpaceOnUse">
      <stop stop-color="white"/>
      <stop offset="1" stop-color="white" stop-opacity="0"/>
    </linearGradient>
  </defs>
</svg>
