<svg width="141" height="200" viewBox="0 0 141 200" fill="none" xmlns="http://www.w3.org/2000/svg">
  <path d="M45.1068 179.389H36.6865C36.5376 179.399 36.3882 179.379 36.2475 179.329C36.1069 179.279 35.9781 179.201 35.869 179.099C35.76 178.998 35.673 178.875 35.6136 178.739C35.5541 178.603 35.5234 178.456 35.5234 178.307C35.5234 178.158 35.5541 178.011 35.6136 177.875C35.673 177.739 35.76 177.616 35.869 177.514C35.9781 177.413 36.1069 177.335 36.2475 177.285C36.3882 177.235 36.5376 177.215 36.6865 177.225H43.7794L37.3403 145.115C37.2988 144.839 37.3653 144.558 37.5263 144.33C37.6872 144.102 37.9301 143.944 38.2047 143.89C38.4793 143.835 38.7644 143.888 39.0009 144.037C39.2375 144.186 39.4073 144.42 39.4751 144.691L46.1569 178.097C46.1889 178.249 46.1882 178.406 46.1549 178.557C46.1216 178.708 46.0564 178.851 45.9637 178.975C45.8619 179.105 45.7319 179.209 45.5834 179.281C45.4349 179.353 45.2719 179.39 45.1068 179.389V179.389Z" fill="#79302A"/>
  <path d="M55.1567 179.389H62.8752C63.0118 179.399 63.1487 179.379 63.2776 179.329C63.4066 179.279 63.5247 179.201 63.6246 179.099C63.7246 178.998 63.8043 178.875 63.8588 178.739C63.9133 178.603 63.9414 178.456 63.9414 178.307C63.9414 178.158 63.9133 178.011 63.8588 177.875C63.8043 177.739 63.7246 177.616 63.6246 177.514C63.5247 177.413 63.4066 177.335 63.2776 177.285C63.1487 177.235 63.0118 177.215 62.8752 177.225H56.3735L62.2759 145.115C62.314 144.839 62.253 144.558 62.1055 144.33C61.958 144.102 61.7353 143.944 61.4836 143.89C61.2319 143.835 60.9705 143.888 60.7537 144.037C60.5369 144.186 60.3812 144.42 60.319 144.691L54.1941 178.097C54.1648 178.249 54.1654 178.406 54.1959 178.557C54.2264 178.708 54.2862 178.851 54.3712 178.975C54.4645 179.105 54.5837 179.209 54.7198 179.281C54.8559 179.353 55.0053 179.39 55.1567 179.389V179.389Z" fill="#79302A"/>
  <path d="M96.4131 138.413C96.6929 138.412 96.963 138.308 97.1748 138.12C97.3865 137.931 97.5259 137.671 97.5678 137.386C99.4067 124.596 98.2435 115.644 94.108 110.709C91.1786 107.216 87.8171 107.18 87.6675 107.18C87.3695 107.199 87.0896 107.334 86.885 107.558C86.6804 107.783 86.5664 108.079 86.5664 108.387C86.5664 108.694 86.6804 108.991 86.885 109.215C87.0896 109.439 87.3695 109.574 87.6675 109.593C87.7915 109.593 90.1992 109.677 92.4059 112.362C94.8949 115.392 97.4096 122.127 95.2584 137.033C95.2131 137.349 95.2911 137.671 95.4755 137.928C95.6598 138.185 95.9355 138.357 96.2421 138.404C96.2988 138.412 96.356 138.415 96.4131 138.413Z" fill="#79302A"/>
  <path d="M87.6404 64.2927C79.3801 46.9342 31.0444 43.1284 12.25 66.3666V136.147C31.0444 159.385 79.3627 155.579 87.6404 138.221V64.2927Z" fill="#FFC419"/>
  <path d="M81.1801 65.7434C63.7083 80.659 37.9333 82.5002 17.6367 68.9256C35.1041 54.0008 60.8791 52.1597 81.1801 65.7434Z" fill="#EC691C"/>
  <path d="M65.5647 143.799C65.1362 143.799 64.7253 143.654 64.4224 143.396C64.1194 143.138 63.9492 142.788 63.9492 142.423V84.8621C63.9492 84.4972 64.1194 84.1472 64.4224 83.8892C64.7253 83.6312 65.1362 83.4862 65.5647 83.4862C65.9931 83.4862 66.404 83.6312 66.707 83.8892C67.0099 84.1472 67.1801 84.4972 67.1801 84.8621V142.405C67.1829 142.587 67.1431 142.768 67.0631 142.937C66.9832 143.106 66.8646 143.26 66.7143 143.389C66.5641 143.519 66.3851 143.622 66.1877 143.692C65.9904 143.762 65.7786 143.799 65.5647 143.799V143.799Z" fill="#FF9D00"/>
  <path d="M36.4826 143.799C36.0542 143.799 35.6433 143.654 35.3404 143.396C35.0374 143.138 34.8672 142.788 34.8672 142.423V84.8621C34.8672 84.4972 35.0374 84.1472 35.3404 83.8892C35.6433 83.6312 36.0542 83.4862 36.4826 83.4862C36.9111 83.4862 37.322 83.6312 37.6249 83.8892C37.9279 84.1472 38.0981 84.4972 38.0981 84.8621V142.405C38.1008 142.587 38.0611 142.768 37.9811 142.937C37.9012 143.106 37.7826 143.26 37.6323 143.389C37.482 143.519 37.303 143.622 37.1057 143.692C36.9083 143.762 36.6965 143.799 36.4826 143.799V143.799Z" fill="#FF9D00"/>
  <path d="M80.6429 137.337C80.2144 137.337 79.8035 137.194 79.5005 136.941C79.1975 136.687 79.0273 136.343 79.0273 135.985V79.453C79.0273 79.0945 79.1975 78.7506 79.5005 78.4971C79.8035 78.2436 80.2144 78.1012 80.6429 78.1012C81.0713 78.1012 81.4822 78.2436 81.7852 78.4971C82.0882 78.7506 82.2584 79.0945 82.2584 79.453V135.985C82.2584 136.343 82.0882 136.687 81.7852 136.941C81.4822 137.194 81.0713 137.337 80.6429 137.337V137.337Z" fill="#FF9D00"/>
  <path d="M21.9441 136.259C21.6585 136.259 21.3846 136.114 21.1826 135.856C20.9806 135.598 20.8672 135.248 20.8672 134.883V80.5546C20.8672 80.1895 20.9806 79.8394 21.1826 79.5813C21.3846 79.3231 21.6585 79.1781 21.9441 79.1781C22.2298 79.1781 22.5037 79.3231 22.7057 79.5813C22.9076 79.8394 23.0211 80.1895 23.0211 80.5546V134.865C23.0229 135.047 22.9964 135.228 22.9431 135.397C22.8898 135.567 22.8108 135.72 22.7106 135.85C22.6104 135.98 22.4911 136.083 22.3595 136.153C22.2279 136.223 22.0867 136.259 21.9441 136.259V136.259Z" fill="#FF9D00"/>
  <path d="M28.9065 135.47C28.7328 135.687 28.4839 135.833 28.2051 135.88C27.9262 135.927 27.636 135.873 27.3873 135.727C16.2409 129.245 9.92063 122.769 8.60252 116.482C7.66767 112.027 9.72042 109.383 9.81015 109.269C10.0012 109.028 10.2839 108.875 10.5961 108.844C10.9083 108.814 11.2244 108.908 11.4748 109.106C11.7252 109.304 11.8895 109.59 11.9314 109.901C11.9734 110.212 11.8896 110.522 11.6985 110.763C11.622 110.86 10.208 112.789 10.9498 116.18C11.7864 119.999 15.5193 126.141 28.5366 133.713C28.8122 133.873 29.016 134.134 29.1032 134.437C29.1905 134.74 29.154 135.06 29.0018 135.328C28.9753 135.379 28.9433 135.426 28.9065 135.47V135.47Z" fill="#79302A"/>
  <path d="M63.2086 110.281C67.2217 109.341 69.7131 105.326 68.7733 101.313C67.8335 97.2998 63.8185 94.8084 59.8054 95.7482C55.7923 96.688 53.3009 100.703 54.2407 104.716C55.1805 108.729 59.1955 111.221 63.2086 110.281Z" fill="#FFF7F5"/>
  <path d="M58.9557 104.107C59.5981 104.108 60.2277 103.927 60.7709 103.584C61.3141 103.24 61.7484 102.749 62.0232 102.168C62.298 101.587 62.4018 100.939 62.3225 100.301C62.2432 99.6629 61.9841 99.0605 61.5754 98.5643C62.5184 98.6266 63.4227 98.9635 64.177 99.5336C64.9312 100.104 65.5025 100.882 65.8206 101.773C66.1386 102.664 66.1895 103.628 65.967 104.548C65.7444 105.468 65.2582 106.302 64.5681 106.948C63.8781 107.595 63.0142 108.025 62.083 108.186C61.1517 108.348 60.1937 108.233 59.3268 107.856C58.4599 107.479 57.7219 106.857 57.2037 106.066C56.6855 105.275 56.4096 104.349 56.4102 103.403C56.4102 103.254 56.4102 103.11 56.432 102.966C56.7476 103.325 57.1359 103.612 57.5711 103.808C58.0062 104.005 58.4782 104.107 58.9557 104.107V104.107Z" fill="#79302A"/>
  <path d="M41.7321 110.279C45.7451 109.34 48.2365 105.325 47.2968 101.311C46.357 97.2984 42.3419 94.807 38.3288 95.7467C34.3157 96.6865 31.8243 100.702 32.7641 104.715C33.7039 108.728 37.719 111.219 41.7321 110.279Z" fill="#FFF7F5"/>
  <path d="M37.4083 104.107C38.0507 104.108 38.6803 103.927 39.2235 103.584C39.7667 103.24 40.2011 102.749 40.4759 102.168C40.7506 101.587 40.8544 100.939 40.7752 100.301C40.6959 99.6629 40.4367 99.0605 40.0281 98.5643C40.9714 98.6257 41.8761 98.9619 42.631 99.5315C43.3859 100.101 43.9578 100.879 44.2765 101.77C44.5952 102.661 44.6467 103.626 44.4246 104.546C44.2025 105.465 43.7166 106.3 43.0267 106.947C42.3367 107.594 41.4729 108.024 40.5415 108.186C39.6101 108.348 38.6518 108.233 37.7846 107.857C36.9175 107.48 36.1792 106.858 35.6609 106.066C35.1425 105.275 34.8666 104.349 34.8672 103.403C34.8672 103.254 34.8672 103.11 34.889 102.966C35.2038 103.324 35.5913 103.611 36.0258 103.808C36.4602 104.005 36.9315 104.107 37.4083 104.107V104.107Z" fill="#79302A"/>
  <path d="M49.2821 124.322C49.8616 124.429 50.4485 124.492 51.0376 124.508C54.092 124.598 56.6185 123.552 58.5394 121.399C58.6469 121.279 58.7298 121.139 58.7833 120.986C58.8368 120.834 58.8599 120.673 58.8513 120.511C58.8427 120.35 58.8026 120.192 58.7332 120.047C58.6639 119.901 58.5666 119.771 58.447 119.663C58.3274 119.555 58.1878 119.472 58.0361 119.419C57.8845 119.366 57.7238 119.343 57.5632 119.351C57.4027 119.36 57.2454 119.401 57.1003 119.471C56.9552 119.541 56.8253 119.639 56.7178 119.759C56.0181 120.544 55.1493 121.158 54.1777 121.556C53.2061 121.953 52.1574 122.122 51.1115 122.051C48.846 121.983 47.0376 121.114 45.7772 119.47C45.5739 119.227 45.2848 119.072 44.9701 119.038C44.6555 119.004 44.3398 119.093 44.0889 119.287C43.838 119.481 43.6713 119.765 43.6237 120.08C43.5761 120.394 43.6513 120.714 43.8335 120.974C45.1633 122.74 47.1094 123.936 49.2821 124.322V124.322Z" fill="#79302A"/>
  <path d="M46.5639 43.2263L14.2933 45.8022L22.9215 75.5058C41.2169 80.4179 61.618 80.8494 77.9367 71.2342L78.3292 38.9085L46.5639 43.2263Z" fill="#F5F5F5"/>
  <g style="mix-blend-mode:multiply">
    <path d="M46.5643 43.226L13.9045 44.4604L22.9219 75.508C32.07 77.9641 41.7437 79.3 51.1706 78.8158C60.5975 78.3316 69.7777 76.0393 77.9371 71.2321L78.3296 38.9065L46.5643 43.226Z" fill="#EDF4FF"/>
  </g>
  <g style="mix-blend-mode:multiply">
    <path d="M14.7982 47.5422L20.0941 65.7747C24.5257 65.0794 21.8609 54.4162 35.5378 57.133C40.9049 58.1988 46.4787 54.9221 50.9014 52.7814C55.3242 50.6406 59.918 55.0883 63.6568 54.5808C67.3955 54.0732 74.9362 47.9871 78.0598 61.0527L78.3263 38.9101L46.5635 43.2261L14.7982 47.5422Z" fill="#CEDEF5"/>
  </g>
  <path d="M63.2612 6.17681C62.3126 6.30838 61.3724 6.49449 60.4453 6.7342C54.797 1.96328 47.0631 -0.498008 38.946 0.604164C30.913 1.69629 24.1706 6.05665 19.9934 12.07C7.52847 14.0624 -1.18873 25.1787 0.444105 37.1776C2.10144 49.358 13.8005 57.8278 26.5727 56.0904C30.609 55.5503 34.4424 53.9968 37.7147 51.5751C43.9691 52.5489 50.3697 51.3998 55.8934 48.3114C60.069 50.236 64.7098 50.9227 69.2645 50.2897C82.0386 48.5541 91.5198 40.745 89.3899 25.0931C87.3561 10.1495 76.0335 4.44201 63.2612 6.17681Z" fill="#F5F5F5"/>
  <g style="mix-blend-mode:multiply">
    <path d="M26.573 56.087C30.6096 55.547 34.4432 53.9935 37.7158 51.5717C43.9702 52.5455 50.3708 51.3963 55.8945 48.3079C60.0701 50.2326 64.7109 50.9192 69.2656 50.2863C82.0397 48.5506 91.5209 40.7415 89.391 25.0896C87.3572 10.1495 76.0346 4.44197 63.2623 6.17677C62.3138 6.30834 61.3736 6.49445 60.4465 6.73417C57.2974 4.08644 53.5854 2.19103 49.5928 1.19212C63.7809 10.8902 60.198 27.4714 57.534 30.0057C57.8924 28.921 56.794 24.7203 55.4065 25.9059C54.2688 26.8754 55.8085 29.4705 54.8604 35.2184C53.8671 41.241 50.3529 42.882 49.2531 43.9738C46.6171 46.5884 45.3439 42.8965 40.1197 44.8125C36.531 46.1249 28.5809 24.9781 26.0192 26.1397C23.4575 27.3014 26.4215 37.0897 26.4215 37.0897C19.043 31.5007 20.1399 12.5825 20.1399 12.5825C13.4969 33.0486 26.7579 46.5542 26.7579 46.5542C26.7579 46.5542 13.1212 53.2947 6.1464 42.015C1.92468 35.187 3.84575 22.3981 9.71623 16.2849C3.13445 21.0136 -0.683267 28.8822 0.445221 37.1775C2.10253 49.3546 13.8015 57.8218 26.573 56.087Z" fill="#E3EFFF"/>
  </g>
  <path d="M64.5417 9.76664C64.2172 9.84932 63.9368 10.0531 63.7582 10.3361C63.5796 10.619 63.5163 10.9596 63.5814 11.2878C64.0935 13.821 65.6883 19.5888 69.7 20.4904C74.867 21.6528 81.9792 21.4908 81.6047 18.6385C81.2454 15.8753 76.3058 6.76176 64.5417 9.76664Z" fill="#F5F5F5"/>
  <g style="mix-blend-mode:multiply">
    <path d="M32.5674 49.5654C32.5352 49.6256 32.359 49.5909 32.0716 49.4833C31.9279 49.4286 31.7574 49.3553 31.5628 49.2658C31.3682 49.1764 31.1673 49.0467 30.9398 48.9137C30.0391 48.3768 28.9342 47.4984 27.9784 46.4791C26.0198 44.4615 24.7996 41.9018 25.0639 41.785C25.2887 41.6676 26.6926 43.991 28.5707 45.9243C29.4166 46.8183 30.3249 47.6511 31.2889 48.4165L31.8275 48.8498C31.9932 48.9712 32.1365 49.0824 32.2513 49.1793C32.481 49.3671 32.5996 49.506 32.5674 49.5654Z" fill="#D5E0F0"/>
  </g>
  <g style="mix-blend-mode:multiply">
    <path d="M28.4125 39.3727C27.3342 36.5075 26.9772 34.4105 26.8318 33.0758C26.6864 31.741 26.785 31.1384 26.9222 31.1289C27.0595 31.1193 27.224 31.6745 27.5363 32.9531C27.8487 34.2317 28.3131 36.2397 29.3564 39.0125C30.3672 41.8001 32.037 44.6909 33.6812 46.6687C35.3254 48.6466 36.8353 49.7561 36.7291 49.9044C36.6834 49.9904 34.9887 49.0821 33.1449 47.1425C31.3011 45.221 29.454 42.2526 28.4125 39.3727Z" fill="#D5E0F0"/>
  </g>
  <g style="mix-blend-mode:multiply">
    <path d="M56.0069 35.8264C56.122 33.8536 56.2021 32.4958 56.2532 31.6175C56.3197 30.7433 56.4155 30.3577 56.5519 30.3464C56.6883 30.3351 56.8515 30.712 56.9687 31.5985C57.0859 32.485 57.1571 33.8828 57.0158 35.8987C56.8744 37.9146 56.4798 40.1535 55.9721 41.8385C55.4644 43.5235 54.8925 44.6466 54.7746 44.5994C54.6318 44.5456 54.9637 43.3566 55.2774 41.6704C55.6301 39.7376 55.8737 37.7865 56.0069 35.8264Z" fill="#D5E0F0"/>
  </g>
  <g style="mix-blend-mode:multiply">
    <path d="M63.8597 32.0905C63.9506 32.0898 64.0084 32.3543 64.0366 32.8154C64.0512 33.0459 64.0593 33.3296 64.0608 33.6485C64.0623 33.9675 64.0048 34.328 63.9648 34.7227C63.7876 36.2947 63.2149 38.3617 62.2677 40.2549C61.812 41.1833 61.2861 42.0757 60.6945 42.9243C60.1767 43.6597 59.6083 44.3584 58.9935 45.015C57.9181 46.1675 57.0231 46.7579 56.9079 46.6225C56.7928 46.487 57.4668 45.7207 58.3718 44.4923C59.2767 43.2639 60.4169 41.5905 61.2953 39.7776C62.1115 38.1206 62.7387 36.3772 63.1648 34.5802C63.2479 34.2109 63.3433 33.8733 63.4054 33.5702C63.4675 33.2671 63.5119 33.0001 63.5644 32.7811C63.6693 32.3405 63.7695 32.0868 63.8597 32.0905Z" fill="#D5E0F0"/>
  </g>
  <path d="M26.6528 64.7894C25.0786 66.1479 24.8351 66.9899 25.2388 69.0292C25.4028 69.8545 25.6563 71.1875 26.3317 71.8925C28.6476 74.307 36.6441 76.7689 42.2648 74.2678C45.2586 72.9358 48.7442 73.1297 51.1577 71.1812C53.2751 69.4715 54.4716 66.6985 56.4084 65.5045C60.5526 62.956 63.7793 57.8027 61.1418 57.4165C58.5044 57.0304 52.1871 54.4146 48.1034 58.1982C44.0196 61.9817 37.2343 57.6873 32.8645 60.2658C30.3319 61.7607 28.0949 63.5528 26.6528 64.7894Z" fill="#F5F5F5"/>
  <g clip-path="url(#clip0_77_13281)">
    <path d="M108.88 185.483C127.75 176.335 135.63 153.622 126.482 134.753C117.333 115.884 94.6208 108.004 75.7516 117.152C56.8824 126.3 49.0021 149.013 58.1504 167.882C67.2987 186.751 90.0113 194.631 108.88 185.483Z" fill="#EF4444"/>
    <path style="mix-blend-mode:screen" opacity="0.3" d="M56.6928 141.272C59.4962 133.192 64.9452 126.296 72.1572 121.699C79.3692 117.103 87.9218 115.075 96.4297 115.946C104.937 116.817 112.902 120.534 119.034 126.496C125.165 132.458 129.104 140.316 130.213 148.796C129.874 143.719 128.519 138.762 126.227 134.22C123.935 129.677 120.754 125.642 116.872 122.353C112.99 119.063 108.487 116.588 103.63 115.073C98.773 113.558 93.661 113.035 88.5977 113.534C83.5343 114.033 78.6229 115.545 74.1551 117.979C69.6873 120.413 65.7543 123.72 62.5895 127.704C59.4247 131.688 57.0927 136.267 55.7321 141.169C54.3714 146.072 54.0098 151.198 54.6687 156.243C54.3303 151.167 55.0187 146.076 56.6928 141.272V141.272Z" fill="url(#paint0_linear_77_13281)"/>
    <path d="M84.8503 172.833L79.3077 165.734C77.4102 163.27 75.6437 160.708 74.0154 158.058C70.4627 152.241 66.7348 144.56 69.4442 136.751C70.4721 133.788 72.4695 131.259 75.1131 129.572C77.7568 127.885 80.8922 127.139 84.0123 127.455C87.1324 127.771 90.0547 129.13 92.3066 131.313C94.5585 133.495 96.0083 136.374 96.4215 139.483C98.6713 137.298 101.592 135.936 104.712 135.617C107.832 135.298 110.968 136.041 113.613 137.725C116.259 139.41 118.258 141.937 119.289 144.899C120.32 147.861 120.321 151.084 119.293 154.047C116.584 161.856 108.9 165.577 102.51 167.944C99.5902 169.015 96.6163 169.932 93.6007 170.693L84.8503 172.833Z" fill="white"/>
  </g>
  <defs>
    <linearGradient id="paint0_linear_77_13281" x1="36.4478" y1="98.9456" x2="112.881" y2="161.463" gradientUnits="userSpaceOnUse">
      <stop offset="0.03" stop-color="#EC2E46"/>
      <stop offset="0.15" stop-color="#D3293F"/>
      <stop offset="0.43" stop-color="#931D2C"/>
      <stop offset="0.83" stop-color="#2D090D"/>
      <stop offset="0.99"/>
    </linearGradient>
    <clipPath id="clip0_77_13281">
      <rect width="75.9412" height="75.9412" fill="white" transform="translate(68.8906 103) rotate(19.1346)"/>
    </clipPath>
  </defs>
</svg>
