<svg width="18" height="18" viewBox="0 0 18 18" fill="none" xmlns="http://www.w3.org/2000/svg">
  <path d="M10.5307 12.0355H10.7768V13.4995H10.5307V12.0355ZM7.22266 12.0355H7.46869V13.4995H7.22266V12.0355Z" fill="#FF6600" stroke="#374151"/>
  <path d="M4.94762 3.38807H5.34459C5.65245 2.67896 6.16268 2.07493 6.81229 1.65054C7.4619 1.22616 8.22244 1 9 1C9.77756 1 10.5381 1.22616 11.1877 1.65054C11.8373 2.07493 12.3476 2.67896 12.6554 3.38807H13.0524C13.5659 3.38228 14.0756 3.4772 14.5521 3.66738C15.0287 3.85755 15.4627 4.13925 15.8294 4.49632C16.1962 4.85339 16.4883 5.27882 16.6892 5.74823C16.8901 6.21764 16.9957 6.7218 17 7.23182C16.994 8.02573 16.7406 8.79832 16.2746 9.44344C15.8087 10.0886 15.153 10.5746 14.3977 10.8347V15.0617C14.3979 15.5664 14.1998 16.0513 13.8456 16.4133C13.4914 16.7753 13.0091 16.9857 12.501 17H5.5541C5.03646 17 4.54003 16.7958 4.174 16.4323C3.80797 16.0688 3.60234 15.5758 3.60234 15.0617V10.8347C2.84702 10.5746 2.19132 10.0886 1.72535 9.44344C1.25938 8.79832 1.00599 8.02573 1 7.23182C1.00432 6.7218 1.10994 6.21764 1.31081 5.74823C1.51167 5.27882 1.80384 4.85339 2.17056 4.49632C2.53728 4.13925 2.97135 3.85755 3.44789 3.66738C3.92443 3.4772 4.43408 3.38228 4.94762 3.38807V3.38807Z" stroke="#374151" stroke-width="1.5" stroke-miterlimit="22.93"/>
</svg>
