<svg width="18" height="18" viewBox="0 0 18 18" fill="none" xmlns="http://www.w3.org/2000/svg">
  <path d="M10.531 12.0355H10.777V13.4995H10.531V12.0355ZM7.2229 12.0355H7.46894V13.4995H7.2229V12.0355Z" fill="#001E37" stroke="#001E37"/>
  <path d="M17.5 7.23559L17.5 7.23559L17.5 7.22759C17.4951 6.6513 17.3758 6.08173 17.1489 5.55153C16.922 5.02134 16.5921 4.54105 16.1783 4.13809C15.7644 3.73513 15.2748 3.41742 14.7374 3.20299C14.201 2.98892 13.6275 2.88194 13.0497 2.88807H12.9698C12.6174 2.21897 12.0987 1.64846 11.4612 1.23195C10.7301 0.754327 9.87447 0.5 9 0.5C8.12552 0.5 7.26993 0.754327 6.53883 1.23195C5.90128 1.64846 5.38262 2.21897 5.03024 2.88807H4.95035C4.37249 2.88194 3.79898 2.98892 3.26257 3.20299C2.72525 3.41742 2.23559 3.73513 1.82175 4.13809C1.4079 4.54105 1.078 5.02134 0.851124 5.55153C0.624244 6.08173 0.504898 6.6513 0.500018 7.22759L0.499954 7.22759L0.500014 7.23559C0.506789 8.13359 0.793415 9.00714 1.32003 9.73621L1.72111 9.44651L1.32003 9.73621C1.77587 10.3673 2.39206 10.8632 3.10234 11.1755V15.0617C3.10234 15.7095 3.3615 16.3301 3.82167 16.7871C4.28173 17.2439 4.90497 17.5 5.5541 17.5H12.501V17.5002L12.5151 17.4998C13.1522 17.4819 13.7578 17.218 14.203 16.763C14.6483 16.3079 14.8979 15.6976 14.8977 15.0617C14.8977 15.0616 14.8977 15.0616 14.8977 15.0615V11.1755C15.6079 10.8632 16.2241 10.3673 16.68 9.73621C17.2066 9.00714 17.4932 8.13359 17.5 7.23559Z" stroke="#001E37" stroke-miterlimit="22.93"/>
</svg>
