<svg width="16" height="16" viewBox="0 0 16 16" fill="none" xmlns="http://www.w3.org/2000/svg">
  <path fill-rule="evenodd" clip-rule="evenodd" d="M3.95043 2.39426H4.34935C4.65493 1.68432 5.16627 1.07866 5.81954 0.652866C6.47282 0.227069 7.23909 0 8.02271 0C8.80634 0 9.57261 0.227069 10.2259 0.652866C10.8792 1.07866 11.3905 1.68432 11.6961 2.39426H12.095C13.0122 2.38806 13.902 2.7019 14.6063 3.28004C15.3106 3.85818 15.7838 4.6632 15.9419 5.55213C16.1 6.44105 15.9328 7.35634 15.4699 8.13544C15.0071 8.91454 14.2785 9.50701 13.4136 9.80764V14.0158C13.421 14.2711 13.3768 14.5252 13.2836 14.7635C13.1904 15.0018 13.0501 15.2195 12.8708 15.4041C12.6914 15.5886 12.4766 15.7363 12.2389 15.8386C12.0011 15.9409 11.745 15.9958 11.4855 16H4.54881C4.02953 15.9971 3.53234 15.7929 3.16515 15.4317C2.79795 15.0704 2.59038 14.5812 2.58747 14.0703V9.80764C1.71964 9.50627 0.989019 8.9111 0.526179 8.1285C0.0633388 7.34591 -0.101558 6.42688 0.0609598 5.53567C0.223478 4.64447 0.702818 3.83916 1.41332 3.26367C2.12381 2.68818 3.01916 2.38002 3.93935 2.39426" fill="#001E37"/>
</svg>
