<svg width="32" height="32" viewBox="0 0 32 32" fill="none" xmlns="http://www.w3.org/2000/svg">
  <path d="M16 32C24.8366 32 32 24.8366 32 16C32 7.16344 24.8366 0 16 0C7.16344 0 0 7.16344 0 16C0 24.8366 7.16344 32 16 32Z" fill="#F6D738"/>
  <path d="M16.001 29.5791C23.5005 29.5791 29.58 23.4995 29.58 16C29.58 8.50046 23.5005 2.4209 16.001 2.4209C8.50144 2.4209 2.42188 8.50046 2.42188 16C2.42188 23.4995 8.50144 29.5791 16.001 29.5791Z" fill="#F3CC30"/>
  <path d="M23.1051 4.4104C24.5038 6.59314 25.2453 9.13209 25.2412 11.7245C25.2412 19.2241 19.1617 25.3036 11.6622 25.3036C9.15339 25.3076 6.69305 24.6131 4.55664 23.298C5.78392 25.2199 7.47585 26.8014 9.47606 27.8964C11.4763 28.9914 13.7202 29.5646 16.0005 29.5629C23.5001 29.5629 29.5816 23.4834 29.5816 15.9838C29.5826 13.6617 28.9876 11.3783 27.8537 9.35193C26.7197 7.32557 25.0847 5.62413 23.1051 4.4104Z" fill="#EDBD31"/>
  <path d="M4.80018 17.2427C4.80018 10.6224 10.1671 5.25551 16.7873 5.25551C18.6241 5.25407 20.4365 5.67546 22.0842 6.48703C23.7319 7.29861 25.1707 8.47859 26.2891 9.93557C25.2387 8.10752 23.7245 6.58898 21.8995 5.53331C20.0745 4.47764 18.0032 3.92221 15.8949 3.9231C9.27313 3.9231 3.90822 9.28952 3.90822 15.9097C3.90439 18.5534 4.77842 21.1236 6.39313 23.2168C5.34656 21.3999 4.79714 19.3394 4.80018 17.2427Z" fill="#F7DB5E"/>
  <path d="M17.1209 7.23547V8.96549C17.8153 9.07736 18.3832 9.30682 18.8247 9.65387C19.2661 10.0009 19.6861 10.5334 20.0845 11.2513L18.3636 12.2134C17.8455 11.2727 17.1689 10.8023 16.3337 10.8023C15.8157 10.8023 15.386 10.9554 15.0446 11.2614C14.8803 11.4033 14.7492 11.5797 14.6608 11.7781C14.5724 11.9764 14.5288 12.1918 14.5332 12.4089C14.5332 12.8265 14.6714 13.1735 14.9479 13.45C15.2197 13.7222 15.7675 14.043 16.5912 14.4125C17.197 14.6814 17.786 14.9865 18.355 15.3262C18.8203 15.6117 19.1705 15.8869 19.4057 16.1516C20.0702 16.8692 20.4027 17.737 20.403 18.755C20.403 19.7558 20.1028 20.6385 19.5025 21.4032C18.9085 22.1621 18.1141 22.6739 17.1194 22.9387V24.7659H15.5763V22.9901C14.4233 22.8023 13.5436 22.4052 12.9372 21.7987C12.3308 21.1923 11.8836 20.2567 11.5957 18.9918L13.5374 18.5862C13.8024 19.4808 14.1261 20.1191 14.5085 20.5011C14.9086 20.866 15.4411 21.0484 16.1059 21.0484C16.753 21.0484 17.2944 20.8396 17.7301 20.422C18.1595 20.0104 18.3742 19.478 18.3742 18.8245C18.3742 18.242 18.1948 17.7741 17.836 17.421C17.6535 17.2504 17.3848 17.0577 17.0297 16.843C16.5885 16.5839 16.1332 16.3496 15.666 16.141C14.5237 15.629 13.7736 15.1587 13.4154 14.73C12.8443 14.0887 12.5587 13.3208 12.5587 12.4265C12.5546 12.0234 12.6229 11.6228 12.7603 11.2438C12.895 10.8802 13.0938 10.5438 13.3474 10.2505C13.618 9.94158 13.9388 9.68056 14.2963 9.4785C14.6977 9.25074 15.1281 9.0785 15.5758 8.9665V7.23547H17.1209Z" fill="#D49A34"/>
</svg>
