<svg width="88" height="30" viewBox="0 0 88 30" fill="none" xmlns="http://www.w3.org/2000/svg">
  <path fill-rule="evenodd" clip-rule="evenodd" d="M33.6287 25.6713C30.3748 23.5722 25.951 23.1598 18.8363 25.1557C11.2609 26.9454 8.72364 28.1238 5.36738 25.767C4.09507 24.6402 3.64172 22.7989 3.9927 20.1844C4.80434 15.8832 6.93948 11.7367 10.7564 7.17782C12.8915 4.76947 14.8731 2.72201 17.4689 1.9045C19.4505 1.38895 19.297 2.97978 19.041 3.186C18.7851 3.186 18.3829 3.23756 18.0247 3.44378C17.7687 3.65 17.0083 4.31284 16.9571 5.23346C16.9059 6.61808 18.3318 6.36031 18.9387 5.59435C19.5968 4.72528 20.562 3.08289 19.8015 1.55098C19.4944 0.991243 18.9387 0.630359 18.2221 0.475695C15.831 0.32103 13.5935 1.49943 11.5607 2.72938C7.09304 5.85949 3.48816 10.2122 1.45539 14.97C0.285454 17.8349 -0.782115 21.9298 0.797302 25.3104C2.01843 27.6156 4.55573 28.8456 7.6122 28.5878C9.74734 28.3816 12.3431 27.6672 14.0688 27.2547C15.7945 26.8423 24.6933 23.7711 27.5889 29.096C27.5889 29.096 28.5541 27.2032 30.9964 27.1516C32.9779 26.9454 35.8735 27.7114 37.9575 29.3022C37.2921 28.2858 35.3105 26.7465 33.6287 25.6713Z" fill="#EC3237"/>
  <path fill-rule="evenodd" clip-rule="evenodd" d="M19.7487 7.70151C19.2734 7.39955 18.6665 7.34799 17.9792 7.51739C17.1895 7.70888 16.2974 8.1876 15.3761 8.89464C14.272 9.74161 13.124 10.9126 12.071 12.312C9.62876 15.5378 8.56119 19.2719 9.73113 21.0174C11.2447 22.8144 13.8625 20.7449 15.3688 19.1393C15.5808 18.9184 15.7709 18.6974 15.9318 18.5059L16.0854 18.2997C16.8239 17.519 17.4235 16.5689 17.9792 15.6409C18.1108 15.4126 18.2424 15.1917 18.3741 14.9707C18.3741 14.9707 18.981 13.947 19.0321 13.8954C19.4416 13.8439 19.895 13.6892 20.4068 13.5346C20.4068 13.5346 18.3741 16.9666 18.5788 18.6532C18.63 19.1688 18.5788 21.0616 20.4068 21.6213C22.8491 22.0337 24.7795 20.1336 26.5051 18.447C26.5051 18.447 26.8122 18.1377 26.9658 17.983C26.9146 18.1377 26.8634 18.3954 26.8634 18.3954C26.1542 20.9069 27.1194 21.4151 27.7263 21.6213C29.5543 22.1368 31.7406 19.4707 31.7406 19.4707C31.6894 20.2882 31.5359 21.01 32.3987 21.5697C32.8521 21.7391 33.3127 21.6729 33.7441 21.5108C34.0878 21.3783 34.4095 21.1868 34.6874 21.0026C36.9761 19.3676 38.8553 16.8046 40.3323 14.654H39.3671C39.3671 14.654 37.0273 18.0346 35.5064 18.8005C35.5064 18.8005 35.2504 18.9552 35.0457 18.8005C34.8409 18.6458 34.9433 18.2408 35.0457 17.983L40.8881 7.69415H38.146C38.146 7.69415 37.8389 8.20969 37.8389 8.25388C37.8389 8.25388 37.7877 8.15077 37.7365 8.09922C36.8372 6.84718 35.3601 7.24488 33.7441 8.51166C32.2525 9.68269 30.6365 11.5902 29.2472 13.6303C28.1284 15.2653 26.7026 17.1139 25.2328 18.4396C25.2328 18.4396 23.0465 20.4871 22.0813 18.9994C21.723 18.3881 21.8254 17.5116 22.0301 16.9004C23.1489 13.7776 25.0281 10.9126 27.1632 9.21869C27.7701 8.7547 28.4355 8.6074 28.7353 8.80626C29.0424 9.01248 29.0936 9.4691 28.8889 9.77843C28.377 9.77843 27.9749 9.9331 27.6678 10.2424C27.0097 10.9053 26.8049 11.5755 27.0097 12.1868C27.9749 13.6229 29.9565 10.8022 29.8541 9.11558C29.8029 8.50429 29.4958 7.93719 28.9913 7.62786C28.282 7.16387 27.1632 7.31853 26.4466 7.62786C25.4814 7.98875 24.0044 9.26288 23.0904 10.2424C21.9716 11.4724 20.0924 12.857 19.4782 12.7023C19.7999 12.2604 21.4305 8.93146 19.7487 7.70151ZM33.0714 12.6139C33.2323 12.393 33.4809 12.0616 33.7588 11.7007C34.4315 10.8243 35.2724 9.7637 35.5648 9.54275C36.8372 8.41591 37.3417 8.93146 37.3929 9.23342C36.2741 11.2146 35.0164 13.4904 33.7588 15.5599C33.6491 15.7367 33.5394 15.9208 33.4297 16.0976L33.0202 16.7089C32.4133 17.6295 31.8503 18.3954 30.8851 18.911C30.7315 18.9625 30.5268 18.9625 30.3732 18.8594C30.1685 18.7563 30.1173 18.5501 30.1173 18.3439C30.227 17.6884 30.8851 15.5378 33.0714 12.6139ZM18.0231 13.8954C18.0231 13.8954 18.0231 13.9396 17.9792 13.9838L17.9719 13.9986L16.7508 15.9945C16.3559 16.5321 15.8952 17.1581 15.3761 17.7031C14.9593 18.145 14.5059 18.5354 14.0087 18.8079C13.6504 18.911 13.1971 19.0141 12.9923 18.7048C12.4805 18.0935 12.7364 17.2686 12.9412 16.6058L12.9923 16.348C13.5773 14.7719 14.4986 13.3873 15.3761 12.0542L15.4785 11.8995H15.5296C16.0781 13.0043 17.1676 13.5198 17.9792 13.7776L18.0231 13.7923C18.0743 13.7923 18.0743 13.8439 18.0231 13.8954ZM19.193 11.5902L18.6373 12.8202C18.5349 12.8717 18.4326 12.8717 18.279 12.8202L18.0231 12.7686L17.9792 12.7539C17.2407 12.4961 16.6923 12.0395 16.546 11.4355C16.2901 10.2572 17.3065 9.38809 17.716 9.02721C17.7964 8.96829 17.8841 8.90937 17.9792 8.86518C18.3667 8.67369 18.8493 8.62213 19.1345 8.87254C19.3904 9.13031 19.4416 9.48383 19.4416 9.89627C19.5001 10.4707 19.3466 11.0305 19.193 11.5902Z" fill="#EC3237"/>
  <path fill-rule="evenodd" clip-rule="evenodd" d="M54.1166 15.3315C53.8607 14.7717 53.2026 14.3593 52.5445 14.4108C50.3581 14.6171 48.223 16.4068 47.1043 19.0213C46.4973 20.3544 46.1902 21.4812 45.9855 23.2193C46.6436 22.4534 48.0695 21.1203 49.6489 20.4059C49.6489 20.4059 49.8536 18.7194 50.9724 17.2316C51.3818 16.6203 52.1935 15.5966 53.1587 15.8986C53.9703 16.1563 53.6705 18.4616 52.603 20.6121C51.7913 22.2472 50.5702 23.838 49.3491 24.9648C48.2303 25.8855 46.6582 27.0123 45.2324 26.1432C44.3183 25.6277 43.9089 24.5082 43.96 23.072C44.3695 18.9771 46.2487 15.5451 48.8372 11.6048C51.4769 7.99596 54.4091 4.33557 58.3503 2.3102C58.4307 2.26601 58.5185 2.22919 58.5989 2.185C59.4105 1.77256 60.171 1.66945 60.8364 1.92723C60.8364 1.92723 59.6884 2.56798 58.3503 3.79793C57.2681 4.7922 56.0616 6.17681 55.2426 7.91494C54.782 8.88712 54.1239 10.2202 54.782 11.3986C55.1403 12.0099 55.696 12.0614 56.2078 12.0099C57.0195 11.8257 57.7215 11.428 58.3503 10.9125C59.4471 9.99923 60.2953 8.71036 61.0412 7.50251C61.6992 6.06634 62.3135 4.63753 62.3135 3.0467C62.3135 2.84048 62.3135 2.58271 62.2623 2.38385C63.3298 1.82412 65.465 2.84785 65.465 2.84785C67.1395 3.40758 70.7516 6.17681 71.9728 6.73655C72.5797 6.02215 73.5522 4.99842 74.1079 4.48287L73.2963 3.96732C72.0239 3.20137 70.7005 2.42804 69.3331 1.71364C66.3351 0.0786189 63.8929 0.638356 62.6206 1.10235C62.1087 1.25701 61.7066 1.41168 61.7066 1.41168C60.851 0.446867 59.4471 0.483692 58.3576 0.704641C58.2845 0.719371 58.2187 0.734101 58.1455 0.748831C54.1312 1.92723 50.4166 4.74064 46.4023 9.66044C43.4555 13.4976 41.6275 16.8266 40.655 20.104C39.8945 22.3061 39.6898 25.5835 41.5178 27.4763C43.0899 29.1113 45.13 28.7578 46.5997 28.1907C49.7512 26.5999 52.5957 23.2783 54.0215 19.3822C54.3213 18.1964 54.7235 16.5614 54.1166 15.3315ZM61.3848 3.194C61.1362 6.11789 59.6738 8.30529 58.343 9.63098C57.4875 10.4853 56.6831 10.9788 56.3029 11.0819C55.7472 11.185 54.7747 10.9272 55.6448 8.93131C56.3321 7.46568 57.2681 6.12526 58.343 4.99842C59.2643 4.04097 60.2807 3.24555 61.3336 2.67845C61.3848 2.89204 61.3848 2.99515 61.3848 3.194Z" fill="#EC3237"/>
  <path fill-rule="evenodd" clip-rule="evenodd" d="M83.4448 3.81171C81.4632 4.93855 79.3792 5.70451 76.8346 5.44674C76.1253 6.21269 75.4599 7.03757 74.853 7.90664C78.3628 8.82726 82.1213 6.7798 84.2052 4.887C86.3915 2.94265 87.5615 0.534302 87.5615 0.534302C87.5615 0.534302 85.887 2.37554 83.4448 3.81171Z" fill="#EC3237"/>
  <path fill-rule="evenodd" clip-rule="evenodd" d="M45.6282 7.75293H42.9812L41.5115 10.2644H44.1511L45.6282 7.75293Z" fill="#EC3237"/>
  <path fill-rule="evenodd" clip-rule="evenodd" d="M78.1598 22.0928L82.2253 14.772H79.4321C79.2786 15.0298 79.0226 15.4864 79.0226 15.4864C78.8691 15.2802 78.5108 14.772 78.3645 14.6689C77.7064 14.2049 76.6901 14.4627 75.9735 14.8236C75.6225 15.0298 75.2861 15.2655 74.9571 15.5159C72.4637 17.4161 70.5333 20.421 69.0123 22.8661C69.0123 22.8661 67.1843 25.8858 66.1679 26.1435C65.3563 26.1951 65.4586 25.1198 65.5098 24.862C65.8169 23.0724 66.5262 21.3269 67.2355 19.7949C68.7125 18.7712 70.3358 17.4382 71.8641 16.0094C72.9755 14.9267 74.0358 13.7925 74.9644 12.7467C76.7486 10.736 78.0501 9.02 78.3207 8.48236C78.3207 8.48236 77.86 8.58547 77.3555 8.58547C76.6974 9.49872 75.8638 10.5225 74.9644 11.5535C72.3905 14.4995 69.2683 17.4897 68.0983 18.0568C68.6833 16.6796 71.769 11.0969 74.9644 7.002C75.681 6.08138 76.3976 5.24177 77.0995 4.53473L77.7064 3.975C78.6205 3.05437 79.5857 2.13375 80.3461 1.97909C80.4485 1.97909 80.5509 1.97909 80.6021 2.18531C80.6532 2.89971 80.3973 3.41526 80.0902 4.02655L79.688 4.88825C79.688 4.88825 80.2949 4.78514 80.6532 4.63048C81.1139 3.76141 81.6184 2.78924 81.4137 1.6624C81.3625 1.30151 81.1066 0.999549 80.7556 0.947994C79.6369 0.741775 78.3645 1.55929 77.3993 2.28105H77.3482C76.5292 2.92181 75.7395 3.61411 74.9571 4.35061C70.855 8.23195 67.294 13.4169 64.1278 20.0895C63.8719 20.2958 62.8043 20.5535 62.5996 20.4504C62.9579 19.6845 63.4624 18.6607 63.6672 17.5339C63.7184 17.2246 63.7695 16.8711 63.7695 16.5617C63.7695 15.8473 63.616 15.2287 63.0091 14.772C62.4899 14.5143 61.8684 14.5216 61.3346 14.6616C61.1299 14.7131 60.9398 14.7868 60.7716 14.8751C60.6985 14.9046 60.618 14.9414 60.5449 14.9783C59.8649 15.2876 59.2287 15.7074 58.6364 16.1935C56.9693 17.556 55.6238 19.4562 54.5709 21.0764C53.8104 22.5642 52.9915 24.0961 52.794 25.8858C52.6405 27.2704 52.9476 28.191 53.7592 28.6476C54.5709 29.0601 55.5873 28.6476 55.9968 28.4414C56.9839 27.9259 57.854 27.2188 58.6364 26.4087C59.3384 25.6796 59.9672 24.8694 60.5449 24.0224C60.8154 23.6174 61.0787 23.2123 61.3346 22.7999C61.6198 22.3432 61.8903 21.8792 62.1463 21.43C62.1974 21.43 63.0091 21.3784 63.6745 21.2237C63.6745 21.2237 63.6745 21.2237 63.7257 21.2237C63.6745 21.3269 63.3674 22.299 63.3674 22.299C62.4022 25.1124 61.9927 27.0642 62.8555 28.1836C64.1278 29.7745 66.263 28.1321 68.0398 25.93C67.6815 28.5445 69.005 28.9496 70.0726 28.7434C71.2425 28.4341 72.566 27.1525 73.1729 26.4897C72.9682 27.2557 73.0194 28.6403 74.0869 28.7434C74.4087 28.8097 74.6865 28.7728 74.9498 28.6845C75.3081 28.5666 75.6371 28.353 76.0173 28.1763C78.306 26.8948 81.0481 22.6967 81.7647 21.5183H80.8507C79.7831 22.903 78.4596 24.9504 76.8363 25.9226C76.5292 26.1288 76.1782 25.9742 76.3245 25.5102C76.6827 24.3907 78.1598 22.0928 78.1598 22.0928ZM60.5449 22.2769C60.0184 23.1386 59.3311 24.0887 58.6364 24.8031C57.7297 25.7385 56.8084 26.2614 56.2454 25.628C56.0918 25.4218 56.0406 25.164 56.0406 24.9136C55.9968 23.4406 57.4811 20.8997 58.6291 19.2794C58.7169 19.1542 58.8046 19.0364 58.885 18.9259C59.2507 19.7655 59.9234 20.3473 60.5376 20.7008C60.7862 20.8408 61.0202 20.9512 61.2249 21.0249C61.0714 21.371 60.8301 21.8129 60.5449 22.2769ZM61.6929 20.1927C61.6637 20.2074 61.5247 20.1779 61.3419 20.1043C61.1152 20.0085 60.8228 19.8465 60.5522 19.5961C60.267 19.3236 60.0111 18.948 59.9161 18.4545C59.7406 17.6738 60.0769 16.9889 60.5522 16.4954C60.7643 16.2745 61.0056 16.0904 61.2395 15.9504C61.2688 15.921 61.3054 15.8989 61.3419 15.8768C61.649 15.6779 62.0878 15.6116 62.4095 15.7516C62.7678 15.9578 62.819 16.3629 62.819 16.8269C62.819 17.0846 62.7678 17.3866 62.7678 17.5928V17.6444C62.5045 18.5061 62.1463 19.4267 61.6929 20.1927ZM74.9571 22.5421C74.4014 23.4332 73.8164 24.3023 73.1802 25.1124L72.9243 25.3702C72.5148 25.7311 72.1639 26.0846 71.652 25.8858C71.4985 25.8342 71.4473 25.6796 71.3961 25.5249C71.3961 24.5527 71.8056 23.6321 72.2589 22.7115L72.3613 22.4537C73.1071 21.1722 73.9407 19.7655 74.9571 18.4766C75.6079 17.6517 76.3245 16.8711 77.1434 16.2082C77.5017 15.9504 77.9039 15.7442 78.3134 15.8989C78.4157 16.002 78.5181 16.1567 78.5181 16.3113C78.5181 16.3629 78.4669 16.466 78.4669 16.5175C77.86 17.4897 77.297 18.4619 76.7924 19.4341C76.1928 20.4652 75.5932 21.5183 74.9571 22.5421Z" fill="#EC3237"/>
</svg>
