<svg width="50" height="50" viewBox="0 0 50 50" fill="none" xmlns="http://www.w3.org/2000/svg">
  <path d="M44.5779 30.422C47.5724 19.6094 41.2347 8.41655 30.4221 5.42202C19.6095 2.42749 8.41661 8.76527 5.42207 19.5779C2.42754 30.3904 8.76534 41.5833 19.5779 44.5778C30.3905 47.5724 41.5834 41.2346 44.5779 30.422Z" fill="#FFBF3C"/>
  <path d="M16.6208 24.1663C16.6208 24.8527 16.4172 25.5237 16.0359 26.0945C15.6545 26.6652 15.1125 27.11 14.4783 27.3727C13.8442 27.6353 13.1464 27.7041 12.4732 27.5702C11.7999 27.4362 11.1816 27.1057 10.6962 26.6204C10.2108 26.135 9.88028 25.5166 9.74637 24.8434C9.61246 24.1702 9.6812 23.4724 9.94388 22.8382C10.2066 22.2041 10.6514 21.662 11.2221 21.2807C11.7928 20.8993 12.4638 20.6958 13.1502 20.6958C14.0707 20.6958 14.9534 21.0614 15.6043 21.7123C16.2551 22.3631 16.6208 23.2459 16.6208 24.1663Z" fill="#231F20"/>
  <path d="M13.7717 23.6188C13.7717 23.9225 13.6816 24.2194 13.5128 24.4719C13.3441 24.7245 13.1041 24.9212 12.8235 25.0374C12.5428 25.1535 12.234 25.1838 11.9362 25.1244C11.6383 25.065 11.3647 24.9186 11.1501 24.7037C10.9355 24.4887 10.7894 24.215 10.7304 23.917C10.6714 23.6191 10.7021 23.3103 10.8186 23.0298C10.9352 22.7493 11.1323 22.5097 11.385 22.3412C11.6378 22.1728 11.9348 22.0831 12.2385 22.0835C12.4401 22.0835 12.6396 22.1232 12.8257 22.2004C13.0119 22.2776 13.181 22.3907 13.3234 22.5333C13.4658 22.6759 13.5787 22.8452 13.6556 23.0314C13.7326 23.2177 13.772 23.4173 13.7717 23.6188Z" fill="white"/>
  <path d="M40.3336 24.1663C40.3336 24.8528 40.13 25.5239 39.7486 26.0947C39.3671 26.6654 38.825 27.1103 38.1907 27.3729C37.5564 27.6355 36.8585 27.7041 36.1853 27.57C35.512 27.4359 34.8936 27.1052 34.4083 26.6196C33.923 26.134 33.5927 25.5155 33.459 24.8421C33.3253 24.1688 33.3944 23.4709 33.6574 22.8368C33.9204 22.2026 34.3655 21.6608 34.9365 21.2797C35.5075 20.8986 36.1787 20.6954 36.8652 20.6958C37.3208 20.6958 37.772 20.7856 38.193 20.96C38.6139 21.1345 38.9964 21.3901 39.3185 21.7124C39.6406 22.0347 39.896 22.4173 40.0702 22.8384C40.2444 23.2594 40.3339 23.7107 40.3336 24.1663Z" fill="#231F20"/>
  <path d="M37.4866 23.6188C37.4866 23.9224 37.3965 24.2193 37.2278 24.4717C37.0591 24.7242 36.8194 24.921 36.5388 25.0372C36.2583 25.1534 35.9496 25.1838 35.6518 25.1246C35.354 25.0653 35.0804 24.9191 34.8657 24.7044C34.651 24.4897 34.5048 24.2161 34.4455 23.9183C34.3863 23.6205 34.4167 23.3118 34.5329 23.0313C34.6491 22.7507 34.8459 22.5109 35.0984 22.3422C35.3508 22.1735 35.6476 22.0835 35.9513 22.0835C36.153 22.0832 36.3527 22.1228 36.5391 22.1998C36.7255 22.2769 36.8949 22.39 37.0375 22.5326C37.1801 22.6752 37.2932 22.8445 37.3703 23.0309C37.4473 23.2173 37.4869 23.4171 37.4866 23.6188Z" fill="white"/>
  <path d="M35.5806 38.184C35.437 38.1842 35.2966 38.1417 35.1772 38.0619C35.0577 37.9822 34.9647 37.8688 34.9098 37.7361C34.8348 37.5569 32.9287 33.2427 26.1814 31.872C21.2277 30.8659 15.5032 33.2761 15.447 33.3011C15.3586 33.343 15.2627 33.3667 15.165 33.3707C15.0673 33.3747 14.9698 33.3589 14.8783 33.3244C14.7868 33.2898 14.7032 33.2372 14.6326 33.1695C14.5619 33.1019 14.5057 33.0208 14.4671 32.9309C14.4285 32.8411 14.4085 32.7443 14.4082 32.6465C14.4079 32.5487 14.4273 32.4519 14.4653 32.3618C14.5033 32.2717 14.5591 32.1902 14.6293 32.1221C14.6996 32.0541 14.7828 32.0009 14.8741 31.9658C15.1241 31.8595 21.0652 29.3514 26.471 30.4492C34.014 31.9804 36.1639 36.9674 36.2618 37.1799C36.3083 37.2902 36.3268 37.4103 36.3155 37.5295C36.3042 37.6486 36.2634 37.7631 36.1969 37.8627C36.1304 37.9622 36.0403 38.0437 35.9345 38.0998C35.8287 38.1558 35.7107 38.1848 35.591 38.184H35.5806Z" fill="#231F20"/>
  <path d="M14.2441 12.5528C14.9857 12.7257 16.2356 13.4236 16.7084 13.3069C17.0584 13.2215 17.2271 12.7091 17.225 12.3841C17.223 12.0591 16.6168 11.2342 14.4399 10.7322C13.5212 10.5238 10.5319 10.353 10.7194 11.7737C10.8798 12.9882 12.3963 12.1216 14.2441 12.5528Z" fill="#231F20"/>
  <path d="M37.0236 15.4589C37.7839 15.3881 39.1067 14.8652 39.5692 15.0423C39.9046 15.1735 40.0004 15.7047 39.9545 16.0255C39.9087 16.3463 39.1984 17.0837 36.9736 17.2858C36.0341 17.3712 33.0489 17.1358 33.4322 15.7651C33.7551 14.5756 35.1362 15.6359 37.0236 15.4589Z" fill="#231F20"/>
</svg>
