<svg width="51" height="58" viewBox="0 0 51 58" fill="none" xmlns="http://www.w3.org/2000/svg">
  <path d="M41.678 37.8754C43.1463 27.1005 35.6018 17.1755 24.8269 15.7071C14.052 14.2388 4.12693 21.7833 2.65862 32.5582C1.1903 43.3331 8.73477 53.2582 19.5097 54.7265C30.2846 56.1948 40.2096 48.6503 41.678 37.8754Z" fill="#FFBF3C"/>
  <path d="M17.606 28.602C17.6048 29.7504 17.2633 30.8727 16.6245 31.827C15.9858 32.7813 15.0785 33.5249 14.0173 33.9638C12.9561 34.4027 11.7887 34.5173 10.6624 34.2929C9.53618 34.0686 8.50168 33.5155 7.68966 32.7035C6.87764 31.8914 6.32452 30.857 6.10019 29.7307C5.87586 28.6045 5.99041 27.437 6.42932 26.3758C6.86823 25.3146 7.61182 24.4074 8.56616 23.7686C9.52049 23.1299 10.6427 22.7883 11.7911 22.7871C12.5549 22.7863 13.3114 22.9362 14.0173 23.2281C14.7232 23.5201 15.3645 23.9484 15.9047 24.4885C16.4448 25.0286 16.8731 25.67 17.165 26.3758C17.4569 27.0817 17.6068 27.8382 17.606 28.602Z" fill="#231F20"/>
  <path d="M12.8357 27.6791C12.8357 28.1871 12.6851 28.6836 12.4029 29.1059C12.1207 29.5283 11.7196 29.8575 11.2503 30.0519C10.781 30.2463 10.2646 30.2971 9.76645 30.198C9.26826 30.0989 8.81062 29.8543 8.45145 29.4951C8.09227 29.136 7.84766 28.6783 7.74857 28.1801C7.64947 27.682 7.70034 27.1656 7.89472 26.6963C8.08911 26.227 8.41827 25.8259 8.84062 25.5437C9.26297 25.2615 9.75952 25.1108 10.2675 25.1108C10.9486 25.1108 11.6019 25.3814 12.0835 25.8631C12.5651 26.3447 12.8357 26.998 12.8357 27.6791Z" fill="white"/>
  <path d="M15.8989 26.1467C15.8989 26.4498 15.809 26.7461 15.6406 26.9981C15.4723 27.2501 15.2329 27.4466 14.9529 27.5626C14.6729 27.6785 14.3648 27.7089 14.0675 27.6498C13.7702 27.5906 13.4971 27.4447 13.2828 27.2304C13.0685 27.016 12.9226 26.743 12.8634 26.4457C12.8043 26.1484 12.8346 25.8403 12.9506 25.5603C13.0666 25.2803 13.263 25.0409 13.515 24.8725C13.7671 24.7041 14.0634 24.6143 14.3664 24.6143C14.7729 24.6143 15.1627 24.7757 15.4501 25.0631C15.7375 25.3505 15.8989 25.7403 15.8989 26.1467Z" fill="white"/>
  <path d="M38.3814 28.6018C38.3814 29.7507 38.0407 30.8738 37.4024 31.8291C36.7641 32.7843 35.8569 33.5289 34.7955 33.9685C33.734 34.4082 32.5661 34.5232 31.4392 34.2991C30.3124 34.075 29.2774 33.5217 28.465 32.7093C27.6526 31.8969 27.0994 30.8619 26.8753 29.7351C26.6512 28.6083 26.7662 27.4403 27.2059 26.3789C27.6455 25.3174 28.39 24.4102 29.3453 23.7719C30.3006 23.1336 31.4236 22.793 32.5725 22.793C34.1131 22.793 35.5906 23.405 36.68 24.4943C37.7694 25.5837 38.3814 27.0612 38.3814 28.6018Z" fill="#231F20"/>
  <path d="M33.6131 27.6791C33.6131 28.1871 33.4624 28.6836 33.1802 29.1059C32.898 29.5283 32.4969 29.8575 32.0277 30.0519C31.5584 30.2463 31.042 30.2971 30.5438 30.198C30.0456 30.0989 29.588 29.8543 29.2288 29.4951C28.8696 29.136 28.625 28.6783 28.5259 28.1801C28.4268 27.682 28.4776 27.1656 28.672 26.6963C28.8664 26.227 29.1956 25.8259 29.618 25.5437C30.0403 25.2615 30.5369 25.1108 31.0448 25.1108C31.726 25.1108 32.3792 25.3814 32.8609 25.8631C33.3425 26.3447 33.6131 26.998 33.6131 27.6791Z" fill="white"/>
  <path d="M36.2255 27.2306C36.8239 26.6321 36.8239 25.6618 36.2255 25.0634C35.627 24.4649 34.6567 24.4649 34.0582 25.0634C33.4597 25.6618 33.4598 26.6321 34.0582 27.2306C34.6567 27.8291 35.627 27.8291 36.2255 27.2306Z" fill="white"/>
  <path d="M32.8699 37.7547C32.8 37.7039 32.7198 37.6692 32.635 37.653C32.5502 37.6368 32.4628 37.6395 32.3791 37.6609C32.2954 37.6823 32.2175 37.7219 32.1509 37.7768C32.0842 37.8318 32.0306 37.9007 31.9936 37.9788C31.3748 38.949 30.5747 39.7908 29.6373 40.4582C28.3027 41.4415 26.0959 42.5601 22.8795 42.6792C22.8473 42.6761 22.8148 42.6761 22.7826 42.6792C22.5807 42.6893 22.3788 42.6933 22.1769 42.6953C21.975 42.6974 21.7731 42.6953 21.5712 42.6792C21.5389 42.6762 21.5065 42.6762 21.4742 42.6792C18.2579 42.5641 16.051 41.4455 14.7164 40.4582C13.779 39.7908 12.979 38.949 12.3602 37.9788C12.3232 37.9007 12.2695 37.8318 12.2029 37.7768C12.1363 37.7219 12.0583 37.6823 11.9747 37.6609C11.891 37.6395 11.8036 37.6368 11.7188 37.653C11.634 37.6692 11.5538 37.7039 11.4839 37.7547C11.338 37.8732 11.2381 38.0388 11.2012 38.2231C11.1644 38.4074 11.1929 38.5987 11.282 38.7642C11.4072 38.9924 14.3368 44.1511 21.9932 44.1511H22.3364C29.9927 44.1511 32.9224 38.9924 33.0476 38.7642C33.1394 38.6014 33.1718 38.4117 33.1394 38.2276C33.107 38.0435 33.0117 37.8764 32.8699 37.7547Z" fill="#231F20"/>
  <path d="M50.6089 6.35789C49.3591 2.37427 44.2428 4.02789 44.2428 4.02789C44.2428 4.02789 42.6033 -1.0945 38.6399 0.213862C33.8648 1.78874 39.2981 13.6609 39.2981 13.6609C39.2981 13.6609 52.1111 11.1552 50.6089 6.35789Z" fill="#F92A08"/>
  <path d="M24.0346 8.55481C25.5186 6.33383 28.3555 8.27617 28.3555 8.27617C28.3555 8.27617 30.2857 5.43332 32.4784 6.95166C35.1193 8.76883 29.6517 15.0724 29.6517 15.0724C29.6517 15.0724 22.2457 11.222 24.0346 8.55481Z" fill="#F92A08"/>
  <path d="M39.1549 16.302C41.919 14.6281 44.043 18.21 44.043 18.21C44.043 18.21 47.6188 16.0738 49.2502 18.8642C51.2168 22.2219 41.9816 26.3347 41.9816 26.3347C41.9816 26.3347 35.8174 18.317 39.1549 16.302Z" fill="#F92A08"/>
</svg>
