<svg width="45" height="45" viewBox="0 0 45 45" fill="none" xmlns="http://www.w3.org/2000/svg">
  <path d="M41.355 25.8871C43.273 15.4262 36.3478 5.39117 25.8869 3.47313C15.426 1.55509 5.39096 8.48041 3.47292 18.9413C1.55488 29.4021 8.4802 39.4372 18.9411 41.3552C29.4019 43.2733 39.437 36.348 41.355 25.8871Z" fill="#FFBF3C"/>
  <path d="M14.1401 15.8152C14.1401 16.4658 13.9471 17.1019 13.5857 17.6429C13.2242 18.1839 12.7104 18.6055 12.1093 18.8545C11.5081 19.1035 10.8467 19.1687 10.2085 19.0417C9.57035 18.9148 8.98415 18.6015 8.52407 18.1414C8.06399 17.6813 7.7507 17.0951 7.62376 16.457C7.49683 15.8188 7.56196 15.1574 7.81096 14.5562C8.05995 13.9551 8.4816 13.4413 9.0226 13.0798C9.5636 12.7183 10.1997 12.5254 10.8503 12.5254C11.7228 12.5254 12.5596 12.872 13.1765 13.4889C13.7935 14.1059 14.1401 14.9427 14.1401 15.8152V15.8152Z" fill="#231F20"/>
  <path d="M11.438 15.2961C11.4384 15.5841 11.3533 15.8658 11.1935 16.1054C11.0338 16.345 10.8065 16.5318 10.5405 16.6422C10.2745 16.7526 9.98171 16.7816 9.69923 16.7255C9.41674 16.6695 9.15722 16.5308 8.95357 16.3271C8.74992 16.1235 8.61131 15.864 8.55522 15.5815C8.49913 15.299 8.52808 15.0062 8.63848 14.7402C8.74887 14.4742 8.93576 14.247 9.17538 14.0872C9.41501 13.9274 9.69662 13.8424 9.98463 13.8428C10.3699 13.8433 10.7393 13.9966 11.0117 14.269C11.2842 14.5415 11.4375 14.9108 11.438 15.2961V15.2961Z" fill="white"/>
  <path d="M36.6167 15.8152C36.6167 16.4658 36.4237 17.1019 36.0622 17.6429C35.7007 18.1839 35.1869 18.6055 34.5858 18.8545C33.9847 19.1035 33.3233 19.1687 32.6851 19.0417C32.047 18.9148 31.4608 18.6015 31.0007 18.1414C30.5406 17.6813 30.2273 17.0951 30.1003 16.457C29.9734 15.8188 30.0385 15.1574 30.2875 14.5562C30.5365 13.9551 30.9582 13.4413 31.4992 13.0798C32.0402 12.7183 32.6762 12.5254 33.3269 12.5254C34.1994 12.5254 35.0362 12.872 35.6531 13.4889C36.2701 14.1059 36.6167 14.9427 36.6167 15.8152V15.8152Z" fill="#231F20"/>
  <path d="M33.9165 15.2961C33.9169 15.5841 33.8318 15.8658 33.6721 16.1054C33.5123 16.345 33.285 16.5318 33.019 16.6422C32.753 16.7526 32.4603 16.7816 32.1778 16.7255C31.8953 16.6695 31.6358 16.5308 31.4321 16.3271C31.2285 16.1235 31.0898 15.864 31.0337 15.5815C30.9776 15.299 31.0066 15.0062 31.117 14.7402C31.2274 14.4742 31.4143 14.247 31.6539 14.0872C31.8935 13.9274 32.1752 13.8424 32.4632 13.8428C32.8486 13.8428 33.2183 13.9959 33.4909 14.2684C33.7634 14.541 33.9165 14.9107 33.9165 15.2961V15.2961Z" fill="white"/>
  <path d="M11.3648 10.6595C12.0717 10.5114 13.4243 10.6102 13.7857 10.3199C14.0523 10.1066 13.9832 9.59914 13.8588 9.32072C13.7344 9.04229 12.8714 8.57626 10.806 9.01661C9.93119 9.21408 7.29501 10.2547 8.02168 11.3862C8.65357 12.3775 9.60534 11.0288 11.3648 10.6595Z" fill="#231F20"/>
  <path d="M33.155 10.5234C32.4836 10.2549 31.1349 10.1166 30.8308 9.76911C30.6057 9.5124 30.7538 9.02268 30.9316 8.7719C31.1093 8.52112 32.0275 8.20913 33.9903 9.00294C34.8196 9.33863 37.2327 10.8334 36.3204 11.8247C35.5266 12.6876 34.8236 11.1928 33.155 10.5234Z" fill="#231F20"/>
  <path d="M24.5528 25.28C19.4759 23.7615 17.29 26.7748 17.2683 26.8044C17.1761 26.9353 17.1397 27.0975 17.1671 27.2553C17.1945 27.413 17.2835 27.5534 17.4144 27.6456C17.5454 27.7378 17.7075 27.7742 17.8653 27.7468C18.023 27.7194 18.1635 27.6304 18.2556 27.4995C18.2951 27.4462 20.0585 25.1931 24.2092 26.4332C27.8386 27.5192 28.1308 30.3608 28.1407 30.4812C28.1469 30.56 28.1686 30.6369 28.2045 30.7073C28.2404 30.7778 28.2899 30.8404 28.3501 30.8918C28.4102 30.9431 28.4798 30.9821 28.5551 31.0065C28.6303 31.031 28.7096 31.0403 28.7884 31.0341C28.8672 31.0279 28.9441 31.0062 29.0145 30.9703C29.085 30.9344 29.1476 30.8849 29.199 30.8248C29.2503 30.7646 29.2893 30.695 29.3137 30.6197C29.3381 30.5445 29.3475 30.4652 29.3413 30.3864C29.3275 30.2324 28.9997 26.6089 24.5528 25.28Z" fill="#231F20"/>
</svg>
