<svg width="46" height="60" viewBox="0 0 46 60" fill="none" xmlns="http://www.w3.org/2000/svg">
  <path d="M41.7485 40.6512C44.0304 30.2636 37.4595 19.993 27.072 17.711C16.6844 15.4291 6.41378 21.9999 4.13183 32.3875C1.84989 42.775 8.42077 53.0457 18.8083 55.3276C29.1959 57.6096 39.4665 51.0387 41.7485 40.6512Z" fill="#FFBF3C"/>
  <path d="M33.1154 39.6629C32.9292 39.6263 32.7361 39.665 32.5785 39.7704C32.4208 39.8759 32.3114 40.0396 32.2742 40.2257C31.9565 41.4922 31.3878 42.6821 30.6016 43.7247C28.856 46.0687 27.9516 47.4983 22.94 47.759C18.8366 47.7037 17.016 46.0687 15.2783 43.7247C14.4932 42.6815 13.9246 41.4918 13.6058 40.2257C13.5632 40.0454 13.4525 39.8886 13.2968 39.7882C13.1412 39.6878 12.9527 39.6515 12.7709 39.687C12.5891 39.7225 12.428 39.827 12.3216 39.9786C12.2151 40.1302 12.1715 40.3171 12.1998 40.5001C12.5511 41.9557 13.1954 43.3244 14.0935 44.5225C15.4758 46.3905 18.7517 49.1432 22.9439 49.1432C27.7522 49.1432 30.4239 46.3905 31.7963 44.5225C32.692 43.3237 33.3343 41.9551 33.6841 40.5001C33.7018 40.4078 33.7012 40.3129 33.6822 40.2208C33.6632 40.1287 33.6262 40.0413 33.5734 39.9635C33.5206 39.8858 33.4529 39.8192 33.3743 39.7676C33.2957 39.716 33.2077 39.6804 33.1154 39.6629Z" fill="#231F20"/>
  <path d="M17.6836 31.5786C17.5484 31.5785 17.4176 31.5304 17.3145 31.4429C17.2114 31.3554 17.1428 31.2341 17.1208 31.1007C17.101 30.9941 16.6133 28.4191 13.6217 28.4191C10.7348 28.4191 10.2174 31 10.1957 31.1086C10.1653 31.2541 10.0795 31.3821 9.95645 31.4655C9.83342 31.5489 9.68277 31.5812 9.53637 31.5555C9.38996 31.5299 9.25925 31.4483 9.17188 31.3281C9.08451 31.2078 9.04732 31.0583 9.06816 30.9112C9.29327 29.6513 10.5393 27.2817 13.6217 27.2817C16.8029 27.2817 18.041 29.6612 18.2503 30.921C18.2627 30.9952 18.2603 31.0711 18.2433 31.1444C18.2263 31.2177 18.1949 31.2868 18.1511 31.3479C18.1072 31.4091 18.0517 31.4609 17.9877 31.5005C17.9238 31.5401 17.8526 31.5666 17.7784 31.5786C17.7468 31.5815 17.7151 31.5815 17.6836 31.5786Z" fill="#231F20"/>
  <path d="M36.248 31.5786C36.1126 31.5786 35.9815 31.5306 35.8781 31.4431C35.7747 31.3556 35.7057 31.2343 35.6833 31.1007C35.6655 30.9941 35.1778 28.4191 32.1862 28.4191C29.2972 28.4191 28.7799 31 28.7601 31.1086C28.7297 31.2541 28.6439 31.3821 28.5209 31.4655C28.3979 31.5489 28.2472 31.5812 28.1008 31.5555C27.9544 31.5299 27.8237 31.4483 27.7363 31.3281C27.649 31.2078 27.6118 31.0583 27.6326 30.9112C27.8577 29.6513 29.1018 27.2817 32.1862 27.2817C35.3673 27.2817 36.6035 29.6612 36.8147 30.921C36.8393 31.0708 36.8033 31.2242 36.7149 31.3475C36.6264 31.4708 36.4925 31.5539 36.3428 31.5786C36.3113 31.5815 36.2795 31.5815 36.248 31.5786Z" fill="#231F20"/>
  <path d="M16.0434 11.8221C12.4732 9.84744 9.96544 14.4662 9.96544 14.4662C9.96544 14.4662 5.34871 11.9465 3.43132 15.5463C1.11308 19.8806 12.9709 24.6297 12.9709 24.6297C12.9709 24.6297 20.3442 14.2035 16.0434 11.8221Z" fill="#F92A08"/>
  <path d="M41.8399 9.0382C39.9581 6.27369 36.4195 8.73213 36.4195 8.73213C36.4195 8.73213 33.9729 5.18763 31.238 7.11094C27.9443 9.42721 34.8694 17.2646 34.8694 17.2646C34.8694 17.2646 44.1088 12.3635 41.8399 9.0382Z" fill="#F92A08"/>
  <path d="M26.2067 0.515435C23.7167 -1.22621 21.5011 2.00432 21.5011 2.00432C21.5011 2.00432 18.2785 -0.219138 16.5743 2.29657C14.5227 5.32766 22.9347 9.7568 22.9347 9.7568C22.9347 9.7568 29.2082 2.61252 26.2067 0.515435Z" fill="#F92A08"/>
</svg>
