<svg width="148" height="149" viewBox="0 0 148 149" fill="none" xmlns="http://www.w3.org/2000/svg">
  <g clip-path="url(#clip0_1_2864)">
    <path fill-rule="evenodd" clip-rule="evenodd" d="M83.6552 71.8961C86.8299 68.7204 90.7992 62.8994 88.4179 58.0475C86.9184 55.0488 83.8311 45.6107 86.6542 42.3474C85.9478 47.1992 87.6235 52.6675 89.9175 56.7244C92.829 62.2815 88.153 70.22 83.6552 71.8961Z" stroke="#FF6600" stroke-width="0.000258417" stroke-miterlimit="2.61313" stroke-linecap="square" stroke-linejoin="round"/>
    <path fill-rule="evenodd" clip-rule="evenodd" d="M83.6552 71.8961C86.8299 68.7204 90.7992 62.8994 88.4179 58.0475C86.9184 55.0488 83.8311 45.6107 86.6542 42.3474C85.9478 47.1992 87.6235 52.6675 89.9175 56.7244C92.829 62.2815 88.153 70.22 83.6552 71.8961Z" fill="#FF6600"/>
    <path fill-rule="evenodd" clip-rule="evenodd" d="M77.5056 97.565H74.6831C74.3307 97.565 74.0664 97.8293 74.0664 98.1817V101.004C74.0664 101.357 74.3307 101.623 74.6831 101.623H77.5056C77.8598 101.623 78.1241 101.357 78.1241 101.004V98.1817C78.1241 97.8293 77.8598 97.565 77.5056 97.565Z" fill="#FF6600"/>
    <path fill-rule="evenodd" clip-rule="evenodd" d="M69.656 97.565H72.4786C72.831 97.565 73.0953 97.8293 73.0953 98.1817V101.004C73.0953 101.357 72.831 101.623 72.4786 101.623H69.656C69.3036 101.623 69.0376 101.357 69.0376 101.004V98.1817C69.0376 97.8293 69.3036 97.565 69.656 97.565Z" fill="#FF6600"/>
    <path fill-rule="evenodd" clip-rule="evenodd" d="M69.656 106.473H72.4786C72.831 106.473 73.0953 106.208 73.0953 105.856V103.033C73.0953 102.681 72.831 102.415 72.4786 102.415H69.656C69.3036 102.415 69.0376 102.681 69.0376 103.033V105.856C69.0376 106.208 69.3036 106.473 69.656 106.473Z" fill="#FF6600"/>
    <path fill-rule="evenodd" clip-rule="evenodd" d="M77.5056 106.473H74.6831C74.3307 106.473 74.0664 106.208 74.0664 105.856V103.033C74.0664 102.681 74.3307 102.415 74.6831 102.415H77.5056C77.8598 102.415 78.1241 102.681 78.1241 103.033V105.856C78.1241 106.208 77.8598 106.473 77.5056 106.473Z" fill="#FF6600"/>
    <path fill-rule="evenodd" clip-rule="evenodd" d="M80.9394 87.1562C80.587 86.98 80.1448 86.6258 79.44 86.0973C78.6454 85.4788 76.5294 83.6271 74.9419 82.6563C74.0592 82.1277 72.9122 82.0396 71.9431 82.6563C71.1485 83.2747 70.6182 83.7152 69.8253 84.3336L49.1846 99.7696C47.3329 101.269 45.9216 101.533 47.5091 103.561C47.9513 104.18 48.4799 104.796 48.9203 105.415C50.2435 107.178 50.4197 108.237 52.7137 106.56C57.4761 103.033 62.2403 99.4155 67.0909 95.8882C68.6783 94.7412 70.2658 93.5061 71.7669 92.271C73.2663 91.0376 73.5306 91.0376 75.1181 92.0948C76.5294 93.0656 77.8526 94.1245 79.2639 95.0953C83.4977 98.3583 88.3482 101.533 92.4059 104.973C93.0226 105.503 93.641 105.855 94.2577 106.384C96.1993 107.973 96.6398 107.707 97.6106 106.384C98.2272 105.503 99.1099 104.62 99.6385 103.737C100.079 103.033 100.433 102.24 100.079 101.621C99.8147 101.181 94.5219 97.2113 92.3178 95.6239C91.7011 95.1816 88.6125 92.8894 88.4363 92.7132C88.172 92.3608 88.172 91.8305 88.172 90.5073V75.0713C88.172 74.5427 88.172 74.6308 87.7316 74.6308H82.2626C81.8221 74.6308 81.734 74.5427 81.734 74.9832V86.4496C81.6459 86.98 81.734 87.5085 80.9394 87.1562Z" fill="#FF6600"/>
    <path fill-rule="evenodd" clip-rule="evenodd" d="M69.7247 0.185163C62.7564 0.891687 58.1702 3.00774 53.406 6.09459C48.3792 9.3594 44.674 14.3879 41.9395 19.6789C40.7925 21.9729 39.8234 21.5306 36.5586 22.7657C19.3589 28.9412 10.0103 47.7284 15.6536 65.5448C17.5953 71.7203 22.0053 78.3362 27.21 81.8635C31.0016 84.4218 33.8242 85.9212 38.5003 87.3325C40.1758 87.8611 41.7633 87.5968 42.0276 89.3605C42.3817 90.9497 42.5562 92.6253 42.8222 94.2127C43.0865 95.624 42.9984 97.9163 44.3216 98.0925C45.2025 98.1823 49.7007 94.8294 49.9667 93.9485C50.231 93.0657 49.9667 91.5664 49.4364 87.6849C48.9959 83.7153 48.9959 82.1278 48.5554 81.4231C48.115 80.8046 47.4084 80.8046 45.5567 80.4523C37.4413 78.7767 29.326 74.2785 26.1511 66.4275C21.4767 54.8729 24.6517 41.2005 34.0021 34.056C37.7056 31.2335 40.7044 29.9103 45.3805 28.6752C48.3792 27.8823 47.4965 25.0597 52.6131 19.1503C57.7279 13.2391 65.0504 9.4475 73.6044 9.62369C82.162 9.4475 89.4827 13.2391 94.5975 19.1503C99.7141 25.0597 98.7433 27.8823 101.83 28.6752C106.506 29.9103 109.505 31.2335 113.21 34.056C122.647 41.2005 125.824 54.7848 121.06 66.4275C117.885 74.2785 109.769 78.7767 101.654 80.4523C99.8022 80.8046 99.0093 80.8046 98.6552 81.4231C98.2147 82.1278 98.2147 83.7153 97.7742 87.6849C97.332 91.5664 96.9796 93.0657 97.2439 93.9485C97.5082 94.8294 102.096 98.1823 102.889 98.0925C104.3 97.9163 104.212 95.624 104.388 94.2127C104.654 92.6253 104.831 90.9497 105.183 89.3605C105.535 87.6849 107.035 87.8611 108.71 87.3325C113.386 86.0093 116.297 84.4218 120.001 81.8635C125.205 78.3362 129.615 71.6322 131.557 65.5448C137.114 47.7284 127.764 28.9412 110.652 22.7657C107.389 21.6205 106.418 21.9729 105.271 19.6789C102.537 14.3879 98.8331 9.3594 93.8047 6.09459C89.1303 3.00774 84.4542 0.891687 77.4859 0.185163C76.1627 0.00897284 74.8395 0.00897217 73.6044 0.00897217C72.3711 0.00897217 71.0479 0.00897284 69.7247 0.185163Z" fill="#FF6600"/>
    <path d="M85.92 146.034C85.4801 146.034 85.123 145.866 84.8478 145.531C83.9947 144.492 84.6165 143.989 85.2458 143.177L98.292 126.351C98.4645 126.129 98.41 125.803 98.2117 125.608C98.002 125.426 97.6893 125.459 97.5174 125.681L96.3322 127.209H87.4463C86.6488 127.209 86.0369 126.932 85.611 126.379C85.1844 125.826 84.9716 125.098 84.9716 124.195H100.481C100.948 124.195 101.312 124.341 101.574 124.632C101.835 124.923 101.965 125.287 101.965 125.724C101.965 126.131 101.842 126.51 101.594 126.859L89.6804 142.17H87.5462C87.2751 142.17 87.0533 142.405 87.0533 142.692C87.0533 142.979 87.2751 143.215 87.5462 143.215H100.643C100.961 143.353 101.23 143.564 101.45 143.85C101.876 144.403 102.089 145.13 102.089 146.034H85.92Z" stroke="black" stroke-width="0.000530762" stroke-miterlimit="2.61313"/>
    <path fill-rule="evenodd" clip-rule="evenodd" d="M85.919 146.033C85.4785 146.033 85.1226 145.866 84.8477 145.531C83.9932 144.492 84.6152 143.989 85.2459 143.177L98.2911 126.349C98.4637 126.127 98.4091 125.801 98.2118 125.608C98.0004 125.426 97.6885 125.458 97.5176 125.68L96.3318 127.209H87.4448C86.6484 127.209 86.037 126.932 85.6106 126.377C85.1843 125.824 84.9711 125.097 84.9711 124.194H100.479C100.948 124.194 101.311 124.341 101.573 124.631C101.834 124.922 101.965 125.287 101.965 125.724C101.965 126.131 101.841 126.51 101.593 126.858L89.6789 142.169H87.5452C87.2739 142.169 87.0519 142.404 87.0519 142.693C87.0519 142.98 87.2739 143.214 87.5452 143.214H100.641C100.96 143.352 101.23 143.565 101.45 143.848C101.875 144.402 102.088 145.129 102.088 146.033H85.919Z" fill="black"/>
    <path d="M119.493 127.392C119.493 125.291 120.651 124.225 123.07 124.225C123.06 125.013 123.072 125.404 123.077 125.669C123.097 126.658 125.511 124.071 130.248 124.24C132.579 124.323 134.424 124.921 135.777 126.284C137.131 127.648 137.807 129.408 137.807 131.566V143.577C137.807 144.515 137.498 145.203 136.878 145.643C136.26 146.083 135.316 146.304 134.05 146.304V131.95C134.05 130.586 133.661 129.507 132.883 128.712C132.105 127.917 130.925 127.52 129.341 127.52C128.276 127.52 127.275 127.74 126.339 128.18C125.404 128.62 124.655 129.216 124.093 129.969C123.532 130.721 123.251 131.538 123.251 132.418V143.577C123.251 144.515 122.941 145.203 122.322 145.643C121.703 146.083 120.76 146.304 119.493 146.304V127.392Z" stroke="black" stroke-width="0.000792481" stroke-miterlimit="2.61313"/>
    <path d="M119.496 127.392C119.496 125.29 120.654 124.224 123.073 124.224C123.064 125.013 123.076 125.403 123.082 125.669C123.101 126.657 125.515 124.071 130.253 124.24C132.582 124.322 134.428 124.92 135.781 126.283C137.135 127.647 137.811 129.407 137.811 131.566V143.577C137.811 144.514 137.501 145.203 136.883 145.643C136.264 146.084 135.32 146.304 134.053 146.304V131.95C134.053 130.586 133.664 129.506 132.887 128.711C132.11 127.917 130.929 127.519 129.345 127.519C128.279 127.519 127.278 127.739 126.343 128.179C125.407 128.62 124.658 129.215 124.096 129.968C123.534 130.72 123.254 131.537 123.254 132.417V143.577C123.254 144.514 122.944 145.203 122.326 145.643C121.707 146.084 120.763 146.304 119.496 146.304V127.392Z" fill="black"/>
    <path d="M24.6758 142.347C17.741 142.347 13.8695 136.689 13.8695 130.903C13.8695 125.117 17.741 119.458 24.6758 119.458C27.9091 119.458 30.5043 120.692 32.3337 122.606C32.7167 122.989 33.312 123.074 33.7801 122.777L35.3967 121.713C35.9926 121.33 36.1204 120.479 35.6095 119.968C32.9295 117.16 29.1004 115.459 24.6758 115.459C15.8693 115.459 9.52979 122.181 9.52979 130.903C9.52979 139.624 15.8693 146.304 24.6758 146.304C29.1004 146.304 32.9295 144.602 35.6095 141.836C36.1204 141.326 35.9926 140.475 35.3967 140.092L33.7801 139.029C33.312 138.688 32.7167 138.773 32.3337 139.199C30.5043 141.113 27.9091 142.347 24.6758 142.347Z" stroke="black" stroke-width="0.00102987" stroke-miterlimit="2.61313"/>
    <path d="M24.6751 142.347C17.7403 142.347 13.8694 136.689 13.8694 130.903C13.8694 125.117 17.7403 119.458 24.6751 119.458C27.9082 119.458 30.5035 120.693 32.3324 122.606C32.7165 122.989 33.312 123.075 33.7789 122.777L35.3963 121.713C35.9918 121.331 36.1187 120.48 35.6077 119.969C32.9279 117.16 29.0993 115.46 24.6751 115.46C15.8691 115.46 9.52979 122.182 9.52979 130.903C9.52979 139.625 15.8691 146.304 24.6751 146.304C29.0993 146.304 32.9279 144.602 35.6077 141.838C36.1187 141.327 35.9918 140.476 35.3963 140.093L33.7789 139.029C33.312 138.689 32.7165 138.774 32.3324 139.2C30.5035 141.113 27.9082 142.347 24.6751 142.347Z" fill="black"/>
    <path d="M108.708 126.531C108.708 125.769 109.034 125.177 109.687 124.755C110.34 124.333 111.267 124.122 112.466 124.122V143.894C112.466 144.656 112.14 145.248 111.486 145.67C110.834 146.092 109.907 146.304 108.708 146.304V126.531Z" stroke="black" stroke-width="0.000772087" stroke-miterlimit="2.61313"/>
    <path d="M108.703 126.531C108.703 125.77 109.03 125.178 109.682 124.755C110.336 124.334 111.261 124.123 112.461 124.123V143.893C112.461 144.656 112.135 145.248 111.481 145.671C110.829 146.092 109.902 146.303 108.703 146.303V126.531Z" fill="black"/>
    <path d="M71.3788 146.304C69.6308 146.304 68.048 145.974 66.6295 145.315C65.2113 144.656 64.108 143.76 63.3199 142.629C62.5318 141.497 62.1377 140.229 62.1377 138.825V131.776C62.1377 130.343 62.5318 129.039 63.3199 127.864C64.108 126.69 65.2038 125.758 66.6081 125.07C68.0121 124.383 69.6024 124.039 71.3788 124.039C73.1553 124.039 74.753 124.383 76.1715 125.07C77.5897 125.758 78.693 126.69 79.4808 127.864C80.2687 129.039 80.6628 130.343 80.6628 131.776V138.825C80.6628 140.229 80.2618 141.497 79.4593 142.629C78.6571 143.76 77.5538 144.656 76.15 145.315C74.7455 145.974 73.1553 146.304 71.3788 146.304ZM71.3788 143.08C73.0984 143.08 74.4662 142.672 75.4837 141.855C76.501 141.038 77.0095 139.971 77.0095 138.653V131.905C77.0095 131.056 76.8156 130.307 76.4291 129.654L77.8105 127.893C77.9353 127.734 77.9075 127.502 77.748 127.376C77.5888 127.252 77.3565 127.28 77.2317 127.439L75.9785 129.036C75.8299 128.866 75.6644 128.706 75.4837 128.552C74.4662 127.693 73.0984 127.262 71.3788 127.262C69.6882 127.262 68.3273 127.693 67.2958 128.552C66.2641 129.412 65.7482 130.529 65.7482 131.905V138.653C65.7482 139.591 66.0063 140.403 66.5222 141.087L65.1972 142.776C65.0724 142.935 65.1003 143.167 65.2597 143.293C65.419 143.417 65.6518 143.389 65.7766 143.23L67.0242 141.64C67.1041 141.713 67.187 141.785 67.2745 141.855C68.2912 142.672 69.6598 143.08 71.3788 143.08Z" stroke="#FF6600" stroke-width="0.000181956" stroke-miterlimit="2.61313"/>
    <path fill-rule="evenodd" clip-rule="evenodd" d="M71.3789 146.303C69.6311 146.303 68.0471 145.974 66.6288 145.315C65.2105 144.656 64.1075 143.761 63.3199 142.628C62.5306 141.497 62.1377 140.228 62.1377 138.824V131.776C62.1377 130.344 62.5306 129.038 63.3199 127.865C64.1075 126.69 65.2034 125.758 66.6076 125.071C68.0119 124.383 69.6011 124.04 71.3789 124.04C73.1549 124.04 74.7529 124.383 76.1713 125.071C77.5896 125.758 78.6925 126.69 79.4801 127.865C80.2677 129.038 80.6624 130.344 80.6624 131.776V138.824C80.6624 140.228 80.2606 141.497 79.459 142.628C78.6573 143.761 77.5526 144.656 76.1501 145.315C74.7459 145.974 73.1549 146.303 71.3789 146.303ZM71.3789 143.079C73.0985 143.079 74.4657 142.672 75.4824 141.854C76.5007 141.039 77.0082 139.971 77.0082 138.653V131.905C77.0082 131.056 76.8144 130.307 76.4285 129.655L77.8098 127.893C77.9349 127.735 77.9067 127.502 77.7482 127.377C77.5878 127.252 77.3553 127.28 77.2319 127.439L75.9775 129.037C75.8295 128.866 75.6638 128.705 75.4824 128.552C74.4657 127.692 73.0985 127.262 71.3789 127.262C69.6875 127.262 68.3273 127.692 67.2948 128.552C66.2641 129.412 65.7478 130.529 65.7478 131.905V138.653C65.7478 139.59 66.0051 140.403 66.5213 141.086L65.1964 142.776C65.0713 142.934 65.0995 143.167 65.2598 143.292C65.4184 143.417 65.6509 143.389 65.776 143.23L67.0235 141.639C67.1045 141.713 67.1873 141.786 67.2736 141.854C68.2903 142.672 69.6593 143.079 71.3789 143.079Z" fill="#FF6600"/>
    <path d="M49.0341 146.304C47.2861 146.304 45.7027 145.974 44.2845 145.315C42.866 144.656 41.7627 143.76 40.9751 142.629C40.187 141.497 39.793 140.229 39.793 138.825V131.776C39.793 130.343 40.187 129.039 40.9751 127.864C41.7627 126.69 42.8591 125.758 44.263 125.07C45.6668 124.383 47.2575 124.039 49.0341 124.039C50.8105 124.039 52.4077 124.383 53.8262 125.07C55.2446 125.758 56.3478 126.69 57.1359 127.864C57.9242 129.039 58.318 130.343 58.318 131.776V138.825C58.318 140.229 57.9165 141.497 57.1146 142.629C56.3119 143.76 55.2091 144.656 53.8047 145.315C52.4008 145.974 50.8105 146.304 49.0341 146.304ZM49.0341 143.08C50.7532 143.08 52.1215 142.672 53.1385 141.855C54.1558 141.038 54.6648 139.971 54.6648 138.653V131.905C54.6648 131.056 54.4709 130.307 54.084 129.654L55.4658 127.893C55.5906 127.734 55.5627 127.502 55.4033 127.376C55.2441 127.252 55.0113 127.28 54.8865 127.439L53.6334 129.036C53.4846 128.866 53.3197 128.706 53.1385 128.552C52.1215 127.693 50.7532 127.262 49.0341 127.262C47.3435 127.262 45.9824 127.693 44.9507 128.552C43.9194 129.412 43.4034 130.529 43.4034 131.905V138.653C43.4034 139.591 43.6616 140.403 44.177 141.087L42.8525 142.776C42.7272 142.935 42.7556 143.167 42.915 143.293C43.0742 143.417 43.3065 143.389 43.4319 143.23L44.6794 141.64C44.7589 141.713 44.8423 141.785 44.9292 141.855C45.9465 142.672 47.3145 143.08 49.0341 143.08Z" stroke="#FF6600" stroke-width="0.000181956" stroke-miterlimit="2.61313"/>
    <path fill-rule="evenodd" clip-rule="evenodd" d="M49.0322 146.303C47.2844 146.303 45.7022 145.974 44.2839 145.315C42.8655 144.656 41.7608 143.761 40.9733 142.628C40.1857 141.497 39.791 140.228 39.791 138.824V131.776C39.791 130.344 40.1857 129.038 40.9733 127.865C41.7608 126.69 42.8585 125.758 44.261 125.071C45.6652 124.383 47.2562 124.04 49.0322 124.04C50.81 124.04 52.4063 124.383 53.8246 125.071C55.2429 125.758 56.3459 126.69 57.1352 127.865C57.9228 129.038 58.3174 130.344 58.3174 131.776V138.824C58.3174 140.228 57.9157 141.497 57.1141 142.628C56.3106 143.761 55.2077 144.656 53.8034 145.315C52.3992 145.974 50.81 146.303 49.0322 146.303ZM49.0322 143.079C50.7518 143.079 52.1208 142.672 53.1374 141.854C54.1541 141.039 54.6633 139.971 54.6633 138.653V131.905C54.6633 131.056 54.4694 130.307 54.0818 129.655L55.4649 127.893C55.59 127.735 55.5618 127.502 55.4015 127.377C55.2429 127.252 55.0103 127.28 54.8853 127.439L53.6325 129.037C53.4828 128.866 53.3189 128.705 53.1374 128.552C52.1208 127.692 50.7518 127.262 49.0322 127.262C47.3425 127.262 45.9806 127.692 44.9499 128.552C43.9174 129.412 43.4029 130.529 43.4029 131.905V138.653C43.4029 139.59 43.6602 140.403 44.1764 141.086L42.8514 142.776C42.7263 142.934 42.7545 143.167 42.9131 143.292C43.0734 143.417 43.306 143.389 43.4311 143.23L44.6785 141.639C44.7578 141.713 44.8406 141.786 44.927 141.854C45.9454 142.672 47.3126 143.079 49.0322 143.079Z" fill="#FF6600"/>
  </g>
  <defs>
    <clipPath id="clip0_1_2864">
      <rect width="148" height="148" fill="white" transform="translate(0 0.0100098)"/>
    </clipPath>
  </defs>
</svg>
