<svg width="29" height="29" viewBox="0 0 29 29" fill="none" xmlns="http://www.w3.org/2000/svg">
  <path fill-rule="evenodd" clip-rule="evenodd" d="M7.09205 13.3676C7.09205 22.8607 12.8669 25.7296 14.4237 26.3304C14.5755 26.3896 14.7306 26.2562 14.68 26.1124C14.2327 24.8465 12.7494 20.4172 12.7494 17.3961C12.7494 15.8216 12.8138 14.6058 12.8138 14.6058H24.1276V24.8697C24.1276 24.8697 24.7064 25.872 27.4706 25.872C30.2347 25.872 30.2347 24.8697 30.2347 24.8697V3.04458C30.2347 3.04458 30.4919 0.803345 26.8281 0.803345C22.3243 0.803345 23.139 2.24757 23.9146 2.81761C24.1268 2.97342 24.2566 3.20563 24.2566 3.45508V10.2417H12.8138C12.8138 10.2417 12.8783 7.4132 12.8783 6.46637C12.8783 4.82364 13.2302 2.51499 13.3853 1.57789C13.4237 1.34717 13.2098 1.14942 12.9575 1.18088C11.4571 1.3674 7.09287 2.81761 7.09287 13.3676H7.09205ZM6.15978 17.9535C9.63172 26.3678 12.7706 27.3027 13.7453 27.5791C13.8384 27.6053 13.9731 27.6458 14.0718 27.6765C14.1412 27.6975 14.1682 27.7731 14.1257 27.827C13.9388 28.0668 13.5363 28.5072 12.6204 28.7042C11.942 28.8495 10.8277 28.9117 9.87091 28.7042C8.96639 28.508 6.97777 28.5274 3.36216 25.4742C-1.28777 21.549 1.81926 17.0246 1.81926 17.0246C1.81926 17.0246 3.50665 21.5812 5.04955 23.6165C7.58513 26.9611 9.58192 27.2001 9.58192 27.2001C9.58192 27.2001 5.821 25.0772 3.4593 16.892C1.33924 9.54807 6.20713 5.87609 6.20713 5.87609C6.20713 5.87609 4.12381 13.0208 6.15897 17.9535H6.15978Z" fill="url(#paint0_linear_77_13621)"/>
  <defs>
    <linearGradient id="paint0_linear_77_13621" x1="15.758" y1="15.4052" x2="9.07705" y2="3.923" gradientUnits="userSpaceOnUse">
      <stop stop-color="#E69C42"/>
      <stop offset="0.5213" stop-color="#E3C916"/>
      <stop offset="1" stop-color="#D1C150"/>
    </linearGradient>
  </defs>
</svg>
