<svg width="40" height="40" viewBox="0 0 40 40" fill="none" xmlns="http://www.w3.org/2000/svg">
  <circle cx="20" cy="20" r="19.5" stroke="#1F2937"/>
  <g clip-path="url(#clip0_77_12921)">
    <path d="M19.9801 11.8013C22.6455 11.8013 22.9584 11.8132 24.0118 11.8607C24.9861 11.9042 25.5128 12.0666 25.8653 12.2052C26.3326 12.3874 26.6653 12.6013 27.0138 12.9498C27.3623 13.2983 27.5801 13.631 27.7584 14.0983C27.893 14.4508 28.0594 14.9775 28.1029 15.9518C28.1504 17.0052 28.1623 17.3181 28.1623 19.9834C28.1623 22.6488 28.1504 22.9617 28.1029 24.0151C28.0594 24.9894 27.897 25.5161 27.7584 25.8686C27.5762 26.3359 27.3623 26.6686 27.0138 27.0171C26.6653 27.3656 26.3326 27.5835 25.8653 27.7617C25.5128 27.8963 24.9861 28.0627 24.0118 28.1062C22.9584 28.1537 22.6455 28.1656 19.9801 28.1656C17.3148 28.1656 17.0019 28.1537 15.9485 28.1062C14.9742 28.0627 14.4475 27.9003 14.095 27.7617C13.6277 27.5795 13.295 27.3656 12.9465 27.0171C12.598 26.6686 12.3801 26.3359 12.2019 25.8686C12.0673 25.5161 11.9009 24.9894 11.8574 24.0151C11.8098 22.9617 11.798 22.6488 11.798 19.9834C11.798 17.3181 11.8098 17.0052 11.8574 15.9518C11.9009 14.9775 12.0633 14.4508 12.2019 14.0983C12.3841 13.631 12.598 13.2983 12.9465 12.9498C13.295 12.6013 13.6277 12.3834 14.095 12.2052C14.4475 12.0706 14.9742 11.9042 15.9485 11.8607C17.0019 11.8092 17.3148 11.8013 19.9801 11.8013ZM19.9801 10.0033C17.2712 10.0033 16.9306 10.0151 15.8653 10.0627C14.8039 10.1102 14.0792 10.2805 13.4455 10.526C12.7881 10.7795 12.2336 11.124 11.6792 11.6785C11.1247 12.233 10.7841 12.7914 10.5267 13.4448C10.2811 14.0785 10.1108 14.8033 10.0633 15.8686C10.0158 16.93 10.0039 17.2706 10.0039 19.9795C10.0039 22.6884 10.0158 23.029 10.0633 24.0943C10.1108 25.1557 10.2811 25.8805 10.5267 26.5181C10.7801 27.1755 11.1247 27.73 11.6792 28.2844C12.2336 28.8389 12.792 29.1795 13.4455 29.4369C14.0792 29.6825 14.8039 29.8528 15.8693 29.9003C16.9346 29.9478 17.2712 29.9597 19.9841 29.9597C22.697 29.9597 23.0336 29.9478 24.099 29.9003C25.1603 29.8528 25.8851 29.6825 26.5227 29.4369C27.1801 29.1835 27.7346 28.8389 28.2891 28.2844C28.8435 27.73 29.1841 27.1716 29.4415 26.5181C29.6871 25.8844 29.8574 25.1597 29.9049 24.0943C29.9524 23.029 29.9643 22.6924 29.9643 19.9795C29.9643 17.2666 29.9524 16.93 29.9049 15.8646C29.8574 14.8033 29.6871 14.0785 29.4415 13.4409C29.1881 12.7834 28.8435 12.229 28.2891 11.6745C27.7346 11.1201 27.1762 10.7795 26.5227 10.5221C25.8891 10.2765 25.1643 10.1062 24.099 10.0587C23.0296 10.0151 22.6891 10.0033 19.9801 10.0033Z" fill="#1F2937"/>
    <path d="M19.9801 14.8548C17.1524 14.8548 14.8554 17.1479 14.8554 19.9796C14.8554 22.8112 17.1524 25.1043 19.9801 25.1043C22.8079 25.1043 25.1049 22.8073 25.1049 19.9796C25.1049 17.1518 22.8079 14.8548 19.9801 14.8548ZM19.9801 23.3063C18.1425 23.3063 16.6534 21.8172 16.6534 19.9796C16.6534 18.1419 18.1425 16.6528 19.9801 16.6528C21.8178 16.6528 23.3069 18.1419 23.3069 19.9796C23.3069 21.8172 21.8178 23.3063 19.9801 23.3063Z" fill="#1F2937"/>
    <path d="M25.3069 15.8489C25.9674 15.8489 26.5029 15.3135 26.5029 14.6529C26.5029 13.9923 25.9674 13.4569 25.3069 13.4569C24.6463 13.4569 24.1108 13.9923 24.1108 14.6529C24.1108 15.3135 24.6463 15.8489 25.3069 15.8489Z" fill="#1F2937"/>
  </g>
  <defs>
    <clipPath id="clip0_77_12921">
      <rect width="20" height="20" fill="white" transform="translate(10 10)"/>
    </clipPath>
  </defs>
</svg>
