<svg width="20" height="20" viewBox="0 0 20 20" fill="none" xmlns="http://www.w3.org/2000/svg">
  <path d="M14.7137 13.8807C13.9862 14.6083 12.5186 16.0758 11.4131 17.1813C10.6321 17.9624 9.36726 17.9623 8.58622 17.1813C7.5006 16.0957 6.06013 14.6552 5.28563 13.8807C2.68213 11.2772 2.68213 7.05612 5.28563 4.45262C7.88912 1.84913 12.1102 1.84913 14.7137 4.45262C17.3172 7.05612 17.3172 11.2772 14.7137 13.8807Z" stroke="#374151" stroke-width="1.5" stroke-linecap="round" stroke-linejoin="round"/>
  <path d="M12.4997 9.16667C12.4997 10.5474 11.3804 11.6667 9.99967 11.6667C8.61896 11.6667 7.49967 10.5474 7.49967 9.16667C7.49967 7.78596 8.61896 6.66667 9.99967 6.66667C11.3804 6.66667 12.4997 7.78596 12.4997 9.16667Z" stroke="#374151" stroke-width="1.5" stroke-linecap="round" stroke-linejoin="round"/>
</svg>
