<svg width="108" height="150" viewBox="0 0 108 150" fill="none" xmlns="http://www.w3.org/2000/svg">
  <path d="M105.693 101.653C106.016 101.651 106.327 101.532 106.571 101.315C106.815 101.098 106.976 100.798 107.024 100.47C109.144 85.7486 107.803 75.4438 103.036 69.7635C99.6598 65.7431 95.7854 65.7025 95.6128 65.7025C95.2694 65.7239 94.9468 65.8794 94.711 66.1375C94.4751 66.3955 94.3438 66.7365 94.3438 67.0908C94.3438 67.4452 94.4751 67.7861 94.711 68.0442C94.9468 68.3022 95.2694 68.4578 95.6128 68.4792C95.7558 68.4792 98.531 68.5756 101.074 71.6671C103.943 75.1545 106.842 82.9059 104.362 100.064C104.31 100.428 104.4 100.798 104.613 101.094C104.825 101.39 105.143 101.587 105.496 101.642C105.562 101.651 105.627 101.654 105.693 101.653Z" fill="#4C2805"/>
  <path d="M23.2038 135.124C13.1591 135.124 9.38728 126.089 8.35536 122.838L3.95317 123.087C3.58511 123.108 3.22383 122.984 2.9488 122.743C2.67376 122.501 2.50751 122.163 2.48661 121.801C2.46572 121.44 2.59189 121.085 2.83736 120.814C3.08284 120.544 3.42753 120.381 3.79558 120.36L9.3161 120.051C9.64785 120.034 9.97483 120.134 10.2384 120.332C10.502 120.531 10.6851 120.815 10.7547 121.134C10.8615 121.634 13.4489 133.121 24.2205 132.357C27.5196 132.127 29.8478 130.939 31.3372 128.721C35.7851 122.038 31.0068 108.568 30.956 108.433C30.8326 108.092 30.8522 107.717 31.0105 107.39C31.1687 107.063 31.4526 106.812 31.7998 106.69C32.147 106.569 32.5289 106.588 32.8616 106.744C33.1943 106.899 33.4505 107.178 33.5739 107.519C33.7925 108.124 38.8657 122.398 33.6654 130.209C31.7032 133.151 28.582 134.794 24.4238 135.084C24.0019 135.109 23.5953 135.124 23.2038 135.124Z" fill="#4C2805"/>
  <path d="M68.9276 149.999C69.2427 150.006 69.5507 149.906 69.8009 149.716C70.0511 149.526 70.2286 149.258 70.3044 148.955C70.3801 148.652 70.3495 148.333 70.2177 148.049C70.0858 147.766 69.8605 147.535 69.5787 147.395L65.4842 145.381L72.1473 135.419C80.9773 121.318 75.7078 113.094 71.8269 109.463C71.6933 109.339 71.5364 109.243 71.3652 109.179C71.194 109.115 71.0118 109.086 70.829 109.092C70.6462 109.098 70.4664 109.139 70.2999 109.214C70.1333 109.289 69.9834 109.396 69.8584 109.528C69.7335 109.66 69.6362 109.816 69.5719 109.985C69.5076 110.155 69.4777 110.335 69.4838 110.516C69.49 110.697 69.532 110.875 69.6077 111.04C69.6833 111.205 69.791 111.353 69.9246 111.477C73.2104 114.539 77.5542 121.55 69.8076 133.944L62.3001 145.159C62.1921 145.322 62.12 145.505 62.0884 145.697C62.0569 145.888 62.0666 146.085 62.1169 146.272C62.1665 146.461 62.2561 146.636 62.3798 146.787C62.5035 146.938 62.6584 147.062 62.8341 147.149L68.3274 149.888C68.5169 149.968 68.7218 150.006 68.9276 149.999Z" fill="#4C2805"/>
  <path d="M95.588 16.3374C86.067 -3.64277 30.3542 -8.02335 8.69141 18.7246V99.0441C30.3542 125.792 86.0469 121.411 95.588 101.431V16.3374Z" fill="#FFC419"/>
  <path d="M89.3781 18.0071C69.2398 35.1756 39.531 37.2948 16.1367 21.67C36.27 4.49113 65.9787 2.37189 89.3781 18.0071Z" fill="#EC691C"/>
  <path d="M70.1354 107.851C69.6416 107.851 69.168 107.684 68.8188 107.387C68.4696 107.09 68.2734 106.688 68.2734 106.268V40.0134C68.2734 39.5934 68.4696 39.1906 68.8188 38.8936C69.168 38.5966 69.6416 38.4297 70.1354 38.4297C70.6293 38.4297 71.1029 38.5966 71.4521 38.8936C71.8013 39.1906 71.9974 39.5934 71.9974 40.0134V106.247C72.0006 106.457 71.9548 106.665 71.8626 106.86C71.7705 107.054 71.6338 107.231 71.4606 107.38C71.2874 107.529 71.0811 107.648 70.8536 107.729C70.6261 107.81 70.382 107.851 70.1354 107.851Z" fill="#FF9D00"/>
  <path d="M36.6198 107.851C36.126 107.851 35.6524 107.684 35.3032 107.387C34.954 107.09 34.7578 106.688 34.7578 106.268V40.0134C34.7578 39.5934 34.954 39.1906 35.3032 38.8936C35.6524 38.5966 36.126 38.4297 36.6198 38.4297C37.1136 38.4297 37.5872 38.5966 37.9364 38.8936C38.2856 39.1906 38.4818 39.5934 38.4818 40.0134V106.247C38.485 106.457 38.4391 106.665 38.347 106.86C38.2548 107.054 38.1182 107.231 37.945 107.38C37.7718 107.529 37.5654 107.648 37.3379 107.729C37.1105 107.81 36.8664 107.851 36.6198 107.851Z" fill="#FF9D00"/>
  <path d="M87.5183 100.413C87.0245 100.413 86.5508 100.249 86.2016 99.9575C85.8524 99.6657 85.6562 99.27 85.6562 98.8573V33.7874C85.6563 33.3747 85.8524 32.979 86.2016 32.6872C86.5508 32.3954 87.0245 32.2314 87.5183 32.2314C88.0122 32.2314 88.4858 32.3954 88.835 32.6872C89.1842 32.979 89.3804 33.3747 89.3804 33.7874V98.8573C89.3804 99.27 89.1842 99.6657 88.835 99.9575C88.4858 100.249 88.0122 100.413 87.5183 100.413Z" fill="#FF9D00"/>
  <path d="M19.8624 99.1736C19.5332 99.1736 19.2175 99.0066 18.9847 98.7095C18.7519 98.4124 18.6211 98.0094 18.6211 97.5892V35.0554C18.6211 34.6352 18.7519 34.2322 18.9847 33.9351C19.2175 33.638 19.5332 33.4711 19.8624 33.4711C20.1916 33.4711 20.5074 33.638 20.7402 33.9351C20.973 34.2322 21.1037 34.6352 21.1037 35.0554V97.5688C21.1059 97.7786 21.0753 97.9868 21.0139 98.1814C20.9524 98.376 20.8613 98.5531 20.7459 98.7024C20.6304 98.8516 20.4928 98.9702 20.3412 99.051C20.1895 99.1319 20.0268 99.1736 19.8624 99.1736Z" fill="#FF9D00"/>
  <path d="M2.29143 104.132C1.97062 104.13 1.66098 104.01 1.41893 103.792C1.17688 103.574 1.01852 103.273 0.972688 102.944C-1.14024 88.2533 0.193216 77.9231 4.93383 72.2428C8.29197 68.2174 12.1501 68.1818 12.3168 68.1818C12.6718 68.1818 13.0122 68.3278 13.2632 68.5877C13.5142 68.8476 13.6552 69.2001 13.6552 69.5676C13.6552 69.9352 13.5142 70.2877 13.2632 70.5476C13.0122 70.8074 12.6718 70.9534 12.3168 70.9534C12.1747 70.9534 9.41951 71.055 6.88497 74.1464C4.03178 77.6287 1.14918 85.3853 3.61508 102.543C3.66702 102.906 3.57741 103.276 3.36597 103.571C3.15453 103.867 2.83855 104.063 2.48753 104.117C2.42286 104.129 2.35713 104.134 2.29143 104.132Z" fill="#4C2805"/>
  <path d="M67.423 69.2714C72.0485 68.1896 74.9202 63.5681 73.8369 58.949C72.7537 54.3298 68.1259 51.4621 63.5003 52.5438C58.8748 53.6255 56.0031 58.247 57.0863 62.8662C58.1695 67.4854 62.7974 70.3531 67.423 69.2714Z" fill="#FFF7F5"/>
  <path d="M62.5199 62.1646C63.2604 62.1665 63.9861 61.9577 64.6122 61.5626C65.2383 61.1675 65.739 60.6023 66.0556 59.9332C66.3723 59.2641 66.492 58.5187 66.4006 57.7842C66.3092 57.0496 66.0105 56.3562 65.5395 55.7851C66.6265 55.8567 67.6688 56.2445 68.5382 56.9007C69.4075 57.5569 70.066 58.4529 70.4326 59.4784C70.7991 60.5039 70.8578 61.6141 70.6013 62.6725C70.3448 63.7309 69.7844 64.6912 68.989 65.4353C68.1936 66.1793 67.1979 66.6747 66.1246 66.8603C65.0512 67.046 63.9469 66.9139 62.9477 66.4803C61.9485 66.0467 61.0979 65.3304 60.5006 64.4197C59.9033 63.509 59.5854 62.4436 59.5859 61.3546C59.5859 61.1835 59.5859 61.0175 59.6111 60.8515C59.9749 61.2643 60.4225 61.5949 60.924 61.8213C61.4256 62.0477 61.9696 62.1648 62.5199 62.1646Z" fill="#4C2805"/>
  <path d="M42.6651 69.2696C47.2907 68.1879 50.1623 63.5664 49.0791 58.9472C47.9959 54.328 43.368 51.4603 38.7425 52.542C34.1169 53.6238 31.2453 58.2453 32.3285 62.8644C33.4117 67.4836 38.0396 70.3513 42.6651 69.2696Z" fill="#FFF7F5"/>
  <path d="M37.6868 62.1644C38.4272 62.1663 39.1529 61.9576 39.779 61.5624C40.4051 61.1673 40.9058 60.6021 41.2225 59.9331C41.5392 59.264 41.6588 58.5186 41.5675 57.7841C41.4761 57.0496 41.1774 56.3562 40.7064 55.7851C41.7936 55.8557 42.8365 56.2427 43.7065 56.8983C44.5766 57.554 45.2359 58.4496 45.6032 59.4751C45.9705 60.5005 46.0298 61.6109 45.7739 62.6696C45.5179 63.7284 44.9578 64.6891 44.1626 65.4337C43.3673 66.1782 42.3717 66.674 41.2981 66.8601C40.2246 67.0461 39.12 66.9142 38.1205 66.4807C37.121 66.0472 36.2701 65.3309 35.6726 64.42C35.0752 63.5092 34.7572 62.4436 34.7578 61.3544C34.7578 61.1834 34.7578 61.0173 34.783 60.8513C35.1458 61.264 35.5925 61.5945 36.0932 61.821C36.5939 62.0474 37.1372 62.1645 37.6868 62.1644Z" fill="#4C2805"/>
  <path d="M54.7508 80.5792C54.0716 80.582 53.3935 80.6374 52.7228 80.7449C49.2448 81.2987 46.6078 83.0221 44.8946 85.8688C44.7987 86.0279 44.735 86.2043 44.7071 86.388C44.6792 86.5718 44.6876 86.7593 44.732 86.9397C44.7763 87.1202 44.8556 87.2901 44.9654 87.4399C45.0752 87.5896 45.2134 87.7161 45.3719 87.8123C45.5305 87.9085 45.7064 87.9724 45.8896 88.0004C46.0728 88.0284 46.2597 88.0199 46.4396 87.9754C46.6196 87.931 46.789 87.8514 46.9383 87.7413C47.0876 87.6312 47.2137 87.4926 47.3096 87.3336C47.9335 86.2958 48.7855 85.4145 49.8005 84.757C50.8155 84.0995 51.9668 83.6832 53.1666 83.5397C55.7467 83.1308 57.9811 83.7261 59.7614 85.315C60.0438 85.5466 60.4045 85.6597 60.7681 85.6308C61.1317 85.6019 61.4701 85.4332 61.7126 85.1599C61.9551 84.8866 62.0829 84.5299 62.0693 84.1643C62.0558 83.7987 61.9019 83.4526 61.6398 83.1982C59.7547 81.4853 57.2942 80.5499 54.7508 80.5792Z" fill="#4C2805"/>
</svg>
