<svg width="151" height="38" viewBox="0 0 151 38" fill="none" xmlns="http://www.w3.org/2000/svg">
  <path d="M90.3254 36.7515C89.8108 36.7515 89.3934 36.5552 89.0717 36.1637C88.0742 34.9493 88.8011 34.3607 89.5368 33.4112L104.792 13.7362C104.994 13.477 104.93 13.0954 104.698 12.8682C104.453 12.6552 104.087 12.6933 103.886 12.9529L102.5 14.7398H92.1101C91.1774 14.7398 90.4619 14.4166 89.9641 13.7694C89.4651 13.1225 89.2162 12.2713 89.2162 11.2158H107.351C107.898 11.2158 108.323 11.3862 108.629 11.7266C108.935 12.067 109.087 12.4928 109.087 13.0032C109.087 13.4797 108.942 13.9222 108.653 14.3312L94.7224 32.2338H92.2268C91.9096 32.2338 91.6504 32.5082 91.6504 32.8448C91.6504 33.1802 91.9096 33.4554 92.2268 33.4554H107.541C107.913 33.6167 108.228 33.8641 108.485 34.1976C108.983 34.8448 109.232 35.6956 109.232 36.7515H90.3254Z" stroke="black" stroke-width="0.00179533" stroke-miterlimit="2.61313"/>
  <path fill-rule="evenodd" clip-rule="evenodd" d="M90.3245 36.7509C89.8095 36.7509 89.3933 36.5554 89.0719 36.1639C88.0725 34.9483 88.7998 34.3613 89.5374 33.4114L104.791 13.7345C104.993 13.4749 104.929 13.0937 104.698 12.8673C104.451 12.655 104.087 12.6919 103.887 12.9515L102.5 14.74H92.1084C91.1772 14.74 90.4625 14.4164 89.9639 13.7676C89.4653 13.1208 89.216 12.27 89.216 11.2148H107.35C107.898 11.2148 108.322 11.386 108.629 11.726C108.934 12.0656 109.087 12.4922 109.087 13.0034C109.087 13.4791 108.943 13.922 108.652 14.3299L94.721 32.2332H92.2258C91.9087 32.2332 91.6491 32.5072 91.6491 32.845C91.6491 33.1808 91.9087 33.4549 92.2258 33.4549H107.539C107.912 33.6153 108.227 33.8646 108.485 34.1963C108.981 34.8435 109.231 35.6943 109.231 36.7509H90.3245Z" fill="black"/>
  <path d="M129.583 14.9532C129.583 12.4961 130.936 11.25 133.765 11.25C133.754 12.1713 133.768 12.628 133.774 12.9383C133.798 14.0944 136.62 11.0697 142.159 11.2675C144.884 11.3644 147.041 12.0642 148.624 13.6579C150.207 15.252 150.998 17.3104 150.998 19.8342V33.8784C150.998 34.9747 150.636 35.7794 149.912 36.2944C149.188 36.809 148.085 37.0666 146.604 37.0666V20.2825C146.604 18.688 146.149 17.4267 145.24 16.4966C144.331 15.5673 142.951 15.1022 141.098 15.1022C139.853 15.1022 138.682 15.3595 137.588 15.8745C136.494 16.3891 135.619 17.0863 134.962 17.9664C134.305 18.8458 133.977 19.8007 133.977 20.8302V33.8784C133.977 34.9747 133.615 35.7794 132.891 36.2944C132.167 36.809 131.064 37.0666 129.583 37.0666V14.9532Z" stroke="black" stroke-width="0.00268061" stroke-miterlimit="2.61313"/>
  <path d="M129.584 14.953C129.584 12.4951 130.938 11.249 133.766 11.249C133.756 12.1719 133.77 12.627 133.777 12.9384C133.799 14.0942 136.622 11.0695 142.161 11.2673C144.885 11.3641 147.044 12.0625 148.627 13.6573C150.209 15.2518 151 17.3098 151 19.8336V33.8782C151 34.9741 150.637 35.7796 149.914 36.2945C149.191 36.8099 148.087 37.0672 146.605 37.0672V20.283C146.605 18.6882 146.15 17.4253 145.242 16.4964C144.333 15.567 142.953 15.1016 141.101 15.1016C139.854 15.1016 138.684 15.3589 137.59 15.8739C136.496 16.3889 135.62 17.0853 134.963 17.9651C134.306 18.8448 133.979 19.8008 133.979 20.8289V33.8782C133.979 34.9741 133.616 35.7796 132.893 36.2945C132.17 36.8099 131.065 37.0672 129.584 37.0672V14.953Z" fill="black"/>
  <path d="M18.7102 32.4402C10.6014 32.4402 6.07444 25.824 6.07444 19.0585C6.07444 12.2929 10.6014 5.67633 18.7102 5.67633C22.4909 5.67633 25.5255 7.11911 27.6647 9.35779C28.1125 9.80492 28.8085 9.90516 29.3559 9.55676L31.2462 8.31297C31.943 7.86508 32.0924 6.87058 31.4951 6.27327C28.3614 2.98977 23.8839 1 18.7102 1C8.41279 1 1 8.85996 1 19.0585C1 29.2566 8.41279 37.067 18.7102 37.067C23.8839 37.067 28.3614 35.0768 31.4951 31.8433C32.0924 31.2464 31.943 30.2515 31.2462 29.804L29.3559 28.5602C28.8085 28.1626 28.1125 28.2617 27.6647 28.7591C25.5255 30.9974 22.4909 32.4402 18.7102 32.4402Z" stroke="black" stroke-width="0.0034836" stroke-miterlimit="2.61313"/>
  <path d="M18.7109 32.4393C10.602 32.4393 6.07571 25.8239 6.07571 19.0583C6.07571 12.2927 10.602 5.67541 18.7109 5.67541C22.4914 5.67541 25.526 7.11933 27.6645 9.35687C28.1135 9.80399 28.8099 9.905 29.3557 9.5566L31.2472 8.31243C31.9436 7.86531 32.0919 6.87042 31.4946 6.27273C28.3609 2.98885 23.884 1.00061 18.7109 1.00061C8.41403 1.00061 1.00146 8.86056 1.00146 19.0583C1.00146 29.2564 8.41403 37.0665 18.7109 37.0665C23.884 37.0665 28.3609 35.0763 31.4946 31.8439C32.0919 31.2466 31.9436 30.2513 31.2472 29.8042L29.3557 28.56C28.8099 28.1624 28.1135 28.2612 27.6645 28.7598C25.526 30.9973 22.4914 32.4393 18.7109 32.4393Z" fill="black"/>
  <path d="M116.97 13.9471C116.97 13.0559 117.352 12.3633 118.115 11.87C118.878 11.3764 119.962 11.1294 121.364 11.1294V34.2488C121.364 35.14 120.983 35.8318 120.219 36.3262C119.456 36.8195 118.372 37.0669 116.97 37.0669V13.9471Z" stroke="black" stroke-width="0.00261162" stroke-miterlimit="2.61313"/>
  <path d="M116.965 13.947C116.965 13.0573 117.348 12.3651 118.111 11.8704C118.875 11.3782 119.956 11.1309 121.36 11.1309V34.2484C121.36 35.1403 120.978 35.8326 120.214 36.3269C119.452 36.8194 118.368 37.0668 116.965 37.0668V13.947Z" fill="black"/>
  <path d="M73.3239 37.0675C71.28 37.0675 69.4294 36.6821 67.7708 35.911C66.1123 35.1406 64.8224 34.0935 63.9007 32.77C62.979 31.4466 62.5186 29.9642 62.5186 28.322V20.0801C62.5186 18.4049 62.979 16.8797 63.9007 15.5063C64.8224 14.1326 66.1036 13.0435 67.7457 12.2392C69.3874 11.4353 71.2468 11.0336 73.3239 11.0336C75.4013 11.0336 77.2695 11.4353 78.928 12.2392C80.5865 13.0435 81.8765 14.1326 82.7978 15.5063C83.7191 16.8797 84.1799 18.4049 84.1799 20.0801V28.322C84.1799 29.9642 83.7111 31.4466 82.7726 32.77C81.8345 34.0935 80.5446 35.1406 78.9029 35.911C77.2607 36.6821 75.4013 37.0675 73.3239 37.0675ZM73.3239 33.2976C75.3346 33.2976 76.9341 32.8204 78.1241 31.8651C79.3134 30.9103 79.908 29.6623 79.908 28.1212V20.2307C79.908 19.2385 79.6812 18.3618 79.2292 17.5994L80.8446 15.5403C80.9906 15.3539 80.9578 15.0825 80.7714 14.9357C80.5854 14.7897 80.314 14.8225 80.168 15.0085L78.7024 16.8763C78.5285 16.6777 78.3353 16.4898 78.1241 16.3106C76.9341 15.3055 75.3346 14.8023 73.3239 14.8023C71.3471 14.8023 69.756 15.3055 68.5496 16.3106C67.3435 17.3154 66.7401 18.6225 66.7401 20.2307V28.1212C66.7401 29.2186 67.042 30.1673 67.6454 30.9674L66.0959 32.942C65.9499 33.1284 65.9827 33.3998 66.1691 33.5465C66.3551 33.6925 66.6273 33.6597 66.7733 33.4733L68.2321 31.6139C68.3259 31.6997 68.4227 31.7839 68.5248 31.8651C69.7137 32.8204 71.3139 33.2976 73.3239 33.2976Z" stroke="#FF6600" stroke-width="0.000615476" stroke-miterlimit="2.61313"/>
  <path fill-rule="evenodd" clip-rule="evenodd" d="M73.3243 37.0663C71.2804 37.0663 69.4282 36.6809 67.7697 35.9106C66.1116 35.1402 64.8216 34.0935 63.9007 32.7689C62.9779 31.4462 62.5186 29.9626 62.5186 28.3209V20.0801C62.5186 18.4052 62.9779 16.8786 63.9007 15.5063C64.8216 14.1322 66.1032 13.0424 67.7453 12.2389C69.387 11.4353 71.2453 11.0336 73.3243 11.0336C75.4009 11.0336 77.2695 11.4353 78.928 12.2389C80.5861 13.0424 81.8761 14.1322 82.797 15.5063C83.7179 16.8786 84.1792 18.4052 84.1792 20.0801V28.3209C84.1792 29.9626 83.7095 31.4462 82.7722 32.7689C81.8349 34.0935 80.5431 35.1402 78.9032 35.9106C77.2611 36.6809 75.4009 37.0663 73.3243 37.0663ZM73.3243 33.2961C75.335 33.2961 76.9337 32.8203 78.1222 31.8643C79.313 30.9106 79.9065 29.6619 79.9065 28.1208V20.2303C79.9065 19.2373 79.6797 18.3618 79.2288 17.5994L80.8438 15.5395C80.9902 15.3539 80.957 15.0821 80.7718 14.9357C80.5842 14.7894 80.3125 14.8225 80.168 15.0078L78.7012 16.8763C78.5282 16.6766 78.3345 16.489 78.1222 16.3099C76.9337 15.3043 75.335 14.8019 73.3243 14.8019C71.3463 14.8019 69.756 15.3043 68.5485 16.3099C67.3435 17.3154 66.7397 18.6214 66.7397 20.2303V28.1208C66.7397 29.217 67.0405 30.1666 67.6443 30.9659L66.0948 32.9419C65.9488 33.1272 65.9816 33.399 66.1691 33.5453C66.3544 33.6917 66.6265 33.6586 66.7729 33.4733L68.2313 31.6131C68.3262 31.6997 68.423 31.7839 68.5241 31.8643C69.7126 32.8203 71.3135 33.2961 73.3243 33.2961Z" fill="#FF6600"/>
  <path d="M47.193 37.0675C45.1491 37.0675 43.2977 36.6821 41.6396 35.911C39.9807 35.1406 38.6908 34.0935 37.7699 32.77C36.8482 31.4466 36.3877 29.9642 36.3877 28.322V20.0801C36.3877 18.4049 36.8482 16.8797 37.7699 15.5063C38.6908 14.1326 39.9727 13.0435 41.6145 12.2392C43.2558 11.4353 45.116 11.0336 47.193 11.0336C49.2705 11.0336 51.1379 11.4353 52.7964 12.2392C54.4553 13.0435 55.7452 14.1326 56.6665 15.5063C57.5882 16.8797 58.0491 18.4049 58.0491 20.0801V28.322C58.0491 29.9642 57.5795 31.4466 56.6418 32.77C55.7029 34.0935 54.4138 35.1406 52.7716 35.911C51.1299 36.6821 49.2705 37.0675 47.193 37.0675ZM47.193 33.2976C49.2034 33.2976 50.8032 32.8204 51.9925 31.8651C53.1818 30.9103 53.7772 29.6623 53.7772 28.1212V20.2307C53.7772 19.2385 53.5504 18.3618 53.0979 17.5994L54.7137 15.5403C54.8597 15.3539 54.827 15.0825 54.6406 14.9357C54.4545 14.7897 54.1824 14.8225 54.0364 15.0085L52.5711 16.8763C52.3973 16.6777 52.2044 16.4898 51.9925 16.3106C50.8032 15.3055 49.2034 14.8023 47.193 14.8023C45.2162 14.8023 43.6248 15.3055 42.4184 16.3106C41.2127 17.3154 40.6093 18.6225 40.6093 20.2307V28.1212C40.6093 29.2186 40.9112 30.1673 41.5138 30.9674L39.9651 32.942C39.8187 33.1284 39.8519 33.3998 40.0383 33.5465C40.2243 33.6925 40.4961 33.6597 40.6424 33.4733L42.1012 31.6139C42.1942 31.6997 42.2918 31.7839 42.3932 31.8651C43.5829 32.8204 45.1823 33.2976 47.193 33.2976Z" stroke="#FF6600" stroke-width="0.000615476" stroke-miterlimit="2.61313"/>
  <path fill-rule="evenodd" clip-rule="evenodd" d="M47.1929 37.0663C45.149 37.0663 43.2992 36.6809 41.6406 35.9106C39.9821 35.1402 38.6903 34.0935 37.7698 32.7689C36.8488 31.4462 36.3872 29.9626 36.3872 28.3209V20.0801C36.3872 18.4052 36.8488 16.8786 37.7698 15.5063C38.6903 14.1322 39.9741 13.0424 41.614 12.2389C43.2557 11.4353 45.1163 11.0336 47.1929 11.0336C49.2715 11.0336 51.1382 11.4353 52.7967 12.2389C54.4552 13.0424 55.7447 14.1322 56.6676 15.5063C57.5885 16.8786 58.0501 18.4052 58.0501 20.0801V28.3209C58.0501 29.9626 57.5805 31.4462 56.6432 32.7689C55.7036 34.0935 54.414 35.1402 52.7719 35.9106C51.1298 36.6809 49.2715 37.0663 47.1929 37.0663ZM47.1929 33.2961C49.2037 33.2961 50.8042 32.8203 51.9931 31.8643C53.182 30.9106 53.7775 29.6619 53.7775 28.1208V20.2303C53.7775 19.2373 53.5506 18.3618 53.0974 17.5994L54.7148 15.5395C54.8608 15.3539 54.828 15.0821 54.6404 14.9357C54.4552 14.7894 54.183 14.8225 54.037 15.0078L52.5722 16.8763C52.3968 16.6766 52.2055 16.489 51.9931 16.3099C50.8042 15.3043 49.2037 14.8019 47.1929 14.8019C45.2173 14.8019 43.6247 15.3043 42.4194 16.3099C41.2122 17.3154 40.6107 18.6214 40.6107 20.2303V28.1208C40.6107 29.217 40.9114 30.1666 41.5149 30.9659L39.9657 32.9419C39.8194 33.1272 39.8525 33.399 40.0378 33.5453C40.2253 33.6917 40.4971 33.6586 40.6435 33.4733L42.1023 31.6131C42.1949 31.6997 42.2917 31.7839 42.3927 31.8643C43.5835 32.8203 45.1822 33.2961 47.1929 33.2961Z" fill="#FF6600"/>
</svg>
