<svg width="202" height="139" viewBox="0 0 202 139" fill="none" xmlns="http://www.w3.org/2000/svg">
  <path d="M71.903 138.613C65.5135 138.505 61.0653 137.11 58.6062 134.44C57.5984 133.421 56.8361 132.164 56.3824 130.774C55.9287 129.384 55.7967 127.9 55.9973 126.446C57.3596 115.882 74.7912 104.975 75.5337 104.545C75.8752 104.35 76.2753 104.302 76.6496 104.412C77.024 104.521 77.3434 104.779 77.5404 105.13C77.7374 105.482 77.7967 105.901 77.7057 106.298C77.6148 106.694 77.3807 107.039 77.0528 107.258C72.3526 110.163 59.9345 119.353 58.9604 126.875C58.8269 127.856 58.9207 128.856 59.2337 129.79C59.5468 130.725 60.07 131.566 60.7588 132.243C62.8023 134.462 66.7669 135.399 71.7327 135.485C85.5608 135.721 107.155 129.402 116.65 126.038C116.952 125.937 117.275 125.937 117.577 126.038L129.395 129.903C129.583 129.964 129.757 130.063 129.908 130.195C130.059 130.326 130.183 130.488 130.275 130.671C130.366 130.853 130.422 131.053 130.44 131.258C130.458 131.463 130.438 131.67 130.38 131.867C130.322 132.064 130.227 132.247 130.102 132.406C129.976 132.564 129.822 132.695 129.649 132.791C129.475 132.887 129.285 132.946 129.09 132.965C128.894 132.984 128.697 132.962 128.51 132.901L117.141 129.187C109.045 131.94 100.816 134.241 92.4885 136.079C84.2325 137.864 77.3707 138.708 71.903 138.613Z" fill="#79302A"/>
  <path d="M138.659 138.614C133.107 138.525 126.125 137.496 117.776 135.534C109.354 133.505 101.046 131.044 92.8874 128.159L81.1928 131.322C80.9966 131.384 80.7896 131.406 80.5844 131.387C80.3792 131.368 80.1799 131.309 79.9987 131.212C79.8175 131.116 79.658 130.985 79.5299 130.826C79.4018 130.667 79.3077 130.485 79.2533 130.29C79.1989 130.095 79.1854 129.891 79.2134 129.69C79.2415 129.49 79.3106 129.297 79.4166 129.123C79.5226 128.949 79.6633 128.799 79.8302 128.68C79.9971 128.561 80.1868 128.477 80.3878 128.432L92.5473 125.14C92.8587 125.058 93.1883 125.073 93.4912 125.181C103.062 128.698 124.848 135.404 138.93 135.643C143.989 135.724 148.056 134.961 150.208 132.916C150.931 132.294 151.49 131.509 151.838 130.628C152.186 129.748 152.313 128.798 152.207 127.86C151.457 120.67 135.002 106.93 130.31 104.006C129.968 103.794 129.725 103.457 129.636 103.069C129.547 102.681 129.618 102.274 129.835 101.938C130.051 101.602 130.394 101.364 130.789 101.276C131.184 101.189 131.599 101.259 131.941 101.471C132.677 101.935 154.185 117.446 155.24 127.553C155.394 128.939 155.21 130.342 154.705 131.645C154.199 132.948 153.386 134.115 152.332 135.05C149.743 137.53 145.162 138.716 138.659 138.614Z" fill="#79302A"/>
  <path d="M36.8199 16.6232C34.7133 12.0434 31.7222 7.92928 28.0203 4.51943C18.7295 -4.27699 3.34408 0.419992 0.722184 12.9684C0.424186 14.3926 0.211644 15.8335 0.0857251 17.2833C-0.737509 26.5244 4.52013 34.9526 9.34884 40.6223C11.3401 42.9439 12.7547 45.7069 13.4762 48.6843C14.1978 51.6617 14.2058 54.7685 13.4996 57.7496C11.9431 64.3087 11.2167 72.9245 15.3536 79.5461C19.4905 86.1678 27.2801 88.2314 33.6377 88.6622C36.3795 88.8356 39.0132 89.8006 41.2222 91.4412C43.4311 93.0818 45.1214 95.3281 46.09 97.9102C48.442 104.33 52.7658 111.855 60.3063 113.314C68.3865 114.885 75.8924 111.689 80.6519 108.833C82.2531 107.883 84.0848 107.396 85.9443 107.427C87.8039 107.457 89.6186 108.004 91.1879 109.007C96.4386 112.342 105.024 116.379 114.259 114.968C122.305 113.738 126.995 108.666 129.617 104.198C130.748 102.242 132.46 100.69 134.513 99.7592C136.566 98.8286 138.857 98.5659 141.066 99.0081C147.389 100.3 155.649 101.218 159.855 98.4939C162.491 96.7846 163.411 93.5468 163.508 90.0866C163.667 86.0489 164.933 82.1338 167.167 78.7731C169.401 75.4125 172.516 72.7369 176.168 71.0415C183.625 67.5119 191.27 62.7037 192.328 57.4786C193.553 51.4268 189.561 44.3465 185.894 39.4133C184.655 37.7348 184 35.6928 184.031 33.603C184.062 31.5132 184.778 29.4919 186.067 27.8515C190.604 22.2587 192.905 15.1696 192.522 7.96574C192.471 6.91731 192.178 5.89515 191.666 4.97989C191.154 4.06464 190.438 3.28134 189.573 2.69179C188.708 2.10224 187.719 1.72257 186.683 1.58275C185.648 1.44292 184.594 1.54676 183.605 1.88606C179.215 3.43026 175.394 6.27432 172.647 10.0433L129.818 46.7715L85.1832 55.1718L36.8199 16.6232Z" fill="#FF9D00"/>
  <path d="M120.375 10.0983C120.997 12.5972 121.046 15.2061 120.517 17.7267C119.987 20.2473 118.894 22.6132 117.319 24.6445C115.745 26.6758 113.731 28.3191 111.431 29.4493C109.131 30.5795 106.605 31.167 104.046 31.167C101.487 31.167 98.9607 30.5795 96.6607 29.4493C94.3607 28.3191 92.3469 26.6758 90.7726 24.6445C89.1983 22.6132 88.1049 20.2473 87.5754 17.7267C87.046 15.2061 87.0945 12.5972 87.7173 10.0983C68.1727 -2.54985 50.0004 -4.13349 33.7895 10.0983C31.8948 20.4687 32.2892 31.1318 34.9447 41.3317C37.6001 51.5317 42.4517 61.019 49.1557 69.1213C55.8596 77.2236 64.2518 83.7426 73.7376 88.2164C83.2234 92.6901 93.5706 95.0092 104.046 95.0092C114.521 95.0092 124.869 92.6901 134.354 88.2164C143.84 83.7426 152.232 77.2236 158.936 69.1213C165.64 61.019 170.492 51.5317 173.147 41.3317C175.803 31.1318 176.197 20.4687 174.302 10.0983C155.007 -3.36609 137.031 -3.36609 120.375 10.0983Z" fill="#FFC419"/>
  <path d="M37.2695 10.6983C43.5733 15.512 51.3434 18.2989 59.4453 18.6521C67.5473 19.0053 75.5568 16.9063 82.3044 12.6616C75.9997 7.84976 68.2298 5.06408 60.1284 4.71089C52.027 4.35771 44.0179 6.45551 37.2695 10.6983V10.6983Z" fill="#EC691C"/>
  <path d="M124.234 11.9399C130.818 16.4155 138.739 18.7799 146.841 18.6878C154.943 18.5956 162.801 16.0519 169.269 11.4278C162.687 6.94925 154.766 4.58307 146.663 4.6752C138.56 4.76733 130.701 7.31294 124.234 11.9399V11.9399Z" fill="#EC691C"/>
  <path d="M36.0057 54.5131C31.9238 54.5262 27.8543 54.0529 23.8799 53.103C12.4722 50.2899 5.88455 43.3875 4.7866 33.1785C4.24108 28.0457 5.43569 23.5828 8.33594 19.9236C13.5288 13.3737 22.6162 11.3855 25.7098 10.8849L27.8504 2.64294C27.9677 2.26262 28.2238 1.94299 28.5657 1.7504C28.9077 1.55781 29.3091 1.50704 29.6867 1.60865C30.0643 1.71025 30.3891 1.95641 30.5936 2.29604C30.7982 2.63567 30.8668 3.04268 30.7852 3.43259L28.3822 12.6757C28.3039 12.9789 28.1371 13.2505 27.904 13.4546C27.6709 13.6586 27.3824 13.7853 27.0771 13.8179C26.9666 13.8179 16.0768 15.0729 10.6838 21.8836C8.32214 24.873 7.34848 28.5675 7.80423 32.8471C8.74336 41.773 14.3712 47.5825 24.529 50.1207C29.6572 51.3144 34.9341 51.6996 40.1765 51.2629C40.3795 51.2307 40.5869 51.241 40.7859 51.293C40.985 51.345 41.1716 51.4377 41.3346 51.5655C41.4975 51.6932 41.6334 51.8534 41.734 52.0364C41.8346 52.2193 41.8978 52.4212 41.9198 52.6298C41.9417 52.8384 41.922 53.0493 41.8618 53.2499C41.8017 53.4505 41.7023 53.6366 41.5696 53.7968C41.437 53.957 41.2739 54.0881 41.0903 54.1822C40.9066 54.2762 40.7061 54.3312 40.501 54.3439C40.3491 54.3298 38.6297 54.5131 36.0057 54.5131Z" fill="#79302A"/>
  <path d="M170.423 52.9553C167.79 52.9553 166.058 52.7724 165.905 52.7583C165.516 52.6984 165.165 52.488 164.925 52.1712C164.685 51.8544 164.576 51.4557 164.618 51.0585C164.661 50.6613 164.854 50.2963 165.156 50.0399C165.457 49.7836 165.845 49.6556 166.238 49.6829C171.495 50.1212 176.787 49.739 181.931 48.5499C192.123 46.0164 197.77 40.2175 198.719 31.308C199.169 27.0292 198.199 23.3486 195.823 20.3648C190.418 13.5665 179.492 12.3279 179.381 12.3139C179.074 12.2827 178.783 12.1568 178.547 11.9531C178.312 11.7493 178.144 11.4774 178.065 11.1738L175.661 1.94062C175.558 1.544 175.614 1.1221 175.817 0.767743C176.021 0.413381 176.354 0.155582 176.745 0.0510609C177.135 -0.0534607 177.551 0.00385616 177.9 0.210402C178.248 0.416949 178.502 0.755805 178.605 1.15243L180.753 9.37924C183.864 9.8789 192.982 11.8635 198.185 18.4013C201.095 22.0537 202.294 26.5085 201.754 31.6318C200.666 41.8502 194.042 48.7399 182.589 51.569C178.6 52.51 174.517 52.9753 170.423 52.9553V52.9553Z" fill="#79302A"/>
  <path d="M105.994 71.5715C105.28 71.6465 104.56 71.6652 103.842 71.6273C102.123 71.6073 100.432 71.2296 98.8974 70.523C97.3633 69.8164 96.0273 68.7997 94.9916 67.5507C94.7743 67.2627 94.6868 66.9097 94.7472 66.5647C94.8076 66.2197 95.0113 65.909 95.3162 65.6967C95.6212 65.4844 96.004 65.3868 96.3858 65.4239C96.7675 65.4611 97.119 65.6303 97.3676 65.8965C98.1467 66.8245 99.1486 67.5782 100.297 68.1001C101.445 68.6219 102.709 68.8981 103.992 68.9075C105.244 69.0119 106.506 68.8502 107.678 68.4352C108.85 68.0202 109.9 67.3633 110.746 66.5161C111.017 66.2483 111.393 66.0893 111.793 66.0742C112.193 66.0591 112.582 66.1891 112.877 66.4355C113.171 66.682 113.346 67.0248 113.362 67.3884C113.379 67.7521 113.236 68.1069 112.965 68.3747C111.17 70.2055 108.679 71.3481 105.994 71.5715V71.5715Z" fill="#4C2805"/>
  <path d="M80.7529 65.4162C80.7529 66.3404 80.5252 67.2438 80.0986 68.0122C79.672 68.7806 79.0657 69.3795 78.3563 69.7331C77.6469 70.0868 76.8663 70.1793 76.1132 69.999C75.3601 69.8187 74.6683 69.3737 74.1254 68.7202C73.5824 68.0668 73.2127 67.2342 73.0629 66.3278C72.9131 65.4214 72.99 64.4819 73.2838 63.6281C73.5776 62.7743 74.0752 62.0446 74.7137 61.5311C75.3521 61.0177 76.1027 60.7437 76.8706 60.7437C77.9003 60.7437 78.8877 61.2359 79.6158 62.1122C80.3439 62.9885 80.7529 64.177 80.7529 65.4162Z" fill="#E52323"/>
  <path d="M131.999 65.4162C131.999 66.3404 131.771 67.2438 131.345 68.0122C130.918 68.7806 130.312 69.3795 129.602 69.7331C128.893 70.0868 128.112 70.1793 127.359 69.999C126.606 69.8187 125.914 69.3737 125.371 68.7202C124.829 68.0668 124.459 67.2342 124.309 66.3278C124.159 65.4214 124.236 64.4819 124.53 63.6281C124.824 62.7743 125.321 62.0446 125.96 61.5311C126.598 61.0177 127.349 60.7437 128.117 60.7437C129.146 60.7437 130.134 61.2359 130.862 62.1122C131.59 62.9885 131.999 64.177 131.999 65.4162Z" fill="#E52323"/>
  <path d="M130.982 44.5229L131.045 44.5428C131.426 44.666 131.743 44.9343 131.929 45.2899C132.115 45.6456 132.154 46.0602 132.038 46.4445C131.505 48.1403 130.468 49.632 129.066 50.7198C127.664 51.8076 125.963 52.4395 124.193 52.5307C122.422 52.6219 120.667 52.1681 119.161 51.2301C117.655 50.2922 116.47 48.9149 115.767 47.2828C115.63 46.9147 115.638 46.5076 115.792 46.1459C115.945 45.7842 116.232 45.4954 116.591 45.3394C116.951 45.1834 117.357 45.1721 117.725 45.3078C118.093 45.4434 118.395 45.7157 118.568 46.0683C119.025 47.1268 119.793 48.0198 120.77 48.6277C121.748 49.2356 122.887 49.5293 124.035 49.4694C125.184 49.4095 126.286 48.9989 127.195 48.2926C128.105 47.5863 128.777 46.6181 129.121 45.5178C129.245 45.1439 129.507 44.832 129.853 44.6468C130.2 44.4615 130.604 44.4172 130.982 44.5229V44.5229Z" fill="#79302A"/>
  <path d="M92.8144 44.9616C92.9158 44.9889 93.0142 45.0263 93.1081 45.0732C93.4696 45.2553 93.7444 45.5737 93.8722 45.9588C93.9999 46.3438 93.9702 46.7639 93.7894 47.1269C93.0022 48.7236 91.746 50.0398 90.19 50.8984C88.634 51.757 86.8531 52.1167 85.0871 51.929C83.321 51.7412 81.6548 51.0152 80.3128 49.8485C78.9708 48.6819 78.0176 47.1308 77.5816 45.4041C77.4812 45.0104 77.5408 44.5928 77.7474 44.2433C77.9539 43.8937 78.2905 43.6407 78.6831 43.54C79.0756 43.4393 79.4919 43.4992 79.8405 43.7063C80.189 43.9135 80.4413 44.2511 80.5417 44.6448C80.8163 45.7469 81.4181 46.7393 82.2676 47.4906C83.1171 48.2419 84.1741 48.7167 85.2986 48.8521C86.4574 48.9965 87.6323 48.7774 88.662 48.225C89.6916 47.6725 90.5254 46.8138 91.0487 45.7668C91.2024 45.4465 91.4634 45.1905 91.786 45.0433C92.1087 44.8962 92.4727 44.8673 92.8144 44.9616V44.9616Z" fill="#79302A"/>
</svg>
