<svg width="24" height="22" viewBox="0 0 24 22" fill="none" xmlns="http://www.w3.org/2000/svg">
  <path d="M10.8008 2.20001C10.138 2.20001 9.60078 2.6925 9.60078 3.30001C9.60078 3.90753 10.138 4.40001 10.8008 4.40001H13.2008C13.8635 4.40001 14.4008 3.90753 14.4008 3.30001C14.4008 2.6925 13.8635 2.20001 13.2008 2.20001H10.8008Z" fill="#059669"/>
  <path fill-rule="evenodd" clip-rule="evenodd" d="M4.80078 5.50001C4.80078 4.28499 5.8753 3.30001 7.20078 3.30001C7.20078 5.12255 8.81256 6.60001 10.8008 6.60001H13.2008C15.189 6.60001 16.8008 5.12255 16.8008 3.30001C18.1263 3.30001 19.2008 4.28499 19.2008 5.50001V17.6C19.2008 18.815 18.1263 19.8 16.8008 19.8H7.20078C5.8753 19.8 4.80078 18.815 4.80078 17.6V5.50001ZM16.4493 11.7778C16.9179 11.3483 16.9179 10.6518 16.4493 10.2222C15.9807 9.79262 15.2209 9.79262 14.7523 10.2222L10.8008 13.8444L9.24931 12.4222C8.78068 11.9926 8.02088 11.9926 7.55225 12.4222C7.08362 12.8518 7.08362 13.5483 7.55225 13.9778L9.95225 16.1778C10.4209 16.6074 11.1807 16.6074 11.6493 16.1778L16.4493 11.7778Z" fill="#059669"/>
</svg>
