<svg width="29" height="18" viewBox="0 0 29 18" fill="none" xmlns="http://www.w3.org/2000/svg">
  <path d="M22.5925 5.88352C21.8705 5.02349 20.7993 4.53021 19.6534 4.53021H17.6934C17.6981 4.58595 17.7011 4.64213 17.7011 4.699V6.40371H17.7012H18.5737H19.6534C20.2125 6.40371 20.7352 6.64443 21.0876 7.06408L22.6381 8.91096L23.4546 9.88342H25.9507L22.5925 5.88352Z" fill="#3B82F6"/>
  <path d="M19.7816 7.78754C19.2464 7.78754 18.8125 8.20696 18.8125 8.72431V9.88329H20.7507V8.72431C20.7507 8.20702 20.3168 7.78754 19.7816 7.78754Z" fill="#3B82F6"/>
  <path d="M15.5829 3.89984H12.3208C12.3306 4.03187 12.3358 4.16515 12.3358 4.29955C12.3358 7.35905 9.76093 9.84817 6.59587 9.84817H0.84561C0.675162 9.84817 0.520591 9.78383 0.405103 9.67961C0.165514 9.84585 0.00707667 10.1146 0.000221215 10.4197C-0.0116147 10.9462 0.45315 11.3772 0.997954 11.3772H2.78289H4.07494V13.8907C4.07494 14.6254 4.69105 15.2209 5.45107 15.2209H6.52873C6.81343 14.2081 7.77249 13.4609 8.90915 13.4609C10.0459 13.4609 11.0049 14.2081 11.2896 15.2209H16.4095V4.69898C16.4095 4.25764 16.0394 3.89984 15.5829 3.89984Z" fill="#3B82F6"/>
  <path d="M6.59628 0C4.14373 0 2.14844 1.92872 2.14844 4.29952C2.14844 6.67033 4.14373 8.59911 6.59628 8.59911C9.04884 8.59911 11.0441 6.67033 11.0441 4.29952C11.0441 1.92872 9.04884 0 6.59628 0ZM8.03142 5.42367H6.07949C5.72271 5.42367 5.43343 5.14409 5.43343 4.79915V2.47259C5.43343 2.12764 5.72277 1.84807 6.07949 1.84807C6.4362 1.84807 6.72554 2.12764 6.72554 2.47259V4.17463H8.03142C8.38819 4.17463 8.67747 4.45421 8.67747 4.79915C8.67747 5.14409 8.38813 5.42367 8.03142 5.42367Z" fill="#3B82F6"/>
  <path d="M27.0531 11.1324H17.0547V11.1325V14.9244H22.2222C22.5957 14.0656 23.4749 13.4609 24.4975 13.4609C25.5201 13.4609 26.3993 14.0656 26.7727 14.9244H26.79C27.55 14.9244 28.1662 14.3288 28.1662 13.5942V12.2084C28.1662 11.6142 27.6679 11.1324 27.0531 11.1324Z" fill="#3B82F6"/>
  <path d="M8.90869 14.0853C7.90469 14.0853 7.08789 14.8748 7.08789 15.8453C7.08789 16.8158 7.90469 17.6054 8.90869 17.6054C9.91269 17.6054 10.7295 16.8158 10.7295 15.8453C10.7295 14.8748 9.91263 14.0853 8.90869 14.0853Z" fill="#3B82F6"/>
  <path d="M24.4985 14.0853C23.4945 14.0853 22.6777 14.8748 22.6777 15.8453C22.6777 16.8158 23.4945 17.6054 24.4985 17.6054C25.5025 17.6054 26.3193 16.8158 26.3193 15.8453C26.3193 14.8748 25.5025 14.0853 24.4985 14.0853Z" fill="#3B82F6"/>
</svg>
