<svg width="186" height="137" viewBox="0 0 186 137" fill="none" xmlns="http://www.w3.org/2000/svg">
  <path d="M113.181 62.8931C114.53 59.6137 112.966 55.8617 109.686 54.5127C106.407 53.1637 102.655 54.7286 101.306 58.008C99.9568 61.2873 101.522 65.0394 104.801 66.3884C108.08 67.7373 111.832 66.1724 113.181 62.8931Z" fill="#FFF7F5"/>
  <path d="M35.4942 17.2698C33.4634 12.868 30.5801 8.91369 27.0114 5.63632C18.0552 -2.81834 3.22367 1.69615 0.696181 13.7571C0.408913 15.1259 0.204024 16.5108 0.0826385 17.9043C-0.710954 26.7863 4.35738 34.887 9.01223 40.3365C10.9318 42.5679 12.2954 45.2236 12.991 48.0853C13.6866 50.947 13.6943 53.9331 13.0135 56.7984C11.5131 63.1026 10.8128 71.3837 14.8008 77.748C18.7888 84.1124 26.2979 86.0959 32.4265 86.5099C35.0697 86.6766 37.6085 87.6041 39.738 89.1809C41.8674 90.7578 43.4968 92.9168 44.4305 95.3987C46.6979 101.569 50.8659 108.802 58.135 110.204C65.9242 111.714 73.1599 108.642 77.748 105.897C79.2916 104.984 81.0573 104.516 82.8499 104.545C84.6424 104.575 86.3919 105.1 87.9047 106.064C92.9663 109.269 101.242 113.149 110.145 111.794C117.901 110.612 122.423 105.737 124.95 101.442C126.041 99.5621 127.691 98.0703 129.67 97.1758C131.649 96.2813 133.858 96.0288 135.987 96.4538C142.082 97.696 150.045 98.5775 154.1 95.9596C156.641 94.3168 157.527 91.2047 157.621 87.8789C157.774 83.9982 158.995 80.2352 161.148 77.0051C163.302 73.775 166.304 71.2033 169.825 69.5739C177.014 66.1813 184.383 61.56 185.403 56.5379C186.584 50.7212 182.736 43.916 179.201 39.1745C178.006 37.5611 177.375 35.5985 177.405 33.5899C177.435 31.5813 178.125 29.6385 179.368 28.0619C183.741 22.6864 185.96 15.8727 185.59 8.94873C185.541 7.94104 185.258 6.95858 184.765 6.07889C184.272 5.1992 183.581 4.44633 182.747 3.87968C181.914 3.31304 180.96 2.94813 179.962 2.81373C178.963 2.67934 177.947 2.77914 176.994 3.10527C172.762 4.58947 169.079 7.32302 166.43 10.9455L125.144 46.2467L82.1161 54.3207L35.4942 17.2698Z" fill="#FF9D00"/>
  <path d="M102.394 137H114.729C115.151 137 115.556 136.838 115.854 136.549C116.152 136.26 116.32 135.869 116.32 135.46C116.32 135.052 116.152 134.66 115.854 134.372C115.556 134.083 115.151 133.921 114.729 133.921H104.332L113.731 88.3463C113.788 87.9567 113.687 87.5611 113.452 87.2407C113.216 86.9204 112.862 86.6994 112.464 86.6233C112.065 86.5472 111.651 86.6217 111.308 86.8315C110.964 87.0413 110.716 87.3704 110.615 87.7514L100.84 135.131C100.795 135.354 100.802 135.584 100.859 135.804C100.916 136.024 101.023 136.229 101.171 136.404C101.32 136.58 101.506 136.722 101.717 136.82C101.929 136.918 102.16 136.97 102.394 136.972V137Z" fill="#79302A"/>
  <path d="M85.1617 136.996H73.9286C73.7299 137.011 73.5306 136.981 73.3429 136.908C73.1553 136.836 72.9835 136.722 72.838 136.574C72.6925 136.427 72.5765 136.248 72.4972 136.05C72.4179 135.851 72.377 135.637 72.377 135.421C72.377 135.205 72.4179 134.991 72.4972 134.792C72.5765 134.594 72.6925 134.415 72.838 134.268C72.9835 134.12 73.1553 134.006 73.3429 133.934C73.5306 133.861 73.7299 133.831 73.9286 133.846H83.3908L74.8008 87.1151C74.7453 86.7139 74.8342 86.305 75.0489 85.973C75.2635 85.6411 75.5876 85.4117 75.9539 85.3323C76.3202 85.2529 76.7006 85.3297 77.0161 85.5467C77.3317 85.7637 77.5582 86.1043 77.6487 86.4979L86.5626 135.116C86.6053 135.337 86.6044 135.565 86.5599 135.785C86.5155 136.005 86.4286 136.212 86.3049 136.393C86.1691 136.582 85.9956 136.734 85.7975 136.838C85.5994 136.943 85.3819 136.997 85.1617 136.996Z" fill="#79302A"/>
  <path d="M110.395 10.3028C110.728 11.6537 110.899 13.0395 110.905 14.4311C110.916 16.8836 110.408 19.3104 109.413 21.5504C108.419 23.7903 106.962 25.792 105.138 27.4227C103.315 29.0534 101.167 30.2756 98.8371 31.0082C96.5073 31.7409 94.0491 31.9672 91.6256 31.6721C89.202 31.3769 86.8688 30.5672 84.7807 29.2966C82.6926 28.0259 80.8975 26.3235 79.5146 24.3024C78.1317 22.2813 77.1927 19.9877 76.7599 17.574C76.3271 15.1603 76.4104 12.6817 77.0043 10.3028C57.025 -2.60151 38.4485 -4.21722 21.8841 10.3028C20.0483 20.3316 20.3136 30.6348 22.6632 40.5547C25.0129 50.4747 29.3952 59.7936 35.5304 67.9168C41.6657 76.04 49.4193 82.7891 58.2963 87.7333C67.1732 92.6775 76.9787 95.7083 87.0869 96.6322C97.1951 97.5561 107.384 96.3529 117.003 93.0993C126.623 89.8457 135.461 84.6131 142.955 77.7356C150.449 70.8582 156.433 62.4867 160.526 53.1556C164.619 43.8245 166.731 33.7387 166.727 23.5417C166.72 19.1011 166.315 14.6702 165.515 10.3028C145.791 -3.43428 127.418 -3.43428 110.395 10.3028Z" fill="#FFC419"/>
  <path d="M97.0688 64.6234C96.3616 64.6263 95.6557 64.6841 94.9574 64.7961C91.3362 65.3735 88.5908 67.1704 86.8071 70.1383C86.7073 70.3041 86.6409 70.488 86.6119 70.6796C86.5828 70.8712 86.5916 71.0666 86.6378 71.2548C86.6839 71.4429 86.7665 71.6201 86.8808 71.7762C86.9952 71.9323 87.139 72.0642 87.3041 72.1645C87.4692 72.2648 87.6523 72.3314 87.843 72.3606C88.0338 72.3898 88.2284 72.3809 88.4157 72.3346C88.603 72.2882 88.7794 72.2053 88.9349 72.0905C89.0903 71.9757 89.2216 71.8312 89.3215 71.6654C89.9711 70.5834 90.8581 69.6646 91.9148 68.9791C92.9716 68.2937 94.1703 67.8596 95.4194 67.71C98.1057 67.2837 100.432 67.9043 102.286 69.5609C102.58 69.8023 102.955 69.9203 103.334 69.8901C103.712 69.86 104.065 69.6841 104.317 69.3992C104.569 69.1143 104.703 68.7423 104.688 68.3612C104.674 67.9801 104.514 67.6192 104.241 67.3539C102.279 65.5682 99.7168 64.5929 97.0688 64.6234Z" fill="#4C2805"/>
  <path d="M66.645 50.5997C67.5435 52.3003 68.9262 53.6962 70.6183 54.6107C72.3103 55.5251 74.2356 55.917 76.1505 55.7367C78.0654 55.5565 79.8839 54.8123 81.3756 53.5982C82.8673 52.3841 83.9654 50.7547 84.5308 48.9163C85.0961 47.0779 85.1033 45.1132 84.5516 43.2706C83.9998 41.4281 82.9138 39.7907 81.4311 38.5656C79.9484 37.3405 78.1355 36.5828 76.222 36.3885C74.3084 36.1941 72.3803 36.5719 70.6815 37.4738C68.4076 38.6811 66.7055 40.7412 65.9487 43.202C65.192 45.6628 65.4424 48.3233 66.645 50.5997Z" fill="#FFF7F5"/>
  <path d="M106.926 50.6002C107.825 52.3008 109.207 53.6967 110.9 54.6112C112.592 55.5256 114.517 55.9175 116.432 55.7372C118.347 55.557 120.165 54.8128 121.657 53.5987C123.149 52.3846 124.247 50.7552 124.812 48.9168C125.377 47.0784 125.385 45.1136 124.833 43.2711C124.281 41.4286 123.195 39.7912 121.712 38.5661C120.23 37.341 118.417 36.5833 116.503 36.389C114.59 36.1946 112.662 36.5723 110.963 37.4743C108.689 38.6816 106.987 40.7416 106.23 43.2025C105.473 45.6633 105.724 48.3238 106.926 50.6002Z" fill="#FFF7F5"/>
  <path d="M72.5316 44.4283C73.0985 45.0494 73.8306 45.4961 74.6423 45.7162C75.4539 45.9363 76.3115 45.9207 77.1145 45.671C77.9176 45.4214 78.6329 44.9482 79.1767 44.3068C79.7206 43.6653 80.0705 42.8822 80.1854 42.0491C80.9601 43.0143 81.4358 44.1849 81.554 45.4169C81.6721 46.6489 81.4274 47.8885 80.8501 48.9833C80.2728 50.0781 79.3881 50.9802 78.3048 51.5787C77.2214 52.1771 75.9868 52.4458 74.7527 52.3517C73.5186 52.2576 72.339 51.8048 71.359 51.0489C70.379 50.293 69.6413 49.2671 69.2367 48.0974C68.8322 46.9277 68.7784 45.6654 69.0821 44.4655C69.3857 43.2657 70.0334 42.1808 70.9456 41.3444C71.0878 41.2118 71.2371 41.0871 71.3928 40.9708C71.3253 41.5949 71.3919 42.2263 71.5883 42.8226C71.7847 43.4189 72.1063 43.9664 72.5316 44.4283Z" fill="#4C2805"/>
  <path d="M112.61 44.8382C113.261 45.3707 114.05 45.7066 114.885 45.8068C115.72 45.907 116.566 45.7674 117.324 45.404C118.083 45.0407 118.722 44.4689 119.167 43.7555C119.612 43.042 119.845 42.2165 119.838 41.3755C120.744 42.2183 121.385 43.3077 121.68 44.5096C121.975 45.7115 121.913 46.9734 121.5 48.1403C121.088 49.3071 120.343 50.3279 119.358 51.077C118.372 51.826 117.19 52.2708 115.955 52.3564C114.72 52.442 113.487 52.1648 112.408 51.5589C111.329 50.9529 110.451 50.0446 109.881 48.9459C109.311 47.8472 109.075 46.6059 109.202 45.3747C109.328 44.1436 109.812 42.9763 110.594 42.0165C110.715 41.8648 110.845 41.7198 110.982 41.5821C111.006 42.2095 111.163 42.8245 111.444 43.3861C111.724 43.9477 112.122 44.4428 112.61 44.8382Z" fill="#4C2805"/>
  <path d="M25.8496 10.5443C32.3624 15.8703 40.3902 18.9537 48.7608 19.3445C57.1314 19.7353 65.4065 17.413 72.3779 12.7165C65.8641 7.39268 57.8366 4.31057 49.4666 3.9198C41.0965 3.52903 32.8218 5.85006 25.8496 10.5443Z" fill="#EC691C"/>
  <path d="M116.32 11.9181C122.933 16.8701 130.889 19.4859 139.027 19.384C147.165 19.2821 155.059 16.4676 161.556 11.3514C154.944 6.39625 146.988 3.77836 138.849 3.88031C130.71 3.98226 122.816 6.79874 116.32 11.9181Z" fill="#EC691C"/>
  <path d="M23.0654 90.4714C22.7314 90.4699 22.409 90.3484 22.157 90.129C21.905 89.9095 21.7401 89.6067 21.6924 89.2757C19.4925 74.4877 20.8809 64.0891 25.8165 58.3711C29.3128 54.319 33.3297 54.2832 33.5033 54.2832C33.8728 54.2832 34.2272 54.4302 34.4886 54.6918C34.7499 54.9534 34.8967 55.3082 34.8967 55.6782C34.8967 56.0482 34.7499 56.403 34.4886 56.6646C34.2272 56.9262 33.8728 57.0732 33.5033 57.0732C33.3552 57.0732 30.4867 57.1754 27.8479 60.2873C24.8773 63.7927 21.8761 71.6007 24.4435 88.8721C24.4976 89.238 24.4043 89.6104 24.1841 89.9074C23.964 90.2045 23.635 90.4019 23.2696 90.4561C23.2022 90.4684 23.1338 90.4735 23.0654 90.4714Z" fill="#79302A"/>
  <path d="M173.388 93.0564C173.722 93.0549 174.044 92.9334 174.296 92.7139C174.548 92.4945 174.713 92.1917 174.761 91.8607C176.961 77.0727 175.572 66.674 170.637 60.9561C167.14 56.9039 163.123 56.8682 162.95 56.8682C162.58 56.8682 162.226 57.0151 161.965 57.2767C161.703 57.5383 161.556 57.8932 161.556 58.2632C161.556 58.6331 161.703 58.988 161.965 59.2496C162.226 59.5112 162.58 59.6581 162.95 59.6581C163.098 59.6581 165.966 59.7604 168.605 62.8723C171.576 66.3777 174.577 74.1856 172.01 91.457C171.956 91.8229 172.049 92.1953 172.269 92.4924C172.489 92.7894 172.818 92.9868 173.184 93.0411C173.251 93.0534 173.319 93.0585 173.388 93.0564Z" fill="#79302A"/>
</svg>
