<svg width="25" height="22" viewBox="0 0 25 22" fill="none" xmlns="http://www.w3.org/2000/svg">
  <path d="M0.839844 16.1147L4.42332 13.6076L8.43407 19.3403L4.85059 21.8474L0.839844 16.1147Z" fill="#059669"/>
  <path d="M24.9866 13.3588C25.014 13.2074 24.9988 13.0514 24.9428 12.9081C24.8638 12.6901 24.7015 12.5123 24.4915 12.4138C24.2815 12.3154 24.041 12.3043 23.8228 12.3831L19.4653 13.9713C19.3559 14.3317 19.1335 14.6474 18.8311 14.8719C18.5286 15.0964 18.162 15.2178 17.7853 15.2181C17.681 15.2188 17.5769 15.2085 17.4747 15.1875L12.7497 14.3519L12.8984 13.4944L17.6278 14.33C17.8421 14.369 18.0632 14.327 18.2483 14.2123C18.4335 14.0975 18.5694 13.918 18.6297 13.7088C18.6665 13.5898 18.674 13.4637 18.6516 13.3413C18.6332 13.2064 18.5838 13.0776 18.5072 12.965C18.3722 12.7745 18.1681 12.6442 17.9384 12.6019L13.5459 11.8275C12.2542 11.6052 10.9284 11.6876 9.67406 12.0681L9.59531 12.09C8.76524 12.3429 7.98096 12.7269 7.27219 13.2275L5.89844 14.1856L8.65906 18.1319C9.6926 17.422 10.9644 17.1485 12.1984 17.3706L12.9816 17.5019C13.8143 17.6503 14.6715 17.5764 15.4666 17.2875L24.4222 14.0281C24.5668 13.976 24.695 13.8866 24.7941 13.7691C24.8932 13.6516 24.9596 13.5101 24.9866 13.3588Z" fill="#059669"/>
  <path d="M23.9375 0.75V-0.5625C23.9375 -0.678532 23.8914 -0.789812 23.8094 -0.871859C23.7273 -0.953906 23.616 -1 23.5 -1H18.6875V0.75H23.9375Z" fill="#059669"/>
  <path d="M16.1894 1.75188C16.272 1.66991 16.3836 1.62391 16.5 1.62391C16.6164 1.62391 16.728 1.66991 16.8106 1.75188L17.8125 2.75813V-1H15.1875V2.75813L16.1894 1.75188Z" fill="#059669"/>
  <path d="M9.0625 -0.5625V0.75H14.3125V-1H9.5C9.38397 -1 9.27269 -0.953906 9.19064 -0.871859C9.10859 -0.789812 9.0625 -0.678532 9.0625 -0.5625Z" fill="#059669"/>
  <path d="M14.5837 4.215C14.5034 4.18282 14.4346 4.12724 14.3862 4.05547C14.3379 3.9837 14.3122 3.89905 14.3125 3.8125V1.625H9.0625V11.3506C9.15875 11.3156 9.255 11.2762 9.35563 11.25L9.43438 11.2237C10.8151 10.8057 12.275 10.7187 13.6956 10.97L18.0925 11.7444C18.3915 11.7965 18.671 11.9279 18.9019 12.125H21.9775L23.5263 11.5606C23.6591 11.5144 23.7973 11.485 23.9375 11.4731V1.625H18.6875V3.8125C18.6878 3.89905 18.6621 3.9837 18.6138 4.05547C18.5654 4.12724 18.4966 4.18282 18.4163 4.215C18.3643 4.23952 18.3074 4.25151 18.25 4.25C18.1338 4.25034 18.0221 4.20473 17.9394 4.12312L16.5 2.67937L15.0606 4.12312C14.9991 4.18383 14.921 4.22495 14.8361 4.24131C14.7512 4.25766 14.6634 4.2485 14.5837 4.215Z" fill="#059669"/>
</svg>
