<svg width="194" height="134" viewBox="0 0 194 134" fill="none" xmlns="http://www.w3.org/2000/svg">
  <path d="M34.717 16.8916C32.7306 12.5862 29.9104 8.71848 26.42 5.51288C17.6598 -2.75664 3.15308 1.659 0.680937 13.4558C0.399959 14.7947 0.199556 16.1492 0.0808289 17.5122C-0.695386 26.1998 4.26196 34.1231 8.81489 39.4532C10.6925 41.6358 12.0262 44.2332 12.7065 47.0323C13.3869 49.8313 13.3944 52.7521 12.7286 55.5546C11.2609 61.7208 10.576 69.8205 14.4767 76.0455C18.3773 82.2705 25.722 84.2105 31.7165 84.6155C34.3017 84.7786 36.785 85.6858 38.8678 87.2281C40.9506 88.7703 42.5443 90.8821 43.4575 93.3096C45.6753 99.3452 49.7521 106.419 56.8619 107.791C64.4806 109.267 71.5578 106.263 76.0455 103.578C77.5553 102.685 79.2824 102.227 81.0357 102.256C82.789 102.285 84.5001 102.799 85.9798 103.741C90.9306 106.877 99.0254 110.672 107.733 109.346C115.319 108.19 119.742 103.421 122.214 99.2211C123.281 97.3819 124.895 95.9228 126.83 95.0478C128.766 94.1729 130.926 93.926 133.009 94.3417C138.971 95.5566 146.759 96.4189 150.725 93.8583C153.21 92.2514 154.078 89.2075 154.169 85.9546C154.319 82.1588 155.513 78.4782 157.619 75.3188C159.726 72.1594 162.663 69.6441 166.106 68.0503C173.138 64.7321 180.345 60.2119 181.343 55.2998C182.498 49.6105 178.734 42.9544 175.277 38.3166C174.108 36.7386 173.491 34.819 173.52 32.8543C173.55 30.8897 174.224 28.9895 175.44 27.4474C179.718 22.1896 181.887 15.5251 181.526 8.75276C181.478 7.76713 181.202 6.80619 180.719 5.94576C180.237 5.08533 179.561 4.34894 178.746 3.79471C177.93 3.24048 176.998 2.88355 176.021 2.7521C175.044 2.62065 174.051 2.71827 173.118 3.03725C168.979 4.48895 165.377 7.16265 162.786 10.7058L122.403 45.234L80.318 53.1312L34.717 16.8916Z" fill="#FF9D00"/>
  <path d="M100.153 134H112.217C112.63 134 113.026 133.841 113.318 133.559C113.609 133.277 113.773 132.894 113.773 132.494C113.773 132.095 113.609 131.712 113.318 131.429C113.026 131.147 112.63 130.988 112.217 130.988H102.048L111.242 86.4119C111.296 86.0309 111.198 85.644 110.968 85.3306C110.737 85.0172 110.392 84.8011 110.002 84.7267C109.612 84.6523 109.207 84.7251 108.871 84.9303C108.535 85.1355 108.292 85.4574 108.193 85.8301L98.632 132.172C98.5884 132.39 98.5949 132.615 98.651 132.83C98.707 133.045 98.8113 133.246 98.9564 133.418C99.1015 133.589 99.2839 133.728 99.4906 133.824C99.6973 133.92 99.9233 133.971 100.153 133.973V134Z" fill="#79302A"/>
  <path d="M83.2978 133.997H72.3106C72.1163 134.011 71.9213 133.982 71.7378 133.911C71.5543 133.84 71.3862 133.728 71.2439 133.584C71.1016 133.44 70.9881 133.265 70.9106 133.071C70.833 132.877 70.793 132.667 70.793 132.456C70.793 132.244 70.833 132.035 70.9106 131.841C70.9881 131.647 71.1016 131.472 71.2439 131.328C71.3862 131.183 71.5543 131.072 71.7378 131.001C71.9213 130.93 72.1163 130.901 72.3106 130.915H81.5657L73.1638 85.2077C73.1095 84.8153 73.1964 84.4153 73.4064 84.0907C73.6164 83.766 73.9334 83.5416 74.2916 83.4639C74.6499 83.3863 75.0219 83.4614 75.3306 83.6737C75.6392 83.886 75.8608 84.2191 75.9493 84.604L84.6679 132.158C84.7097 132.373 84.7088 132.596 84.6654 132.812C84.6219 133.027 84.5369 133.23 84.4159 133.407C84.2831 133.591 84.1134 133.74 83.9196 133.842C83.7258 133.944 83.5132 133.997 83.2978 133.997Z" fill="#79302A"/>
  <path d="M107.977 10.0772C108.303 11.3985 108.47 12.754 108.476 14.1151C108.487 16.5139 107.99 18.8876 107.017 21.0785C106.045 23.2693 104.619 25.2272 102.836 26.8222C101.052 28.4171 98.9513 29.6126 96.6725 30.3292C94.3938 31.0458 91.9893 31.2672 89.6189 30.9785C87.2484 30.6898 84.9663 29.8978 82.9239 28.655C80.8815 27.4122 79.1258 25.7471 77.7731 23.7702C76.4205 21.7934 75.5021 19.55 75.0787 17.1892C74.6554 14.8283 74.7369 12.404 75.3178 10.0772C55.776 -2.54454 37.6063 -4.12488 21.4046 10.0772C19.609 19.8864 19.8685 29.9639 22.1667 39.6667C24.4649 49.3694 28.7512 58.4843 34.7521 66.4296C40.7531 74.3749 48.3368 80.9762 57.0194 85.8122C65.702 90.6481 75.2928 93.6125 85.1796 94.5162C95.0664 95.4199 105.032 94.243 114.441 91.0606C123.85 87.8782 132.495 82.7603 139.824 76.0334C147.154 69.3065 153.007 61.1184 157.011 51.9916C161.014 42.8649 163.08 32.9999 163.076 23.0262C163.069 18.6829 162.673 14.349 161.891 10.0772C142.598 -3.35908 124.627 -3.35908 107.977 10.0772Z" fill="#FFC419"/>
  <path d="M104.948 48.6787C104.848 48.6576 104.751 48.6262 104.658 48.585C104.287 48.4207 103.996 48.1158 103.85 47.7375C103.704 47.3592 103.713 46.9383 103.877 46.5672C104.594 44.9385 105.793 43.5686 107.312 42.6419C108.831 41.7152 110.597 41.2762 112.374 41.384C114.15 41.4917 115.85 42.1411 117.246 43.2447C118.642 44.3482 119.666 45.853 120.181 47.5564C120.255 47.7525 120.289 47.9619 120.279 48.1714C120.269 48.381 120.216 48.5862 120.124 48.7745C120.031 48.9628 119.901 49.13 119.741 49.2659C119.581 49.4017 119.395 49.5034 119.195 49.5644C118.994 49.6253 118.783 49.6444 118.574 49.6204C118.366 49.5964 118.165 49.5299 117.983 49.4249C117.801 49.3199 117.643 49.1788 117.519 49.0102C117.394 48.8415 117.305 48.649 117.258 48.4447C116.921 47.3433 116.256 46.3711 115.351 45.6582C114.447 44.9452 113.346 44.5257 112.197 44.4556C111.047 44.3856 109.904 44.6684 108.919 45.2662C107.935 45.864 107.157 46.7483 106.689 47.8006C106.545 48.1256 106.293 48.3906 105.975 48.5507C105.658 48.7108 105.295 48.756 104.948 48.6787Z" fill="#4C2805"/>
  <path d="M119.561 69.8878C122.986 68.8474 124.918 65.2281 123.878 61.8039C122.837 58.3798 119.218 56.4474 115.794 57.4878C112.37 58.5282 110.437 62.1474 111.478 65.5715C112.518 68.9957 116.137 70.9282 119.561 69.8878Z" fill="#E52323"/>
  <path d="M72.0282 68.4716C74.7935 66.2 75.1939 62.1168 72.9223 59.3514C70.6507 56.586 66.5674 56.1857 63.802 58.4573C61.0367 60.7289 60.6364 64.8121 62.908 67.5775C65.1796 70.3429 69.2628 70.7432 72.0282 68.4716Z" fill="#E52323"/>
  <path d="M65.1868 49.4918C66.0656 51.1552 67.418 52.5205 69.0731 53.4149C70.7281 54.3093 72.6112 54.6926 74.4842 54.5163C76.3572 54.3401 78.1358 53.6121 79.5948 52.4246C81.0539 51.2371 82.1279 49.6434 82.6809 47.8452C83.2339 46.0471 83.2409 44.1254 82.7012 42.3232C82.1616 40.521 81.0994 38.9195 79.6491 37.7212C78.1988 36.523 76.4257 35.7819 74.554 35.5918C72.6824 35.4017 70.7965 35.7711 69.1349 36.6533C66.9108 37.8342 65.246 39.8491 64.5058 42.2561C63.7656 44.663 64.0106 47.2652 65.1868 49.4918Z" fill="#FFF7F5"/>
  <path d="M71.4079 47.2014C72.1352 46.8173 72.738 46.234 73.1459 45.5197C73.5537 44.8054 73.7496 43.9896 73.7106 43.168C73.6716 42.3464 73.3994 41.5529 72.9258 40.8805C72.4522 40.208 71.7967 39.6842 71.0363 39.3707C72.1404 38.8744 73.3656 38.7117 74.561 38.9027C75.7564 39.0936 76.8698 39.6298 77.7644 40.4454C78.659 41.261 79.2957 42.3202 79.596 43.4929C79.8964 44.6656 79.8474 45.9006 79.455 47.0458C79.0626 48.191 78.3441 49.1964 77.3876 49.9385C76.4312 50.6806 75.2786 51.1269 74.0718 51.2224C72.8651 51.318 71.6567 51.0587 70.5954 50.4764C69.5341 49.8941 68.6662 49.0142 68.0985 47.9451C68.008 47.7779 67.9266 47.6059 67.8547 47.4299C68.429 47.6472 69.0431 47.7393 69.6559 47.6999C70.2687 47.6605 70.8661 47.4905 71.4079 47.2014Z" fill="#4C2805"/>
  <path d="M25.2832 10.3134C31.6534 15.5227 39.5054 18.5386 47.6927 18.9209C55.88 19.3031 63.9739 17.0316 70.7926 12.438C64.4214 7.23075 56.5698 4.21612 48.383 3.83391C40.1962 3.4517 32.1027 5.72191 25.2832 10.3134Z" fill="#EC691C"/>
  <path d="M113.773 11.6571C120.242 16.5006 128.024 19.0592 135.983 18.9595C143.943 18.8598 151.664 16.107 158.019 11.1028C151.552 6.25613 143.769 3.69557 135.809 3.79529C127.848 3.89501 120.127 6.64981 113.773 11.6571Z" fill="#EC691C"/>
  <path d="M155.749 54.9284C159.735 56.0452 163.839 56.6953 167.978 56.8656C179.899 57.2475 188.195 52.4704 191.974 43.0482C193.875 38.3197 193.896 33.7648 192.031 29.5154C188.693 21.8776 180.327 17.5727 177.431 16.2674L177.529 7.8658C177.534 7.46066 177.376 7.07029 177.09 6.78057C176.804 6.49084 176.413 6.3255 176.004 6.3209C175.595 6.3163 175.2 6.47281 174.908 6.75603C174.615 7.03925 174.448 7.42596 174.444 7.83109L174.338 17.2464C174.334 17.5557 174.425 17.859 174.599 18.1158C174.773 18.3726 175.022 18.5707 175.313 18.6837C175.418 18.7253 185.747 22.8497 189.205 30.7444C190.726 34.2161 190.698 37.9795 189.113 41.9233C185.818 50.1374 178.763 54.1368 168.154 53.8174C162.811 53.5791 157.537 52.53 152.516 50.7068C152.138 50.5669 151.719 50.5795 151.35 50.7418C150.981 50.9042 150.691 51.2034 150.542 51.5753C150.393 51.9471 150.398 52.3618 150.554 52.7304C150.711 53.099 151.008 53.3921 151.38 53.5467C152.812 54.0801 154.27 54.5412 155.749 54.9284Z" fill="#79302A"/>
  <path d="M30.9101 55.6277C33.1253 54.1568 34.6795 53.3457 34.8202 53.2701C35.1829 53.0824 35.6072 53.0431 35.9995 53.1611C36.1938 53.2195 36.3744 53.3147 36.531 53.4413C36.6876 53.5679 36.8172 53.7235 36.9123 53.899C37.0075 54.0746 37.0663 54.2668 37.0854 54.4645C37.1045 54.6623 37.0836 54.8618 37.0239 55.0517C36.9641 55.2416 36.8667 55.4181 36.7372 55.5712C36.6076 55.7243 36.4485 55.8509 36.2689 55.9439C31.6105 58.5284 27.3843 61.7944 23.737 65.6286C16.585 73.3544 15.1012 81.1901 19.3066 88.9159C21.3249 92.6207 24.2293 95.0539 27.8791 96.1468C36.2337 98.6281 46.1073 93.5418 46.2057 93.4868C46.4822 93.3424 46.7969 93.2835 47.1084 93.3179C47.4198 93.3523 47.7132 93.4783 47.9498 93.6792L55.144 99.7898C55.4317 100.058 55.6027 100.424 55.6215 100.813C55.6403 101.201 55.5054 101.581 55.2448 101.875C54.9842 102.168 54.6179 102.353 54.222 102.389C53.8261 102.426 53.431 102.312 53.1186 102.072L46.698 96.6211C43.8077 97.9477 35.0382 101.432 27.0071 99.0405C22.5134 97.7071 19.0112 94.779 16.592 90.3319C11.7678 81.472 13.4626 72.2134 21.5148 63.5253C24.322 60.545 27.4751 57.8946 30.9101 55.6277Z" fill="#79302A"/>
  <path d="M93.6767 70.7172C92.9487 70.7926 92.2149 70.8114 91.4833 70.7733C89.7359 70.7537 88.0167 70.3743 86.4575 69.6641C84.8983 68.9538 83.5406 67.9317 82.4884 66.6761C82.3662 66.5342 82.2762 66.3721 82.2236 66.1989C82.1711 66.0258 82.1569 65.845 82.182 65.6669C82.207 65.4888 82.2708 65.3169 82.3697 65.161C82.4686 65.0051 82.6006 64.8683 82.7582 64.7583C82.9159 64.6483 83.0961 64.5673 83.2885 64.52C83.4809 64.4727 83.6818 64.46 83.8797 64.4825C84.0776 64.5051 84.2686 64.5625 84.4418 64.6514C84.6151 64.7404 84.7671 64.8593 84.8893 65.0011C85.6797 65.9322 86.6957 66.6887 87.8599 67.2131C89.0241 67.7375 90.306 68.0159 91.6079 68.0273C92.8808 68.1281 94.1625 67.9631 95.353 67.5451C96.5435 67.1271 97.6108 66.4675 98.4717 65.6176C98.7469 65.3484 99.1297 65.1886 99.5359 65.1734C99.942 65.1583 100.338 65.2889 100.637 65.5366C100.936 65.7843 101.114 66.1288 101.131 66.4943C101.148 66.8598 101.003 67.2164 100.727 67.4856C98.9138 69.3241 96.3955 70.4784 93.6767 70.7172Z" fill="#4C2805"/>
</svg>
