<svg width="207" height="178" viewBox="0 0 207 178" fill="none" xmlns="http://www.w3.org/2000/svg">
  <path d="M107.767 140.749C96.3348 140.749 92.0419 130.745 90.8675 127.145L85.8572 127.422C85.4383 127.444 85.0271 127.307 84.7141 127.04C84.4011 126.773 84.2119 126.398 84.1881 125.998C84.1643 125.597 84.3079 125.204 84.5873 124.905C84.8667 124.606 85.259 124.425 85.6779 124.402L91.9609 124.059C92.3385 124.041 92.7107 124.151 93.0107 124.371C93.3107 124.591 93.519 124.906 93.5983 125.259C93.7197 125.812 96.6646 138.532 108.924 137.685C112.679 137.431 115.329 136.115 117.024 133.66C122.086 126.26 116.648 111.346 116.59 111.196C116.45 110.819 116.472 110.403 116.652 110.041C116.832 109.679 117.155 109.401 117.55 109.266C117.945 109.132 118.38 109.154 118.759 109.326C119.137 109.498 119.429 109.807 119.569 110.184C119.818 110.854 125.592 126.659 119.674 135.308C117.44 138.565 113.888 140.384 109.156 140.705C108.675 140.733 108.212 140.749 107.767 140.749Z" fill="#79302A"/>
  <path d="M140.018 155.218C140.408 155.225 140.789 155.113 141.098 154.899C141.407 154.686 141.627 154.383 141.72 154.043C141.814 153.702 141.776 153.342 141.613 153.023C141.45 152.704 141.172 152.445 140.823 152.287L135.761 150.02L143.999 138.809C154.915 122.94 148.4 113.684 143.603 109.598C143.437 109.458 143.243 109.35 143.032 109.278C142.82 109.207 142.595 109.173 142.369 109.18C142.143 109.187 141.921 109.234 141.715 109.318C141.509 109.402 141.323 109.522 141.169 109.671C141.015 109.82 140.894 109.995 140.815 110.186C140.735 110.377 140.698 110.58 140.706 110.783C140.714 110.987 140.766 111.187 140.859 111.373C140.953 111.558 141.086 111.725 141.251 111.865C145.313 115.311 150.683 123.2 141.106 137.149L131.825 149.771C131.692 149.954 131.602 150.16 131.563 150.375C131.524 150.591 131.536 150.812 131.599 151.024C131.66 151.235 131.771 151.433 131.924 151.603C132.077 151.773 132.268 151.912 132.485 152.01L139.276 155.093C139.511 155.183 139.764 155.226 140.018 155.218Z" fill="#79302A"/>
  <path d="M75.4011 35.6815C73.6211 31.8231 71.0937 28.357 67.9657 25.4843C60.1151 18.0735 47.1147 22.0306 44.8993 32.6025C44.6475 33.8023 44.4679 35.0162 44.3615 36.2376C43.6659 44.0231 48.1085 51.1237 52.1886 55.9004C53.8712 57.8563 55.0665 60.1841 55.6762 62.6925C56.2859 65.2009 56.2927 67.8183 55.6959 70.3299C54.3807 75.8558 53.7669 83.1145 57.2625 88.6931C60.7581 94.2717 67.3402 96.0103 72.7122 96.3732C75.029 96.5193 77.2544 97.3323 79.1209 98.7145C80.9875 100.097 82.4157 101.989 83.2341 104.165C85.2216 109.573 88.875 115.913 95.2466 117.142C102.074 118.465 108.417 115.773 112.438 113.367C113.791 112.566 115.339 112.156 116.91 112.182C118.481 112.208 120.015 112.668 121.341 113.513C125.778 116.323 133.032 119.724 140.836 118.535C147.634 117.499 151.597 113.226 153.813 109.462C154.769 107.814 156.215 106.506 157.95 105.722C159.684 104.938 161.621 104.717 163.487 105.089C168.83 106.178 175.809 106.951 179.363 104.656C181.591 103.216 182.368 100.488 182.45 97.5732C182.584 94.1715 183.654 90.8731 185.542 88.0418C187.429 85.2105 190.061 82.9564 193.147 81.5281C199.449 78.5544 205.908 74.5036 206.802 70.1016C207.837 65.003 204.464 59.038 201.366 54.8818C200.318 53.4677 199.765 51.7473 199.791 49.9867C199.818 48.2261 200.423 46.5232 201.512 45.1412C205.346 40.4293 207.29 34.4569 206.966 28.3878C206.923 27.5045 206.675 26.6433 206.243 25.8722C205.81 25.1011 205.205 24.4412 204.474 23.9445C203.744 23.4479 202.908 23.128 202.033 23.0102C201.157 22.8924 200.267 22.9799 199.431 23.2657C195.722 24.5667 192.494 26.9628 190.172 30.138L153.982 61.0809L116.267 68.1581L75.4011 35.6815Z" fill="#FF9D00"/>
  <path d="M146.002 30.1844C146.528 32.2897 146.569 34.4876 146.122 36.6112C145.674 38.7348 144.751 40.728 143.42 42.4394C142.09 44.1507 140.388 45.5351 138.445 46.4873C136.501 47.4395 134.367 47.9344 132.205 47.9344C130.042 47.9344 127.908 47.4395 125.964 46.4873C124.021 45.5351 122.319 44.1507 120.989 42.4394C119.659 40.728 118.735 38.7348 118.287 36.6112C117.84 34.4876 117.881 32.2897 118.407 30.1844C101.892 19.5285 86.5372 18.1944 72.8393 30.1844C71.2383 38.9213 71.5715 47.9047 73.8154 56.4981C76.0592 65.0914 80.1587 73.0842 85.8234 79.9103C91.4881 86.7363 98.5793 92.2285 106.595 95.9976C114.61 99.7667 123.353 101.72 132.205 101.72C141.056 101.72 149.799 99.7667 157.814 95.9976C165.83 92.2285 172.921 86.7363 178.586 79.9103C184.25 73.0842 188.35 65.0914 190.594 56.4981C192.838 47.9047 193.171 38.9213 191.57 30.1844C175.266 18.8409 160.077 18.8409 146.002 30.1844Z" fill="#FFC419"/>
  <path d="M75.7812 30.6898C81.1078 34.7453 87.6734 37.0932 94.5194 37.3908C101.365 37.6883 108.133 35.92 113.835 32.3438C108.507 28.29 101.942 25.9431 95.0966 25.6455C88.251 25.348 81.4835 27.1153 75.7812 30.6898Z" fill="#EC691C"/>
  <path d="M149.266 31.7358C154.828 35.5065 161.521 37.4984 168.367 37.4208C175.213 37.3432 181.854 35.2001 187.319 31.3044C181.758 27.5313 175.064 25.5378 168.217 25.6155C161.371 25.6931 154.73 27.8377 149.266 31.7358Z" fill="#EC691C"/>
  <path d="M133.851 81.9746C133.248 82.0377 132.639 82.0535 132.033 82.0215C130.58 82.0047 129.151 81.6865 127.855 81.0912C126.558 80.4959 125.429 79.6393 124.554 78.5871C124.371 78.3445 124.297 78.0471 124.348 77.7564C124.399 77.4657 124.571 77.204 124.829 77.0251C125.086 76.8463 125.41 76.764 125.732 76.7953C126.055 76.8267 126.352 76.9692 126.562 77.1935C127.22 77.9753 128.067 78.6103 129.037 79.0499C130.007 79.4896 131.075 79.7222 132.16 79.7302C133.218 79.8181 134.284 79.6819 135.274 79.3323C136.265 78.9827 137.152 78.4292 137.866 77.7154C138.095 77.4898 138.413 77.3559 138.751 77.3432C139.089 77.3304 139.418 77.4399 139.667 77.6476C139.916 77.8552 140.063 78.144 140.077 78.4504C140.091 78.7568 139.971 79.0557 139.742 79.2813C138.225 80.8237 136.12 81.7863 133.851 81.9746Z" fill="#4C2805"/>
  <path d="M112.524 76.7889C112.524 77.5675 112.331 78.3285 111.971 78.9759C111.611 79.6233 111.098 80.1278 110.499 80.4258C109.899 80.7237 109.24 80.8017 108.603 80.6498C107.967 80.4979 107.382 80.123 106.924 79.5724C106.465 79.0219 106.153 78.3205 106.026 77.5569C105.899 76.7932 105.964 76.0017 106.213 75.2824C106.461 74.5631 106.881 73.9483 107.421 73.5157C107.96 73.0832 108.595 72.8523 109.243 72.8523C110.113 72.8523 110.948 73.267 111.563 74.0053C112.178 74.7435 112.524 75.7448 112.524 76.7889Z" fill="#E52323"/>
  <path d="M155.827 76.7889C155.827 77.5675 155.634 78.3285 155.274 78.9759C154.913 79.6233 154.401 80.1278 153.801 80.4258C153.202 80.7237 152.542 80.8017 151.906 80.6498C151.27 80.4979 150.685 80.123 150.226 79.5724C149.768 79.0219 149.455 78.3205 149.329 77.5569C149.202 76.7932 149.267 76.0017 149.515 75.2824C149.764 74.5631 150.184 73.9483 150.724 73.5157C151.263 73.0832 151.897 72.8523 152.546 72.8523C153.416 72.8523 154.251 73.267 154.866 74.0053C155.481 74.7435 155.827 75.7448 155.827 76.7889Z" fill="#E52323"/>
  <path d="M123.158 64.0104C124.531 60.6727 122.939 56.8541 119.601 55.4811C116.264 54.1082 112.445 55.7008 111.072 59.0385C109.699 62.3761 111.292 66.1948 114.629 67.5677C117.967 68.9407 121.786 67.348 123.158 64.0104Z" fill="#FFF7F5"/>
  <path d="M153.338 64.0104C154.711 60.6727 153.118 56.8541 149.781 55.4811C146.443 54.1082 142.625 55.7008 141.252 59.0385C139.879 62.3761 141.471 66.1948 144.809 67.5677C148.147 68.9407 151.965 67.348 153.338 64.0104Z" fill="#FFF7F5"/>
  <path d="M118.209 59.4695C118.102 60.1594 117.801 60.8044 117.341 61.3291C116.881 61.8538 116.282 62.2364 115.613 62.4323C114.944 62.6282 114.233 62.6291 113.564 62.4351C112.894 62.241 112.294 61.86 111.832 61.3365C111.739 62.36 111.946 63.3885 112.429 64.2954C112.912 65.2023 113.649 65.948 114.549 66.4408C115.45 66.9335 116.474 67.1518 117.497 67.0688C118.52 66.9858 119.496 66.6051 120.306 65.9735C121.115 65.342 121.723 64.4871 122.053 63.5142C122.384 62.5413 122.423 61.4928 122.167 60.4977C121.91 59.5026 121.368 58.6045 120.609 57.9137C119.849 57.223 118.904 56.7698 117.89 56.61C117.731 56.61 117.572 56.5746 117.413 56.5627C117.743 56.9631 117.985 57.4293 118.123 57.9304C118.26 58.4316 118.289 58.9562 118.209 59.4695Z" fill="#4C2805"/>
  <path d="M148.463 59.4695C148.356 60.1594 148.055 60.8044 147.595 61.3291C147.135 61.8538 146.536 62.2364 145.867 62.4323C145.198 62.6282 144.487 62.6291 143.817 62.4351C143.148 62.241 142.547 61.86 142.086 61.3365C141.993 62.36 142.2 63.3885 142.683 64.2954C143.166 65.2023 143.903 65.948 144.803 66.4408C145.704 66.9335 146.728 67.1518 147.751 67.0688C148.774 66.9858 149.75 66.6051 150.56 65.9735C151.369 65.342 151.976 64.4871 152.307 63.5142C152.638 62.5413 152.677 61.4928 152.42 60.4977C152.164 59.5026 151.622 58.6045 150.862 57.9137C150.103 57.223 149.158 56.7698 148.144 56.61C147.985 56.61 147.826 56.5746 147.666 56.5627C147.997 56.9631 148.239 57.4293 148.376 57.9304C148.514 58.4316 148.543 58.9562 148.463 59.4695Z" fill="#4C2805"/>
  <path d="M201.446 103.917C201.788 103.916 202.118 103.793 202.377 103.571C202.635 103.349 202.805 103.042 202.857 102.706C205.103 87.6237 203.682 77.0663 198.631 71.2467C195.053 67.1278 190.948 67.0862 190.765 67.0862C190.401 67.1081 190.059 67.2675 189.809 67.5318C189.559 67.7962 189.42 68.1455 189.42 68.5086C189.42 68.8716 189.559 69.2209 189.809 69.4853C190.059 69.7496 190.401 69.909 190.765 69.9309C190.916 69.9309 193.857 70.0298 196.552 73.197C199.592 76.7699 202.663 84.7113 200.036 102.29C199.981 102.663 200.076 103.042 200.301 103.345C200.526 103.649 200.863 103.851 201.237 103.907C201.307 103.915 201.377 103.919 201.446 103.917Z" fill="#79302A"/>
  <path d="M61.6214 98.6556C61.2815 98.6541 60.9534 98.5304 60.6969 98.307C60.4404 98.0837 60.2726 97.7755 60.2241 97.4386C57.9851 82.3879 59.3981 71.8045 64.4214 65.985C67.9798 61.8609 72.0681 61.8245 72.2447 61.8245C72.6209 61.8245 72.9816 61.974 73.2475 62.2403C73.5135 62.5065 73.6629 62.8677 73.6629 63.2442C73.6629 63.6208 73.5135 63.9819 73.2475 64.2482C72.9816 64.5144 72.6209 64.664 72.2447 64.664C72.0941 64.664 69.1746 64.768 66.4889 67.9352C63.4656 71.5029 60.4111 79.4496 63.024 97.0278C63.0791 97.4002 62.9841 97.7792 62.7601 98.0815C62.536 98.3839 62.2012 98.5848 61.8292 98.64C61.7607 98.6525 61.6911 98.6577 61.6214 98.6556Z" fill="#79302A"/>
  <g clip-path="url(#clip0_375_19909)">
    <path d="M44.0467 150.022L34.9721 148.61L36.7637 129.813L46.5541 132.211L44.0467 150.022Z" fill="#FFA143"/>
    <path d="M23.7298 159.655C23.6614 159.646 23.598 159.614 23.5498 159.564C23.5015 159.515 23.4711 159.451 23.4632 159.383L22.4326 152.804C22.4204 152.718 22.443 152.63 22.4954 152.561C22.5478 152.492 22.6257 152.446 22.712 152.434C22.7982 152.422 22.8858 152.445 22.9554 152.497C23.025 152.55 23.0709 152.627 23.0831 152.713L24.0892 159.354C24.1033 159.438 24.0832 159.525 24.0332 159.594C23.9832 159.664 23.9074 159.711 23.8226 159.725L23.7298 159.655Z" fill="#EFB31D"/>
    <path d="M27.3587 156.381C27.2919 156.368 27.2307 156.334 27.1831 156.286C27.1355 156.237 27.1038 156.175 27.0921 156.108L26.0615 149.529C26.0493 149.443 26.072 149.356 26.1243 149.287C26.1767 149.218 26.2546 149.172 26.3409 149.16C26.4271 149.148 26.5147 149.171 26.5843 149.223C26.6539 149.275 26.6998 149.353 26.712 149.439L27.7181 156.079C27.7271 156.12 27.7272 156.163 27.7184 156.204C27.7096 156.245 27.6921 156.284 27.6672 156.318C27.6422 156.352 27.6102 156.38 27.5735 156.401C27.5367 156.421 27.4959 156.434 27.4538 156.438L27.3587 156.381Z" fill="#EFB31D"/>
    <path d="M30.3528 164.624C30.0861 164.573 29.8314 164.473 29.6021 164.328C27.2265 162.89 26.9771 157.086 26.9323 156.828C26.9304 156.786 26.9371 156.743 26.9518 156.703C26.9666 156.663 26.9892 156.626 27.0183 156.595C27.0474 156.564 27.0824 156.538 27.1214 156.521C27.1603 156.503 27.2025 156.493 27.2453 156.492C27.2881 156.49 27.3309 156.496 27.3711 156.511C27.4114 156.526 27.4483 156.549 27.4798 156.578C27.5112 156.607 27.5366 156.642 27.5545 156.68C27.5723 156.719 27.5823 156.761 27.5838 156.804C27.5838 156.804 27.8496 162.519 29.9223 163.808C30.2096 163.955 30.53 164.024 30.8522 164.01C31.1743 163.996 31.4871 163.898 31.7595 163.727C32.0431 163.63 32.2948 163.458 32.488 163.23C32.6812 163.001 32.8087 162.725 32.857 162.431C33.0674 160.432 29.4538 157.188 28.0414 156.113C28.006 156.083 27.9768 156.046 27.9557 156.005C27.9208 155.933 27.908 155.853 27.919 155.775C27.9349 155.724 27.9623 155.677 27.9992 155.638C28.0362 155.599 28.0815 155.569 28.1319 155.551C28.3166 155.48 32.8367 153.882 34.8542 154.898C35.0846 155.001 35.2907 155.15 35.4587 155.338C35.6267 155.525 35.7529 155.746 35.8288 155.985C35.9056 156.17 35.9272 156.372 35.891 156.569C35.8548 156.765 35.7623 156.946 35.6247 157.091C34.7267 157.951 31.6392 157.223 29.6336 156.643C31.2091 158.051 33.6396 160.55 33.441 162.486C33.3816 162.891 33.2153 163.273 32.9591 163.593C32.7029 163.913 32.3659 164.159 31.9826 164.307C31.4831 164.571 30.9159 164.681 30.3528 164.624ZM29.3285 155.864C31.703 156.591 34.6769 157.219 35.2714 156.645C35.2714 156.645 35.4017 156.511 35.3511 156.213C35.3032 156.054 35.2202 155.907 35.1081 155.784C34.996 155.661 34.8577 155.564 34.7033 155.502C33.397 154.853 30.7506 155.456 29.3413 155.866L29.3285 155.864Z" fill="#EFB31D"/>
    <path d="M44.33 157.068C44.2454 157.052 44.1704 157.004 44.1215 156.933C44.0726 156.862 44.0539 156.775 44.0695 156.691L49.6386 126.51C49.6542 126.426 49.7027 126.351 49.7736 126.303C49.8445 126.254 49.9318 126.236 50.0165 126.251C50.1012 126.267 50.1762 126.315 50.225 126.386C50.2739 126.457 50.2926 126.544 50.2771 126.628L44.7079 156.809C44.6924 156.893 44.6438 156.968 44.573 157.016C44.5021 157.065 44.4147 157.083 44.33 157.068Z" fill="#FF9E3E"/>
    <path d="M58.3436 136.438L58.1393 136.4C57.991 136.316 57.8818 136.177 57.8354 136.014C57.789 135.85 57.809 135.675 57.8912 135.526C58.0124 135.299 70.3168 113.197 66.5905 101.835C66.2376 100.655 65.6342 99.5639 64.8213 98.636C64.0084 97.708 63.0049 96.9646 61.8789 96.4561C52.7596 92.2099 31.9778 118.966 31.7706 119.23C31.7342 119.32 31.678 119.4 31.6061 119.465C31.5342 119.531 31.4484 119.579 31.3552 119.607C31.262 119.634 31.1637 119.641 31.0676 119.625C30.9715 119.61 30.88 119.574 30.7999 119.519C30.7198 119.463 30.6531 119.391 30.6049 119.307C30.5566 119.223 30.528 119.129 30.5211 119.032C30.5142 118.935 30.5292 118.838 30.565 118.748C30.6008 118.658 30.6565 118.577 30.728 118.512C31.6138 117.36 52.3536 90.6889 62.4083 95.3049C63.7134 95.8786 64.878 96.728 65.8212 97.7942C66.7645 98.8604 67.4639 100.118 67.8709 101.479C71.7634 113.372 59.5906 135.261 59.0756 136.192C58.9963 136.305 58.8824 136.391 58.7506 136.435C58.6188 136.479 58.4761 136.48 58.3436 136.438Z" fill="#A0463A"/>
    <path d="M42.066 169.559L2.78966 148.995L28.4238 114.261L56.2129 128.814L42.066 169.559Z" fill="#EF8E35"/>
    <path d="M44.9777 171.095L5.70372 150.518L31.3379 115.784L59.1269 130.338L44.9777 171.095Z" fill="#FFA85A"/>
    <path d="M70.5601 136.707C70.3986 136.674 70.255 136.583 70.1573 136.451C70.0596 136.319 70.0149 136.155 70.0319 135.992C70.0882 135.687 73.7686 105.223 64.436 96.9805C63.3363 96.0267 62.0064 95.3742 60.5775 95.0875C59.1486 94.8008 57.67 94.8897 56.2872 95.3454C46.5703 97.7722 47.7156 129.061 47.7231 129.377C47.7269 129.463 47.7136 129.548 47.6841 129.628C47.6546 129.708 47.6094 129.782 47.5512 129.844C47.493 129.907 47.4229 129.957 47.345 129.993C47.2671 130.028 47.1828 130.048 47.0972 130.051C47.0123 130.054 46.9276 130.041 46.848 130.011C46.7684 129.982 46.6954 129.937 46.6335 129.879C46.5716 129.821 46.522 129.751 46.4875 129.674C46.4531 129.597 46.4345 129.513 46.4329 129.429C46.3738 128.103 45.2402 96.7512 55.9644 94.0895C57.5499 93.5804 59.2409 93.4859 60.875 93.815C62.5091 94.1442 64.0314 94.886 65.296 95.9692C75.1328 104.699 71.4809 134.866 71.3229 136.151C71.3127 136.236 71.2858 136.317 71.2438 136.391C71.2018 136.465 71.1456 136.53 71.0783 136.583C71.011 136.635 70.9339 136.673 70.8516 136.696C70.7693 136.719 70.6832 136.725 70.5984 136.714L70.5601 136.707Z" fill="#A0463A"/>
    <path d="M68.3545 176.5L25.3887 165.483L42.2997 125.787L72.6965 133.578L68.3545 176.5Z" fill="#FF9E3E"/>
    <path d="M71.5459 177.312L28.5801 166.295L45.4911 126.599L75.8728 134.401L71.5459 177.312Z" fill="#FCB465"/>
  </g>
  <g clip-path="url(#clip1_375_19909)">
    <path fill-rule="evenodd" clip-rule="evenodd" d="M129.624 1.53198C162.828 5.32583 165.921 15.5584 165.083 41.888C147.526 30.0158 111.61 30.0158 94.0532 41.888C93.2277 15.5584 96.3079 5.32583 129.525 1.55592L129.624 1.53198Z" fill="#A4BD06"/>
    <path fill-rule="evenodd" clip-rule="evenodd" d="M131.029 1.7234C141.662 3.01594 149.054 5.03853 154.192 8.09036C160.427 15.2711 161.585 27.0117 161.585 39.8055C144.52 30.8654 115.616 30.7457 98.3047 39.4943C98.3047 26.3295 99.5368 14.3616 106.375 7.34835C111.5 4.66752 118.696 2.89626 128.553 1.69946C128.964 1.87057 129.4 1.97567 129.846 2.01063C130.23 1.98228 130.607 1.9017 130.967 1.77127L131.029 1.7234Z" fill="#BAD60F"/>
    <path fill-rule="evenodd" clip-rule="evenodd" d="M127.233 1.96275H132.654C132.787 1.96433 132.919 1.94051 133.042 1.89264C133.165 1.84478 133.277 1.77381 133.372 1.68379C133.467 1.59377 133.543 1.48647 133.595 1.368C133.647 1.24953 133.675 1.12222 133.677 0.993342C133.677 0.729891 133.569 0.477231 133.377 0.290943C133.185 0.104655 132.925 0 132.654 0L127.233 0C126.964 0.00314928 126.707 0.109193 126.518 0.295141C126.329 0.481088 126.223 0.731952 126.223 0.993342C126.226 1.25154 126.334 1.49809 126.523 1.67955C126.712 1.86102 126.967 1.96277 127.233 1.96275Z" fill="#A4BD06"/>
    <path fill-rule="evenodd" clip-rule="evenodd" d="M165.083 43.0848C166.37 46.4449 167.311 49.9206 167.893 53.461C168.977 59.7801 168.718 60.4264 162.028 57.4583C133.32 44.7364 124.979 44.6406 97.109 57.4463C90.4681 60.5101 90.16 59.8399 91.2443 53.461C91.8314 49.9218 92.7723 46.4467 94.0535 43.0848C104.206 29.3336 154.081 29.2857 165.083 43.0848Z" fill="#798D03"/>
    <path fill-rule="evenodd" clip-rule="evenodd" d="M165.083 41.888C166.369 45.2445 167.31 48.7161 167.893 52.2523C168.977 58.5833 168.73 59.1937 162.028 56.2615C133.32 43.6952 124.979 43.6832 97.109 56.2496C90.4557 59.3134 90.16 58.6432 91.2442 52.2882C91.8307 48.741 92.7715 45.2579 94.0534 41.888C104.206 28.1368 154.081 28.0889 165.083 41.888Z" fill="#95AD05"/>
  </g>
  <defs>
    <clipPath id="clip0_375_19909">
      <rect width="72.753" height="80.1516" fill="white" transform="translate(14.5449 85.2896) rotate(10.455)"/>
    </clipPath>
    <clipPath id="clip1_375_19909">
      <rect width="77.6094" height="59.1936" fill="white" transform="translate(90.7637)"/>
    </clipPath>
  </defs>
</svg>
