<svg width="197" height="133" viewBox="0 0 197 133" fill="none" xmlns="http://www.w3.org/2000/svg">
  <path d="M88.5901 120.803C81.4848 126.147 74.2232 122.052 71.8395 120.401L68.8337 122.925C68.7107 123.035 68.5678 123.122 68.4134 123.179C68.259 123.236 68.0964 123.263 67.9353 123.257C67.7742 123.252 67.6178 123.214 67.4756 123.147C67.3333 123.08 67.2081 122.984 67.1074 122.866C67.0067 122.748 66.9326 122.609 66.8895 122.459C66.8463 122.308 66.8351 122.149 66.8565 121.99C66.8778 121.832 66.9312 121.677 67.0136 121.535C67.096 121.394 67.2056 121.268 67.3359 121.166L71.0842 118.018C71.3117 117.832 71.5943 117.726 71.8821 117.72C72.1698 117.714 72.4442 117.808 72.6568 117.986C72.9747 118.259 80.6454 124.649 87.8877 118.407C90.1065 116.495 91.1469 114.451 91.0668 112.165C90.8049 105.296 80.588 98.7254 80.4872 98.6566C80.246 98.4834 80.0871 98.2218 80.0434 97.9255C79.9997 97.6292 80.0743 97.3207 80.252 97.0634C80.4297 96.8061 80.697 96.6194 80.9989 96.5419C81.3008 96.4643 81.6145 96.5017 81.8755 96.6463C82.3434 96.9517 93.1931 103.908 93.4711 111.934C93.5805 114.967 92.2184 117.72 89.4092 120.141C89.1318 120.35 88.8675 120.595 88.5901 120.803Z" fill="#79302A"/>
  <path d="M122.138 128.853C122.352 128.692 122.505 128.465 122.573 128.207C122.642 127.949 122.621 127.675 122.515 127.43C122.409 127.185 122.223 126.983 121.988 126.856C121.753 126.73 121.482 126.686 121.219 126.732L117.368 127.425L116.754 117.138C115.479 102.86 107.632 99.9132 103.081 99.4154C102.92 99.3849 102.754 99.388 102.594 99.4247C102.434 99.4613 102.284 99.5306 102.152 99.6282C102.021 99.7258 101.91 99.8496 101.829 99.9918C101.747 100.134 101.696 100.292 101.678 100.455C101.661 100.618 101.677 100.782 101.726 100.939C101.775 101.095 101.856 101.24 101.964 101.364C102.071 101.487 102.203 101.587 102.352 101.657C102.5 101.728 102.661 101.766 102.825 101.771C106.654 102.19 113.24 104.754 114.392 117.313L115.084 128.899C115.094 129.067 115.139 129.23 115.217 129.379C115.295 129.527 115.404 129.657 115.536 129.76C115.668 129.864 115.82 129.938 115.983 129.978C116.146 130.018 116.315 130.023 116.48 129.992L121.646 129.061C121.824 129.031 121.993 128.959 122.138 128.853Z" fill="#79302A"/>
  <path d="M37.7884 15.0996C35.8692 10.9396 33.1442 7.20252 29.7717 4.1052C21.3074 -3.88499 7.29072 0.381498 4.90208 11.7798C4.63059 13.0735 4.43696 14.3823 4.32224 15.6992C3.57224 24.0933 8.36214 31.749 12.7613 36.8991C14.5754 39.0079 15.8641 41.5176 16.5215 44.2221C17.1788 46.9266 17.1861 49.7487 16.5428 52.4566C15.1247 58.4145 14.4629 66.2406 18.2318 72.2553C22.0007 78.2701 29.0973 80.1445 34.8893 80.5358C37.3872 80.6934 39.7866 81.5699 41.799 83.0601C43.8115 84.5503 45.3514 86.5908 46.2337 88.9363C48.3766 94.768 52.3157 101.603 59.1854 102.929C66.5467 104.355 73.3848 101.452 77.721 98.8577C79.1797 97.9947 80.8484 97.5527 82.5425 97.5805C84.2366 97.6084 85.89 98.105 87.3196 99.0155C92.1032 102.045 99.9246 105.712 108.338 104.431C115.668 103.314 119.941 98.7063 122.33 94.6481C123.36 92.871 124.92 91.4612 126.79 90.6158C128.661 89.7704 130.748 89.5318 132.761 89.9335C138.521 91.1074 146.046 91.9405 149.878 89.4664C152.279 87.9138 153.118 84.9727 153.206 81.8297C153.351 78.1621 154.504 74.6058 156.539 71.5532C158.575 68.5005 161.412 66.0702 164.739 64.5302C171.533 61.324 178.498 56.9566 179.462 52.2104C180.577 46.7132 176.941 40.282 173.601 35.8009C172.471 34.2762 171.874 32.4214 171.903 30.5231C171.931 28.6248 172.583 26.7888 173.758 25.2988C177.891 20.2186 179.988 13.7792 179.638 7.23564C179.592 6.2833 179.325 5.35483 178.859 4.52346C178.393 3.69209 177.74 2.98058 176.952 2.44507C176.164 1.90956 175.263 1.56469 174.319 1.43768C173.376 1.31067 172.416 1.40499 171.515 1.7132C167.515 3.11586 164.035 5.69924 161.531 9.12274L122.513 42.4846L81.8491 50.1151L37.7884 15.0996Z" fill="#FF9D00"/>
  <path d="M113.911 9.1727C114.478 11.4426 114.522 13.8124 114.04 16.102C113.558 18.3915 112.561 20.5406 111.127 22.3857C109.693 24.2309 107.858 25.7235 105.763 26.7501C103.667 27.7768 101.366 28.3104 99.0346 28.3104C96.7028 28.3104 94.4018 27.7768 92.3064 26.7501C90.211 25.7235 88.3764 24.2309 86.9421 22.3857C85.5079 20.5406 84.5117 18.3915 84.0293 16.102C83.547 13.8124 83.5912 11.4426 84.1586 9.1727C66.3528 -2.31615 49.7972 -3.75463 35.0285 9.1727C33.3023 18.5927 33.6616 28.2784 36.0808 37.5435C38.5001 46.8085 42.92 55.4263 49.0276 62.7859C55.1351 70.1456 62.7807 76.0671 71.4226 80.1309C80.0645 84.1946 89.4912 86.3011 99.0346 86.3011C108.578 86.3011 118.005 84.1946 126.647 80.1309C135.289 76.0671 142.934 70.1456 149.042 62.7859C155.149 55.4263 159.569 46.8085 161.988 37.5435C164.408 28.2784 164.767 18.5927 163.041 9.1727C145.462 -3.05757 129.086 -3.05757 113.911 9.1727Z" fill="#FFC419"/>
  <path d="M38.1992 9.71772C43.9422 14.0902 51.021 16.6217 58.4022 16.9425C65.7833 17.2634 73.0803 15.3568 79.2276 11.5011C73.4838 7.1303 66.4052 4.59994 59.0245 4.27913C51.6438 3.95832 44.3473 5.86384 38.1992 9.71772Z" fill="#EC691C"/>
  <path d="M117.426 10.8456C123.423 14.911 130.64 17.0586 138.021 16.975C145.402 16.8913 152.562 14.5806 158.454 10.3804C152.458 6.31233 145.241 4.16302 137.859 4.24671C130.477 4.33039 123.317 6.64269 117.426 10.8456Z" fill="#EC691C"/>
  <path d="M100.808 65.0115C100.157 65.0797 99.5016 65.0966 98.8479 65.0622C97.2815 65.0441 95.7406 64.701 94.3429 64.0591C92.9453 63.4173 91.7281 62.4938 90.7846 61.3593C90.5866 61.0977 90.5069 60.7771 90.5619 60.4637C90.617 60.1503 90.8025 59.868 91.0803 59.6752C91.3581 59.4823 91.707 59.3937 92.0547 59.4274C92.4025 59.4612 92.7227 59.6149 92.9493 59.8567C93.659 60.6997 94.5718 61.3843 95.6177 61.8583C96.6637 62.3323 97.8152 62.5832 98.9843 62.5917C100.125 62.6865 101.275 62.5397 102.343 62.1627C103.41 61.7858 104.367 61.189 105.137 60.4195C105.384 60.1762 105.727 60.0318 106.091 60.0181C106.455 60.0044 106.81 60.1224 107.079 60.3463C107.347 60.5702 107.506 60.8815 107.521 61.2119C107.536 61.5422 107.406 61.8645 107.159 62.1077C105.524 63.7708 103.254 64.8086 100.808 65.0115Z" fill="#79302A"/>
  <path d="M77.8121 59.4204C77.8121 60.2598 77.6047 61.0804 77.2161 61.7784C76.8274 62.4764 76.275 63.0204 75.6287 63.3416C74.9825 63.6629 74.2713 63.7469 73.5852 63.5831C72.8991 63.4194 72.2689 63.0151 71.7742 62.4216C71.2796 61.828 70.9427 61.0717 70.8062 60.2484C70.6698 59.4251 70.7398 58.5717 71.0075 57.7961C71.2752 57.0206 71.7285 56.3577 72.3102 55.8913C72.8918 55.425 73.5757 55.1761 74.2752 55.1761C75.2133 55.1761 76.1129 55.6232 76.7762 56.4192C77.4395 57.2151 77.8121 58.2947 77.8121 59.4204Z" fill="#E52323"/>
  <path d="M124.5 59.4204C124.5 60.2598 124.292 61.0804 123.904 61.7784C123.515 62.4764 122.963 63.0204 122.316 63.3416C121.67 63.6629 120.959 63.7469 120.273 63.5831C119.587 63.4194 118.956 63.0151 118.462 62.4216C117.967 61.828 117.63 61.0717 117.494 60.2484C117.357 59.4251 117.427 58.5717 117.695 57.7961C117.963 57.0206 118.416 56.3577 118.998 55.8913C119.579 55.425 120.263 55.1761 120.963 55.1761C121.901 55.1761 122.8 55.6232 123.464 56.4192C124.127 57.2151 124.5 58.2947 124.5 59.4204Z" fill="#E52323"/>
  <path d="M88.631 34.7774C88.326 34.1586 87.8766 33.6321 87.3252 33.2473C86.731 32.8279 86.0404 32.5855 85.3265 32.5457C84.6125 32.506 83.9016 32.6703 83.2688 33.0215C82.6414 33.3649 82.1122 33.8787 81.7359 34.5099C81.3596 35.1412 81.1498 35.867 81.1283 36.6124C80.5375 36.2077 79.8551 35.9766 79.1515 35.9429C78.4479 35.9091 77.7485 36.074 77.1254 36.4205C76.4885 36.7694 75.9532 37.2937 75.5763 37.938C75.1994 38.5822 74.9949 39.3222 74.9848 40.0792C74.9754 40.7758 75.1337 41.4635 75.445 42.078C75.4524 42.0986 75.4633 42.1178 75.4771 42.1344C77.2912 45.7818 86.8436 48.1024 86.849 48.1024C86.849 48.1024 90.4398 38.5039 88.6149 34.8339L88.631 34.7774Z" fill="#E52323"/>
  <path d="M124.269 40.5412C124.49 39.8913 124.553 39.1924 124.453 38.5095C124.348 37.7696 124.056 37.074 123.61 36.4965C123.164 35.919 122.579 35.4813 121.918 35.2298C121.269 34.9809 120.57 34.9207 119.892 35.0555C119.214 35.1902 118.582 35.5151 118.06 35.9966C117.944 35.2709 117.648 34.5913 117.205 34.0269C116.761 33.4626 116.185 33.0337 115.536 32.784C114.876 32.5314 114.164 32.4736 113.476 32.6164C112.788 32.7592 112.149 33.0975 111.626 33.5956C111.15 34.0529 110.789 34.6302 110.576 35.2746V35.3362C109.28 39.1756 114.019 48.0968 114.019 48.1024C114.019 48.1024 122.994 44.4253 124.285 40.5804C124.285 40.5804 124.264 40.5635 124.269 40.5412Z" fill="#E52323"/>
  <path d="M86.3019 37.5432C86.2951 37.9625 86.2056 38.3693 86.0447 38.7124C85.8838 39.0554 85.6588 39.3192 85.398 39.4706C85.1373 39.6219 84.8524 39.654 84.5795 39.5627C84.3066 39.4714 84.0579 39.2609 83.8647 38.9577C83.6715 38.6545 83.5425 38.2723 83.4941 37.8592C83.4456 37.4462 83.4798 37.0208 83.5924 36.6369C83.705 36.253 83.8909 35.9278 84.1267 35.7023C84.3624 35.4767 84.6374 35.361 84.917 35.3697C85.2926 35.3832 85.6494 35.6195 85.909 36.027C86.1686 36.4344 86.3099 36.9797 86.3019 37.5432Z" fill="white"/>
  <path d="M123.086 38.9517C123.077 39.3713 122.944 39.7788 122.703 40.1227C122.462 40.4666 122.125 40.7315 121.734 40.8838C121.343 41.0362 120.916 41.0691 120.506 40.9785C120.096 40.888 119.722 40.6779 119.432 40.375C119.142 40.072 118.947 39.6897 118.874 39.2765C118.801 38.8632 118.852 38.4375 119.021 38.0532C119.19 37.6689 119.468 37.3434 119.822 37.1176C120.176 36.8918 120.589 36.7759 121.008 36.7847C121.571 36.7982 122.105 37.0336 122.494 37.4397C122.883 37.8457 123.096 38.3894 123.086 38.9517Z" fill="white"/>
  <path d="M164.503 58.9578C162.462 58.4158 160.551 57.4608 158.886 56.1504C158.641 55.9422 158.487 55.644 158.46 55.3214C158.432 54.9989 158.532 54.6784 158.738 54.4304C158.944 54.1825 159.238 54.0274 159.557 53.9993C159.876 53.9712 160.193 54.0725 160.438 54.2807C160.51 54.3417 164.635 57.7372 169.824 56.8329C173.965 56.106 177.734 52.888 181.02 47.2621C181.058 47.19 186.214 38.0021 187.926 34.5732C188.056 34.3222 188.27 34.1257 188.529 34.0184L194.816 31.3053C194.963 31.2137 195.129 31.1552 195.3 31.134C195.472 31.1127 195.647 31.129 195.812 31.182C195.977 31.2349 196.129 31.3231 196.257 31.4407C196.386 31.5583 196.487 31.7024 196.556 31.8633C196.624 32.0242 196.658 32.1981 196.654 32.3732C196.65 32.5483 196.609 32.7206 196.533 32.8781C196.457 33.0357 196.349 33.1751 196.216 33.2866C196.082 33.3982 195.926 33.4793 195.759 33.5246L189.873 36.0657C187.981 39.7886 183.291 48.1165 183.104 48.4771C179.423 54.78 175.084 58.3919 170.202 59.2352C168.305 59.5545 166.362 59.46 164.503 58.9578Z" fill="#79302A"/>
  <path d="M28.5792 58.9578C30.3932 58.4158 32.0918 57.4608 33.5721 56.1504C33.7901 55.9422 33.9263 55.644 33.951 55.3214C33.9757 54.9989 33.8868 54.6784 33.7038 54.4304C33.5208 54.1825 33.2587 54.0274 32.9753 53.9993C32.6918 53.9712 32.4101 54.0725 32.1922 54.2807C32.1289 54.3417 28.4621 57.7372 23.8495 56.8329C20.1681 56.106 16.8183 52.888 13.8976 47.2621C13.8634 47.19 9.28005 38.0021 7.75874 34.5732C7.64294 34.3222 7.45299 34.1257 7.22237 34.0184L1.63453 31.3053C1.50335 31.2137 1.35638 31.1552 1.20359 31.134C1.0508 31.1127 0.89576 31.129 0.749027 31.182C0.602299 31.2349 0.467312 31.3231 0.353214 31.4407C0.239113 31.5583 0.148582 31.7024 0.0877762 31.8633C0.0269737 32.0242 -0.00268173 32.1981 0.000816345 32.3732C0.00431824 32.5483 0.0408745 32.7206 0.108044 32.8781C0.175217 33.0357 0.271408 33.1751 0.390087 33.2866C0.508762 33.3982 0.647148 33.4793 0.795841 33.5246L6.02778 36.0657C7.70999 39.7886 11.8789 48.1165 12.0447 48.4771C15.3165 54.78 19.1734 58.3919 23.513 59.2352C25.1998 59.5545 26.9271 59.46 28.5792 58.9578Z" fill="#79302A"/>
</svg>
