<svg width="22" height="22" viewBox="0 0 22 22" fill="none" xmlns="http://www.w3.org/2000/svg">
  <path d="M11.0005 6.44531C9.93432 6.44531 9.06695 7.31268 9.06695 8.37891C9.06695 8.66852 9.1354 8.94077 9.24996 9.18758C4.96129 9.97687 1.61725 13.691 1.32227 18.1328H20.6788C20.3838 13.691 17.0398 9.97687 12.7511 9.18758C12.8657 8.94077 12.9341 8.66852 12.9341 8.37891C12.9341 7.31268 12.0668 6.44531 11.0005 6.44531Z" fill="#FF6600"/>
  <path d="M14.8672 1.28906H20.668V0H14.8672C13.801 0 12.9336 0.867367 12.9336 1.93359C12.9336 2.99982 13.801 3.86719 14.8672 3.86719H17.4453C17.8009 3.86719 18.0898 4.15611 18.0898 4.51172C18.0898 4.86733 17.8009 5.15625 17.4453 5.15625H16.1562C15.09 5.15625 14.2227 6.02362 14.2227 7.08984V7.73438H15.5117V7.08984C15.5117 6.73423 15.8006 6.44531 16.1562 6.44531H17.4453C18.5115 6.44531 19.3789 5.57795 19.3789 4.51172C19.3789 3.44549 18.5115 2.57812 17.4453 2.57812H14.8672C14.5116 2.57812 14.2227 2.2892 14.2227 1.93359C14.2227 1.57798 14.5116 1.28906 14.8672 1.28906Z" fill="#FF6600"/>
  <path d="M0 20.7109H2.17972L2.82425 22H19.1758L19.8203 20.7109H22V19.4219H0V20.7109Z" fill="#FF6600"/>
</svg>
