<svg width="24" height="24" viewBox="0 0 24 24" fill="none" xmlns="http://www.w3.org/2000/svg">
  <path fill-rule="evenodd" clip-rule="evenodd" d="M12.0004 21.6C17.3023 21.6 21.6004 17.302 21.6004 12C21.6004 6.69809 17.3023 2.40002 12.0004 2.40002C6.69846 2.40002 2.40039 6.69809 2.40039 12C2.40039 17.302 6.69846 21.6 12.0004 21.6ZM13.0004 7.20002C13.0004 6.64774 12.5527 6.20002 12.0004 6.20002C11.4481 6.20002 11.0004 6.64774 11.0004 7.20002V12C11.0004 12.2652 11.1057 12.5196 11.2933 12.7071L14.6874 16.1012C15.0779 16.4918 15.7111 16.4918 16.1016 16.1012C16.4921 15.7107 16.4921 15.0776 16.1016 14.687L13.0004 11.5858V7.20002Z" fill="#F59E0B"/>
</svg>
