<svg width="203" height="151" viewBox="0 0 203 151" fill="none" xmlns="http://www.w3.org/2000/svg">
  <path d="M38.6646 19.6281C36.4524 14.833 33.3115 10.5256 29.4241 6.95546C19.6679 -2.25437 3.51161 2.66336 0.758364 15.8016C0.445438 17.2927 0.222248 18.8013 0.0900198 20.3192C-0.774457 29.9946 4.74658 38.8189 9.81721 44.7551C11.9083 47.1858 13.3937 50.0786 14.1514 53.1959C14.9091 56.3133 14.9175 59.5661 14.1759 62.6873C12.5414 69.5547 11.7786 78.5754 16.1228 85.5082C20.467 92.441 28.6468 94.6016 35.3229 95.0527C38.2021 95.2343 40.9677 96.2446 43.2874 97.9623C45.607 99.6799 47.382 102.032 48.399 104.735C50.8689 111.457 55.4093 119.336 63.3276 120.863C71.8125 122.508 79.6945 119.161 84.6925 116.171C86.3739 115.176 88.2974 114.667 90.25 114.699C92.2027 114.731 94.1084 115.304 95.7563 116.353C101.27 119.845 110.285 124.072 119.983 122.595C128.432 121.307 133.357 115.997 136.111 111.319C137.298 109.271 139.096 107.646 141.252 106.671C143.408 105.697 145.814 105.422 148.133 105.885C154.773 107.238 163.447 108.198 167.864 105.346C170.632 103.557 171.598 100.167 171.699 96.544C171.866 92.3166 173.196 88.2175 175.542 84.6989C177.888 81.1803 181.159 78.3789 184.994 76.6039C192.825 72.9083 200.852 67.8742 201.963 62.4036C203.249 56.0673 199.058 48.6543 195.207 43.4893C193.906 41.7318 193.218 39.5939 193.251 37.4059C193.283 35.2178 194.035 33.1016 195.389 31.3841C200.153 25.5284 202.569 18.1061 202.167 10.5637C202.113 9.46604 201.806 8.39583 201.268 7.43756C200.731 6.4793 199.979 5.65918 199.07 5.04193C198.162 4.42467 197.124 4.02716 196.036 3.88076C194.948 3.73437 193.841 3.84308 192.803 4.19834C188.193 5.81511 184.181 8.79282 181.296 12.7389L136.321 51.1932L89.4507 59.9884L38.6646 19.6281Z" fill="#FF9D00"/>
  <path d="M111.542 150.053H124.978C125.438 150.053 125.879 149.876 126.204 149.562C126.529 149.247 126.711 148.821 126.711 148.376C126.711 147.931 126.529 147.504 126.204 147.19C125.879 146.875 125.438 146.699 124.978 146.699H113.652L123.891 97.0536C123.953 96.6292 123.843 96.1983 123.587 95.8493C123.33 95.5003 122.945 95.2596 122.511 95.1767C122.076 95.0938 121.626 95.175 121.251 95.4035C120.877 95.632 120.607 95.9905 120.497 96.4055L109.848 148.017C109.8 148.26 109.807 148.51 109.869 148.75C109.932 148.989 110.048 149.213 110.209 149.404C110.371 149.595 110.574 149.75 110.804 149.857C111.035 149.964 111.286 150.02 111.542 150.022V150.053Z" fill="#79302A"/>
  <path d="M92.7685 150.049H80.532C80.3156 150.065 80.0984 150.032 79.8941 149.953C79.6897 149.874 79.5025 149.75 79.344 149.589C79.1855 149.428 79.0591 149.234 78.9728 149.018C78.8864 148.802 78.8418 148.568 78.8418 148.333C78.8418 148.097 78.8864 147.864 78.9728 147.648C79.0591 147.432 79.1855 147.237 79.344 147.076C79.5025 146.916 79.6897 146.792 79.8941 146.713C80.0984 146.634 80.3156 146.601 80.532 146.617H90.8395L81.4822 95.7121C81.4217 95.2751 81.5185 94.8296 81.7523 94.468C81.9862 94.1065 82.3393 93.8565 82.7383 93.7701C83.1373 93.6836 83.5516 93.7673 83.8954 94.0037C84.2391 94.2401 84.4859 94.6111 84.5845 95.0398L94.2945 148.001C94.341 148.241 94.34 148.489 94.2916 148.729C94.2432 148.969 94.1485 149.195 94.0137 149.392C93.8659 149.597 93.6768 149.763 93.461 149.877C93.2452 149.991 93.0084 150.049 92.7685 150.049Z" fill="#79302A"/>
  <path d="M120.254 12.039C120.616 13.5105 120.803 15.0201 120.81 16.536C120.822 19.2076 120.268 21.8512 119.185 24.2912C118.102 26.7312 116.514 28.9117 114.528 30.688C112.542 32.4643 110.202 33.7957 107.664 34.5938C105.126 35.3919 102.448 35.6384 99.8082 35.3169C97.1682 34.9954 94.6265 34.1133 92.3519 32.7292C90.0773 31.3451 88.1219 29.4907 86.6155 27.289C85.109 25.0874 84.0861 22.589 83.6147 19.9597C83.1432 17.3304 83.2339 14.6304 83.8809 12.039C62.117 -2.01796 41.8813 -3.77799 23.8374 12.039C21.8376 22.9635 22.1266 34.187 24.6861 44.993C27.2456 55.799 32.0193 65.9503 38.7026 74.7991C45.3859 83.6478 53.832 90.9998 63.5019 96.3856C73.1718 101.771 83.853 105.073 94.8641 106.079C105.875 107.086 116.974 105.775 127.453 102.231C137.931 98.6866 147.559 92.9867 155.722 85.4949C163.886 78.0031 170.404 68.884 174.863 58.7194C179.322 48.5549 181.622 37.5681 181.617 26.4604C181.61 21.6232 181.169 16.7965 180.298 12.039C158.812 -2.92511 138.797 -2.92511 120.254 12.039Z" fill="#FFC419"/>
  <path d="M133.156 78.6504C136.969 77.4917 139.121 73.4609 137.963 69.6474C136.804 65.8339 132.773 63.6817 128.96 64.8404C125.146 65.9991 122.994 70.0299 124.153 73.8434C125.311 77.6569 129.342 79.8091 133.156 78.6504Z" fill="#E52323"/>
  <path d="M80.2184 77.0738C83.2982 74.5439 83.7441 69.9963 81.2143 66.9165C78.6844 63.8367 74.1368 63.3909 71.0569 65.9208C67.9771 68.4506 67.5314 72.9982 70.0612 76.078C72.5911 79.1578 77.1386 79.6036 80.2184 77.0738Z" fill="#E52323"/>
  <path d="M72.5992 55.9356C73.5779 57.7882 75.0841 59.3087 76.9273 60.3049C78.7705 61.301 80.8678 61.7278 82.9537 61.5315C85.0396 61.3352 87.0205 60.5245 88.6455 59.2019C90.2704 57.8794 91.4666 56.1045 92.0824 54.1019C92.6983 52.0993 92.7061 49.959 92.1051 47.9519C91.504 45.9448 90.3211 44.1612 88.7059 42.8267C87.0907 41.4922 85.1159 40.6668 83.0315 40.4551C80.9471 40.2433 78.8467 40.6548 76.9962 41.6373C74.5191 42.9524 72.665 45.1965 71.8407 47.8771C71.0163 50.5577 71.2891 53.4559 72.5992 55.9356Z" fill="#FFF7F5"/>
  <path d="M110.847 55.9356C111.826 57.7882 113.332 59.3087 115.175 60.3049C117.019 61.301 119.116 61.7278 121.202 61.5315C123.288 61.3352 125.269 60.5245 126.894 59.2019C128.518 57.8794 129.715 56.1045 130.33 54.1019C130.946 52.0993 130.954 49.959 130.353 47.9519C129.752 45.9448 128.569 44.1612 126.954 42.8267C125.339 41.4922 123.364 40.6668 121.28 40.4551C119.195 40.2433 117.095 40.6548 115.244 41.6373C112.767 42.9524 110.913 45.1965 110.089 47.8771C109.264 50.5577 109.537 53.4559 110.847 55.9356Z" fill="#FFF7F5"/>
  <path d="M79.5281 53.3846C80.3382 52.9568 81.0095 52.3072 81.4637 51.5116C81.9179 50.7161 82.1361 49.8076 82.0927 48.8925C82.0493 47.9775 81.7461 47.0938 81.2187 46.3449C80.6912 45.5959 79.9612 45.0126 79.1143 44.6635C80.344 44.1107 81.7084 43.9295 83.0398 44.1422C84.3711 44.3548 85.6111 44.952 86.6075 45.8603C87.6038 46.7686 88.3128 47.9483 88.6473 49.2544C88.9819 50.5604 88.9273 51.9358 88.4903 53.2112C88.0533 54.4866 87.253 55.6064 86.1878 56.4329C85.1227 57.2594 83.839 57.7563 82.495 57.8628C81.151 57.9692 79.8053 57.6804 78.6233 57.0319C77.4413 56.3834 76.4747 55.4035 75.8425 54.2128C75.7416 54.0266 75.651 53.835 75.5709 53.639C76.2105 53.8811 76.8945 53.9836 77.577 53.9397C78.2595 53.8958 78.9247 53.7066 79.5281 53.3846Z" fill="#4C2805"/>
  <path d="M117.776 53.3846C118.586 52.9568 119.258 52.3072 119.712 51.5116C120.166 50.7161 120.384 49.8076 120.341 48.8925C120.297 47.9775 119.994 47.0938 119.467 46.3449C118.939 45.5959 118.209 45.0126 117.362 44.6635C118.592 44.1107 119.956 43.9295 121.288 44.1422C122.619 44.3548 123.859 44.952 124.856 45.8603C125.852 46.7686 126.561 47.9483 126.895 49.2544C127.23 50.5604 127.175 51.9358 126.738 53.2112C126.301 54.4866 125.501 55.6064 124.436 56.4329C123.371 57.2594 122.087 57.7563 120.743 57.8628C119.399 57.9692 118.053 57.6804 116.871 57.0319C115.689 56.3834 114.723 55.4035 114.09 54.2128C113.99 54.0266 113.899 53.835 113.819 53.639C114.459 53.8811 115.143 53.9836 115.825 53.9397C116.508 53.8958 117.173 53.7066 117.776 53.3846Z" fill="#4C2805"/>
  <path d="M28.1582 12.3019C35.2528 18.1036 43.9976 21.4625 53.1158 21.8882C62.2341 22.3139 71.2483 19.7841 78.8424 14.6682C71.7468 8.86878 63.0023 5.51136 53.8846 5.08569C44.7669 4.66002 35.7532 7.18837 28.1582 12.3019Z" fill="#EC691C"/>
  <path d="M126.711 13.7984C133.915 19.1927 142.581 22.0422 151.446 21.9312C160.311 21.8201 168.91 18.7543 175.987 13.1811C168.785 7.78334 160.118 4.93162 151.252 5.04268C142.386 5.15374 133.787 8.22178 126.711 13.7984Z" fill="#EC691C"/>
  <path d="M163.328 59.4215C167.559 61.1698 171.618 63.3723 175.42 65.9838C186.306 73.5927 190.868 82.9454 188.616 93.0371C187.489 98.1039 184.786 101.783 180.579 103.964C173.029 107.893 162.977 105.802 159.608 104.929L154.674 111.755C154.436 112.084 154.062 112.293 153.633 112.336C153.204 112.379 152.756 112.253 152.387 111.985C152.019 111.717 151.76 111.329 151.667 110.907C151.575 110.485 151.657 110.063 151.895 109.734L157.428 102.088C157.609 101.836 157.871 101.652 158.18 101.561C158.49 101.47 158.831 101.476 159.158 101.578C159.277 101.615 170.977 105.155 178.786 101.098C182.222 99.3151 184.446 96.2682 185.386 92.0423C187.348 83.2441 183.432 75.3414 173.755 68.5529C168.836 65.197 163.493 62.5389 157.915 60.6718C157.493 60.5331 157.126 60.2449 156.893 59.8692C156.66 59.4934 156.58 59.06 156.669 58.662C156.758 58.2641 157.01 57.9333 157.37 57.7408C157.731 57.5482 158.171 57.5093 158.596 57.6322C160.195 58.1538 161.774 58.7509 163.328 59.4215Z" fill="#79302A"/>
  <path d="M34.4237 62.7688C36.8908 61.1306 38.6217 60.2274 38.7783 60.1431C39.1823 59.934 39.6548 59.8904 40.0918 60.0217C40.3081 60.0868 40.5093 60.1928 40.6837 60.3338C40.8581 60.4748 41.0024 60.648 41.1084 60.8436C41.2143 61.0391 41.2798 61.2531 41.3011 61.4734C41.3224 61.6937 41.2992 61.9158 41.2326 62.1273C41.1661 62.3388 41.0576 62.5354 40.9133 62.7059C40.769 62.8764 40.5918 63.0174 40.3917 63.121C35.2037 65.9993 30.497 69.6367 26.4349 73.9069C18.4697 82.5112 16.8171 91.2379 21.5007 99.8422C23.7485 103.968 26.9832 106.678 31.048 107.895C40.3526 110.659 51.3488 104.994 51.4585 104.933C51.7664 104.772 52.1169 104.706 52.4638 104.745C52.8106 104.783 53.1374 104.923 53.4009 105.147L61.4131 111.952C61.7336 112.251 61.924 112.659 61.9449 113.092C61.9658 113.524 61.8156 113.948 61.5254 114.275C61.2352 114.602 60.8273 114.807 60.3863 114.848C59.9454 114.888 59.5053 114.762 59.1574 114.494L52.0067 108.423C48.7878 109.901 39.0211 113.782 30.0769 111.118C25.0721 109.633 21.1718 106.372 18.4775 101.419C13.1047 91.5518 14.9922 81.2404 23.96 71.5645C27.0865 68.2452 30.598 65.2935 34.4237 62.7688Z" fill="#79302A"/>
  <path d="M104.329 79.5744C103.518 79.6583 102.701 79.6792 101.886 79.6368C99.94 79.615 98.0253 79.1924 96.2888 78.4014C94.5523 77.6105 93.0402 76.4722 91.8684 75.0737C91.7323 74.9157 91.6321 74.7351 91.5735 74.5423C91.5149 74.3494 91.4992 74.1481 91.5271 73.9498C91.555 73.7514 91.626 73.56 91.7361 73.3864C91.8463 73.2127 91.9933 73.0603 92.1689 72.9378C92.3445 72.8153 92.5451 72.7252 92.7594 72.6725C92.9737 72.6198 93.1975 72.6056 93.4178 72.6307C93.6382 72.6558 93.851 72.7198 94.0439 72.8189C94.2369 72.918 94.4062 73.0503 94.5423 73.2083C95.4225 74.2452 96.554 75.0877 97.8507 75.6718C99.1473 76.2558 100.575 76.5659 102.025 76.5786C103.443 76.6908 104.87 76.507 106.196 76.0415C107.522 75.576 108.71 74.8414 109.669 73.8948C109.976 73.595 110.402 73.4171 110.854 73.4002C111.307 73.3833 111.748 73.5288 112.081 73.8047C112.414 74.0806 112.612 74.4642 112.631 74.8713C112.649 75.2784 112.488 75.6755 112.181 75.9753C110.161 78.0229 107.357 79.3084 104.329 79.5744Z" fill="#4C2805"/>
</svg>
