<svg width="239" height="189" viewBox="0 0 239 189" fill="none" xmlns="http://www.w3.org/2000/svg">
  <path d="M108.743 188.031C108.359 188.063 107.976 187.953 107.656 187.719C107.336 187.485 107.099 187.14 106.982 186.74C106.865 186.341 106.875 185.91 107.011 185.518C107.147 185.126 107.401 184.795 107.732 184.579L112.585 181.466L103.594 168.632C91.5998 150.383 97.3712 138.868 101.859 133.623C102.175 133.293 102.595 133.107 103.033 133.104C103.471 133.101 103.893 133.28 104.213 133.605C104.533 133.931 104.726 134.377 104.753 134.852C104.779 135.328 104.638 135.796 104.356 136.161C100.576 140.577 95.8 150.374 106.34 166.424L116.451 180.874C116.598 181.083 116.702 181.323 116.757 181.58C116.813 181.836 116.817 182.102 116.771 182.36C116.725 182.618 116.628 182.863 116.489 183.078C116.349 183.292 116.169 183.473 115.961 183.606L109.443 187.777C109.23 187.918 108.991 188.005 108.743 188.031Z" fill="#79302A"/>
  <path d="M142.459 188.037C142.886 188.037 143.301 187.897 143.636 187.641C143.971 187.384 144.208 187.025 144.308 186.622C144.408 186.219 144.365 185.795 144.186 185.418C144.007 185.042 143.703 184.734 143.323 184.546L137.734 181.811L146.839 168.47C158.891 149.557 151.729 138.573 146.399 133.707C146.222 133.518 146.007 133.368 145.768 133.264C145.528 133.16 145.269 133.106 145.007 133.104C144.745 133.102 144.485 133.153 144.244 133.253C144.003 133.354 143.786 133.502 143.607 133.687C143.428 133.873 143.29 134.093 143.202 134.333C143.115 134.573 143.079 134.828 143.098 135.082C143.117 135.336 143.189 135.583 143.311 135.809C143.433 136.034 143.602 136.233 143.807 136.392C148.299 140.486 154.251 149.817 143.651 166.481L133.397 181.509C133.248 181.725 133.149 181.97 133.105 182.227C133.062 182.483 133.075 182.746 133.143 182.997C133.212 183.249 133.335 183.483 133.503 183.685C133.672 183.887 133.883 184.052 134.123 184.169L141.63 187.835C141.887 187.964 142.17 188.033 142.459 188.037Z" fill="#79302A"/>
  <path d="M40.9618 181.288C57.171 175.241 88.3887 161.436 107.084 139.352C110.679 135.066 115.793 132.31 121.374 131.648C126.956 130.987 132.58 132.471 137.092 135.796C155.018 148.955 181.323 156.621 213.437 157.183C213.437 157.183 228.242 157.284 228.927 143.462C229.502 132.03 218.333 129.321 218.333 129.321C218.333 129.321 232.386 128.239 232.766 114.853C233.104 102.7 219.711 100.251 219.711 100.251C219.711 100.251 232.775 94.9082 231.709 84.0552C230.644 73.2021 216.565 71.206 216.565 71.206C216.565 71.206 229.891 65.6956 228.538 51.9154C227.185 38.1352 211.906 38.3616 211.906 38.3616C211.906 38.3616 220.032 31.7357 216.582 22.6272C213.133 13.5187 203.722 15.6994 203.722 15.6994L203.857 15.5065C209.006 7.95799 201.244 -1.72085 192.636 1.49146C176.436 7.53864 145.21 21.344 126.515 43.4275C122.919 47.7109 117.807 50.4662 112.228 51.1275C106.649 51.7889 101.026 50.3061 96.5145 46.9837C78.5804 33.8242 52.2753 26.1498 20.1698 25.5879C20.1698 25.5879 5.36431 25.4957 4.67096 39.3178C4.09599 50.7496 15.2656 53.4586 15.2656 53.4586C15.2656 53.4586 1.21264 54.5406 0.8406 67.9182C0.493925 80.0797 13.8874 82.5203 13.8874 82.5203C13.8874 82.5203 0.823681 87.863 1.88907 98.716C2.95446 109.569 17.0412 111.574 17.0412 111.574C17.0412 111.574 3.707 117.084 5.05988 130.864C6.41276 144.644 21.6918 144.418 21.6918 144.418C21.6918 144.418 13.5661 151.035 17.016 160.144C20.4658 169.252 29.8767 167.08 29.8767 167.08L29.7414 167.265C24.592 174.855 32.3542 184.534 40.9618 181.288Z" fill="#FFC419"/>
  <path d="M10.0324 169.726C9.59839 169.726 9.17881 169.563 8.85077 169.267C8.52273 168.971 8.30823 168.561 8.24679 168.114C5.39973 148.158 7.20177 134.129 13.5953 126.419C18.1292 120.957 23.3296 120.914 23.56 120.897C24.018 120.929 24.4471 121.141 24.7606 121.491C25.074 121.84 25.2484 122.301 25.2484 122.779C25.2484 123.257 25.074 123.718 24.7606 124.067C24.4471 124.417 24.018 124.629 23.56 124.661C23.3626 124.661 19.6433 124.799 16.2285 129.001C12.3776 133.726 8.48549 144.265 11.818 167.591C11.853 167.835 11.8413 168.084 11.7837 168.324C11.7261 168.564 11.6236 168.789 11.4821 168.987C11.3407 169.186 11.1631 169.353 10.9595 169.48C10.7559 169.607 10.5303 169.69 10.2957 169.726H10.0324Z" fill="#79302A"/>
  <path d="M237.57 57.9221C237.974 58.0348 238.328 58.3036 238.566 58.6793C238.804 59.055 238.91 59.5122 238.865 59.9666C236.942 80.3247 232.032 93.6445 224.271 99.5431C218.773 103.719 213.943 102.397 213.681 102.353C213.246 102.213 212.878 101.894 212.654 101.463C212.431 101.032 212.368 100.523 212.48 100.042C212.593 99.5621 212.871 99.1481 213.256 98.8878C213.642 98.6275 214.104 98.5412 214.547 98.647C214.721 98.647 218.233 99.517 222.396 96.3154C227.083 92.6701 233.145 83.3436 235.393 59.5751C235.413 59.3226 235.478 59.0769 235.586 58.8523C235.693 58.6277 235.84 58.4287 236.018 58.2668C236.196 58.1049 236.402 57.9834 236.623 57.9093C236.845 57.8352 237.077 57.81 237.308 57.8351C237.397 57.8554 237.485 57.8845 237.57 57.9221Z" fill="#79302A"/>
  <path d="M133.12 65.9637C132.67 65.965 132.232 65.8141 131.873 65.5341C131.433 65.1894 131.143 64.6785 131.067 64.1132C130.991 63.5478 131.134 62.9743 131.466 62.5182C137.956 53.6167 150.752 44.9901 169.482 36.8791C177.993 33.2076 186.699 30.0378 195.557 27.3847C196.088 27.2332 196.656 27.306 197.135 27.5872C197.614 27.8684 197.966 28.3348 198.112 28.884C198.259 29.4332 198.188 30.0201 197.916 30.5156C197.644 31.0111 197.193 31.3746 196.662 31.5261C196.188 31.6636 149.298 45.1964 134.782 65.1045C134.589 65.3723 134.338 65.5895 134.05 65.7387C133.761 65.888 133.442 65.965 133.12 65.9637Z" fill="#FF9D00"/>
  <path d="M153.486 72.0676C153.05 72.0677 152.624 71.9226 152.269 71.6524C151.914 71.3823 151.647 71.0006 151.505 70.5606C151.363 70.1206 151.353 69.6443 151.477 69.198C151.601 68.7518 151.852 68.3579 152.195 68.0714C164.761 57.6205 198.521 53.9551 199.945 53.7674C200.22 53.7386 200.497 53.7679 200.762 53.8537C201.026 53.9394 201.272 54.0799 201.486 54.2671C201.699 54.4543 201.876 54.6846 202.006 54.9447C202.136 55.2049 202.217 55.4898 202.244 55.7833C202.271 56.0768 202.244 56.3732 202.163 56.6553C202.083 56.9375 201.951 57.2 201.776 57.4279C201.601 57.6558 201.385 57.8445 201.141 57.9834C200.897 58.1223 200.63 58.2086 200.355 58.2374C200.02 58.2374 166.378 61.9296 154.759 71.5938C154.394 71.896 153.947 72.0625 153.486 72.0676Z" fill="#FF9D00"/>
  <path d="M208.235 143.242H208.058C206.364 143.126 166.02 140.226 150.142 126.624C149.92 126.448 149.737 126.231 149.603 125.984C149.469 125.737 149.388 125.466 149.363 125.187C149.339 124.909 149.372 124.628 149.46 124.362C149.549 124.097 149.692 123.851 149.879 123.641C150.067 123.43 150.296 123.259 150.553 123.138C150.809 123.016 151.088 122.947 151.373 122.934C151.658 122.92 151.942 122.964 152.209 123.061C152.477 123.159 152.721 123.308 152.928 123.5C167.739 136.196 207.973 139.088 208.346 139.121C208.907 139.14 209.438 139.377 209.821 139.779C210.205 140.182 210.41 140.718 210.391 141.269C210.372 141.82 210.13 142.341 209.72 142.717C209.309 143.093 208.763 143.294 208.202 143.276L208.235 143.242Z" fill="#FF9D00"/>
  <path d="M199.765 116.828C189.985 116.828 171.875 115.797 162.47 108.784C162.244 108.615 162.051 108.399 161.902 108.148C161.752 107.898 161.649 107.617 161.599 107.323C161.548 107.029 161.551 106.726 161.607 106.433C161.663 106.14 161.771 105.862 161.925 105.615C162.079 105.367 162.276 105.156 162.505 104.992C162.734 104.828 162.99 104.715 163.258 104.66C163.527 104.604 163.803 104.607 164.07 104.669C164.338 104.73 164.591 104.848 164.817 105.017C176.652 113.845 205.857 112.122 206.156 112.103C206.43 112.084 206.704 112.124 206.963 112.221C207.221 112.319 207.46 112.471 207.665 112.671C207.869 112.87 208.035 113.112 208.154 113.383C208.272 113.653 208.34 113.947 208.354 114.247C208.385 114.85 208.197 115.443 207.831 115.894C207.464 116.346 206.948 116.619 206.398 116.654C206.048 116.672 203.518 116.828 199.765 116.828Z" fill="#FF9D00"/>
  <path d="M159.73 90.3761C159.165 90.4029 158.612 90.2066 158.193 89.8304C157.774 89.4542 157.524 88.9288 157.497 88.3699C157.469 87.811 157.668 87.2644 158.049 86.8502C158.429 86.436 158.96 86.1883 159.526 86.1615L199.904 82.2504C200.184 82.2233 200.466 82.2509 200.735 82.3317C201.004 82.4126 201.255 82.545 201.472 82.7216C201.689 82.8981 201.869 83.1151 202.002 83.3604C202.134 83.6057 202.217 83.8744 202.244 84.1511C202.271 84.4279 202.243 84.7073 202.162 84.9733C202.08 85.2394 201.946 85.4868 201.767 85.7017C201.589 85.9166 201.369 86.0946 201.121 86.2255C200.873 86.3565 200.601 86.4379 200.321 86.465L159.943 90.3676L159.73 90.3761Z" fill="#FF9D00"/>
  <path d="M35.5273 155.483C35.0024 155.482 34.4963 155.29 34.1046 154.944C33.7129 154.598 33.4628 154.123 33.4014 153.607C33.3401 153.091 33.4719 152.571 33.7718 152.144C34.0717 151.718 34.519 151.415 35.0291 151.293C35.4843 151.191 80.5438 140.414 94.7907 125.625C94.9852 125.423 95.218 125.261 95.4759 125.148C95.7337 125.035 96.0115 124.973 96.2934 124.966C96.5753 124.96 96.8558 125.008 97.1189 125.108C97.3819 125.209 97.6222 125.36 97.8264 125.552C98.0305 125.745 98.1943 125.975 98.3085 126.231C98.4226 126.486 98.4848 126.761 98.4916 127.04C98.4984 127.319 98.4496 127.596 98.348 127.857C98.2464 128.117 98.094 128.355 97.8994 128.557C82.8109 144.256 37.9318 154.982 36.0683 155.424C35.8915 155.468 35.7095 155.488 35.5273 155.483Z" fill="#FF9D00"/>
  <path d="M31.561 129.033C30.9891 129.054 30.4315 128.864 30.0108 128.504C29.5902 128.144 29.341 127.644 29.3181 127.114C29.2953 126.584 29.5005 126.067 29.8888 125.677C30.2771 125.288 30.8166 125.057 31.3885 125.035C31.725 125.035 65.2308 122.389 76.7646 115.169C76.9988 115.013 77.2644 114.902 77.5456 114.843C77.8268 114.783 78.118 114.777 78.4019 114.824C78.6859 114.871 78.9568 114.97 79.1986 115.116C79.4404 115.261 79.6483 115.451 79.8099 115.672C79.9715 115.893 80.0834 116.143 80.1393 116.405C80.1951 116.667 80.1937 116.937 80.135 117.199C80.0762 117.461 79.9615 117.709 79.7975 117.929C79.6335 118.148 79.4236 118.336 79.1801 118.479C66.706 126.291 33.157 128.873 31.7336 129.017L31.561 129.033Z" fill="#FF9D00"/>
  <path d="M90.3159 65.9638C90.0442 65.9646 89.7751 65.9108 89.5242 65.8057C89.2733 65.7006 89.0456 65.5462 88.8542 65.3515C71.6551 48.1972 25.5719 43.7681 25.1069 43.7178C24.8342 43.6924 24.5692 43.6131 24.3269 43.4843C24.0846 43.3555 23.8697 43.1798 23.6947 42.9671C23.5196 42.7545 23.3878 42.5091 23.3066 42.2449C23.2254 41.9808 23.1966 41.7031 23.2217 41.4277C23.2467 41.1523 23.3253 40.8846 23.4528 40.6399C23.5803 40.3951 23.7543 40.1782 23.9648 40.0014C24.1754 39.8245 24.4183 39.6913 24.6798 39.6094C24.9413 39.5274 25.2162 39.4982 25.4888 39.5236C34.2584 40.4589 42.962 41.9437 51.5492 43.9694C70.5256 48.4656 84.0541 54.6479 91.7692 62.3484C92.0622 62.6403 92.2626 63.0135 92.3452 63.4206C92.4278 63.8278 92.3888 64.2505 92.2331 64.6352C92.0774 65.0199 91.8119 65.3492 91.4706 65.5813C91.1292 65.8134 90.7274 65.9377 90.3159 65.9386V65.9638Z" fill="#FF9D00"/>
  <path d="M78.1327 78.1534C77.7409 78.1514 77.3575 78.0317 77.0258 77.8081C62.9074 68.2274 27.8551 70.6713 27.4586 70.7244C27.1874 70.7442 26.9152 70.7065 26.6576 70.6135C26.4 70.5205 26.1618 70.3741 25.957 70.1825C25.5434 69.7956 25.2901 69.2484 25.2528 68.6613C25.2156 68.0742 25.3975 67.4953 25.7585 67.0519C26.1194 66.6085 26.63 66.337 27.1777 66.2971C28.673 66.182 63.9401 63.7293 79.2233 74.0892C79.6006 74.3462 79.8899 74.7275 80.0478 75.1758C80.2057 75.6241 80.2235 76.1152 80.0987 76.5754C79.9739 77.0355 79.7133 77.4398 79.3558 77.7276C78.9983 78.0153 78.5633 78.171 78.1162 78.1712L78.1327 78.1534Z" fill="#FF9D00"/>
  <path d="M33.5231 102.583C32.9742 102.615 32.4373 102.379 32.0305 101.925C31.6237 101.472 31.3803 100.839 31.3539 100.165C31.3276 99.4918 31.5204 98.8331 31.8899 98.334C32.2594 97.8349 32.7755 97.5363 33.3244 97.504L75.8636 92.4252C76.4125 92.3592 76.9603 92.5634 77.3865 92.993C77.8127 93.4225 78.0824 94.0423 78.1362 94.7158C78.19 95.3892 78.0236 96.0613 77.6734 96.5842C77.3233 97.1071 76.8182 97.438 76.2692 97.504L33.7301 102.583H33.5231Z" fill="#FF9D00"/>
  <path d="M148.546 88.0583C152.796 83.3375 152.415 76.0648 147.694 71.8142C142.974 67.5635 135.701 67.9447 131.45 72.6654C127.2 77.3862 127.581 84.659 132.302 88.9096C137.022 93.1602 144.295 92.7791 148.546 88.0583Z" fill="#FFF7F5"/>
  <path d="M136.859 81.5836C137.801 81.5276 138.71 81.1667 139.48 80.543C140.25 79.9192 140.848 79.0583 141.206 78.0608C141.563 77.0632 141.665 75.9702 141.499 74.909C141.334 73.8478 140.907 72.8624 140.27 72.0676C141.66 72.0839 143.016 72.5646 144.17 73.4503C145.324 74.336 146.226 75.5881 146.765 77.0522C147.304 78.5163 147.456 80.1284 147.202 81.69C146.949 83.2515 146.301 84.6941 145.338 85.8401C144.375 86.9861 143.14 87.7853 141.784 88.1392C140.429 88.4932 139.012 88.3864 137.709 87.8321C136.406 87.2778 135.273 86.3001 134.451 85.0196C133.628 83.7391 133.152 82.2117 133.08 80.6257C133.08 80.3824 133.08 80.136 133.08 79.8866C133.57 80.4569 134.16 80.9028 134.811 81.1952C135.462 81.4876 136.16 81.62 136.859 81.5836Z" fill="#79302A"/>
  <path d="M84.2651 87.9154C84.3815 90.1252 85.1505 92.251 86.4749 94.0238C87.7993 95.7967 89.6196 97.137 91.7058 97.8754C93.7919 98.6138 96.0501 98.7172 98.1949 98.1723C100.34 97.6275 102.275 96.4589 103.756 94.8144C105.236 93.1699 106.196 91.1233 106.514 88.9333C106.832 86.7433 106.493 84.5083 105.541 82.5108C104.588 80.5133 103.065 78.8431 101.163 77.7113C99.2617 76.5794 97.0672 76.0368 94.8572 76.152C91.8932 76.3086 89.1125 77.6357 87.1264 79.8414C85.1402 82.0472 84.1111 84.9512 84.2651 87.9154Z" fill="#FFF7F5"/>
  <path d="M92.0926 88.5228C93.0341 88.4739 93.9422 88.1584 94.711 87.6132C95.4799 87.0681 96.0777 86.3157 96.4349 85.4438C96.7921 84.5719 96.8939 83.6165 96.7283 82.689C96.5627 81.7616 96.1367 80.9003 95.4999 80.2056C96.8907 80.2184 98.2474 80.6376 99.4027 81.4117C100.558 82.1857 101.461 83.2808 102.001 84.5617C102.541 85.8427 102.694 87.2536 102.442 88.6204C102.189 89.9873 101.541 91.2504 100.579 92.2539C99.6164 93.2574 98.3812 93.9574 97.0254 94.2677C95.6696 94.578 94.2525 94.485 92.9489 94.0002C91.6454 93.5153 90.5124 92.6598 89.6895 91.5392C88.8667 90.4185 88.3901 89.0816 88.3184 87.6935C88.3184 87.4808 88.3184 87.2655 88.3184 87.0476C88.8082 87.545 89.3975 87.9335 90.0479 88.1877C90.6983 88.442 91.3951 88.5561 92.0926 88.5228Z" fill="#79302A"/>
  <path d="M117.346 114.765C118.3 114.719 119.249 114.603 120.182 114.417C122.427 114.05 124.551 113.218 126.393 111.984C128.235 110.751 129.746 109.147 130.811 107.297C131.059 106.872 131.113 106.373 130.96 105.912C130.808 105.45 130.462 105.063 129.998 104.835C129.769 104.723 129.518 104.653 129.259 104.629C129 104.606 128.738 104.629 128.489 104.698C127.986 104.838 127.564 105.156 127.316 105.581C126.516 106.959 125.384 108.15 124.004 109.064C122.625 109.978 121.037 110.589 119.36 110.853C117.745 111.231 116.057 111.263 114.426 110.945C112.796 110.628 111.267 109.969 109.959 109.021C109.758 108.852 109.522 108.723 109.265 108.642C109.007 108.56 108.735 108.528 108.463 108.548C108.192 108.567 107.928 108.638 107.687 108.755C107.447 108.871 107.235 109.033 107.065 109.228C106.895 109.423 106.771 109.648 106.7 109.889C106.629 110.13 106.612 110.382 106.652 110.629C106.691 110.876 106.785 111.114 106.929 111.326C107.072 111.538 107.261 111.721 107.485 111.864C110.251 113.945 113.777 114.982 117.346 114.765Z" fill="#79302A"/>
  <path d="M154.937 106.84C154.368 108.533 153.365 109.999 152.055 111.052C150.745 112.105 149.188 112.697 147.579 112.754C145.97 112.811 144.382 112.33 143.016 111.372C141.65 110.414 140.568 109.021 139.905 107.371C139.242 105.721 139.03 103.887 139.294 102.101C139.558 100.315 140.287 98.6567 141.389 97.3366C142.491 96.0165 143.916 95.0935 145.484 94.6843C147.052 94.2752 148.692 94.3982 150.198 95.0379C152.217 95.8979 153.85 97.6236 154.738 99.8363C155.626 102.049 155.698 104.568 154.937 106.84Z" fill="#E52323"/>
  <path d="M97.9634 113.601C97.3945 115.107 96.392 116.41 95.0827 117.345C93.7733 118.281 92.216 118.808 90.6075 118.858C88.9991 118.909 87.4118 118.481 86.0463 117.629C84.6808 116.778 83.5984 115.54 82.9361 114.074C82.2737 112.607 82.0611 110.976 82.3251 109.389C82.5891 107.801 83.318 106.327 84.4195 105.154C85.5209 103.98 86.9455 103.16 88.5131 102.796C90.0807 102.433 91.721 102.542 93.2265 103.111C94.227 103.487 95.1433 104.058 95.9231 104.789C96.7029 105.52 97.3308 106.399 97.7708 107.373C98.2108 108.347 98.4543 109.399 98.4873 110.468C98.5204 111.537 98.3424 112.601 97.9634 113.601Z" fill="#E52323"/>
</svg>
