<svg width="184" height="196" viewBox="0 0 184 196" fill="none" xmlns="http://www.w3.org/2000/svg">
  <path d="M97.0083 182.306H106.155C106.467 182.306 106.767 182.191 106.989 181.986C107.21 181.781 107.334 181.503 107.334 181.213C107.334 180.923 107.21 180.645 106.989 180.44C106.767 180.235 106.467 180.12 106.155 180.12H98.4451L105.415 147.772C105.456 147.495 105.382 147.214 105.207 146.987C105.032 146.76 104.77 146.603 104.475 146.549C104.179 146.495 103.872 146.548 103.617 146.697C103.363 146.845 103.179 147.079 103.104 147.35L95.8556 180.98C95.8226 181.138 95.8275 181.301 95.87 181.457C95.9124 181.613 95.9915 181.758 96.1015 181.883C96.2115 182.008 96.3497 182.109 96.5064 182.178C96.6632 182.248 96.8345 182.285 97.0083 182.286V182.306Z" fill="#4C2805"/>
  <path d="M84.5811 182.303H76.5043C76.3615 182.314 76.2181 182.293 76.0832 182.243C75.9483 182.192 75.8248 182.114 75.7201 182.012C75.6155 181.909 75.5321 181.786 75.4751 181.648C75.4181 181.511 75.3887 181.363 75.3887 181.213C75.3887 181.064 75.4181 180.916 75.4751 180.778C75.5321 180.641 75.6155 180.517 75.7201 180.415C75.8248 180.313 75.9483 180.234 76.0832 180.184C76.2181 180.134 76.3615 180.113 76.5043 180.123H83.3078L77.1315 147.783C77.0916 147.505 77.1554 147.222 77.3098 146.993C77.4642 146.763 77.6972 146.604 77.9606 146.549C78.2239 146.494 78.4974 146.548 78.7243 146.698C78.9512 146.848 79.1141 147.084 79.1792 147.356L85.5883 181.002C85.619 181.155 85.6184 181.313 85.5865 181.465C85.5545 181.617 85.492 181.761 85.403 181.886C85.3054 182.017 85.1807 182.122 85.0382 182.194C84.8958 182.267 84.7394 182.304 84.5811 182.303Z" fill="#79302A"/>
  <path d="M32.372 71.549C30.5198 67.5343 27.8901 63.9279 24.6354 60.9388C16.467 53.2278 2.94011 57.3452 0.634942 68.3452C0.372944 69.5936 0.186077 70.8567 0.0753693 72.1276C-0.648416 80.2284 3.97409 87.6165 8.21948 92.5866C9.97023 94.6217 11.2139 97.0438 11.8483 99.6537C12.4827 102.264 12.4897 104.987 11.8688 107.6C10.5003 113.35 9.86168 120.903 13.4988 126.707C17.136 132.512 23.9846 134.321 29.5742 134.698C31.9848 134.85 34.3003 135.696 36.2424 137.134C38.1846 138.573 39.6707 140.542 40.5222 142.805C42.5901 148.433 46.3915 155.029 53.0212 156.309C60.1252 157.685 66.7244 154.883 70.909 152.38C72.3168 151.547 73.9272 151.121 75.5621 151.147C77.1969 151.174 78.7925 151.654 80.1722 152.532C84.7886 155.456 92.3367 158.995 100.456 157.758C107.53 156.68 111.654 152.234 113.959 148.317C114.953 146.603 116.458 145.242 118.263 144.426C120.068 143.61 122.083 143.38 124.025 143.768C129.584 144.9 136.846 145.704 140.544 143.317C142.862 141.819 143.671 138.98 143.756 135.947C143.896 132.408 145.009 128.976 146.973 126.03C148.937 123.084 151.675 120.738 154.886 119.252C161.443 116.158 168.164 111.943 169.094 107.363C170.171 102.058 166.661 95.8513 163.438 91.5268C162.348 90.0554 161.772 88.2654 161.8 86.4335C161.827 84.6015 162.456 82.8297 163.59 81.3917C167.579 76.489 169.602 70.2747 169.265 63.9598C169.22 63.0408 168.962 62.1447 168.512 61.3424C168.062 60.5401 167.432 59.8535 166.672 59.3367C165.912 58.8199 165.042 58.4871 164.132 58.3645C163.221 58.2419 162.294 58.3329 161.425 58.6304C157.565 59.984 154.206 62.4771 151.79 65.781L114.135 97.9769L74.8928 105.341L32.372 71.549Z" fill="#FF9D00"/>
  <path d="M105.833 65.8292C106.381 68.0197 106.423 70.3067 105.958 72.5163C105.492 74.7259 104.531 76.7998 103.147 78.5805C101.763 80.3611 99.9923 81.8016 97.9702 82.7923C95.948 83.7831 93.7273 84.298 91.477 84.298C89.2268 84.298 87.0061 83.7831 84.9839 82.7923C82.9618 81.8016 81.1913 80.3611 79.8071 78.5805C78.423 76.7998 77.4617 74.7259 76.9962 72.5163C76.5307 70.3067 76.5733 68.0197 77.1209 65.8292C59.9374 54.7418 43.9603 53.3536 29.7078 65.8292C28.0419 74.92 28.3886 84.2672 30.7233 93.2085C33.058 102.15 37.3235 110.466 43.2176 117.569C49.1117 124.671 56.4901 130.386 64.83 134.308C73.1699 138.229 82.2671 140.262 91.477 140.262C100.687 140.262 109.784 138.229 118.124 134.308C126.464 130.386 133.842 124.671 139.736 117.569C145.631 110.466 149.896 102.15 152.231 93.2085C154.565 84.2672 154.912 74.92 153.246 65.8292C136.282 54.0263 120.478 54.0263 105.833 65.8292Z" fill="#FFC419"/>
  <path d="M32.7676 66.3551C38.3099 70.5748 45.1413 73.0178 52.2645 73.3274C59.3877 73.637 66.4296 71.7971 72.3621 68.0761C66.819 63.8581 59.9878 61.4162 52.8651 61.1066C45.7423 60.797 38.7008 62.6359 32.7676 66.3551Z" fill="#EC691C"/>
  <path d="M109.227 67.4435C115.015 71.3668 121.979 73.4394 129.102 73.3587C136.225 73.2779 143.134 71.0481 148.821 66.9946C143.034 63.0687 136.07 60.9945 128.946 61.0753C121.822 61.156 114.912 63.3875 109.227 67.4435Z" fill="#EC691C"/>
  <path d="M93.1894 119.717C92.5617 119.782 91.9288 119.799 91.2979 119.766C89.7863 119.748 88.2992 119.417 86.9504 118.798C85.6017 118.178 84.427 117.287 83.5164 116.192C83.3254 115.94 83.2485 115.63 83.3016 115.328C83.3547 115.025 83.5338 114.753 83.8019 114.567C84.07 114.381 84.4066 114.295 84.7422 114.328C85.0779 114.36 85.3869 114.509 85.6055 114.742C86.2904 115.555 87.1713 116.216 88.1807 116.674C89.1901 117.131 90.3013 117.373 91.4296 117.381C92.5307 117.473 93.6401 117.331 94.6705 116.967C95.7009 116.604 96.6242 116.028 97.3675 115.285C97.6056 115.05 97.9368 114.911 98.2881 114.898C98.6395 114.884 98.9823 114.998 99.241 115.214C99.4998 115.431 99.6534 115.731 99.668 116.05C99.6826 116.369 99.557 116.68 99.3189 116.914C97.7408 118.519 95.5501 119.521 93.1894 119.717Z" fill="#4C2805"/>
  <path d="M70.9966 114.321C70.9966 115.131 70.7964 115.923 70.4213 116.597C70.0463 117.27 69.5132 117.795 68.8895 118.105C68.2658 118.415 67.5795 118.496 66.9173 118.338C66.2552 118.18 65.647 117.79 65.1697 117.217C64.6923 116.644 64.3672 115.915 64.2355 115.12C64.1038 114.326 64.1714 113.502 64.4297 112.753C64.6881 112.005 65.1256 111.365 65.6869 110.915C66.2482 110.465 66.9082 110.225 67.5832 110.225C68.4885 110.225 69.3567 110.657 69.9968 111.425C70.637 112.193 70.9966 113.235 70.9966 114.321Z" fill="#E52323"/>
  <path d="M116.053 114.321C116.053 115.131 115.853 115.923 115.478 116.597C115.103 117.27 114.57 117.795 113.946 118.105C113.322 118.415 112.636 118.496 111.974 118.338C111.312 118.18 110.704 117.79 110.226 117.217C109.749 116.644 109.424 115.915 109.292 115.12C109.16 114.326 109.228 113.502 109.486 112.753C109.745 112.005 110.182 111.365 110.744 110.915C111.305 110.465 111.965 110.225 112.64 110.225C113.545 110.225 114.413 110.657 115.053 111.425C115.694 112.193 116.053 113.235 116.053 114.321Z" fill="#E52323"/>
  <path d="M160.484 114.525C162.973 115.287 165.535 115.731 168.119 115.847C175.562 116.108 180.741 112.848 183.1 106.42C184.287 103.194 184.3 100.086 183.135 97.1867C181.051 91.9756 175.829 89.0385 174.021 88.1479L174.082 82.4157C174.085 82.1393 173.986 81.8729 173.807 81.6753C173.629 81.4776 173.385 81.3648 173.13 81.3616C172.874 81.3585 172.628 81.4653 172.445 81.6585C172.263 81.8518 172.158 82.1156 172.156 82.392L172.09 88.8158C172.087 89.0269 172.144 89.2338 172.253 89.409C172.361 89.5842 172.517 89.7194 172.698 89.7965C172.764 89.8249 179.213 92.6389 181.371 98.0252C182.321 100.394 182.303 102.962 181.314 105.652C179.256 111.257 174.852 113.985 168.229 113.767C164.893 113.605 161.601 112.889 158.466 111.645C158.23 111.55 157.969 111.558 157.738 111.669C157.508 111.78 157.327 111.984 157.234 112.238C157.141 112.491 157.144 112.774 157.241 113.026C157.339 113.277 157.524 113.477 157.757 113.583C158.651 113.947 159.561 114.261 160.484 114.525Z" fill="#79302A"/>
  <path d="M82.0631 101.025C83.4916 97.5522 81.8344 93.5789 78.3617 92.1503C74.8889 90.7218 70.9155 92.3789 69.487 95.8517C68.0585 99.3245 69.7157 103.298 73.1884 104.726C76.6612 106.155 80.6345 104.498 82.0631 101.025Z" fill="#FFF7F5"/>
  <path d="M113.467 101.025C114.896 97.5522 113.239 93.5789 109.766 92.1503C106.293 90.7218 102.32 92.3789 100.891 95.8517C99.4628 99.3245 101.12 103.298 104.593 104.726C108.066 106.155 112.039 104.498 113.467 101.025Z" fill="#FFF7F5"/>
  <path d="M76.993 96.257C76.902 96.7596 76.6462 97.2295 76.2554 97.6118C75.8647 97.994 75.3551 98.2728 74.7865 98.4155C74.2179 98.5582 73.6137 98.5589 73.0447 98.4175C72.4756 98.2762 71.9652 97.9985 71.5732 97.6172C71.4939 98.3628 71.6702 99.1121 72.0805 99.7728C72.4909 100.434 73.1172 100.977 73.8826 101.336C74.6479 101.695 75.5189 101.854 76.3882 101.793C77.2575 101.733 78.0872 101.456 78.7752 100.995C79.4632 100.535 79.9795 99.9125 80.2606 99.2037C80.5416 98.4949 80.5751 97.731 80.357 97.0061C80.1388 96.2811 79.6785 95.6268 79.0327 95.1235C78.3869 94.6203 77.5838 94.2901 76.7223 94.1737C76.5869 94.1737 76.4516 94.1479 76.3162 94.1393C76.5973 94.431 76.803 94.7706 76.9196 95.1357C77.0363 95.5008 77.0613 95.883 76.993 96.257Z" fill="#4C2805"/>
  <path d="M107.661 96.257C107.57 96.7596 107.314 97.2295 106.923 97.6118C106.533 97.994 106.023 98.2728 105.455 98.4155C104.886 98.5582 104.282 98.5589 103.713 98.4175C103.144 98.2762 102.633 97.9985 102.241 97.6172C102.162 98.3628 102.338 99.1121 102.749 99.7728C103.159 100.434 103.785 100.977 104.551 101.336C105.316 101.695 106.187 101.854 107.056 101.793C107.925 101.733 108.755 101.456 109.443 100.995C110.131 100.535 110.648 99.9125 110.929 99.2037C111.21 98.4949 111.243 97.731 111.025 97.0061C110.807 96.2811 110.346 95.6268 109.701 95.1235C109.055 94.6203 108.252 94.2901 107.39 94.1737C107.255 94.1737 107.12 94.1479 106.984 94.1393C107.265 94.431 107.471 94.7706 107.588 95.1357C107.704 95.5008 107.729 95.883 107.661 96.257Z" fill="#4C2805"/>
  <path d="M80.6741 50.5295L48.5421 58.3403L62.0426 86.9055C81.2887 88.9045 101.935 86.0443 116.841 73.7105L112.015 41.0435L80.6741 50.5295Z" fill="#F5F5F5"/>
  <g style="mix-blend-mode:multiply">
    <path d="M80.6737 50.5294L47.9325 57.05L62.0426 86.908C71.6661 87.9074 81.6387 87.6922 91.0684 85.6811C100.498 83.67 109.387 79.8751 116.84 73.7086L112.014 41.0417L80.6737 50.5294Z" fill="#EDF4FF"/>
  </g>
  <g style="mix-blend-mode:multiply">
    <path d="M49.3325 60.0138L57.619 77.5476C61.9764 76.1305 57.5662 65.8061 71.7995 66.337C77.3849 66.545 82.4774 62.3398 86.5923 59.4663C90.7073 56.5927 96.0591 60.3366 99.748 59.2207C103.437 58.1049 110.059 50.7484 115.32 63.4218L112.012 41.0458L80.6737 50.5296L49.3325 60.0138Z" fill="#CEDEF5"/>
  </g>
  <path d="M91.5306 10.4644C90.5951 10.7503 89.6769 11.0899 88.7806 11.4814C82.313 7.58185 74.1151 6.34866 66.1062 8.77147C58.1805 11.1706 52.0845 16.6575 48.8428 23.3973C36.5925 27.4203 29.596 40.0403 33.1811 51.8785C36.8202 63.896 49.9879 70.5488 62.5893 66.7334C66.5731 65.5366 70.1884 63.3506 73.0977 60.3795C79.5632 60.3514 85.8332 58.1585 90.9055 54.1513C95.4279 55.418 100.22 55.3609 104.711 53.9868C117.315 50.1728 125.616 40.765 120.939 25.3227C116.474 10.5792 104.132 6.65153 91.5306 10.4644Z" fill="#F5F5F5"/>
  <g style="mix-blend-mode:multiply">
    <path d="M62.5882 66.7301C66.5723 65.5335 70.188 63.3474 73.0975 60.3761C79.5629 60.348 85.8329 58.1551 90.9053 54.1478C95.4276 55.4146 100.219 55.3575 104.711 53.9833C117.314 50.1693 125.616 40.7616 120.939 25.3192C116.475 10.5792 104.133 6.65156 91.5309 10.4644C90.5955 10.7503 89.6773 11.0899 88.7809 11.4814C85.1771 9.31961 81.127 8.00752 76.9387 7.64494C92.8154 15.1346 91.88 32.4371 89.6024 35.4234C89.7888 34.2716 88.0024 30.2121 86.7944 31.6321C85.8036 32.7937 87.7757 35.1623 87.7479 41.1128C87.7189 47.3476 84.4396 49.5705 83.5066 50.8493C81.2703 53.9122 79.3898 50.3942 74.4302 53.1705C71.0227 55.0739 59.5884 35.0294 57.1923 36.6149C54.7963 38.2003 59.3668 47.5939 59.3668 47.5939C51.0221 43.1487 49.0725 23.8908 49.0725 23.8908C45.6783 45.6059 61.2349 57.0856 61.2349 57.0856C61.2349 57.0856 48.5698 66.0867 39.713 55.8366C34.3521 49.6319 34.2239 36.4228 39.1573 29.3087C33.2828 35.1412 30.7033 43.6942 33.1814 51.8786C36.82 63.8925 49.9872 70.5428 62.5882 66.7301Z" fill="#E3EFFF"/>
  </g>
  <path d="M93.4044 13.8781C93.0905 14.0139 92.8406 14.2647 92.7062 14.579C92.5717 14.8932 92.5629 15.247 92.6816 15.5674C93.6073 18.0397 96.1474 23.5995 100.339 23.8608C105.738 24.1986 112.886 22.8864 112.047 20.07C111.238 17.3411 104.784 8.94711 93.4044 13.8781Z" fill="#F5F5F5"/>
  <g style="mix-blend-mode:multiply">
    <path d="M67.583 59.1839C67.5602 59.2498 67.3769 59.2433 67.0697 59.1812C66.9159 59.1492 66.7321 59.1028 66.5214 59.044C66.3107 58.9852 66.0871 58.8869 65.8361 58.7895C64.8409 58.3935 63.5846 57.686 62.456 56.8123C60.1547 55.0938 58.5105 52.7092 58.7582 52.5487C58.966 52.3939 60.7572 54.5106 62.9638 56.1571C63.9613 56.9222 65.012 57.6154 66.1078 58.2316L66.7212 58.5816C66.9078 58.6773 67.0703 58.7664 67.2018 58.8455C67.4638 58.9979 67.6058 59.1188 67.583 59.1839Z" fill="#D5E0F0"/>
  </g>
  <g style="mix-blend-mode:multiply">
    <path d="M61.7445 49.5749C60.1941 46.8593 59.4954 44.8019 59.1331 43.4792C58.7709 42.1565 58.773 41.5328 58.9098 41.501C59.0467 41.4691 59.3023 42.0025 59.8239 43.2417C60.3454 44.4809 61.1382 46.4311 62.6384 49.0592C64.1081 51.7074 66.2592 54.3534 68.237 56.0826C70.2149 57.8119 71.917 58.6871 71.8339 58.8537C71.8017 58.9479 69.9457 58.3055 67.7727 56.6471C65.6027 55.0069 63.2602 52.3114 61.7445 49.5749Z" fill="#D5E0F0"/>
  </g>
  <g style="mix-blend-mode:multiply">
    <path d="M89.0012 41.541C88.7986 39.5326 88.6601 38.1502 88.5697 37.2561C88.4956 36.3637 88.53 35.9592 88.6657 35.9258C88.8014 35.8924 89.027 36.2462 89.2884 37.1214C89.5498 37.9966 89.8474 39.3949 90.0305 41.4509C90.2135 43.507 90.1771 45.8289 89.9373 47.6104C89.6974 49.3919 89.302 50.617 89.1755 50.5885C89.0227 50.5573 89.1654 49.3044 89.2095 47.5531C89.253 45.5467 89.1835 43.5395 89.0012 41.541Z" fill="#D5E0F0"/>
  </g>
  <g style="mix-blend-mode:multiply">
    <path d="M96.3203 36.5044C96.4119 36.489 96.5129 36.7465 96.6158 37.2069C96.6678 37.4371 96.7218 37.722 96.7748 38.0434C96.8278 38.3648 96.8281 38.7377 96.8515 39.1423C96.9267 40.7564 96.683 42.9337 96.0334 44.9962C95.7237 46.0062 95.3375 46.9912 94.8779 47.9426C94.4745 48.7681 94.0141 49.5645 93.5 50.3261C92.6015 51.6622 91.7941 52.4023 91.6561 52.2842C91.5181 52.1662 92.0742 51.2844 92.7885 49.8993C93.5028 48.5142 94.3825 46.6422 94.9755 44.6719C95.5312 42.8688 95.8821 41.0091 96.0216 39.1278C96.0458 38.7419 96.0874 38.386 96.1011 38.0702C96.1148 37.7545 96.1165 37.4781 96.134 37.2487C96.1686 36.7874 96.2288 36.5153 96.3203 36.5044Z" fill="#D5E0F0"/>
  </g>
  <path d="M64.075 75.4943C62.7067 77.1188 62.5971 78.0074 63.3337 79.999C63.6324 80.8049 64.1034 82.1084 64.8985 82.7103C67.6243 84.7715 76.0872 85.9629 81.3522 82.5324C84.1566 80.7053 87.7035 80.3379 89.823 77.9827C91.6824 75.9163 92.4413 72.9263 94.2018 71.4092C97.9701 68.1693 100.392 62.4505 97.6695 62.487C94.9471 62.5236 88.1529 60.9058 84.6452 65.3815C81.1376 69.8572 73.6002 66.6219 69.6094 69.9284C67.2965 71.8454 65.3297 74.0141 64.075 75.4943Z" fill="#F5F5F5"/>
  <path d="M99.4603 178.882H149.027V187.744H99.4603V178.882Z" fill="#565A63"/>
  <path d="M99.459 187.321C99.459 191.268 105.33 195.297 124.797 195.297C141.525 195.297 149.031 191.952 149.031 188.006C149.031 184.059 141.3 178.882 124.572 178.882C107.844 178.882 99.459 183.371 99.459 187.321Z" fill="#565A63"/>
  <path d="M97.0506 178.789C97.0506 182.734 108.26 187.741 124.208 187.741C140.157 187.741 151.672 182.731 151.672 178.789C151.672 174.847 140.395 171.739 124.445 171.739C108.496 171.739 97.0506 174.842 97.0506 178.789Z" fill="#44474F"/>
  <path d="M82.9365 136.724C82.9365 136.724 40.7266 122.544 36.0721 124.033C31.4175 125.522 28.7592 131.229 32.3003 133.209C35.8413 135.188 83.6719 142.796 83.6719 142.796L82.9365 136.724Z" fill="#ED7E5D"/>
  <path d="M33.319 125.559C33.2593 126.306 33.398 127.055 33.7187 127.719C34.2635 128.851 35.2173 129.687 36.2174 130.36C39.5989 132.637 43.6446 133.363 47.574 134.043L58.1067 135.867L77.3314 139.196C79.2482 139.532 82.265 139.356 83.4886 141.304V141.311L83.6699 142.798C83.6699 142.798 35.8425 135.189 32.2983 133.211C29.5451 131.668 30.5473 127.87 33.319 125.559Z" fill="#D86F56"/>
  <path d="M80.0294 137.989C79.0806 139.476 77.8722 140.746 76.4728 141.726C78.4892 141.893 80.4801 142.32 82.4035 142.999C82.5178 143.039 83.3675 137.674 83.1245 137.068C82.9236 136.559 82.2449 136.363 81.7855 136.26C80.9481 136.072 80.4465 137.326 80.0294 137.989Z" fill="#AD5945"/>
  <path d="M96.4838 138.276C96.8567 139.738 97.0678 143.119 95.527 143.695C94.806 143.963 94.6206 147.285 94.1942 147.954C93.9799 148.29 93.6369 148.615 93.1868 148.646C92.9789 148.656 92.7721 148.607 92.5865 148.505C92.4009 148.402 92.2426 148.25 92.127 148.062C91.921 147.726 91.8921 147.335 91.8654 146.956C91.5978 143.274 91.55 139.577 91.7222 135.889C91.818 133.833 95.9142 136.039 96.4838 138.276Z" fill="#686868"/>
  <path d="M82.5151 135.626C81.8925 138.025 81.5485 140.499 81.4913 142.991C85.2075 144.121 88.9601 145.095 92.7491 145.913C93.332 144.721 93.8408 143.467 94.0551 142.137C94.6205 138.628 93.3567 138.22 90.6129 137.565C89.9362 137.402 82.5337 135.552 82.5151 135.626Z" fill="#686868"/>
  <path d="M93.2341 140.471C93.2231 140.582 93.1734 140.685 93.095 140.758C92.9838 140.844 92.8313 140.813 92.6985 140.778L84.1413 138.5C83.8869 138.433 83.6263 138.361 83.4204 138.187C83.2144 138.012 83.0763 137.707 83.1659 137.44C83.2555 137.174 83.5048 137.047 83.7499 137.032C83.9971 137.036 84.2415 137.09 84.4709 137.19C86.3991 137.877 88.4 138.294 90.4253 138.432C91.5284 138.511 93.5626 138.679 93.2341 140.471Z" fill="#7C7C7C"/>
  <path d="M88.8925 166.184C88.8905 167.664 89.3575 169.1 90.215 170.251C93.3235 174.415 102.432 183.455 122.886 183.455C146.046 183.455 155.49 174.536 158.653 170.337C159.527 169.178 160.005 167.726 160.006 166.228L159.8 131.684H88.8925V166.184Z" fill="#686868"/>
  <path d="M90.213 170.251C89.3567 169.1 88.8908 167.664 88.8936 166.184V131.684H110.606C111.649 134.154 111.969 136.923 111.237 139.542L109.983 139.392L106.873 139.195C104.775 144.64 103.062 150.323 102.547 156.203C102.229 159.879 102.396 163.657 103.514 167.144C104.633 170.63 106.771 173.81 109.744 175.602C111.993 176.958 114.585 177.463 117.129 177.875C125.472 179.225 134.123 179.777 142.25 177.315C149.529 175.116 156.381 170.167 160.004 163.058V166.228C160.003 167.726 159.525 169.178 158.652 170.337C155.488 174.536 146.044 183.453 122.884 183.455C102.43 183.458 93.3226 174.419 90.213 170.251Z" fill="#595959"/>
  <path d="M122.882 180.685C146.043 180.685 155.486 171.766 158.65 167.567C159.523 166.408 160.001 164.957 160.002 163.459V166.228C160.001 167.726 159.523 169.178 158.65 170.337C155.486 174.535 146.043 183.453 122.882 183.455C102.428 183.455 93.3216 174.415 90.2111 170.251C89.3551 169.1 88.8896 167.663 88.8927 166.183V163.416C88.8906 164.896 89.3564 166.331 90.2121 167.481C93.3216 171.647 102.429 180.691 122.882 180.685Z" fill="#494949"/>
  <path d="M88.7439 131.685C88.7439 139.244 104.663 146.192 124.301 146.192C143.939 146.192 159.859 140.067 159.859 132.501C159.859 124.936 143.94 118.812 124.303 118.812C104.667 118.812 88.7439 124.124 88.7439 131.685Z" fill="#7C7C7C"/>
  <path d="M124.3 144.704C105.768 144.704 90.7457 139.087 90.7457 132.159C90.7457 125.231 105.768 119.614 124.3 119.614C142.831 119.614 157.854 125.231 157.854 132.159C157.854 139.087 142.831 144.704 124.3 144.704Z" fill="#353535"/>
  <path d="M124.445 144.703C106.747 144.703 92.4003 140.757 92.4003 135.89C92.4003 131.022 106.747 127.077 124.445 127.077C142.143 127.077 156.49 131.022 156.49 135.89C156.49 140.757 142.143 144.703 124.445 144.703Z" fill="#EAC583"/>
  <path opacity="0.08" d="M156.639 159.629C156.687 161.055 156.731 162.515 156.343 163.881C155.468 166.959 152.62 168.852 149.824 169.929C149.377 170.101 148.909 170.265 148.438 170.202C147.316 170.059 146.625 168.685 146.678 167.458C146.73 166.232 147.307 165.118 147.798 164.013C149.474 160.23 150.266 156.057 150.103 151.863C150 149.306 149.465 146.259 151.015 144.062C152.009 142.652 154.174 141.473 155.533 143.015C156.872 144.536 156.27 148.592 156.334 150.512C156.435 153.551 156.537 156.59 156.639 159.629Z" fill="white"/>
  <path d="M145.027 136.897C145.019 137.368 144.933 137.861 144.652 138.219C144.274 138.699 143.646 138.824 143.069 138.891C142.076 139.003 141.063 139.026 140.082 138.798C139.1 138.57 138.163 138.072 137.494 137.266C138.599 137.129 139.687 136.866 140.742 136.483C141.36 136.259 142.057 135.886 142.193 135.188C142.296 134.669 141.965 133.991 142.493 133.812C142.632 133.765 143.473 134.226 143.653 134.333C144.599 134.89 145.049 135.716 145.027 136.897Z" fill="#ED7E5D"/>
  <path d="M118.762 131.625C118.725 131.155 118.762 130.655 119.011 130.267C119.341 129.749 119.954 129.555 120.523 129.426C121.501 129.203 122.505 129.069 123.498 129.188C124.491 129.307 125.475 129.698 126.215 130.427C125.128 130.684 124.069 131.065 123.055 131.563C122.457 131.857 121.802 132.301 121.732 133.011C121.68 133.539 122.071 134.176 121.563 134.414C121.428 134.475 120.549 134.109 120.36 134.022C119.38 133.577 118.85 132.801 118.762 131.625Z" fill="#ED7E5D"/>
  <path d="M108.078 138.302C108.051 138.432 107.993 138.552 107.908 138.649C107.823 138.746 107.715 138.815 107.597 138.849C107.185 138.997 106.559 138.924 105.986 138.834C104.999 138.69 104.024 138.466 103.069 138.162C102.131 137.849 101.248 137.415 100.662 136.893C101.741 137.059 102.827 137.163 103.916 137.204C104.545 137.228 105.255 137.204 105.45 136.897C105.594 136.673 105.33 136.282 105.862 136.308C106.003 136.316 106.789 136.711 106.956 136.799C107.827 137.261 108.197 137.747 108.078 138.302Z" fill="#ED7E5D"/>
  <path d="M138.617 130.127C136.645 128.803 134.059 128.286 131.998 129.44C131.228 129.871 130.51 130.637 130.51 131.578C130.51 132.362 131.025 133.056 131.651 133.435C132.278 133.813 133.011 133.926 133.727 134.005C135.367 134.187 138.017 134.535 139.542 133.662C141.166 132.733 139.708 130.859 138.617 130.127Z" fill="#EFE1A5"/>
  <path d="M113.643 137.18C113.175 137.292 112.699 137.444 112.325 137.77C111.951 138.095 111.698 138.632 111.81 139.14C112.586 139.681 113.584 139.544 114.502 139.621C115.402 139.695 116.273 139.99 117.166 140.122C118.748 140.356 120.903 140.26 122.381 139.59C122.13 138.195 119.685 137.519 118.598 137.24C116.971 136.819 115.278 136.798 113.643 137.18Z" fill="#EFE1A5"/>
  <path d="M105.458 128.702C105.086 128.793 104.698 128.907 104.428 129.196C104.158 129.485 104.052 130.005 104.307 130.315C104.451 130.462 104.629 130.564 104.822 130.611C106.223 131.092 115.817 133.06 115.328 129.94C115.113 128.583 112.932 128.64 111.974 128.485C109.809 128.117 107.599 128.191 105.458 128.702Z" fill="#EFE1A5"/>
  <path d="M129.698 139.073C129.305 139.227 128.839 139.586 128.977 140.014C129.062 140.27 129.327 140.388 129.562 140.476C130.304 140.754 134.87 142.32 134.648 140.146C134.466 138.342 130.607 138.716 129.698 139.073Z" fill="#EFE1A5"/>
  <path d="M153.801 133.887C153.584 132.929 152.612 132.432 151.729 132.208C151.062 132.037 150.38 131.943 149.694 131.927C148.904 131.908 148.077 132.008 147.414 132.474C146.831 132.886 146.407 133.686 146.642 134.398C146.779 134.813 147.111 135.119 147.466 135.342C148.804 136.199 154.627 137.53 153.801 133.887Z" fill="#EFE1A5"/>
  <path d="M109.097 133.752C108.067 132.987 106.71 133.025 105.492 133.282C104.273 133.54 103.062 133.986 101.819 133.94C100.832 133.903 99.7587 133.577 98.9182 134.147C98.8146 134.206 98.7325 134.302 98.6855 134.418C98.6185 134.623 98.7555 134.853 98.9368 134.946C99.1252 135.022 99.3283 135.045 99.527 135.012C101.139 134.884 102.728 134.523 104.339 134.382C105.1 134.316 105.884 134.302 106.605 134.56C107.088 134.733 107.532 135.02 108.002 135.218C108.554 135.431 109.127 135.57 109.71 135.631C111.114 135.819 112.532 135.843 113.941 135.704C115.171 135.582 116.441 135.339 117.62 135.744C117.808 135.809 118.122 135.775 118.073 135.567C118.061 135.529 118.041 135.495 118.016 135.465C116.986 134.143 114.582 134.551 113.244 134.924C112.564 135.113 111.924 135.339 111.205 135.217C110.294 135.065 109.809 134.285 109.097 133.752Z" fill="#EFE1A5"/>
  <path d="M132.447 136.127C132.251 136.395 131.906 136.463 131.592 136.485C130.891 136.53 130.187 136.429 129.486 136.473C128.349 136.546 127.26 136.995 126.364 137.759C126.231 137.855 126.128 137.991 126.067 138.151C125.987 138.433 126.17 138.723 126.365 138.928C126.856 139.438 127.559 139.823 127.689 140.552C127.706 140.618 127.709 140.688 127.697 140.755C127.686 140.822 127.66 140.886 127.623 140.941C127.544 141.014 127.446 141.058 127.342 141.066C125.808 141.351 124.194 141.129 122.714 141.657C122.405 141.769 122.08 141.937 121.949 142.259C121.887 142.417 121.873 142.604 121.767 142.731C121.661 142.859 121.476 142.892 121.311 142.903C120.694 142.947 120.074 142.871 119.482 142.68C119.246 142.604 118.967 142.327 119.134 142.134C119.185 142.084 119.249 142.053 119.317 142.044C119.869 141.925 120.498 142.164 120.972 141.834C121.118 141.713 121.256 141.581 121.384 141.438C122.153 140.695 123.32 140.878 124.348 140.836C124.733 140.82 125.172 140.724 125.359 140.359C125.574 139.93 125.307 139.409 125.021 139.032C124.735 138.655 124.403 138.228 124.47 137.746C124.552 137.199 125.107 136.918 125.591 136.739C126.981 136.24 128.405 135.864 129.85 135.613C129.997 135.589 130.159 135.554 130.246 135.423C130.42 135.159 130.133 134.82 129.86 134.688C129.127 134.332 128.294 134.343 127.508 134.171C127.315 134.128 127.096 134.043 127.041 133.835C126.985 133.627 127.161 133.416 127.35 133.319C127.846 133.062 128.431 133.257 128.949 133.453L131.545 134.435C131.954 134.602 132.845 135.591 132.447 136.127Z" fill="#EFE1A5"/>
  <path d="M148.47 137.795C147.789 137.495 147.207 136.985 146.636 136.482C146.296 136.697 146.172 137.198 146.284 137.608C146.395 138.019 146.696 138.341 147.029 138.565C147.631 138.946 148.328 139.109 149.02 139.032C149.709 138.953 150.377 138.732 150.991 138.383C151.052 138.356 151.107 138.312 151.148 138.255C151.52 137.655 150.348 137.913 150.209 137.948C149.629 138.098 149.02 138.044 148.47 137.795Z" fill="#EFE1A5"/>
  <path d="M140.308 140.443C140.289 140.547 140.239 140.641 140.166 140.71C139.831 141.063 139.304 141.028 138.838 141.033C138.373 141.037 137.808 141.183 137.67 141.665C137.632 141.795 137.627 141.943 137.542 142.043C137.464 142.119 137.365 142.166 137.26 142.176C136.683 142.294 136.092 142.313 135.509 142.23C135.319 142.217 135.135 142.15 134.977 142.035C134.827 141.908 134.741 141.67 134.828 141.488C134.876 141.402 134.944 141.331 135.024 141.282C135.324 141.068 135.67 140.941 136.028 140.915C136.3 140.895 136.581 140.931 136.838 140.835C137.094 140.738 137.321 140.442 137.231 140.163C137.173 140.026 137.08 139.909 136.964 139.827L136.531 139.455C135.978 138.979 138.076 139.108 138.397 139.192C138.876 139.316 140.407 139.71 140.308 140.443Z" fill="#EFE1A5"/>
  <path opacity="0.6" d="M138.751 131.778C138.834 131.948 138.87 132.14 138.854 132.331C138.797 132.699 138.426 132.908 138.087 132.968C137.915 133.012 137.734 132.994 137.572 132.916C137.292 132.758 137.217 132.37 137.057 132.072C136.769 131.512 136.174 131.242 135.605 131.082C135.339 131.009 135.042 130.928 134.902 130.672C134.318 129.608 136.093 129.568 136.608 129.758C137.524 130.091 138.35 130.825 138.751 131.778Z" fill="white"/>
  <path opacity="0.6" d="M113.269 129.45C113.459 129.562 113.663 129.719 113.681 129.952C113.699 130.258 113.354 130.458 113.076 130.407C112.798 130.355 112.571 130.147 112.33 129.988C111.31 129.317 109.974 129.488 108.907 128.903C108.853 128.874 108.793 128.829 108.793 128.763C108.793 128.67 108.907 128.638 108.994 128.636C110.408 128.61 112.001 128.71 113.269 129.45Z" fill="white"/>
  <path opacity="0.6" d="M151.927 133.051C152.227 133.259 152.485 133.53 152.686 133.85C152.872 134.178 152.946 134.602 152.8 134.953C152.653 135.304 152.248 135.53 151.922 135.378C151.823 135.333 151.741 135.255 151.686 135.154C151.601 134.997 151.607 134.802 151.583 134.62C151.558 134.398 151.491 134.185 151.385 133.993C151.28 133.802 151.138 133.637 150.97 133.509C150.801 133.382 150.61 133.294 150.408 133.252C150.207 133.21 149.999 133.215 149.799 133.266C149.66 133.14 149.708 132.878 149.848 132.755C150 132.645 150.181 132.594 150.363 132.608C151.019 132.593 151.37 132.626 151.927 133.051Z" fill="white"/>
  <path opacity="0.6" d="M133.542 139.731C133.723 139.882 133.898 140.138 133.788 140.355C133.694 140.546 133.437 140.559 133.259 140.467C133.081 140.376 132.943 140.206 132.773 140.095C132.329 139.803 131.733 139.931 131.282 139.647C131.179 139.585 131.076 139.459 131.13 139.346C131.227 139.129 132.104 139.181 132.319 139.197C132.766 139.241 133.192 139.426 133.542 139.731Z" fill="white"/>
  <path opacity="0.6" d="M120.054 138.36C120.189 138.449 120.338 138.577 120.323 138.747C120.301 138.999 119.977 139.04 119.749 138.989C118.915 138.802 118.132 138.367 117.286 138.284C116.439 138.201 115.582 138.474 114.752 138.292C114.631 138.266 114.485 138.195 114.485 138.06C114.485 137.926 114.632 137.857 114.752 137.824C116.481 137.357 118.48 137.343 120.054 138.36Z" fill="white"/>
  <path opacity="0.29" d="M147.877 134.808C149.551 133.689 151.295 132.307 151.555 130.421C151.928 127.721 149.098 125.428 148.998 122.708C148.987 122.393 149.025 122.049 149.257 121.813C149.424 121.667 149.619 121.562 149.827 121.505C151.9 120.789 154.192 120.896 156.364 120.498C158.535 120.1 160.829 118.895 161.229 116.894C161.538 115.349 160.611 113.811 159.443 112.657C158.275 111.504 156.858 110.575 155.821 109.326C155.541 108.991 155.279 108.564 155.421 108.16C155.552 107.787 155.973 107.581 156.348 107.396C158.289 106.443 159.974 105.055 161.218 103.389C161.638 102.83 162.018 102.2 162.042 101.518C162.063 100.875 161.761 100.26 161.412 99.7031C159.72 96.993 156.785 95.0303 153.551 94.0635C150.317 93.0967 146.803 93.0743 143.464 93.6663C141.807 93.9605 140.127 94.4283 138.849 95.4398C137.571 96.4514 136.789 98.1142 137.304 99.589C137.613 100.484 138.373 101.422 137.901 102.255C137.513 102.94 136.525 103.075 135.686 103.098C132.823 103.178 129.859 102.943 127.187 103.888C124.515 104.834 122.252 107.483 123.123 109.989C123.51 111.108 124.443 111.992 125.456 112.702C129.664 115.654 135.296 116.078 140.23 117.849C141.238 118.21 142.349 118.77 142.54 119.752C142.77 120.92 141.533 121.898 140.323 122.316C139.112 122.735 137.735 122.914 136.809 123.743C136.5 124.017 136.25 124.393 136.307 124.784C136.356 125.119 136.624 125.398 136.908 125.617C138.631 126.953 141.093 126.974 143.304 127.379C145.516 127.784 147.981 129.093 147.971 131.164C147.971 131.858 147.674 132.524 147.316 133.135C146.332 134.823 144.825 136.252 143.028 137.223C144.599 136.298 146.366 135.815 147.877 134.808Z" fill="white"/>
  <path opacity="0.29" d="M133.319 136.598C132.907 134.463 131.362 132.674 129.747 131.095C128.132 129.516 126.359 128.003 125.318 126.06C124.277 124.116 124.125 121.574 125.67 119.936C126.439 119.122 127.524 118.625 128.587 118.173C132.661 116.443 137.25 114.76 139.284 111.087C139.88 110.009 140.203 108.698 139.652 107.6C139.275 106.851 138.545 106.305 137.783 105.868C135.432 104.519 132.642 103.987 130.138 102.896C127.634 101.805 125.241 99.8285 125.122 97.2862C125.078 96.3373 125.316 95.2564 124.636 94.5414C124.335 94.2258 123.901 94.0468 123.469 93.9103C119.073 92.5205 113.695 95.3236 112.74 99.5052C112.387 101.046 112.47 102.854 111.195 103.909C110.135 104.788 108.53 104.772 107.118 104.581C103.624 104.107 100.233 102.877 96.7029 102.934C93.1732 102.991 89.2572 104.929 88.8462 108.148C88.5238 110.681 90.5724 113.089 93.1103 114.126C95.6482 115.162 98.5518 115.092 101.307 114.771C104.062 114.45 106.813 113.899 109.587 114.034C112.062 114.148 114.487 114.83 116.702 116.035C117.501 116.476 118.334 117.111 118.35 117.967C118.388 119.488 116.125 119.96 114.986 121.064C113.805 122.207 113.956 124.136 114.939 125.428C115.921 126.721 117.532 127.483 119.145 128.017C120.758 128.55 122.453 128.912 123.971 129.645C125.271 130.271 126.442 131.174 127.414 132.301C128.669 133.756 129.517 135.668 129.049 137.478C128.398 139.987 125.547 141.422 122.88 142.241C125.068 141.57 128.15 142.465 130.516 141.695C132.737 140.973 133.719 138.688 133.319 136.598Z" fill="white"/>
  <path opacity="0.29" d="M104.521 127.015C104.17 125.797 104.006 124.405 104.775 123.358C105.606 122.223 107.214 121.881 108.608 121.4C111.331 120.46 113.932 118.049 113.259 115.448C112.706 113.309 110.284 112.138 108.202 111.051C106.12 109.963 103.9 108.222 104.223 106.042C104.606 103.469 108.211 102.376 109.339 99.9919C110.217 98.1333 109.299 95.8629 107.634 94.5335C105.97 93.2042 103.72 92.6637 101.531 92.4433C98.0133 92.0908 94.3311 92.4925 91.2309 94.0524C88.1306 95.6122 85.6782 98.4264 85.2075 101.647C84.9428 103.46 85.1045 105.675 83.4297 106.682C81.8343 107.634 79.7671 106.736 77.8863 106.472C73.5686 105.863 69.219 109.433 69.1624 113.444C69.1057 117.456 73.0949 121.062 77.462 121.174C79.213 121.219 80.9269 120.789 82.6336 120.436C86.1355 119.712 89.6941 119.295 93.2507 118.881C95.2736 118.645 97.5375 118.465 99.1484 119.613C99.8179 120.091 100.32 120.969 99.8797 121.634C99.7077 121.892 99.4223 122.067 99.137 122.22C97.5921 123.048 95.6444 123.592 94.8935 125.084C93.8717 127.115 95.7669 129.341 97.6436 130.769C104.634 136.087 113.574 139.204 122.646 139.488C119.121 139.376 114.298 137.657 111.42 135.834C108.115 133.733 105.554 130.598 104.521 127.015Z" fill="white"/>
  <path opacity="0.29" d="M141.328 91.1128L154.131 90.9259C155.761 90.9024 157.459 90.8632 158.905 90.1717C160.351 89.4802 161.444 87.9203 160.957 86.4925C160.725 85.8133 160.179 85.2617 159.584 84.8074C158.111 83.6794 156.231 83.008 154.315 82.9252C152.269 82.8368 150.18 83.3952 148.191 82.942C147.909 82.8771 147.619 82.7854 147.422 82.5895C146.717 81.8902 147.731 80.8518 147.856 79.904C147.959 79.1207 147.385 78.3576 146.644 77.9492C145.902 77.5407 145.026 77.4109 144.172 77.2923C139.974 76.7127 135.623 76.2394 131.534 77.2856C129.658 77.7657 127.884 78.5556 125.984 78.9551C123.452 79.4878 120.813 79.3031 118.218 79.4464C115.624 79.5896 112.89 80.1424 111.047 81.8242C109.907 82.8626 109.215 84.5824 110.108 85.8066C110.707 86.6279 111.826 86.9737 112.882 87.1661C117.376 87.9808 122.512 87.099 126.169 89.6279C126.793 90.0587 127.364 90.6014 127.611 91.2817C127.834 91.9028 127.767 92.5775 127.861 93.2265C128.106 94.9262 129.569 96.4212 131.383 96.8274C133.958 97.4014 135.617 96.156 136.176 94.1866C136.899 91.6465 138.338 91.1564 141.328 91.1128Z" fill="white"/>
  <path d="M147.529 187.511C147.529 188.649 147.838 189.572 148.23 189.572C148.623 189.572 148.932 188.649 148.932 187.511C148.932 186.373 148.617 185.449 148.23 185.449C147.843 185.449 147.529 186.37 147.529 187.511Z" fill="#313338"/>
  <path d="M141.25 189.383C141.25 190.521 141.565 191.444 141.953 191.444C142.341 191.444 142.654 190.521 142.654 189.383C142.654 188.245 142.345 187.321 141.953 187.321C141.56 187.321 141.25 188.244 141.25 189.383Z" fill="#313338"/>
  <path d="M136.342 192.757C135.954 192.757 135.64 191.834 135.64 190.695C135.64 189.556 135.954 188.633 136.342 188.633C136.729 188.633 137.043 189.556 137.043 190.695C137.043 191.834 136.729 192.757 136.342 192.757Z" fill="#313338"/>
  <path d="M117.816 191.444C117.816 192.584 118.125 193.507 118.517 193.507C118.91 193.507 119.219 192.584 119.219 191.444C119.219 190.305 118.91 189.383 118.517 189.383C118.125 189.383 117.816 190.309 117.816 191.444Z" fill="#313338"/>
  <path d="M111.963 190.635C111.963 191.774 112.272 192.698 112.665 192.698C113.057 192.698 113.367 191.774 113.367 190.635C113.367 189.496 113.058 188.574 112.665 188.574C112.271 188.574 111.963 189.497 111.963 190.635Z" fill="#313338"/>
  <path d="M106.351 189.57C106.351 190.709 106.66 191.632 107.052 191.632C107.445 191.632 107.754 190.709 107.754 189.57C107.754 188.431 107.445 187.509 107.052 187.509C106.66 187.509 106.351 188.432 106.351 189.57Z" fill="#313338"/>
  <path d="M101.095 189.334C100.708 189.334 100.394 188.411 100.394 187.272C100.394 186.133 100.708 185.209 101.095 185.209C101.483 185.209 101.797 186.133 101.797 187.272C101.797 188.411 101.483 189.334 101.095 189.334Z" fill="#313338"/>
  <path d="M126.669 184.309C126.257 182.823 125.559 181.45 124.784 180.145C124.881 180.685 124.578 181.202 124.292 181.659C123.063 183.636 121.961 185.861 121.998 188.245C122.011 189.044 122.16 189.858 122.553 190.532C123.501 192.158 125.427 192.126 126.185 190.421C127.069 188.433 127.257 186.444 126.669 184.309Z" fill="#EA5B28"/>
  <path d="M125.855 186.721L125.114 184.248C124.972 184.9 124.576 185.443 124.255 186.015C123.692 187.02 123.346 188.151 123.243 189.322C123.201 189.805 123.203 190.305 123.358 190.76C123.784 191.997 125.059 192.074 125.705 191.082C126.604 189.701 126.304 188.216 125.855 186.721Z" fill="#F2961D"/>
  <path d="M125.084 186.859C125.014 187.803 122.677 191.476 124.611 191.877C126.785 192.328 125.025 187.652 125.084 186.859Z" fill="#EFD01B"/>
  <path d="M133.124 184.801C132.895 183.269 132.366 181.809 131.753 180.407C131.785 180.955 131.419 181.425 131.084 181.838C129.63 183.628 128.27 185.675 128.022 188.045C127.94 188.838 127.99 189.666 128.299 190.395C129.045 192.14 130.959 192.38 131.915 190.797C133.028 188.947 133.453 187.001 133.124 184.801Z" fill="#EA5B28"/>
  <path d="M132.029 187.077C131.883 186.226 131.737 185.374 131.59 184.521C131.371 185.147 130.913 185.631 130.527 186.153C129.848 187.069 129.37 188.14 129.128 189.286C129.025 189.76 128.971 190.256 129.071 190.729C129.345 192.016 130.6 192.272 131.359 191.38C132.416 190.139 132.295 188.624 132.029 187.077Z" fill="#F2961D"/>
  <path d="M131.246 187.105C131.064 188.032 128.309 191.344 130.178 192.014C132.279 192.77 131.093 187.884 131.246 187.105Z" fill="#EFD01B"/>
  <path d="M139.705 184.519C139.848 182.976 139.711 181.421 139.491 179.9C139.396 180.439 138.976 180.795 138.587 181.106C136.919 182.449 135.276 184.072 134.529 186.301C134.28 187.047 134.139 187.867 134.247 188.65C134.508 190.539 136.125 191.281 137.311 190.003C138.696 188.508 139.501 186.737 139.705 184.519Z" fill="#EA5B28"/>
  <path d="M138.242 186.431C138.304 185.568 138.367 184.704 138.43 183.84C138.099 184.388 137.591 184.735 137.137 185.136C136.327 185.862 135.672 186.77 135.217 187.799C135.007 188.226 134.881 188.696 134.845 189.18C134.796 190.499 135.834 191.082 136.699 190.419C137.895 189.498 138.126 187.999 138.242 186.431Z" fill="#F2961D"/>
  <path d="M137.553 186.25C137.186 187.098 134.043 189.57 135.524 190.718C137.189 192.008 137.245 186.963 137.553 186.25Z" fill="#EFD01B"/>
  <path d="M145.295 183.407C145.428 181.861 145.283 180.307 145.053 178.789C144.96 179.329 144.538 179.689 144.157 180.002C142.497 181.357 140.861 182.99 140.131 185.225C139.886 185.972 139.75 186.792 139.863 187.575C140.134 189.463 141.756 190.192 142.935 188.905C144.306 187.399 145.105 185.626 145.295 183.407Z" fill="#EA5B28"/>
  <path d="M143.843 185.329C143.9 184.466 143.957 183.601 144.014 182.737C143.687 183.287 143.181 183.632 142.73 184.041C141.924 184.773 141.274 185.686 140.826 186.718C140.636 187.151 140.478 187.613 140.463 188.102C140.422 189.421 141.463 189.997 142.317 189.333C143.515 188.399 143.739 186.898 143.843 185.329Z" fill="#F2961D"/>
  <path d="M143.154 185.152C142.794 186.004 139.665 188.498 141.153 189.635C142.826 190.914 142.851 185.867 143.154 185.152Z" fill="#EFD01B"/>
  <path d="M151.793 181.357C152.024 179.825 151.977 178.264 151.844 176.731C151.718 177.264 151.275 177.591 150.874 177.875C149.131 179.105 147.398 180.61 146.526 182.785C146.234 183.512 146.046 184.316 146.114 185.105C146.266 187.008 147.837 187.858 149.095 186.663C150.558 185.273 151.462 183.559 151.793 181.357Z" fill="#EA5B28"/>
  <path d="M150.224 183.17C150.335 182.311 150.447 181.453 150.559 180.596C150.198 181.121 149.672 181.432 149.195 181.802C148.345 182.472 147.639 183.334 147.126 184.33C146.892 184.743 146.739 185.204 146.676 185.684C146.551 186.996 147.554 187.649 148.452 187.047C149.702 186.206 150.021 184.726 150.224 183.17Z" fill="#F2961D"/>
  <path d="M149.547 182.941C149.135 183.764 145.853 186.018 147.265 187.264C148.855 188.664 149.199 183.632 149.547 182.941Z" fill="#EFD01B"/>
  <path d="M109.3 184.519C109.157 182.976 109.293 181.421 109.515 179.9C109.61 180.439 110.03 180.795 110.418 181.106C112.086 182.449 113.73 184.072 114.476 186.301C114.726 187.047 114.866 187.867 114.759 188.65C114.498 190.539 112.881 191.281 111.694 190.003C110.31 188.508 109.505 186.737 109.3 184.519Z" fill="#EA5B28"/>
  <path d="M110.764 186.431C110.702 185.568 110.639 184.704 110.576 183.84C110.907 184.388 111.415 184.735 111.869 185.136C112.679 185.862 113.334 186.77 113.789 187.799C113.999 188.226 114.125 188.696 114.16 189.18C114.209 190.499 113.172 191.082 112.307 190.419C111.111 189.498 110.877 187.999 110.764 186.431Z" fill="#F2961D"/>
  <path d="M111.45 186.25C111.816 187.098 114.96 189.57 113.479 190.718C111.817 192.008 111.759 186.963 111.45 186.25Z" fill="#EFD01B"/>
  <path d="M103.711 183.407C103.578 181.861 103.723 180.307 103.953 178.789C104.045 179.329 104.468 179.689 104.849 180.002C106.509 181.357 108.145 182.99 108.875 185.225C109.12 185.972 109.256 186.792 109.143 187.575C108.871 189.463 107.25 190.192 106.071 188.905C104.696 187.399 103.902 185.626 103.711 183.407Z" fill="#EA5B28"/>
  <path d="M105.166 185.329C105.109 184.466 105.051 183.601 104.994 182.737C105.322 183.287 105.828 183.632 106.279 184.041C107.085 184.773 107.734 185.686 108.183 186.718C108.373 187.151 108.531 187.613 108.546 188.102C108.587 189.421 107.546 189.997 106.692 189.333C105.49 188.399 105.269 186.898 105.166 185.329Z" fill="#F2961D"/>
  <path d="M105.852 185.152C106.212 186.004 109.341 188.498 107.853 189.635C106.18 190.914 106.155 185.867 105.852 185.152Z" fill="#EFD01B"/>
  <path d="M97.2113 181.357C96.9806 179.825 97.027 178.264 97.1609 176.731C97.2865 177.264 97.7294 177.591 98.1311 177.875C99.8738 179.105 101.607 180.61 102.479 182.785C102.771 183.512 102.958 184.316 102.891 185.105C102.74 187.008 101.169 187.858 99.9099 186.663C98.4473 185.273 97.544 183.559 97.2113 181.357Z" fill="#EA5B28"/>
  <path d="M98.7812 183.17C98.6699 182.311 98.5583 181.453 98.4464 180.596C98.8069 181.121 99.3332 181.432 99.8091 181.802C100.66 182.472 101.366 183.334 101.878 184.33C102.112 184.743 102.266 185.204 102.329 185.684C102.453 186.996 101.451 187.649 100.553 187.047C99.3044 186.206 98.9872 184.726 98.7812 183.17Z" fill="#F2961D"/>
  <path d="M99.4583 182.941C99.8703 183.764 103.152 186.018 101.739 187.264C100.15 188.664 99.8096 183.632 99.4583 182.941Z" fill="#EFD01B"/>
  <path d="M115.879 184.801C116.108 183.269 116.637 181.809 117.249 180.407C117.218 180.955 117.582 181.425 117.918 181.838C119.373 183.628 120.732 185.675 120.98 188.045C121.063 188.838 121.012 189.666 120.703 190.395C119.958 192.14 118.043 192.38 117.088 190.797C115.982 188.947 115.553 187.001 115.879 184.801Z" fill="#EA5B28"/>
  <path d="M116.977 187.077C117.123 186.226 117.27 185.374 117.417 184.521C117.635 185.147 118.094 185.631 118.48 186.153C119.158 187.069 119.636 188.14 119.878 189.286C119.981 189.76 120.035 190.256 119.935 190.729C119.661 192.016 118.407 192.272 117.647 191.38C116.591 190.139 116.711 188.624 116.977 187.077Z" fill="#F2961D"/>
  <path d="M117.759 187.105C117.941 188.032 120.697 191.344 118.827 192.014C116.725 192.77 117.913 187.884 117.759 187.105Z" fill="#EFD01B"/>
  <path d="M19.2253 103.79C20.5648 102.88 21.5046 102.378 21.5897 102.331C21.809 102.215 22.0655 102.191 22.3028 102.264C22.4203 102.3 22.5295 102.359 22.6242 102.437C22.7189 102.515 22.7972 102.611 22.8547 102.72C22.9123 102.829 22.9478 102.948 22.9594 103.07C22.971 103.192 22.9583 103.316 22.9222 103.433C22.8861 103.551 22.8272 103.66 22.7488 103.755C22.6705 103.849 22.5743 103.928 22.4657 103.985C19.6488 105.584 17.0933 107.605 14.8879 109.977C10.5632 114.757 9.6659 119.604 12.2088 124.384C13.4293 126.676 15.1855 128.181 17.3925 128.858C22.4444 130.393 28.4148 127.246 28.4743 127.212C28.6415 127.123 28.8318 127.086 29.0201 127.107C29.2084 127.129 29.3859 127.207 29.5289 127.331L33.8791 131.111C34.0531 131.277 34.1565 131.504 34.1679 131.744C34.1792 131.984 34.0976 132.22 33.9401 132.401C33.7825 132.583 33.561 132.697 33.3216 132.72C33.0822 132.742 32.8433 132.672 32.6544 132.523L28.772 129.151C27.0242 129.972 21.7215 132.128 16.8652 130.648C14.1479 129.823 12.0302 128.011 10.5674 125.26C7.65026 119.779 8.67509 114.051 13.5441 108.676C15.2416 106.832 17.1482 105.192 19.2253 103.79Z" fill="#79302A"/>
</svg>
