<svg width="89" height="28" viewBox="0 0 89 28" fill="none" xmlns="http://www.w3.org/2000/svg">
  <path fill-rule="evenodd" clip-rule="evenodd" d="M22.371 0.468628H43.4664V27.4124H22.371V0.468628Z" fill="#2760A4"/>
  <path fill-rule="evenodd" clip-rule="evenodd" d="M44.7354 0.468628H65.8307V27.4124H44.7354V0.468628Z" fill="#2760A4"/>
  <path fill-rule="evenodd" clip-rule="evenodd" d="M-0.000488281 0.469666H21.1384V27.4134H-0.000488281V0.469666Z" fill="#2760A4"/>
  <path fill-rule="evenodd" clip-rule="evenodd" d="M67.0616 0.468628H88.2005V27.4124H67.0616V0.468628Z" fill="#2760A4"/>
  <path fill-rule="evenodd" clip-rule="evenodd" d="M10.5365 22.7478L10.7684 22.7699L11.1597 22.7846L11.4713 22.7699L11.7684 22.7404L12.051 22.6962L12.3192 22.6299L12.5873 22.5488L12.8409 22.4383L13.0801 22.313L13.3192 22.173L13.5511 22.0108L13.7685 21.8339L13.9714 21.6423L14.1743 21.4212L14.3628 21.1928L14.5367 20.9348L14.6961 20.6769L14.8555 20.3747L15.0005 20.0726L15.1382 19.7557L15.2759 19.4388L15.3991 19.1145L15.5078 18.7902L15.602 18.4512L15.6962 18.1122L15.7759 17.7585L15.8411 17.4047L15.9063 17.0362L15.9571 16.6678L16.0005 16.2845L16.044 15.8866L16.0585 15.4886L16.0875 15.0906V14.6779L16.073 14.1989L16.0585 13.7199L16.0295 13.2556L16.0005 12.7913L15.9498 12.3417L15.8991 11.9069L15.8339 11.4573L15.7542 11.0373L15.6744 10.6025L15.5657 10.1897L15.457 9.76967L15.3338 9.3717L15.1961 8.95899L15.0585 8.56104L14.9135 8.1778L14.7541 7.79458L14.5802 7.4261L14.3918 7.0871L14.1888 6.77018L13.9714 6.46804L13.7468 6.19534L13.5076 5.95215L13.2395 5.73107L12.9714 5.52471L12.6888 5.34783L12.3771 5.20044L12.0655 5.06042L11.7322 4.94985L11.3988 4.8688L11.0365 4.8172L10.6741 4.77299H10.5437V3.26956H10.5509L10.8843 3.25482L11.3843 3.26956L11.8554 3.31378L12.3264 3.36537L12.783 3.4317L13.225 3.54224L13.6526 3.66753L14.0656 3.80755L14.4715 3.98443L14.8628 4.17604L15.2396 4.38239L15.602 4.6035L15.9498 4.84669L16.2687 5.11936L16.5948 5.4068L16.8919 5.70896L17.189 6.04058L17.4571 6.37958L17.7108 6.73334L17.9499 7.10183L18.1746 7.48504L18.3775 7.88302L18.5659 8.3031L18.7398 8.72318L18.8848 9.17272L19.0297 9.63702L19.1529 10.1013L19.2471 10.5951L19.3268 11.1036L19.392 11.6195L19.4428 12.1501L19.4717 12.6955V13.2556L19.4573 13.8157L19.4283 14.3905L19.3775 14.9359L19.3123 15.4812L19.2036 16.0266L19.0949 16.5425L18.95 17.0731L18.7906 17.589L18.6166 18.0827L18.4137 18.5765L18.1963 19.0408L17.9572 19.4904L17.718 19.9252L17.4499 20.3379L17.1528 20.7506L16.8557 21.1338L16.5368 21.4876L16.2034 21.8266L15.8411 22.1508L15.4788 22.453L15.0874 22.7257L14.6816 22.9836L14.2758 23.2194L13.8337 23.4405L13.3917 23.6469L12.9496 23.809L12.4786 23.9491L12.0076 24.0743L11.522 24.1554L11.022 24.2217L10.5292 24.2586V22.7478H10.5365ZM4.9999 12.9681V13.4472L5.0289 13.8967L5.05788 14.3463L5.10137 14.7811L5.15209 15.2306L5.20282 15.6655L5.28254 16.0855L5.36224 16.5056L5.47095 16.9257L5.57965 17.3384L5.70284 17.7511L5.84053 18.1638L5.98547 18.5618L6.13041 18.9597L6.30433 19.343L6.47825 19.7262L6.68116 20.0947L6.88407 20.4484L7.10148 20.7653L7.33337 21.0675L7.58701 21.3402L7.84066 21.5834L8.10878 21.8192L8.4059 22.0255L8.70301 22.2024L9.01463 22.3498L9.34798 22.4898L9.68134 22.6004L10.0292 22.6815L10.406 22.733L10.5437 22.7478V24.2733H10.5365L10.0147 24.2881L9.69583 24.2733L9.37697 24.2586L9.06535 24.2291L8.75375 24.1996L8.45663 24.148L8.14502 24.0964L7.86239 24.0301L7.56527 23.9491L7.29715 23.868L7.01452 23.7574L6.74638 23.6469L6.47825 23.5216L6.22461 23.3963L5.97098 23.2563L5.73184 23.0942L5.49269 22.932L5.25355 22.7699L5.02165 22.593L4.79699 22.4014L4.5796 22.2098L4.37669 22.0034L4.17377 21.7824L3.98536 21.5613L3.79694 21.3254L3.62302 21.0896L3.44909 20.8464L3.28967 20.5884L3.13024 20.3305L2.9853 20.0578L2.85486 19.7851L2.71717 19.4977L2.59397 19.2103L2.47078 18.9081L2.34759 18.606L2.25337 18.2891L2.15916 17.9722L2.06496 17.6553L1.98525 17.331L1.92002 17.0068L1.8548 16.6825L1.78958 16.3435L1.7461 16.0045L1.70262 15.6655L1.65914 15.3265L1.63015 14.9727L1.61565 14.6042L1.60117 14.2505L1.58667 13.882V13.8672L1.60117 13.484L1.61565 13.1008L1.63015 12.7323L1.67363 12.3638L1.71711 11.9953L1.7606 11.6269L1.82582 11.2731L1.89103 10.9341L1.95625 10.5951L2.05046 10.2561L2.14468 9.9318L2.23888 9.60753L2.36207 9.28326L2.48528 8.96637L2.60847 8.66421L2.7534 8.34731L2.89834 8.05988L3.04327 7.77248L3.2027 7.48504L3.37663 7.21237L3.55054 6.95442L3.73897 6.6965L3.92738 6.45329L4.13029 6.21745L4.3332 5.98899L4.5651 5.76791L4.78251 5.56155L5.0144 5.3552L5.25355 5.14885L5.49269 4.97198L5.74633 4.78036L6.01446 4.61823L6.26809 4.45609L6.55073 4.30869L6.81885 4.16866L7.10148 4.02865L7.3986 3.90336L7.69571 3.79281L7.99283 3.69701L8.28995 3.61594L8.60156 3.53488L8.91318 3.46855L9.23204 3.41696L9.5509 3.37274L9.88424 3.32852L10.2176 3.29904L10.5437 3.28431V4.78774H10.2828H10.0147L9.77555 4.80247L9.52191 4.8172L9.29001 4.86142L9.05087 4.90564L8.83346 4.94985L8.61606 5.00145L8.39865 5.06777L8.19574 5.14885L8.00733 5.22991L7.81892 5.31099L7.63049 5.42153L7.45658 5.53207L7.29715 5.65736L7.1522 5.78264L6.99277 5.92266L6.72464 6.21009L6.45652 6.52699L6.22461 6.85126L6.0217 7.20501L5.83329 7.58823L5.67386 7.9862L5.52893 8.39891L5.42022 8.83372L5.31152 9.29802L5.23181 9.76231L5.16659 10.2561L5.11585 10.772L5.06513 11.3026L5.03614 11.8479L5.00716 12.408V12.9976V12.9681H4.9999Z" fill="#FDFDFD"/>
  <path fill-rule="evenodd" clip-rule="evenodd" d="M26.0009 23.2189L26.0298 23.1378V23.042L26.0443 22.8504V22.644V22.4524L26.124 21.5902L26.2038 20.7426L26.269 19.8804L26.3125 19.0034V17.3526H27.385L27.5734 20.0941L27.6386 20.271L27.6894 20.411L27.7401 20.551L27.8053 20.6616L27.8488 20.7574L27.8995 20.8532L28.0082 20.9932L28.1169 21.1185L28.2401 21.229L28.3778 21.3396L28.443 21.3912L28.5227 21.4575L28.9358 21.7302L29.3489 21.966L29.5663 22.0913L29.7837 22.1871L30.0156 22.2829L30.2547 22.3787L30.4866 22.445L30.7403 22.5261L30.9939 22.5777L31.262 22.6293L31.5446 22.6735L31.8418 22.703L32.1534 22.7177L32.465 22.7325L32.7621 22.7177L33.0592 22.703L33.3708 22.6588L33.668 22.6072L33.9651 22.5409L34.2622 22.4598L34.5593 22.364L34.8419 22.2534L35.1101 22.1282L35.3782 21.9807L35.6173 21.8186L35.8492 21.6417L36.0521 21.4501L36.2261 21.229L36.3855 21.0006L36.5232 20.7426L36.6609 20.5215L36.7841 20.2636L36.8928 20.0057L36.9725 19.733L37.0377 19.4603L37.0812 19.1729L37.1247 18.9002V18.6128L37.1102 18.2885L37.0667 17.9642L36.987 17.6473L36.9363 17.4852L36.8855 17.3378L36.8203 17.1904L36.7406 17.0504L36.6609 16.9104L36.5667 16.7703L36.458 16.6451L36.3493 16.5345L36.2261 16.424L36.0884 16.3281L36.0232 16.2766L35.9579 16.225L35.8637 16.1734L35.7695 16.1218L35.5521 16.0113L35.313 15.9007L35.0448 15.7902L34.7622 15.6796L34.4506 15.5691L34.1535 15.4733L33.5375 15.2817L33.2404 15.2006L32.9433 15.1343L32.6751 15.0679L32.436 15.0163L32.2186 14.9721L32.1244 14.9427L32.0302 14.9279L31.6534 14.8468L31.3055 14.7658L30.9722 14.6847L30.6605 14.6036L30.3634 14.5226L30.0808 14.4415L29.8127 14.3604L29.5445 14.2646L29.3054 14.1688L29.0807 14.073L28.8561 13.9772L28.6387 13.8814L28.2256 13.6603L27.8343 13.4171L27.6966 13.336L27.5589 13.2108L27.4212 13.0707L27.2763 12.9233L27.1386 12.7317L26.9937 12.5254L26.8487 12.3043L26.711 12.0684L26.5878 11.8252L26.4646 11.5673L26.3559 11.2946L26.2617 11.022L26.182 10.7345L26.1313 10.4324L26.0878 10.145L26.0733 9.84279L26.0878 9.66592V9.4743L26.1023 9.28268L26.1313 9.0616L26.1458 8.84051L26.1893 8.61941L26.2327 8.38357L26.2835 8.15511L26.3342 7.9193L26.3994 7.69081L26.4791 7.455L26.5588 7.21916L26.6531 6.99808L26.7763 6.79171L26.8994 6.58535L27.0371 6.39376L27.24 6.06949L27.4575 5.75259L27.7111 5.45043L27.8488 5.3104L27.9865 5.163L28.1314 5.02297L28.3053 4.88295L28.4648 4.74292L28.6532 4.60291L28.8561 4.46289L29.0735 4.33759L29.3054 4.19757L29.5445 4.07228L30.0011 3.88067L30.4721 3.73328L30.9432 3.58588L31.4287 3.47533L31.9287 3.39427L32.436 3.32794L32.9578 3.28372L33.494 3.26898L33.8201 3.28372L34.1535 3.29846L34.5158 3.34267L34.8782 3.39427L35.2695 3.44586L35.6463 3.51218L36.0377 3.59325L36.4145 3.68905L36.7913 3.78486L37.1537 3.8954L37.5015 4.00596L37.8204 4.13124L38.1175 4.25654L38.3856 4.39654L38.5233 4.44813L38.632 4.51446L38.7407 4.58078L38.8349 4.64713L38.5161 6.917L38.3929 9.43008L37.3566 9.44482L37.2116 7.76452L37.1971 7.74978V7.7203L37.1682 7.62449L37.1247 7.51395L37.0739 7.37392L37.0305 7.22654L36.9653 7.0644L36.8276 6.74749L36.7478 6.60746L36.6681 6.46746L36.5594 6.34216L36.4507 6.23162L36.3565 6.12108L36.2768 6.02527L36.2116 5.95894L36.1826 5.91473L36.1681 5.89997L36.0087 5.75259L35.871 5.61256L35.726 5.48727L35.5811 5.39146L35.4217 5.28092L35.2478 5.18511L35.1391 5.13351L35.0159 5.0893L34.8927 5.03773L34.755 4.9714L34.5158 4.89032L34.2767 4.80927L34.0375 4.75767L33.8056 4.71346L33.581 4.66924L33.3636 4.63975L33.1607 4.62502H32.9723H32.7839L32.5809 4.65449L32.3635 4.66924L32.1606 4.71346L31.9432 4.75767L31.7258 4.80927L31.5084 4.87559L31.3055 4.94192L31.1026 5.02297L30.8997 5.11878L30.7113 5.21459L30.5373 5.3104L30.3634 5.42094L30.2185 5.54624L30.0735 5.67151L29.9504 5.79681L29.8272 5.94419L29.7185 6.09159L29.6098 6.25373L29.5155 6.41586L29.4358 6.578L29.3561 6.75487L29.2184 7.09387L29.1097 7.43289L29.0807 7.59503L29.0373 7.74241L29.0083 7.88981L28.9938 8.03719L28.9793 8.17722V8.30252V8.39833L28.9938 8.5236L29.0083 8.64889L29.0373 8.78892L29.0807 8.9363L29.1242 9.08371L29.2184 9.38587L29.2836 9.548L29.3634 9.69538L29.4431 9.83541L29.5228 9.98281L29.6315 10.1081L29.7402 10.2334L29.8634 10.3439L29.9866 10.4397L30.2112 10.5871L30.4649 10.7272L30.7475 10.8672L31.0591 10.9925L31.3925 11.1178L31.7403 11.2283L32.1171 11.3388L32.523 11.4494L33.3274 11.6557L34.1173 11.8474L34.8709 12.039L35.6101 12.2453L35.9724 12.3411L36.3058 12.4517L36.6391 12.577L36.9507 12.717L37.2624 12.8644L37.545 13.0265L37.8131 13.2034L38.0812 13.3803L38.2552 13.4908L38.4291 13.6308L38.603 13.7782L38.7769 13.9404L38.9364 14.132L39.0813 14.3531L39.2262 14.5742L39.3639 14.8174L39.4871 15.0606L39.6103 15.3333L39.7045 15.6059L39.7842 15.8933L39.8495 16.1808L39.9002 16.4829L39.9292 16.7998L39.9437 17.102V17.2789L39.9292 17.4557L39.9002 17.6621L39.8712 17.8832L39.8422 18.1043L39.7915 18.3475L39.748 18.5907L39.6828 18.8339L39.6176 19.0918L39.5379 19.3497L39.4581 19.593L39.3639 19.8509L39.2552 20.0941L39.1465 20.3373L39.0233 20.5658L38.8856 20.7869L38.7624 20.9785L38.6393 21.1553L38.5016 21.3322L38.3639 21.5091L38.2189 21.6712L38.0595 21.8333L37.9001 21.9955L37.7262 22.1429L37.5522 22.305L37.3638 22.445L37.1609 22.5924L36.958 22.7325L36.5449 22.9904L36.0884 23.2262L35.6029 23.4326L35.0956 23.6242L34.5593 23.7863L34.0086 23.9263L33.7114 23.9779L33.4143 24.0295L33.1172 24.0738L32.8056 24.118L32.494 24.1475L32.1751 24.1622L31.8563 24.1769H31.5374H31.2548L30.9722 24.1622L30.675 24.1475L30.3634 24.118L30.0518 24.0885L29.7402 24.0443L29.4068 23.9927L29.0735 23.9411L28.7256 23.8748L28.3778 23.8085L28.001 23.7274L27.6241 23.6316L27.2328 23.5358L26.8415 23.4252L26.4284 23.2999L26.0009 23.1746V23.2189Z" fill="#FDFDFD"/>
  <path fill-rule="evenodd" clip-rule="evenodd" d="M62.7282 21.0741L62.0325 22.6439L61.6702 22.8355L61.3078 23.0271L60.931 23.1892L60.5542 23.3514L60.1773 23.4988L59.8005 23.6388L59.4381 23.7641L59.0758 23.8746L58.7135 23.9557L58.3511 24.0368L57.9743 24.1031L57.5975 24.1473L57.2206 24.1915L56.8438 24.221L56.467 24.2358L56.1046 24.2505L55.7713 24.2358L55.4379 24.221L55.1191 24.1915L54.7857 24.1473L54.4669 24.0957L54.148 24.0294L53.8364 23.9631L53.5248 23.882L53.2132 23.7862L52.9016 23.6756L52.6044 23.5651L52.3073 23.4398L52.0102 23.2998L51.7276 23.1598L51.4449 23.0124L51.1768 22.8502L50.9449 22.7029L50.7275 22.5407L50.5101 22.3786L50.3072 22.187L50.1043 21.9953L49.9159 21.8037L49.7275 21.5826L49.5535 21.3616L49.3796 21.1405L49.2057 20.8973L49.0463 20.6541L48.9013 20.3961L48.7564 20.1382L48.6114 19.8655L48.4738 19.5781L48.3506 19.2759L48.1114 18.6716L47.9085 18.0599L47.7346 17.4482L47.5969 16.8071L47.4882 16.1659L47.4085 15.51L47.3578 14.8541L47.3433 14.1834L47.3578 13.7855L47.3723 13.4022L47.4012 13.0337L47.452 12.68L47.5027 12.3263L47.5679 11.9725L47.6476 11.6335L47.7418 11.2798L47.865 10.9407L47.9882 10.6017L48.1259 10.2627L48.2709 9.92371L48.4303 9.58471L48.6042 9.23097L48.8071 8.87722L49.01 8.52346L49.1985 8.19919L49.4014 7.89703L49.6188 7.60962L49.8362 7.33695L50.0681 7.079L50.3 6.83581L50.5174 6.60733L50.7493 6.38624L50.9667 6.17989L51.1841 5.98827L51.4015 5.82614L51.5899 5.664L51.7638 5.524L51.9377 5.3987L52.0827 5.30289L52.2059 5.20708L52.445 5.0597L52.6697 4.91229L52.8871 4.77227L53.0755 4.66173L53.2639 4.55118L53.4378 4.45537L53.6117 4.3743L53.7712 4.29324L54.09 4.15321L54.4089 4.02793L54.7567 3.90264L54.9452 3.85105L55.1481 3.78473L55.2858 3.74051L55.4234 3.71102L55.7206 3.62997L56.0539 3.5489L56.3873 3.46783L56.7351 3.4015L57.0685 3.34991L57.4018 3.3057H57.5612L57.7062 3.29095L58.0685 3.3057L58.4164 3.32043L58.7642 3.36466L59.1121 3.40887L59.4599 3.46046L59.7933 3.51205L60.1121 3.59312L60.431 3.67418L60.7498 3.76998L61.0614 3.86579L61.3586 3.97633L61.6557 4.08689L61.9383 4.21216L62.2064 4.33746L62.4746 4.46275L62.7282 4.60278L62.3514 6.77684L62.1629 10.0785H61.2064L61.1122 9.00987L61.018 8.47925L60.9672 8.2213L60.9165 7.96338L60.8513 7.72754L60.7861 7.50643L60.7426 7.41065L60.6991 7.32957L60.6484 7.24851L60.6049 7.18219L60.5542 7.10111L60.4745 7.0053L60.3947 6.90949L60.3005 6.82843L60.1918 6.73262L60.0686 6.62208L59.9382 6.52627L59.7933 6.43046L59.6483 6.33465L59.4744 6.23884L59.315 6.14305L59.1265 6.06197L58.7497 5.89984L58.3439 5.75246L58.1845 5.70086L58.0395 5.65665L57.7569 5.59032L57.5033 5.524L57.2641 5.47976L57.025 5.45029L56.7569 5.42081L56.6119 5.40608H56.467H56.3076H56.1336L55.6771 5.42081L55.235 5.46503L55.0176 5.50924L54.8002 5.55346L54.5828 5.60505L54.3799 5.67138L54.1625 5.7377L53.9596 5.81878L53.7712 5.89984L53.5683 5.99565L53.3798 6.10619L53.1914 6.21673L53.0175 6.32729L52.8291 6.46732L52.6697 6.60733L52.5102 6.75473L52.3508 6.91686L52.1914 7.079L52.0537 7.25587L51.9087 7.44749L51.7855 7.63911L51.6624 7.84546L51.5392 8.05181L51.4305 8.25816L51.3362 8.47925L51.242 8.70035L51.1623 8.9067L51.0826 9.12779L51.0319 9.34887L50.9667 9.56998L50.9159 9.88687L50.8507 10.2038L50.8072 10.5428L50.7637 10.8965L50.7203 11.265L50.6913 11.6482L50.6768 12.061V12.481L50.6913 13.0927L50.7348 13.7044L50.8145 14.3161L50.9232 14.9057L51.0464 15.4953L51.2058 16.0848L51.3652 16.6597L51.5682 17.2198L51.7855 17.7504L52.0174 18.2663L52.2711 18.76L52.4088 18.9959L52.5537 19.2243L52.6986 19.4454L52.8436 19.6518L53.003 19.8581L53.1625 20.0497L53.3364 20.2413L53.5103 20.4182L53.6987 20.5951L53.8871 20.7572L54.1118 20.9194L54.3292 21.0668L54.5538 21.2142L54.7857 21.3542L55.0104 21.4795L55.2495 21.59L55.4742 21.6858L55.7061 21.7816L56.1916 21.929L56.4452 21.9953L56.6989 22.0469L56.967 22.0985L57.2351 22.128L57.5323 22.1575L57.8294 22.1722L58.1265 22.1575L58.4236 22.1427L58.7062 22.1133L58.9889 22.0617L59.257 22.0101L59.5106 21.9438L59.7787 21.8774L60.0324 21.7816L60.286 21.6858L60.5397 21.5753L61.0614 21.3394L61.5977 21.0815L61.8803 20.9341L62.1774 20.7867L62.7282 21.0741Z" fill="#FDFDFD"/>
  <path fill-rule="evenodd" clip-rule="evenodd" d="M77.7295 12.039H77.8455H78.7151H79.1282H79.5412H79.9471H80.3384H80.7007H81.0486H81.3674H81.6501H81.9182H82.0269H82.1356H82.2443H82.324H82.4037H82.4689H82.5342H82.5777H82.6066H82.6356V10.6019V10.4102L82.6211 10.2039L82.5921 9.98281L82.5631 9.74698L82.4834 9.29743L82.3747 8.83314L82.2371 8.36884L82.0921 7.93403L82.0124 7.71292L81.9327 7.50657L81.8385 7.31497L81.7588 7.12335L81.679 6.96122L81.5993 6.79908L81.4254 6.49692L81.2225 6.22424L80.9906 5.98105L80.7587 5.75995L80.5051 5.55359L80.2514 5.37673L79.9833 5.22932L79.7152 5.10405L79.447 4.97876L79.1789 4.8977L78.9108 4.81662L78.6716 4.76503L78.4325 4.72081L78.2078 4.70608L78.0049 4.69135L77.7368 4.70608H77.7295V3.30583L78.0049 3.28372L78.447 3.26898H78.7296L78.9977 3.28372L79.2514 3.29846L79.505 3.32794L79.9905 3.37952L80.4616 3.47533L80.9036 3.60062L81.3457 3.74801L81.7732 3.93963L81.9907 4.05017L82.2081 4.16073L82.4327 4.286L82.6356 4.41129L82.8385 4.55132L83.027 4.69135L83.2009 4.83137L83.3748 4.97876L83.5342 5.14089L83.6936 5.28829L83.8531 5.46516L83.998 5.6273L84.1357 5.81892L84.2661 6.01051L84.4038 6.20213L84.5415 6.40849L84.6647 6.62959L84.7879 6.85805L84.9908 7.3076L85.1937 7.75716L85.3822 8.19197L85.5561 8.62678L85.6213 8.83314L85.6865 9.03949L85.7517 9.23111L85.8025 9.42271L85.8459 9.61433L85.8749 9.79119L85.8894 9.95333L85.9039 10.1007L85.9836 10.7935L86.0126 13.0044L82.2008 13.594L77.7368 13.5866V12.039H77.7295ZM77.7295 24.3243V21.8407L78.0339 21.9292L78.4107 22.0102L78.7586 22.0618L79.0919 22.106L79.4036 22.1355H79.5412L79.6789 22.1503H79.8021H79.9253L80.2442 22.1355L80.563 22.106L80.8819 22.0618L81.2153 21.9955L81.5486 21.9144L81.8675 21.8186L82.2008 21.7081L82.5342 21.5828L82.853 21.4354L83.1719 21.288L83.4907 21.1259L83.8024 20.9637L84.0995 20.7721L84.3966 20.5805L84.6937 20.3741L84.9618 20.1678L85.4836 20.6026L84.8241 22.106L84.6865 22.2313L84.5415 22.3419L84.3821 22.4524L84.2227 22.563L84.0342 22.6882L83.8313 22.8135L83.6284 22.9241L83.4038 23.0494L82.9472 23.2852L82.4472 23.5063L81.9399 23.7126L81.4182 23.8748L81.179 23.9558L80.9254 24.0074L80.4181 24.118L79.8963 24.199L79.3963 24.2506L79.1572 24.2801L78.9253 24.2948L78.7079 24.3243H78.4905L78.302 24.3391H78.1281L77.9687 24.3538H77.831L77.7295 24.3243ZM72.8235 12.039L72.8669 12.0537H72.9104H72.9757H73.0409H73.1206H73.2148H73.309H73.4177H73.6569L73.9395 12.039H74.2511H74.5844H74.9468H75.3236H75.7149H76.128H76.5411H76.9686H77.7295V13.6014L72.8597 13.594V13.933L72.8742 14.272L72.9032 14.5963L72.9467 14.9353L72.9901 15.2669L73.0409 15.5912L73.0916 15.9081L73.1713 16.225L73.2365 16.5419L73.3307 16.8588L73.425 17.1609L73.5192 17.4631L73.7366 18.0379L73.8598 18.3254L73.9829 18.598L74.1206 18.8412L74.2583 19.0992L74.4033 19.3424L74.5627 19.5709L74.7221 19.7993L74.896 20.0204L75.0845 20.2267L75.2874 20.4331L75.4903 20.6247L75.7077 20.8016L75.9396 20.9785L76.1787 21.1406L76.4324 21.288L76.7005 21.428L76.9831 21.568L77.2657 21.6933L77.6716 21.8186L77.744 21.8407V24.3243L77.5484 24.317L77.2367 24.3022L76.9397 24.258L76.657 24.2138L76.3889 24.1622L76.1063 24.0959L75.8526 24.0148L75.5845 23.9337L75.3309 23.8379L75.0772 23.7274L74.5699 23.4989L74.0627 23.2557L73.5409 22.983L73.2728 22.8356L73.0191 22.6588L72.78 22.4672L72.5408 22.246L72.3017 22.025L72.0698 21.7818L71.8452 21.5238L71.6277 21.2512L71.4248 20.9785L71.2364 20.691L71.048 20.4036L70.8741 20.1015L70.7002 19.7993L70.5552 19.4971L70.4175 19.2097L70.2798 18.9076L70.1566 18.6496L70.0479 18.3622L69.9392 18.06L69.845 17.7579L69.7653 17.4336L69.6856 17.1093L69.6059 16.7851L69.5407 16.4461L69.432 15.746L69.3523 15.0458L69.3233 14.7068L69.3088 14.3678L69.2943 14.0288L69.2798 13.6898L69.2943 13.2108L69.3377 12.7317L69.3885 12.2674L69.4537 11.8179L69.5479 11.3831L69.6421 10.9482L69.8595 10.0712L69.9827 9.63644L70.1276 9.22373L70.2871 8.82576L70.4755 8.45727L70.6639 8.08879L70.8813 7.73505L71.1132 7.41078L71.3379 7.07914L71.6567 6.66643L71.9901 6.28321L72.3524 5.91473L72.7293 5.56097L73.1423 5.22197L73.5699 4.8977L74.0409 4.59554L74.2801 4.44813L74.5192 4.30811L74.7728 4.16808L75.041 4.05754L75.2946 3.93225L75.5483 3.83645L75.8019 3.74064L76.0555 3.65958L76.3092 3.59325L76.5628 3.52692L76.802 3.47533L77.0411 3.42374L77.2947 3.39427L77.5194 3.35005L77.715 3.33531V4.73556L77.4687 4.7503L77.2005 4.79451L76.9614 4.84611L76.7077 4.8977L76.4686 4.97876L76.2295 5.07457L75.9976 5.17038L75.7657 5.29565L75.5483 5.42094L75.3309 5.56097L75.128 5.72311L74.925 5.88524L74.7366 6.06211L74.5482 6.25373L74.3743 6.44535L74.2148 6.66643L74.0554 6.88751L73.9105 7.12335L73.7656 7.36657L73.6279 7.62449L73.5047 7.88243L73.3815 8.15511L73.2873 8.44254L73.193 8.72995L73.1133 9.04687L73.0336 9.349L72.9829 9.67327L72.9322 10.0049L72.8887 10.3439L72.8597 10.6829L72.8452 11.0367L72.8235 12.039Z" fill="#FDFDFD"/>
</svg>
