<svg width="25" height="24" viewBox="0 0 25 24" fill="none" xmlns="http://www.w3.org/2000/svg">
  <path d="M2.45898 3.59838C2.45898 2.93594 3.00965 2.39893 3.68892 2.39893H6.33682C6.93806 2.39893 7.45118 2.82283 7.55003 3.40119L8.45933 8.72182C8.5481 9.24123 8.27912 9.75635 7.79618 9.99184L5.89206 10.9203C7.26504 14.2475 9.98827 16.9033 13.4001 18.2422L14.3521 16.3853C14.5936 15.9143 15.1218 15.652 15.6544 15.7386L21.1103 16.6253C21.7033 16.7217 22.138 17.2221 22.138 17.8085V20.3908C22.138 21.0532 21.5873 21.5902 20.9081 21.5902H18.4482C9.61759 21.5902 2.45898 14.609 2.45898 5.99729V3.59838Z" fill="white"/>
</svg>
