<svg width="14" height="13" viewBox="0 0 14 13" fill="none" xmlns="http://www.w3.org/2000/svg">
  <path d="M6.52448 0.46332C6.67416 0.00268829 7.32584 0.00268805 7.47552 0.463319L8.68401 4.18218C8.75095 4.38818 8.94291 4.52765 9.15951 4.52766L13.0698 4.52781C13.5542 4.52782 13.7555 5.1476 13.3637 5.4323L10.2003 7.73084C10.0251 7.85816 9.95174 8.08382 10.0187 8.28982L11.2269 12.0088C11.3765 12.4694 10.8493 12.8525 10.4575 12.5678L7.29388 10.2695C7.11864 10.1422 6.88136 10.1422 6.70612 10.2695L3.54254 12.5678C3.15069 12.8525 2.62348 12.4694 2.77313 12.0088L3.98134 8.28982C4.04826 8.08382 3.97494 7.85816 3.79971 7.73084L0.636303 5.4323C0.244472 5.1476 0.445849 4.52782 0.930191 4.52781L4.84049 4.52766C5.05709 4.52765 5.24905 4.38818 5.31599 4.18218L6.52448 0.46332Z" fill="#FF6600"/>
</svg>
