<svg width="28" height="28" viewBox="0 0 28 28" fill="none" xmlns="http://www.w3.org/2000/svg">
  <path d="M10.1312 15.5656C10.3672 15.0945 10.5 14.5628 10.5 14C10.5 13.4372 10.3672 12.9055 10.1312 12.4344M10.1312 15.5656C9.55656 16.7126 8.37023 17.5 7 17.5C5.067 17.5 3.5 15.933 3.5 14C3.5 12.067 5.067 10.5 7 10.5C8.37023 10.5 9.55656 11.2874 10.1312 12.4344M10.1312 15.5656L17.8688 19.4344M10.1312 12.4344L17.8688 8.56559M17.8688 8.56559C18.4434 9.7126 19.6298 10.5 21 10.5C22.933 10.5 24.5 8.933 24.5 7C24.5 5.067 22.933 3.5 21 3.5C19.067 3.5 17.5 5.067 17.5 7C17.5 7.56276 17.6328 8.09451 17.8688 8.56559ZM17.8688 19.4344C17.6328 19.9055 17.5 20.4372 17.5 21C17.5 22.933 19.067 24.5 21 24.5C22.933 24.5 24.5 22.933 24.5 21C24.5 19.067 22.933 17.5 21 17.5C19.6298 17.5 18.4434 18.2874 17.8688 19.4344Z" stroke="#111827" stroke-width="2" stroke-linecap="round" stroke-linejoin="round"/>
</svg>
