<svg width="34" height="34" viewBox="0 0 34 34" fill="none" xmlns="http://www.w3.org/2000/svg">
  <path fill-rule="evenodd" clip-rule="evenodd" d="M26.7409 11.2389H19.8682V1.96615C19.8682 1.65651 20.1275 1.40186 20.4428 1.40186H21.4721C21.4745 2.92119 22.0894 4.37846 23.1844 5.4544C24.2823 6.52964 25.7662 7.13373 27.3156 7.13373V11.2389H26.741H26.7409ZM27.3155 14.5121C27.3155 18.3794 26.416 21.2613 24.6162 23.1395C22.8171 25.0177 20.0382 25.9544 16.2911 25.9544C12.7887 25.9544 10.1322 25.0177 8.32098 23.1395C6.50988 21.2613 5.60547 18.4302 5.60547 14.6435V1.94074C5.60547 1.64467 5.85023 1.40196 6.15408 1.40196H12.5035C12.805 1.40429 13.0529 1.64467 13.0529 1.94074V14.9214C13.0529 16.4662 13.3447 17.6576 13.9356 18.4948C14.8521 19.6862 16.4914 20.0842 17.8643 19.4498C18.3068 19.2444 18.6959 18.9437 19.0021 18.5711C19.5815 17.7825 19.8684 16.6236 19.8684 15.0876V12.6594H27.3158V14.5121H27.3155Z" fill="#1D4ED8"/>
  <path fill-rule="evenodd" clip-rule="evenodd" d="M22.9395 1.40161H26.7432C27.061 1.40161 27.3178 1.65627 27.3178 1.96591V5.70639C24.9013 5.70639 22.9395 3.78182 22.9395 1.40627V1.40161V1.40161Z" fill="#FF8243"/>
  <path fill-rule="evenodd" clip-rule="evenodd" d="M6.85105 32.1258C7.69226 32.1258 8.09724 31.6652 8.09724 30.9902V29.3643H7.49688V30.9737C7.49688 31.8228 6.20109 31.8228 6.20109 30.9737V29.3643H5.60547V30.9949C5.60547 31.6611 6.01066 32.1258 6.85105 32.1258ZM11.7288 32.075V31.5681H10.3957L11.7004 29.8267V29.3643H9.62574V29.8729H10.9304L9.62574 31.6079V32.075H11.7287H11.7288ZM14.5386 32.1258C15.0214 32.1347 15.4688 31.8785 15.695 31.4574L15.1867 31.2188C15.0619 31.4574 14.8122 31.6102 14.536 31.6126C13.7612 31.5753 13.3894 30.6616 13.9241 30.1085C14.0839 29.9422 14.3057 29.8426 14.536 29.8314C14.8122 29.8362 15.0618 29.9883 15.1867 30.227L15.695 29.9818C15.4689 29.5632 15.0214 29.3062 14.5386 29.3197C13.5002 29.2902 12.7774 30.3265 13.1795 31.268C13.4104 31.8021 13.95 32.1419 14.5386 32.1258ZM19.6754 32.075L18.6107 29.3643H17.8763L16.8067 32.075H17.4777L17.6501 31.6168H18.8367L19.0068 32.075H19.6753H19.6754ZM18.6746 31.108H17.8124L18.2435 29.9422L18.6746 31.108ZM23.6464 32.7571L22.6336 31.0435C23.0055 30.9552 23.26 30.6153 23.2364 30.2406C23.2551 29.7344 22.8223 29.3246 22.3086 29.3666H21.0158V32.0773H21.6044V31.1127H22.0354L22.9707 32.7547L23.644 32.7571H23.6464ZM22.2217 30.6059H21.6068V29.875H22.2217C22.4431 29.8497 22.6385 30.0184 22.6385 30.2405C22.6385 30.4602 22.4431 30.6312 22.2217 30.6059ZM25.8532 32.0772C26.7178 32.0772 27.3182 31.5403 27.3182 30.7243C27.3182 29.9053 26.7178 29.3665 25.8532 29.3665H24.7625V32.0772H25.8532ZM25.8532 31.5679H25.3516V29.875H25.8532C26.3434 29.8378 26.7527 30.2405 26.7178 30.7242C26.7389 31.2004 26.3362 31.5934 25.8508 31.5679H25.8532ZM28.0317 29.3133V29.3196C28.0317 29.7708 27.4781 29.9954 27.1556 29.6785C26.8329 29.3594 27.0616 28.8158 27.5186 28.8158H28.0317V29.3133Z" fill="#1D4ED8"/>
</svg>
