<svg width="40" height="40" viewBox="0 0 40 40" fill="none" xmlns="http://www.w3.org/2000/svg">
  <path d="M29.58 15.05C30 16.65 30 19.99 30 19.99C30 19.99 30 23.33 29.58 24.93C29.36 25.81 28.68 26.51 27.82 26.75C26.26 27.19 20 27.19 20 27.19C20 27.19 13.74 27.19 12.18 26.75C11.32 26.51 10.64 25.81 10.42 24.93C10 23.33 10 19.99 10 19.99C10 19.99 10 16.65 10.42 15.05C10.64 14.17 11.32 13.47 12.18 13.23C13.74 12.81 20 12.81 20 12.81C20 12.81 26.26 12.81 27.82 13.23C28.68 13.47 29.36 14.17 29.58 15.05ZM18.12 23.43L23.12 20.31L18.12 17.19V23.43Z" fill="#1F2937"/>
  <circle cx="20" cy="20" r="19.5" stroke="#1F2937"/>
</svg>
