<svg id="Capa_1" data-name="Capa 1" xmlns="http://www.w3.org/2000/svg" viewBox="0 0 128 128"><defs><style>.cls-1{fill:#f60;}.cls-2{fill:#fff;}</style></defs><path class="cls-1" d="M64,.37A47.52,47.52,0,0,0,16.55,47.85c0,39,42.73,77.08,44.55,78.68a4.37,4.37,0,0,0,5.8,0c1.82-1.6,44.55-39.68,44.55-78.68A47.52,47.52,0,0,0,64,.37Z"/><circle class="cls-2" cx="64" cy="48.03" r="39.2"/><path class="cls-1" d="M84.15,66.19H45.25a1.3,1.3,0,0,0-1.3,1.3v3.78a5.29,5.29,0,0,0,5.29,5.3H80.16a5.3,5.3,0,0,0,5.29-5.29V67.49A1.3,1.3,0,0,0,84.15,66.19Z"/><path class="cls-1" d="M79,24.69a13.48,13.48,0,0,0-2.47.24A15.55,15.55,0,0,0,49.13,35.06a1.3,1.3,0,1,1-2.59,0A17.85,17.85,0,0,1,48.46,27,1.3,1.3,0,0,0,47,25.15a14.23,14.23,0,0,0-3,26.52V62.3a1.28,1.28,0,0,0,.38.92,1.3,1.3,0,0,0,.92.38H84.15a1.3,1.3,0,0,0,1.3-1.3V51.65a14.26,14.26,0,0,0-6.49-27ZM55.14,55.52a1.28,1.28,0,0,1-1.82-.18c-.43-.52-4.19-5.2-4.19-8.6a1.3,1.3,0,1,1,2.6,0c0,1.88,2.2,5.26,3.59,7A1.28,1.28,0,0,1,55.14,55.52Zm10.85-1a1.3,1.3,0,1,1-2.59,0V46.74a1.3,1.3,0,1,1,2.59,0v7.78Zm10.09.82a1.3,1.3,0,0,1-2-1.64c1.39-1.7,3.6-5.09,3.6-7a1.3,1.3,0,1,1,2.59,0C80.26,50.14,76.5,54.82,76.08,55.34Z"/></svg>