<svg id="Capa_1" data-name="Capa 1" xmlns="http://www.w3.org/2000/svg" viewBox="0 0 128 128"><defs><style>.cls-1{fill:#10b981;}.cls-2{fill:#fff;}</style></defs><path class="cls-1" d="M64,.37A47.52,47.52,0,0,0,16.55,47.85c0,39,42.73,77.08,44.55,78.68a4.37,4.37,0,0,0,5.8,0c1.82-1.6,44.55-39.68,44.55-78.68A47.52,47.52,0,0,0,64,.37Z"/><circle class="cls-2" cx="64" cy="48.03" r="39.2"/><path class="cls-1" d="M57.09,67.49a4.19,4.19,0,0,0,4,3.69h5.2a4.18,4.18,0,0,0,4-3.67L72.22,54l3.94-2.44a1.63,1.63,0,0,0,.75-1.6l-1.47-10.3c-.59-3.86-4-7-7.66-7h-.13a8.85,8.85,0,0,1-7.9,0h-.13c-3.64,0-7.07,3.14-7.66,7L50.49,50a1.63,1.63,0,0,0,.75,1.6L55.18,54Z"/><ellipse class="cls-1" cx="63.7" cy="24.68" rx="6.12" ry="6.16"/><path class="cls-1" d="M74,61.32l-.94,6.57a7.12,7.12,0,0,1-2.24,4.28A6.69,6.69,0,0,1,66.3,74H61.1a6.69,6.69,0,0,1-4.53-1.81,7.1,7.1,0,0,1-2.23-4.29l-.92-6.44C47.15,62.68,42.33,65.15,42.33,69c0,5.88,11.23,8.55,21.67,8.55S85.67,74.88,85.67,69C85.67,65,80.54,62.53,74,61.32Z"/></svg>