<svg id="Capa_1" data-name="Capa 1" xmlns="http://www.w3.org/2000/svg" viewBox="0 0 128 128"><defs><style>.cls-1{fill:#0ea5e9;}.cls-2{fill:#fff;}.cls-3{fill:#4b5563;}</style></defs><path class="cls-1" d="M64,.37A47.52,47.52,0,0,0,16.55,47.85c0,39,42.73,77.08,44.55,78.68a4.37,4.37,0,0,0,5.8,0c1.82-1.6,44.55-39.68,44.55-78.68A47.52,47.52,0,0,0,64,.37Z"/><circle class="cls-2" cx="64" cy="48.03" r="39.2"/><path class="cls-3" d="M90.64,39.76l-.12-.14-2.13-2c1.77-.4,3.67-1.89,3.67-3.41,0-1.77-2.46-2.39-4.55-2.39s-2.45,1.5-2.48,2.56L79.53,29a7.71,7.71,0,0,0-4.82-2H53.29a7.74,7.74,0,0,0-4.82,2L43,34.33c0-1.06-.28-2.56-2.47-2.56s-4.56.62-4.56,2.39c0,1.52,1.91,3,3.67,3.41l-2.13,2-.12.14A12,12,0,0,0,33.59,48v7.79a7.08,7.08,0,0,0,1.95,4.89v3a3.26,3.26,0,0,0,3.3,3.2h4a3.25,3.25,0,0,0,3.3-3.2v-.78H81.87v.78a3.25,3.25,0,0,0,3.3,3.2h4a3.26,3.26,0,0,0,3.3-3.2v-3a7.08,7.08,0,0,0,2-4.89V48A11.87,11.87,0,0,0,90.64,39.76ZM50.49,31.38a5.5,5.5,0,0,1,2.8-1.13H74.72a5.57,5.57,0,0,1,2.8,1.13l7.21,7H43.28ZM36.06,46.77a3.42,3.42,0,0,1,3.36-3.48c1.85,0,7.91,3.56,7.91,5.48s-6.06,1.47-7.91,1.47A3.41,3.41,0,0,1,36.06,46.77ZM46.13,59.46H41.06a7.15,7.15,0,0,1-2.32-1.12,3.15,3.15,0,0,1-.63-.64,2.4,2.4,0,0,1-.35-.64,2.9,2.9,0,0,1,.5-2.56h6.47l4.32,5Zm27.18,0H54.69A3.52,3.52,0,0,1,51.18,56H76.82A3.52,3.52,0,0,1,73.31,59.47Zm.82-5.92H53.88c-2.11,0-3.83-2.6-3.83-5.81H78C78,51,76.24,53.55,74.13,53.55Zm16.12,3.52a2.59,2.59,0,0,1-.36.64,3.08,3.08,0,0,1-.62.64A7.15,7.15,0,0,1,87,59.47H79l4.32-5h6.47A2.93,2.93,0,0,1,90.25,57.07Zm-1.67-6.83c-1.85,0-7.91.44-7.91-1.47s6.06-5.48,7.91-5.48a3.48,3.48,0,0,1,0,7Z"/></svg>