<svg xmlns="http://www.w3.org/2000/svg" width="20" height="20" fill="none" viewBox="0 0 20 20">
    <path fill="#374151" d="M10.833 13.333h.75-.75zm0-6.667h-.75.75zm3.578-.59l.53-.53-.53.53zm2.845 2.846l.53-.53-.53.53zM3.333 4.916H10v-1.5H3.333v1.5zm6.75.083v8.334h1.5V4.999h-1.5zM3.25 13.333V4.999h-1.5v8.334h1.5zm.917.083h-.834v1.5h.834v-1.5zm5.833 0H7.5v1.5H10v-1.5zm-8.25-.083c0 .874.709 1.583 1.583 1.583v-1.5c-.046 0-.083-.037-.083-.083h-1.5zm8.333 0c0 .046-.037.083-.083.083v1.5c.874 0 1.583-.709 1.583-1.583h-1.5zM10 4.916c.046 0 .083.037.083.083h1.5c0-.874-.709-1.583-1.583-1.583v1.5zm-6.667-1.5c-.874 0-1.583.709-1.583 1.583h1.5c0-.046.037-.083.083-.083v-1.5zm8.25 9.917V6.666h-1.5v6.667h1.5zm.084-6.75h2.155v-1.5h-2.155v1.5zM16.75 9.51v3.822h1.5V9.51h-1.5zm-2.87-2.904l2.846 2.845 1.06-1.06-2.845-2.846-1.06 1.061zm-1.38 6.809h-.833v1.5h.833v-1.5zm4.167 0h-.834v1.5h.834v-1.5zm1.583-3.905c0-.42-.167-.822-.464-1.12l-1.06 1.061c.015.016.024.037.024.06h1.5zm-4.428-2.928c.022 0 .043.008.058.024l1.061-1.06c-.297-.297-.7-.464-1.12-.464v1.5zm-3.739 6.75c0 .874.71 1.583 1.584 1.583v-1.5c-.046 0-.084-.037-.084-.083h-1.5zm6.667 0c0 .046-.037.083-.083.083v1.5c.874 0 1.583-.709 1.583-1.583h-1.5zm-5.167-6.667c0-.046.038-.083.084-.083v-1.5c-.875 0-1.584.709-1.584 1.583h1.5zm-4.833 7.5c0 .506-.41.917-.917.917v1.5c1.335 0 2.417-1.082 2.417-2.417h-1.5zm-.917.917c-.506 0-.916-.41-.916-.917h-1.5c0 1.335 1.082 2.417 2.416 2.417v-1.5zm-.916-.917c0-.506.41-.917.916-.917v-1.5c-1.334 0-2.416 1.082-2.416 2.417h1.5zm.916-.917c.507 0 .917.41.917.917h1.5c0-1.335-1.082-2.417-2.417-2.417v1.5zm9.25.917c0 .506-.41.917-.916.917v1.5c1.334 0 2.416-1.082 2.416-2.417h-1.5zm-.916.917c-.507 0-.917-.41-.917-.917h-1.5c0 1.335 1.082 2.417 2.417 2.417v-1.5zm-.917-.917c0-.506.41-.917.917-.917v-1.5c-1.335 0-2.417 1.082-2.417 2.417h1.5zm.917-.917c.506 0 .916.41.916.917h1.5c0-1.335-1.082-2.417-2.416-2.417v1.5z"/>
</svg>
